<?xml version="1.0" encoding="UTF-8" standalone="no"?><!DOCTYPE svg PUBLIC "-//W3C//DTD SVG 1.1//EN" "http://www.w3.org/Graphics/SVG/1.1/DTD/svg11.dtd"><!-- Generated by graphviz version 2.40.1 (20161225.0304)
 --><!-- Title: finite_state_machine Pages: 1 --><svg xmlns="http://www.w3.org/2000/svg" xmlns:xlink="http://www.w3.org/1999/xlink" width="442pt" height="157pt" viewBox="0.00 0.00 441.64 156.80">
<g id="graph0" class="graph" transform="scale(1 1) rotate(0) translate(4 152.8)">
<title>finite_state_machine</title>
<polygon fill="#ffffff" stroke="transparent" points="-4,4 -4,-152.8 437.6424,-152.8 437.6424,4 -4,4"/>
<!-- 0 -->
<g id="node1" class="node">
<title>0</title>
<ellipse fill="none" stroke="#000000" cx="18" cy="-61" rx="18" ry="18"/>
<text text-anchor="middle" x="18" y="-56.8" font-family="Times,serif" font-size="14.00" fill="#000000">0</text>
</g>
<!-- 0&#45;&gt;0 -->
<g id="edge1" class="edge">
<title>0-&gt;0</title>
<path fill="none" stroke="#000000" d="M9.3666,-76.916C7.1144,-87.1504 9.9922,-97 18,-97 23.2551,-97 26.3009,-92.7581 27.1375,-86.9494"/>
<polygon fill="#000000" stroke="#000000" points="30.6308,-86.7278 26.6334,-76.916 23.6396,-87.0791 30.6308,-86.7278"/>
<text text-anchor="middle" x="18" y="-101.2" font-family="Times,serif" font-size="14.00" fill="#000000">0) 22</text>
</g>
<!-- 4 -->
<g id="node2" class="node">
<title>4</title>
<ellipse fill="none" stroke="#000000" cx="119.1606" cy="-110" rx="18" ry="18"/>
<text text-anchor="middle" x="119.1606" y="-105.8" font-family="Times,serif" font-size="14.00" fill="#000000">4</text>
</g>
<!-- 0&#45;&gt;4 -->
<g id="edge2" class="edge">
<title>0-&gt;4</title>
<path fill="none" stroke="#000000" d="M29.2426,-75.2514C35.7263,-82.5279 44.4704,-90.8989 54,-96 65.3616,-102.0817 79.1706,-105.5215 91.147,-107.467"/>
<polygon fill="#000000" stroke="#000000" points="90.7117,-110.9399 101.0924,-108.8209 91.656,-104.0039 90.7117,-110.9399"/>
<text text-anchor="middle" x="68.5803" y="-109.2" font-family="Times,serif" font-size="14.00" fill="#000000">1) 19</text>
</g>
<!-- 4&#45;&gt;0 -->
<g id="edge9" class="edge">
<title>4-&gt;0</title>
<path fill="none" stroke="#000000" d="M107.8968,-95.8423C101.4069,-88.611 92.6636,-80.2872 83.1606,-75.2 71.792,-69.1141 57.9821,-65.6359 46.0069,-63.6483"/>
<polygon fill="#000000" stroke="#000000" points="46.4515,-60.1765 36.063,-62.2573 45.4816,-67.109 46.4515,-60.1765"/>
<text text-anchor="middle" x="68.5803" y="-79.2" font-family="Times,serif" font-size="14.00" fill="#000000">0) 3</text>
</g>
<!-- 2 -->
<g id="node4" class="node">
<title>2</title>
<ellipse fill="none" stroke="#000000" cx="220.3212" cy="-110" rx="18" ry="18"/>
<text text-anchor="middle" x="220.3212" y="-105.8" font-family="Times,serif" font-size="14.00" fill="#000000">2</text>
</g>
<!-- 4&#45;&gt;2 -->
<g id="edge10" class="edge">
<title>4-&gt;2</title>
<path fill="none" stroke="#000000" d="M137.2461,-110C152.4004,-110 174.3034,-110 191.8149,-110"/>
<polygon fill="#000000" stroke="#000000" points="192.0512,-113.5001 202.0512,-110 192.0512,-106.5001 192.0512,-113.5001"/>
<text text-anchor="middle" x="169.7409" y="-114.2" font-family="Times,serif" font-size="14.00" fill="#000000">1) 15</text>
</g>
<!-- 1 -->
<g id="node3" class="node">
<title>1</title>
<ellipse fill="none" stroke="#000000" cx="415.6424" cy="-94" rx="18" ry="18"/>
<text text-anchor="middle" x="415.6424" y="-89.8" font-family="Times,serif" font-size="14.00" fill="#000000">1</text>
</g>
<!-- 1&#45;&gt;0 -->
<g id="edge3" class="edge">
<title>1-&gt;0</title>
<path fill="none" stroke="#000000" d="M408.2223,-77.1947C395.0092,-50.157 364.6767,0 321.4818,0 119.1606,0 119.1606,0 119.1606,0 87.2186,0 56.6991,-22.5791 37.6944,-40.2631"/>
<polygon fill="#000000" stroke="#000000" points="35.0178,-37.9836 30.284,-47.4621 39.8955,-43.0045 35.0178,-37.9836"/>
<text text-anchor="middle" x="220.3212" y="-4.2" font-family="Times,serif" font-size="14.00" fill="#000000">0) 5</text>
</g>
<!-- 1&#45;&gt;2 -->
<g id="edge4" class="edge">
<title>1-&gt;2</title>
<path fill="none" stroke="#000000" d="M403.1317,-107.2377C396.6832,-113.2771 388.3539,-119.9662 379.6424,-124 363.2012,-131.6131 357.5327,-129.4386 339.4818,-131 302.5288,-134.1964 292.1739,-133.5039 256.3212,-124 253.0802,-123.1409 249.7318,-122.0833 246.4418,-120.9375"/>
<polygon fill="#000000" stroke="#000000" points="247.504,-117.5975 236.9121,-117.346 245.0353,-124.1478 247.504,-117.5975"/>
<text text-anchor="middle" x="321.4818" y="-136.2" font-family="Times,serif" font-size="14.00" fill="#000000">1) 14</text>
</g>
<!-- 2&#45;&gt;1 -->
<g id="edge6" class="edge">
<title>2-&gt;1</title>
<path fill="none" stroke="#000000" d="M238.3464,-108.5234C272.5036,-105.7254 346.8754,-99.6331 387.6014,-96.297"/>
<polygon fill="#000000" stroke="#000000" points="387.9799,-99.7778 397.6607,-95.473 387.4083,-92.8012 387.9799,-99.7778"/>
<text text-anchor="middle" x="321.4818" y="-107.2" font-family="Times,serif" font-size="14.00" fill="#000000">10 6</text>
</g>
<!-- 3 -->
<g id="node5" class="node">
<title>3</title>
<ellipse fill="none" stroke="#000000" cx="321.4818" cy="-56" rx="18" ry="18"/>
<text text-anchor="middle" x="321.4818" y="-51.8" font-family="Times,serif" font-size="14.00" fill="#000000">3</text>
</g>
<!-- 2&#45;&gt;3 -->
<g id="edge5" class="edge">
<title>2-&gt;3</title>
<path fill="none" stroke="#000000" d="M233.1041,-97.039C239.617,-90.9875 247.9219,-84.0637 256.3212,-79.2 267.9754,-72.4515 281.9239,-67.1634 293.9199,-63.3512"/>
<polygon fill="#000000" stroke="#000000" points="295.2742,-66.5995 303.8525,-60.3815 293.2689,-59.8928 295.2742,-66.5995"/>
<text text-anchor="middle" x="270.9015" y="-83.2" font-family="Times,serif" font-size="14.00" fill="#000000">0) 22</text>
</g>
<!-- 3&#45;&gt;0 -->
<g id="edge7" class="edge">
<title>3-&gt;0</title>
<path fill="none" stroke="#000000" d="M303.1175,-56.3026C251.9651,-57.1453 107.597,-59.5238 46.1991,-60.5354"/>
<polygon fill="#000000" stroke="#000000" points="46.0163,-57.0378 36.0753,-60.7022 46.1317,-64.0369 46.0163,-57.0378"/>
<text text-anchor="middle" x="169.7409" y="-62.2" font-family="Times,serif" font-size="14.00" fill="#000000">0) 14</text>
</g>
<!-- 3&#45;&gt;1 -->
<g id="edge8" class="edge">
<title>3-&gt;1</title>
<path fill="none" stroke="#000000" d="M338.2983,-62.654C349.923,-67.2669 365.7374,-73.5686 379.6424,-79.2 382.7741,-80.4683 386.0558,-81.8058 389.3094,-83.137"/>
<polygon fill="#000000" stroke="#000000" points="388.2278,-86.4764 398.8079,-87.0364 390.8863,-80.0008 388.2278,-86.4764"/>
<text text-anchor="middle" x="368.5621" y="-83.2" font-family="Times,serif" font-size="14.00" fill="#000000">1) 6</text>
</g>
</g>
</svg>