<svg version="1.1" viewBox="0.0 0.0 421.0 260.0" fill="none" stroke="none" stroke-linecap="square" stroke-miterlimit="10" width="421" height="260" xmlns:xlink="http://www.w3.org/1999/xlink" xmlns="http://www.w3.org/2000/svg"><path fill="#ffffff" d="M0 0L421.0 0L421.0 260.0L0 260.0L0 0Z" fill-rule="nonzero"/><path stroke="#333333" stroke-width="1.0" stroke-linecap="butt" d="M86.5 13.5L86.5 195.5" fill-rule="nonzero"/><path stroke="#cccccc" stroke-width="1.0" stroke-linecap="butt" d="M193.5 13.5L193.5 195.5" fill-rule="nonzero"/><path stroke="#cccccc" stroke-width="1.0" stroke-linecap="butt" d="M300.5 13.5L300.5 195.5" fill-rule="nonzero"/><path stroke="#cccccc" stroke-width="1.0" stroke-linecap="butt" d="M408.5 13.5L408.5 195.5" fill-rule="nonzero"/><path stroke="#000000" stroke-width="1.0" stroke-linecap="butt" d="M408.5 195.5L86.5 195.5" fill-rule="nonzero"/><clipPath id="id_0"><path d="M86.0 13.0L408.0 13.0L408.0 195.0L86.0 195.0L86.0 13.0Z" clip-rule="nonzero"/></clipPath><path stroke="#000000" stroke-width="2.0" stroke-linecap="butt" stroke-opacity="0.0" clip-path="url(#id_0)" d="M86.0 42.0L86.0 23.0L365.0 23.0C366.10458 23.0 367.0 23.89543 367.0 25.0L367.0 40.0C367.0 41.10457 366.10458 42.0 365.0 42.0Z" fill-rule="nonzero"/><path fill="#000000" clip-path="url(#id_0)" d="M86.0 42.0L86.0 23.0L365.0 23.0C366.10458 23.0 367.0 23.89543 367.0 25.0L367.0 40.0C367.0 41.10457 366.10458 42.0 365.0 42.0Z" fill-rule="nonzero"/><path stroke="#000000" stroke-width="2.0" stroke-linecap="butt" stroke-opacity="0.0" clip-path="url(#id_0)" d="M86.0 71.0L86.0 52.0L365.0 52.0C366.10458 52.0 367.0 52.89543 367.0 54.0L367.0 69.0C367.0 70.10457 366.10458 71.0 365.0 71.0Z" fill-rule="nonzero"/><path fill="#4285f4" clip-path="url(#id_0)" d="M86.0 71.0L86.0 52.0L365.0 52.0C366.10458 52.0 367.0 52.89543 367.0 54.0L367.0 69.0C367.0 70.10457 366.10458 71.0 365.0 71.0Z" fill-rule="nonzero"/><path stroke="#000000" stroke-width="2.0" stroke-linecap="butt" stroke-opacity="0.0" clip-path="url(#id_0)" d="M86.0 100.0L86.0 81.0L262.0 81.0C263.10458 81.0 264.0 81.89543 264.0 83.0L264.0 98.0C264.0 99.10457 263.10458 100.0 262.0 100.0Z" fill-rule="nonzero"/><path fill="#8e7cc3" clip-path="url(#id_0)" d="M86.0 100.0L86.0 81.0L262.0 81.0C263.10458 81.0 264.0 81.89543 264.0 83.0L264.0 98.0C264.0 99.10457 263.10458 100.0 262.0 100.0Z" fill-rule="nonzero"/><path stroke="#000000" stroke-width="2.0" stroke-linecap="butt" stroke-opacity="0.0" clip-path="url(#id_0)" d="M86.0 128.0L86.0 109.0L256.0 109.0C257.10458 109.0 258.0 109.89543 258.0 111.0L258.0 126.0C258.0 127.10457 257.10458 128.0 256.0 128.0Z" fill-rule="nonzero"/><path fill="#999999" clip-path="url(#id_0)" d="M86.0 128.0L86.0 109.0L256.0 109.0C257.10458 109.0 258.0 109.89543 258.0 111.0L258.0 126.0C258.0 127.10457 257.10458 128.0 256.0 128.0Z" fill-rule="nonzero"/><path stroke="#000000" stroke-width="2.0" stroke-linecap="butt" stroke-opacity="0.0" clip-path="url(#id_0)" d="M86.0 157.0L86.0 138.0L253.0 138.0C254.10457 138.0 255.0 138.89543 255.0 140.0L255.0 155.0C255.0 156.10457 254.10457 157.0 253.0 157.0Z" fill-rule="nonzero"/><path fill="#f1c232" clip-path="url(#id_0)" d="M86.0 157.0L86.0 138.0L253.0 138.0C254.10457 138.0 255.0 138.89543 255.0 140.0L255.0 155.0C255.0 156.10457 254.10457 157.0 253.0 157.0Z" fill-rule="nonzero"/><path stroke="#000000" stroke-width="2.0" stroke-linecap="butt" stroke-opacity="0.0" clip-path="url(#id_0)" d="M86.0 186.0L86.0 167.0L253.0 167.0C254.10457 167.0 255.0 167.89543 255.0 169.0L255.0 184.0C255.0 185.10457 254.10457 186.0 253.0 186.0Z" fill-rule="nonzero"/><path fill="#c27ba0" clip-path="url(#id_0)" d="M86.0 186.0L86.0 167.0L253.0 167.0C254.10457 167.0 255.0 167.89543 255.0 169.0L255.0 184.0C255.0 185.10457 254.10457 186.0 253.0 186.0Z" fill-rule="nonzero"/><path stroke="#000000" stroke-width="3.0" stroke-linejoin="round" stroke-linecap="round" d="M321.83353 36.5L320.7554 36.5L320.7554 29.28125L318.5679 30.078125L318.5679 29.09375L321.67728 27.921875L321.83353 27.921875L321.83353 36.5ZM326.84915 31.703125L327.66165 31.703125Q328.4429 31.6875 328.8804 31.296875Q329.3179 30.90625 329.3179 30.234375Q329.3179 28.734375 327.8179 28.734375Q327.11478 28.734375 326.6929 29.140625Q326.28665 29.546875 326.28665 30.203125L325.1929 30.203125Q325.1929 29.1875 325.92728 28.515625Q326.67728 27.84375 327.8179 27.84375Q329.02103 27.84375 329.70853 28.484375Q330.39603 29.125 330.39603 30.265625Q330.39603 30.828125 330.03665 31.34375Q329.67728 31.859375 329.05228 32.125Q329.7554 32.34375 330.1304 32.859375Q330.52103 33.375 330.52103 34.125Q330.52103 35.265625 329.77103 35.953125Q329.02103 36.625 327.8179 36.625Q326.6304 36.625 325.86478 35.96875Q325.11478 35.3125 325.11478 34.25L326.20853 34.25Q326.20853 34.921875 326.64603 35.328125Q327.08353 35.734375 327.83353 35.734375Q328.61478 35.734375 329.02103 35.328125Q329.4429 34.90625 329.4429 34.140625Q329.4429 33.40625 328.98978 33.015625Q328.53665 32.609375 327.66165 32.59375L326.84915 32.59375L326.84915 31.703125ZM335.83353 36.5L334.7554 36.5L334.7554 29.28125L332.5679 30.078125L332.5679 29.09375L335.67728 27.921875L335.83353 27.921875L335.83353 36.5ZM339.41165 35.9375Q339.41165 35.65625 339.5679 35.46875Q339.73978 35.28125 340.0679 35.28125Q340.41165 35.28125 340.58353 35.46875Q340.7554 35.65625 340.7554 35.9375Q340.7554 36.203125 340.58353 36.390625Q340.41165 36.5625 340.0679 36.5625Q339.73978 36.5625 339.5679 36.390625Q339.41165 36.203125 339.41165 35.9375ZM347.6304 32.859375Q347.6304 34.765625 346.97415 35.703125Q346.33353 36.625 344.9429 36.625Q343.58353 36.625 342.92728 35.71875Q342.27103 34.8125 342.23978 33.0L342.23978 31.5625Q342.23978 29.671875 342.8804 28.765625Q343.53665 27.84375 344.92728 27.84375Q346.30228 27.84375 346.95853 28.734375Q347.61478 29.609375 347.6304 31.453125L347.6304 32.859375ZM346.53665 31.375Q346.53665 30.0 346.14603 29.375Q345.77103 28.734375 344.92728 28.734375Q344.09915 28.734375 343.70853 29.375Q343.33353 30.0 343.33353 31.296875L343.33353 33.03125Q343.33353 34.40625 343.72415 35.078125Q344.1304 35.734375 344.9429 35.734375Q345.73978 35.734375 346.1304 35.109375Q346.52103 34.484375 346.53665 33.15625L346.53665 31.375ZM354.78665 28.578125L351.2554 36.5L350.11478 36.5L353.6304 28.859375L349.02103 28.859375L349.02103 27.96875L354.78665 27.96875L354.78665 28.578125ZM361.86478 36.5L356.27103 36.5L356.27103 35.71875L359.22415 32.4375Q359.8804 31.6875 360.1304 31.234375Q360.3804 30.765625 360.3804 30.265625Q360.3804 29.59375 359.97415 29.171875Q359.58353 28.734375 358.89603 28.734375Q358.09915 28.734375 357.64603 29.203125Q357.1929 29.65625 357.1929 30.484375L356.11478 30.484375Q356.11478 29.296875 356.86478 28.578125Q357.6304 27.84375 358.89603 27.84375Q360.09915 27.84375 360.78665 28.46875Q361.47415 29.09375 361.47415 30.140625Q361.47415 31.390625 359.86478 33.140625L357.58353 35.609375L361.86478 35.609375L361.86478 36.5Z" fill-rule="nonzero"/><path fill="#ffffff" d="M321.83353 36.5L320.7554 36.5L320.7554 29.28125L318.5679 30.078125L318.5679 29.09375L321.67728 27.921875L321.83353 27.921875L321.83353 36.5ZM326.84915 31.703125L327.66165 31.703125Q328.4429 31.6875 328.8804 31.296875Q329.3179 30.90625 329.3179 30.234375Q329.3179 28.734375 327.8179 28.734375Q327.11478 28.734375 326.6929 29.140625Q326.28665 29.546875 326.28665 30.203125L325.1929 30.203125Q325.1929 29.1875 325.92728 28.515625Q326.67728 27.84375 327.8179 27.84375Q329.02103 27.84375 329.70853 28.484375Q330.39603 29.125 330.39603 30.265625Q330.39603 30.828125 330.03665 31.34375Q329.67728 31.859375 329.05228 32.125Q329.7554 32.34375 330.1304 32.859375Q330.52103 33.375 330.52103 34.125Q330.52103 35.265625 329.77103 35.953125Q329.02103 36.625 327.8179 36.625Q326.6304 36.625 325.86478 35.96875Q325.11478 35.3125 325.11478 34.25L326.20853 34.25Q326.20853 34.921875 326.64603 35.328125Q327.08353 35.734375 327.83353 35.734375Q328.61478 35.734375 329.02103 35.328125Q329.4429 34.90625 329.4429 34.140625Q329.4429 33.40625 328.98978 33.015625Q328.53665 32.609375 327.66165 32.59375L326.84915 32.59375L326.84915 31.703125ZM335.83353 36.5L334.7554 36.5L334.7554 29.28125L332.5679 30.078125L332.5679 29.09375L335.67728 27.921875L335.83353 27.921875L335.83353 36.5ZM339.41165 35.9375Q339.41165 35.65625 339.5679 35.46875Q339.73978 35.28125 340.0679 35.28125Q340.41165 35.28125 340.58353 35.46875Q340.7554 35.65625 340.7554 35.9375Q340.7554 36.203125 340.58353 36.390625Q340.41165 36.5625 340.0679 36.5625Q339.73978 36.5625 339.5679 36.390625Q339.41165 36.203125 339.41165 35.9375ZM347.6304 32.859375Q347.6304 34.765625 346.97415 35.703125Q346.33353 36.625 344.9429 36.625Q343.58353 36.625 342.92728 35.71875Q342.27103 34.8125 342.23978 33.0L342.23978 31.5625Q342.23978 29.671875 342.8804 28.765625Q343.53665 27.84375 344.92728 27.84375Q346.30228 27.84375 346.95853 28.734375Q347.61478 29.609375 347.6304 31.453125L347.6304 32.859375ZM346.53665 31.375Q346.53665 30.0 346.14603 29.375Q345.77103 28.734375 344.92728 28.734375Q344.09915 28.734375 343.70853 29.375Q343.33353 30.0 343.33353 31.296875L343.33353 33.03125Q343.33353 34.40625 343.72415 35.078125Q344.1304 35.734375 344.9429 35.734375Q345.73978 35.734375 346.1304 35.109375Q346.52103 34.484375 346.53665 33.15625L346.53665 31.375ZM354.78665 28.578125L351.2554 36.5L350.11478 36.5L353.6304 28.859375L349.02103 28.859375L349.02103 27.96875L354.78665 27.96875L354.78665 28.578125ZM361.86478 36.5L356.27103 36.5L356.27103 35.71875L359.22415 32.4375Q359.8804 31.6875 360.1304 31.234375Q360.3804 30.765625 360.3804 30.265625Q360.3804 29.59375 359.97415 29.171875Q359.58353 28.734375 358.89603 28.734375Q358.09915 28.734375 357.64603 29.203125Q357.1929 29.65625 357.1929 30.484375L356.11478 30.484375Q356.11478 29.296875 356.86478 28.578125Q357.6304 27.84375 358.89603 27.84375Q360.09915 27.84375 360.78665 28.46875Q361.47415 29.09375 361.47415 30.140625Q361.47415 31.390625 359.86478 33.140625L357.58353 35.609375L361.86478 35.609375L361.86478 36.5Z" fill-rule="nonzero"/><path stroke="#4285f4" stroke-width="3.0" stroke-linejoin="round" stroke-linecap="round" d="M321.8743 65.5L320.79617 65.5L320.79617 58.28125L318.60867 59.078125L318.60867 58.09375L321.71805 56.921875L321.8743 56.921875L321.8743 65.5ZM326.88992 60.703125L327.70242 60.703125Q328.48367 60.6875 328.92117 60.296875Q329.35867 59.90625 329.35867 59.234375Q329.35867 57.734375 327.85867 57.734375Q327.15555 57.734375 326.73367 58.140625Q326.32742 58.546875 326.32742 59.203125L325.23367 59.203125Q325.23367 58.1875 325.96805 57.515625Q326.71805 56.84375 327.85867 56.84375Q329.0618 56.84375 329.7493 57.484375Q330.4368 58.125 330.4368 59.265625Q330.4368 59.828125 330.07742 60.34375Q329.71805 60.859375 329.09305 61.125Q329.79617 61.34375 330.17117 61.859375Q330.5618 62.375 330.5618 63.125Q330.5618 64.265625 329.8118 64.953125Q329.0618 65.625 327.85867 65.625Q326.67117 65.625 325.90555 64.96875Q325.15555 64.3125 325.15555 63.25L326.2493 63.25Q326.2493 63.921875 326.6868 64.328125Q327.1243 64.734375 327.8743 64.734375Q328.65555 64.734375 329.0618 64.328125Q329.48367 63.90625 329.48367 63.140625Q329.48367 62.40625 329.03055 62.015625Q328.57742 61.609375 327.70242 61.59375L326.88992 61.59375L326.88992 60.703125ZM335.8743 65.5L334.79617 65.5L334.79617 58.28125L332.60867 59.078125L332.60867 58.09375L335.71805 56.921875L335.8743 56.921875L335.8743 65.5ZM339.45242 64.9375Q339.45242 64.65625 339.60867 64.46875Q339.78055 64.28125 340.10867 64.28125Q340.45242 64.28125 340.6243 64.46875Q340.79617 64.65625 340.79617 64.9375Q340.79617 65.203125 340.6243 65.390625Q340.45242 65.5625 340.10867 65.5625Q339.78055 65.5625 339.60867 65.390625Q339.45242 65.203125 339.45242 64.9375ZM347.67117 61.859375Q347.67117 63.765625 347.01492 64.703125Q346.3743 65.625 344.98367 65.625Q343.6243 65.625 342.96805 64.71875Q342.3118 63.8125 342.28055 62.0L342.28055 60.5625Q342.28055 58.671875 342.92117 57.765625Q343.57742 56.84375 344.96805 56.84375Q346.34305 56.84375 346.9993 57.734375Q347.65555 58.609375 347.67117 60.453125L347.67117 61.859375ZM346.57742 60.375Q346.57742 59.0 346.1868 58.375Q345.8118 57.734375 344.96805 57.734375Q344.13992 57.734375 343.7493 58.375Q343.3743 59.0 343.3743 60.296875L343.3743 62.03125Q343.3743 63.40625 343.76492 64.078125Q344.17117 64.734375 344.98367 64.734375Q345.78055 64.734375 346.17117 64.109375Q346.5618 63.484375 346.57742 62.15625L346.57742 60.375ZM353.46805 61.75Q353.13992 62.15625 352.65555 62.40625Q352.1868 62.640625 351.6243 62.640625Q350.88992 62.640625 350.34305 62.28125Q349.79617 61.921875 349.4993 61.265625Q349.20242 60.59375 349.20242 59.796875Q349.20242 58.953125 349.51492 58.265625Q349.84305 57.578125 350.4368 57.21875Q351.04617 56.84375 351.84305 56.84375Q353.10867 56.84375 353.82742 57.796875Q354.5618 58.75 354.5618 60.375L354.5618 60.6875Q354.5618 63.1875 353.57742 64.328125Q352.59305 65.46875 350.60867 65.5L350.38992 65.5L350.38992 64.59375L350.6243 64.59375Q351.96805 64.5625 352.6868 63.890625Q353.40555 63.21875 353.46805 61.75ZM351.79617 61.75Q352.34305 61.75 352.79617 61.421875Q353.26492 61.078125 353.48367 60.59375L353.48367 60.15625Q353.48367 59.09375 353.01492 58.421875Q352.54617 57.75 351.84305 57.75Q351.1243 57.75 350.6868 58.296875Q350.26492 58.84375 350.26492 59.75Q350.26492 60.625 350.67117 61.1875Q351.09305 61.75 351.79617 61.75ZM359.8743 65.5L358.79617 65.5L358.79617 58.28125L356.60867 59.078125L356.60867 58.09375L359.71805 56.921875L359.8743 56.921875L359.8743 65.5Z" fill-rule="nonzero"/><path fill="#ffffff" d="M321.8743 65.5L320.79617 65.5L320.79617 58.28125L318.60867 59.078125L318.60867 58.09375L321.71805 56.921875L321.8743 56.921875L321.8743 65.5ZM326.88992 60.703125L327.70242 60.703125Q328.48367 60.6875 328.92117 60.296875Q329.35867 59.90625 329.35867 59.234375Q329.35867 57.734375 327.85867 57.734375Q327.15555 57.734375 326.73367 58.140625Q326.32742 58.546875 326.32742 59.203125L325.23367 59.203125Q325.23367 58.1875 325.96805 57.515625Q326.71805 56.84375 327.85867 56.84375Q329.0618 56.84375 329.7493 57.484375Q330.4368 58.125 330.4368 59.265625Q330.4368 59.828125 330.07742 60.34375Q329.71805 60.859375 329.09305 61.125Q329.79617 61.34375 330.17117 61.859375Q330.5618 62.375 330.5618 63.125Q330.5618 64.265625 329.8118 64.953125Q329.0618 65.625 327.85867 65.625Q326.67117 65.625 325.90555 64.96875Q325.15555 64.3125 325.15555 63.25L326.2493 63.25Q326.2493 63.921875 326.6868 64.328125Q327.1243 64.734375 327.8743 64.734375Q328.65555 64.734375 329.0618 64.328125Q329.48367 63.90625 329.48367 63.140625Q329.48367 62.40625 329.03055 62.015625Q328.57742 61.609375 327.70242 61.59375L326.88992 61.59375L326.88992 60.703125ZM335.8743 65.5L334.79617 65.5L334.79617 58.28125L332.60867 59.078125L332.60867 58.09375L335.71805 56.921875L335.8743 56.921875L335.8743 65.5ZM339.45242 64.9375Q339.45242 64.65625 339.60867 64.46875Q339.78055 64.28125 340.10867 64.28125Q340.45242 64.28125 340.6243 64.46875Q340.79617 64.65625 340.79617 64.9375Q340.79617 65.203125 340.6243 65.390625Q340.45242 65.5625 340.10867 65.5625Q339.78055 65.5625 339.60867 65.390625Q339.45242 65.203125 339.45242 64.9375ZM347.67117 61.859375Q347.67117 63.765625 347.01492 64.703125Q346.3743 65.625 344.98367 65.625Q343.6243 65.625 342.96805 64.71875Q342.3118 63.8125 342.28055 62.0L342.28055 60.5625Q342.28055 58.671875 342.92117 57.765625Q343.57742 56.84375 344.96805 56.84375Q346.34305 56.84375 346.9993 57.734375Q347.65555 58.609375 347.67117 60.453125L347.67117 61.859375ZM346.57742 60.375Q346.57742 59.0 346.1868 58.375Q345.8118 57.734375 344.96805 57.734375Q344.13992 57.734375 343.7493 58.375Q343.3743 59.0 343.3743 60.296875L343.3743 62.03125Q343.3743 63.40625 343.76492 64.078125Q344.17117 64.734375 344.98367 64.734375Q345.78055 64.734375 346.17117 64.109375Q346.5618 63.484375 346.57742 62.15625L346.57742 60.375ZM353.46805 61.75Q353.13992 62.15625 352.65555 62.40625Q352.1868 62.640625 351.6243 62.640625Q350.88992 62.640625 350.34305 62.28125Q349.79617 61.921875 349.4993 61.265625Q349.20242 60.59375 349.20242 59.796875Q349.20242 58.953125 349.51492 58.265625Q349.84305 57.578125 350.4368 57.21875Q351.04617 56.84375 351.84305 56.84375Q353.10867 56.84375 353.82742 57.796875Q354.5618 58.75 354.5618 60.375L354.5618 60.6875Q354.5618 63.1875 353.57742 64.328125Q352.59305 65.46875 350.60867 65.5L350.38992 65.5L350.38992 64.59375L350.6243 64.59375Q351.96805 64.5625 352.6868 63.890625Q353.40555 63.21875 353.46805 61.75ZM351.79617 61.75Q352.34305 61.75 352.79617 61.421875Q353.26492 61.078125 353.48367 60.59375L353.48367 60.15625Q353.48367 59.09375 353.01492 58.421875Q352.54617 57.75 351.84305 57.75Q351.1243 57.75 350.6868 58.296875Q350.26492 58.84375 350.26492 59.75Q350.26492 60.625 350.67117 61.1875Q351.09305 61.75 351.79617 61.75ZM359.8743 65.5L358.79617 65.5L358.79617 58.28125L356.60867 59.078125L356.60867 58.09375L359.71805 56.921875L359.8743 56.921875L359.8743 65.5Z" fill-rule="nonzero"/><path stroke="#8e7cc3" stroke-width="3.0" stroke-linejoin="round" stroke-linecap="round" d="M226.67148 88.1875Q226.67148 88.828125 226.32773 89.328125Q225.98398 89.828125 225.42148 90.109375Q226.07773 90.390625 226.46835 90.953125Q226.85898 91.5 226.85898 92.203125Q226.85898 93.296875 226.10898 93.96875Q225.3746 94.625 224.15585 94.625Q222.92148 94.625 222.17148 93.96875Q221.4371 93.296875 221.4371 92.203125Q221.4371 91.5 221.8121 90.953125Q222.1871 90.390625 222.85898 90.109375Q222.29648 89.828125 221.96835 89.328125Q221.64023 88.828125 221.64023 88.1875Q221.64023 87.109375 222.32773 86.484375Q223.01523 85.84375 224.15585 85.84375Q225.28085 85.84375 225.96835 86.484375Q226.67148 87.109375 226.67148 88.1875ZM225.78085 92.171875Q225.78085 91.453125 225.32773 91.015625Q224.8746 90.5625 224.14023 90.5625Q223.40585 90.5625 222.95273 91.015625Q222.51523 91.453125 222.51523 92.1875Q222.51523 92.90625 222.95273 93.328125Q223.39023 93.734375 224.15585 93.734375Q224.90585 93.734375 225.34335 93.3125Q225.78085 92.890625 225.78085 92.171875ZM224.15585 86.734375Q223.51523 86.734375 223.10898 87.140625Q222.71835 87.53125 222.71835 88.21875Q222.71835 88.859375 223.10898 89.265625Q223.4996 89.671875 224.14023 89.671875Q224.79648 89.671875 225.1871 89.265625Q225.57773 88.859375 225.57773 88.21875Q225.57773 87.5625 225.17148 87.15625Q224.76523 86.734375 224.15585 86.734375ZM234.07773 94.5L228.48398 94.5L228.48398 93.71875L231.4371 90.4375Q232.09335 89.6875 232.34335 89.234375Q232.59335 88.765625 232.59335 88.265625Q232.59335 87.59375 232.1871 87.171875Q231.79648 86.734375 231.10898 86.734375Q230.3121 86.734375 229.85898 87.203125Q229.40585 87.65625 229.40585 88.484375L228.32773 88.484375Q228.32773 87.296875 229.07773 86.578125Q229.84335 85.84375 231.10898 85.84375Q232.3121 85.84375 232.9996 86.46875Q233.6871 87.09375 233.6871 88.140625Q233.6871 89.390625 232.07773 91.140625L229.79648 93.609375L234.07773 93.609375L234.07773 94.5ZM235.6246 93.9375Q235.6246 93.65625 235.78085 93.46875Q235.95273 93.28125 236.28085 93.28125Q236.6246 93.28125 236.79648 93.46875Q236.96835 93.65625 236.96835 93.9375Q236.96835 94.203125 236.79648 94.390625Q236.6246 94.5625 236.28085 94.5625Q235.95273 94.5625 235.78085 94.390625Q235.6246 94.203125 235.6246 93.9375ZM243.9996 86.578125L240.46835 94.5L239.32773 94.5L242.84335 86.859375L238.23398 86.859375L238.23398 85.96875L243.9996 85.96875L243.9996 86.578125ZM251.07773 94.5L245.48398 94.5L245.48398 93.71875L248.4371 90.4375Q249.09335 89.6875 249.34335 89.234375Q249.59335 88.765625 249.59335 88.265625Q249.59335 87.59375 249.1871 87.171875Q248.79648 86.734375 248.10898 86.734375Q247.3121 86.734375 246.85898 87.203125Q246.40585 87.65625 246.40585 88.484375L245.32773 88.484375Q245.32773 87.296875 246.07773 86.578125Q246.84335 85.84375 248.10898 85.84375Q249.3121 85.84375 249.9996 86.46875Q250.6871 87.09375 250.6871 88.140625Q250.6871 89.390625 249.07773 91.140625L246.79648 93.609375L251.07773 93.609375L251.07773 94.5ZM257.0621 91.640625L258.2496 91.640625L258.2496 92.515625L257.0621 92.515625L257.0621 94.5L255.98398 94.5L255.98398 92.515625L252.09335 92.515625L252.09335 91.875L255.90585 85.96875L257.0621 85.96875L257.0621 91.640625ZM253.32773 91.640625L255.98398 91.640625L255.98398 87.453125L255.84335 87.6875L253.32773 91.640625Z" fill-rule="nonzero"/><path fill="#000000" d="M226.67148 88.1875Q226.67148 88.828125 226.32773 89.328125Q225.98398 89.828125 225.42148 90.109375Q226.07773 90.390625 226.46835 90.953125Q226.85898 91.5 226.85898 92.203125Q226.85898 93.296875 226.10898 93.96875Q225.3746 94.625 224.15585 94.625Q222.92148 94.625 222.17148 93.96875Q221.4371 93.296875 221.4371 92.203125Q221.4371 91.5 221.8121 90.953125Q222.1871 90.390625 222.85898 90.109375Q222.29648 89.828125 221.96835 89.328125Q221.64023 88.828125 221.64023 88.1875Q221.64023 87.109375 222.32773 86.484375Q223.01523 85.84375 224.15585 85.84375Q225.28085 85.84375 225.96835 86.484375Q226.67148 87.109375 226.67148 88.1875ZM225.78085 92.171875Q225.78085 91.453125 225.32773 91.015625Q224.8746 90.5625 224.14023 90.5625Q223.40585 90.5625 222.95273 91.015625Q222.51523 91.453125 222.51523 92.1875Q222.51523 92.90625 222.95273 93.328125Q223.39023 93.734375 224.15585 93.734375Q224.90585 93.734375 225.34335 93.3125Q225.78085 92.890625 225.78085 92.171875ZM224.15585 86.734375Q223.51523 86.734375 223.10898 87.140625Q222.71835 87.53125 222.71835 88.21875Q222.71835 88.859375 223.10898 89.265625Q223.4996 89.671875 224.14023 89.671875Q224.79648 89.671875 225.1871 89.265625Q225.57773 88.859375 225.57773 88.21875Q225.57773 87.5625 225.17148 87.15625Q224.76523 86.734375 224.15585 86.734375ZM234.07773 94.5L228.48398 94.5L228.48398 93.71875L231.4371 90.4375Q232.09335 89.6875 232.34335 89.234375Q232.59335 88.765625 232.59335 88.265625Q232.59335 87.59375 232.1871 87.171875Q231.79648 86.734375 231.10898 86.734375Q230.3121 86.734375 229.85898 87.203125Q229.40585 87.65625 229.40585 88.484375L228.32773 88.484375Q228.32773 87.296875 229.07773 86.578125Q229.84335 85.84375 231.10898 85.84375Q232.3121 85.84375 232.9996 86.46875Q233.6871 87.09375 233.6871 88.140625Q233.6871 89.390625 232.07773 91.140625L229.79648 93.609375L234.07773 93.609375L234.07773 94.5ZM235.6246 93.9375Q235.6246 93.65625 235.78085 93.46875Q235.95273 93.28125 236.28085 93.28125Q236.6246 93.28125 236.79648 93.46875Q236.96835 93.65625 236.96835 93.9375Q236.96835 94.203125 236.79648 94.390625Q236.6246 94.5625 236.28085 94.5625Q235.95273 94.5625 235.78085 94.390625Q235.6246 94.203125 235.6246 93.9375ZM243.9996 86.578125L240.46835 94.5L239.32773 94.5L242.84335 86.859375L238.23398 86.859375L238.23398 85.96875L243.9996 85.96875L243.9996 86.578125ZM251.07773 94.5L245.48398 94.5L245.48398 93.71875L248.4371 90.4375Q249.09335 89.6875 249.34335 89.234375Q249.59335 88.765625 249.59335 88.265625Q249.59335 87.59375 249.1871 87.171875Q248.79648 86.734375 248.10898 86.734375Q247.3121 86.734375 246.85898 87.203125Q246.40585 87.65625 246.40585 88.484375L245.32773 88.484375Q245.32773 87.296875 246.07773 86.578125Q246.84335 85.84375 248.10898 85.84375Q249.3121 85.84375 249.9996 86.46875Q250.6871 87.09375 250.6871 88.140625Q250.6871 89.390625 249.07773 91.140625L246.79648 93.609375L251.07773 93.609375L251.07773 94.5ZM257.0621 91.640625L258.2496 91.640625L258.2496 92.515625L257.0621 92.515625L257.0621 94.5L255.98398 94.5L255.98398 92.515625L252.09335 92.515625L252.09335 91.875L255.90585 85.96875L257.0621 85.96875L257.0621 91.640625ZM253.32773 91.640625L255.98398 91.640625L255.98398 87.453125L255.84335 87.6875L253.32773 91.640625Z" fill-rule="nonzero"/><path stroke="#999999" stroke-width="3.0" stroke-linejoin="round" stroke-linecap="round" d="M220.87119 116.1875Q220.87119 116.828125 220.52744 117.328125Q220.18369 117.828125 219.62119 118.109375Q220.27744 118.390625 220.66806 118.953125Q221.05869 119.5 221.05869 120.203125Q221.05869 121.296875 220.30869 121.96875Q219.57431 122.625 218.35556 122.625Q217.12119 122.625 216.37119 121.96875Q215.63681 121.296875 215.63681 120.203125Q215.63681 119.5 216.01181 118.953125Q216.38681 118.390625 217.05869 118.109375Q216.49619 117.828125 216.16806 117.328125Q215.83994 116.828125 215.83994 116.1875Q215.83994 115.109375 216.52744 114.484375Q217.21494 113.84375 218.35556 113.84375Q219.48056 113.84375 220.16806 114.484375Q220.87119 115.109375 220.87119 116.1875ZM219.98056 120.171875Q219.98056 119.453125 219.52744 119.015625Q219.07431 118.5625 218.33994 118.5625Q217.60556 118.5625 217.15244 119.015625Q216.71494 119.453125 216.71494 120.1875Q216.71494 120.90625 217.15244 121.328125Q217.58994 121.734375 218.35556 121.734375Q219.10556 121.734375 219.54306 121.3125Q219.98056 120.890625 219.98056 120.171875ZM218.35556 114.734375Q217.71494 114.734375 217.30869 115.140625Q216.91806 115.53125 216.91806 116.21875Q216.91806 116.859375 217.30869 117.265625Q217.69931 117.671875 218.33994 117.671875Q218.99619 117.671875 219.38681 117.265625Q219.77744 116.859375 219.77744 116.21875Q219.77744 115.5625 219.37119 115.15625Q218.96494 114.734375 218.35556 114.734375ZM228.04306 118.859375Q228.04306 120.765625 227.38681 121.703125Q226.74619 122.625 225.35556 122.625Q223.99619 122.625 223.33994 121.71875Q222.68369 120.8125 222.65244 119.0L222.65244 117.5625Q222.65244 115.671875 223.29306 114.765625Q223.94931 113.84375 225.33994 113.84375Q226.71494 113.84375 227.37119 114.734375Q228.02744 115.609375 228.04306 117.453125L228.04306 118.859375ZM226.94931 117.375Q226.94931 116.0 226.55869 115.375Q226.18369 114.734375 225.33994 114.734375Q224.51181 114.734375 224.12119 115.375Q223.74619 116.0 223.74619 117.296875L223.74619 119.03125Q223.74619 120.40625 224.13681 121.078125Q224.54306 121.734375 225.35556 121.734375Q226.15244 121.734375 226.54306 121.109375Q226.93369 120.484375 226.94931 119.15625L226.94931 117.375ZM229.82431 121.9375Q229.82431 121.65625 229.98056 121.46875Q230.15244 121.28125 230.48056 121.28125Q230.82431 121.28125 230.99619 121.46875Q231.16806 121.65625 231.16806 121.9375Q231.16806 122.203125 230.99619 122.390625Q230.82431 122.5625 230.48056 122.5625Q230.15244 122.5625 229.98056 122.390625Q229.82431 122.203125 229.82431 121.9375ZM238.04306 118.859375Q238.04306 120.765625 237.38681 121.703125Q236.74619 122.625 235.35556 122.625Q233.99619 122.625 233.33994 121.71875Q232.68369 120.8125 232.65244 119.0L232.65244 117.5625Q232.65244 115.671875 233.29306 114.765625Q233.94931 113.84375 235.33994 113.84375Q236.71494 113.84375 237.37119 114.734375Q238.02744 115.609375 238.04306 117.453125L238.04306 118.859375ZM236.94931 117.375Q236.94931 116.0 236.55869 115.375Q236.18369 114.734375 235.33994 114.734375Q234.51181 114.734375 234.12119 115.375Q233.74619 116.0 233.74619 117.296875L233.74619 119.03125Q233.74619 120.40625 234.13681 121.078125Q234.54306 121.734375 235.35556 121.734375Q236.15244 121.734375 236.54306 121.109375Q236.93369 120.484375 236.94931 119.15625L236.94931 117.375ZM245.27744 122.5L239.68369 122.5L239.68369 121.71875L242.63681 118.4375Q243.29306 117.6875 243.54306 117.234375Q243.79306 116.765625 243.79306 116.265625Q243.79306 115.59375 243.38681 115.171875Q242.99619 114.734375 242.30869 114.734375Q241.51181 114.734375 241.05869 115.203125Q240.60556 115.65625 240.60556 116.484375L239.52744 116.484375Q239.52744 115.296875 240.27744 114.578125Q241.04306 113.84375 242.30869 113.84375Q243.51181 113.84375 244.19931 114.46875Q244.88681 115.09375 244.88681 116.140625Q244.88681 117.390625 243.27744 119.140625L240.99619 121.609375L245.27744 121.609375L245.27744 122.5ZM252.27744 122.5L246.68369 122.5L246.68369 121.71875L249.63681 118.4375Q250.29306 117.6875 250.54306 117.234375Q250.79306 116.765625 250.79306 116.265625Q250.79306 115.59375 250.38681 115.171875Q249.99619 114.734375 249.30869 114.734375Q248.51181 114.734375 248.05869 115.203125Q247.60556 115.65625 247.60556 116.484375L246.52744 116.484375Q246.52744 115.296875 247.27744 114.578125Q248.04306 113.84375 249.30869 113.84375Q250.51181 113.84375 251.19931 114.46875Q251.88681 115.09375 251.88681 116.140625Q251.88681 117.390625 250.27744 119.140625L247.99619 121.609375L252.27744 121.609375L252.27744 122.5Z" fill-rule="nonzero"/><path fill="#000000" d="M220.87119 116.1875Q220.87119 116.828125 220.52744 117.328125Q220.18369 117.828125 219.62119 118.109375Q220.27744 118.390625 220.66806 118.953125Q221.05869 119.5 221.05869 120.203125Q221.05869 121.296875 220.30869 121.96875Q219.57431 122.625 218.35556 122.625Q217.12119 122.625 216.37119 121.96875Q215.63681 121.296875 215.63681 120.203125Q215.63681 119.5 216.01181 118.953125Q216.38681 118.390625 217.05869 118.109375Q216.49619 117.828125 216.16806 117.328125Q215.83994 116.828125 215.83994 116.1875Q215.83994 115.109375 216.52744 114.484375Q217.21494 113.84375 218.35556 113.84375Q219.48056 113.84375 220.16806 114.484375Q220.87119 115.109375 220.87119 116.1875ZM219.98056 120.171875Q219.98056 119.453125 219.52744 119.015625Q219.07431 118.5625 218.33994 118.5625Q217.60556 118.5625 217.15244 119.015625Q216.71494 119.453125 216.71494 120.1875Q216.71494 120.90625 217.15244 121.328125Q217.58994 121.734375 218.35556 121.734375Q219.10556 121.734375 219.54306 121.3125Q219.98056 120.890625 219.98056 120.171875ZM218.35556 114.734375Q217.71494 114.734375 217.30869 115.140625Q216.91806 115.53125 216.91806 116.21875Q216.91806 116.859375 217.30869 117.265625Q217.69931 117.671875 218.33994 117.671875Q218.99619 117.671875 219.38681 117.265625Q219.77744 116.859375 219.77744 116.21875Q219.77744 115.5625 219.37119 115.15625Q218.96494 114.734375 218.35556 114.734375ZM228.04306 118.859375Q228.04306 120.765625 227.38681 121.703125Q226.74619 122.625 225.35556 122.625Q223.99619 122.625 223.33994 121.71875Q222.68369 120.8125 222.65244 119.0L222.65244 117.5625Q222.65244 115.671875 223.29306 114.765625Q223.94931 113.84375 225.33994 113.84375Q226.71494 113.84375 227.37119 114.734375Q228.02744 115.609375 228.04306 117.453125L228.04306 118.859375ZM226.94931 117.375Q226.94931 116.0 226.55869 115.375Q226.18369 114.734375 225.33994 114.734375Q224.51181 114.734375 224.12119 115.375Q223.74619 116.0 223.74619 117.296875L223.74619 119.03125Q223.74619 120.40625 224.13681 121.078125Q224.54306 121.734375 225.35556 121.734375Q226.15244 121.734375 226.54306 121.109375Q226.93369 120.484375 226.94931 119.15625L226.94931 117.375ZM229.82431 121.9375Q229.82431 121.65625 229.98056 121.46875Q230.15244 121.28125 230.48056 121.28125Q230.82431 121.28125 230.99619 121.46875Q231.16806 121.65625 231.16806 121.9375Q231.16806 122.203125 230.99619 122.390625Q230.82431 122.5625 230.48056 122.5625Q230.15244 122.5625 229.98056 122.390625Q229.82431 122.203125 229.82431 121.9375ZM238.04306 118.859375Q238.04306 120.765625 237.38681 121.703125Q236.74619 122.625 235.35556 122.625Q233.99619 122.625 233.33994 121.71875Q232.68369 120.8125 232.65244 119.0L232.65244 117.5625Q232.65244 115.671875 233.29306 114.765625Q233.94931 113.84375 235.33994 113.84375Q236.71494 113.84375 237.37119 114.734375Q238.02744 115.609375 238.04306 117.453125L238.04306 118.859375ZM236.94931 117.375Q236.94931 116.0 236.55869 115.375Q236.18369 114.734375 235.33994 114.734375Q234.51181 114.734375 234.12119 115.375Q233.74619 116.0 233.74619 117.296875L233.74619 119.03125Q233.74619 120.40625 234.13681 121.078125Q234.54306 121.734375 235.35556 121.734375Q236.15244 121.734375 236.54306 121.109375Q236.93369 120.484375 236.94931 119.15625L236.94931 117.375ZM245.27744 122.5L239.68369 122.5L239.68369 121.71875L242.63681 118.4375Q243.29306 117.6875 243.54306 117.234375Q243.79306 116.765625 243.79306 116.265625Q243.79306 115.59375 243.38681 115.171875Q242.99619 114.734375 242.30869 114.734375Q241.51181 114.734375 241.05869 115.203125Q240.60556 115.65625 240.60556 116.484375L239.52744 116.484375Q239.52744 115.296875 240.27744 114.578125Q241.04306 113.84375 242.30869 113.84375Q243.51181 113.84375 244.19931 114.46875Q244.88681 115.09375 244.88681 116.140625Q244.88681 117.390625 243.27744 119.140625L240.99619 121.609375L245.27744 121.609375L245.27744 122.5ZM252.27744 122.5L246.68369 122.5L246.68369 121.71875L249.63681 118.4375Q250.29306 117.6875 250.54306 117.234375Q250.79306 116.765625 250.79306 116.265625Q250.79306 115.59375 250.38681 115.171875Q249.99619 114.734375 249.30869 114.734375Q248.51181 114.734375 248.05869 115.203125Q247.60556 115.65625 247.60556 116.484375L246.52744 116.484375Q246.52744 115.296875 247.27744 114.578125Q248.04306 113.84375 249.30869 113.84375Q250.51181 113.84375 251.19931 114.46875Q251.88681 115.09375 251.88681 116.140625Q251.88681 117.390625 250.27744 119.140625L247.99619 121.609375L252.27744 121.609375L252.27744 122.5Z" fill-rule="nonzero"/><path stroke="#f1c232" stroke-width="3.0" stroke-linejoin="round" stroke-linecap="round" d="M218.00722 143.57812L214.47597 151.5L213.33534 151.5L216.85097 143.85938L212.2416 143.85938L212.2416 142.96875L218.00722 142.96875L218.00722 143.57812ZM224.6791 145.1875Q224.6791 145.82812 224.33534 146.32812Q223.9916 146.82812 223.4291 147.10938Q224.08534 147.39062 224.47597 147.95312Q224.8666 148.5 224.8666 149.20312Q224.8666 150.29688 224.1166 150.96875Q223.38222 151.625 222.16347 151.625Q220.9291 151.625 220.1791 150.96875Q219.44472 150.29688 219.44472 149.20312Q219.44472 148.5 219.81972 147.95312Q220.19472 147.39062 220.8666 147.10938Q220.3041 146.82812 219.97597 146.32812Q219.64784 145.82812 219.64784 145.1875Q219.64784 144.10938 220.33534 143.48438Q221.02284 142.84375 222.16347 142.84375Q223.28847 142.84375 223.97597 143.48438Q224.6791 144.10938 224.6791 145.1875ZM223.78847 149.17188Q223.78847 148.45312 223.33534 148.01562Q222.88222 147.5625 222.14784 147.5625Q221.41347 147.5625 220.96034 148.01562Q220.52284 148.45312 220.52284 149.1875Q220.52284 149.90625 220.96034 150.32812Q221.39784 150.73438 222.16347 150.73438Q222.91347 150.73438 223.35097 150.3125Q223.78847 149.89062 223.78847 149.17188ZM222.16347 143.73438Q221.52284 143.73438 221.1166 144.14062Q220.72597 144.53125 220.72597 145.21875Q220.72597 145.85938 221.1166 146.26562Q221.50722 146.67188 222.14784 146.67188Q222.8041 146.67188 223.19472 146.26562Q223.58534 145.85938 223.58534 145.21875Q223.58534 144.5625 223.1791 144.15625Q222.77284 143.73438 222.16347 143.73438ZM226.63222 150.9375Q226.63222 150.65625 226.78847 150.46875Q226.96034 150.28125 227.28847 150.28125Q227.63222 150.28125 227.8041 150.46875Q227.97597 150.65625 227.97597 150.9375Q227.97597 151.20312 227.8041 151.39062Q227.63222 151.5625 227.28847 151.5625Q226.96034 151.5625 226.78847 151.39062Q226.63222 151.20312 226.63222 150.9375ZM229.9916 147.21875L230.4291 142.96875L234.8041 142.96875L234.8041 143.96875L231.35097 143.96875L231.08534 146.29688Q231.72597 145.92188 232.52284 145.92188Q233.6791 145.92188 234.3666 146.70312Q235.0541 147.46875 235.0541 148.78125Q235.0541 150.09375 234.33534 150.85938Q233.63222 151.625 232.35097 151.625Q231.22597 151.625 230.50722 151.0Q229.78847 150.35938 229.69472 149.25L230.71034 149.25Q230.81972 149.98438 231.2416 150.35938Q231.66347 150.73438 232.35097 150.73438Q233.10097 150.73438 233.53847 150.21875Q233.97597 149.70312 233.97597 148.79688Q233.97597 147.9375 233.50722 147.42188Q233.03847 146.90625 232.25722 146.90625Q231.5541 146.90625 231.14784 147.20312L230.8666 147.4375L229.9916 147.21875ZM238.06972 146.70312L238.88222 146.70312Q239.66347 146.6875 240.10097 146.29688Q240.53847 145.90625 240.53847 145.23438Q240.53847 143.73438 239.03847 143.73438Q238.33534 143.73438 237.91347 144.14062Q237.50722 144.54688 237.50722 145.20312L236.41347 145.20312Q236.41347 144.1875 237.14784 143.51562Q237.89784 142.84375 239.03847 142.84375Q240.2416 142.84375 240.9291 143.48438Q241.6166 144.125 241.6166 145.26562Q241.6166 145.82812 241.25722 146.34375Q240.89784 146.85938 240.27284 147.125Q240.97597 147.34375 241.35097 147.85938Q241.7416 148.375 241.7416 149.125Q241.7416 150.26562 240.9916 150.95312Q240.2416 151.625 239.03847 151.625Q237.85097 151.625 237.08534 150.96875Q236.33534 150.3125 236.33534 149.25L237.4291 149.25Q237.4291 149.92188 237.8666 150.32812Q238.3041 150.73438 239.0541 150.73438Q239.83534 150.73438 240.2416 150.32812Q240.66347 149.90625 240.66347 149.14062Q240.66347 148.40625 240.21034 148.01562Q239.75722 147.60938 238.88222 147.59375L238.06972 147.59375L238.06972 146.70312ZM243.9916 147.21875L244.4291 142.96875L248.8041 142.96875L248.8041 143.96875L245.35097 143.96875L245.08534 146.29688Q245.72597 145.92188 246.52284 145.92188Q247.6791 145.92188 248.3666 146.70312Q249.0541 147.46875 249.0541 148.78125Q249.0541 150.09375 248.33534 150.85938Q247.63222 151.625 246.35097 151.625Q245.22597 151.625 244.50722 151.0Q243.78847 150.35938 243.69472 149.25L244.71034 149.25Q244.81972 149.98438 245.2416 150.35938Q245.66347 150.73438 246.35097 150.73438Q247.10097 150.73438 247.53847 150.21875Q247.97597 149.70312 247.97597 148.79688Q247.97597 147.9375 247.50722 147.42188Q247.03847 146.90625 246.25722 146.90625Q245.5541 146.90625 245.14784 147.20312L244.8666 147.4375L243.9916 147.21875Z" fill-rule="nonzero"/><path fill="#000000" d="M218.00722 143.57812L214.47597 151.5L213.33534 151.5L216.85097 143.85938L212.2416 143.85938L212.2416 142.96875L218.00722 142.96875L218.00722 143.57812ZM224.6791 145.1875Q224.6791 145.82812 224.33534 146.32812Q223.9916 146.82812 223.4291 147.10938Q224.08534 147.39062 224.47597 147.95312Q224.8666 148.5 224.8666 149.20312Q224.8666 150.29688 224.1166 150.96875Q223.38222 151.625 222.16347 151.625Q220.9291 151.625 220.1791 150.96875Q219.44472 150.29688 219.44472 149.20312Q219.44472 148.5 219.81972 147.95312Q220.19472 147.39062 220.8666 147.10938Q220.3041 146.82812 219.97597 146.32812Q219.64784 145.82812 219.64784 145.1875Q219.64784 144.10938 220.33534 143.48438Q221.02284 142.84375 222.16347 142.84375Q223.28847 142.84375 223.97597 143.48438Q224.6791 144.10938 224.6791 145.1875ZM223.78847 149.17188Q223.78847 148.45312 223.33534 148.01562Q222.88222 147.5625 222.14784 147.5625Q221.41347 147.5625 220.96034 148.01562Q220.52284 148.45312 220.52284 149.1875Q220.52284 149.90625 220.96034 150.32812Q221.39784 150.73438 222.16347 150.73438Q222.91347 150.73438 223.35097 150.3125Q223.78847 149.89062 223.78847 149.17188ZM222.16347 143.73438Q221.52284 143.73438 221.1166 144.14062Q220.72597 144.53125 220.72597 145.21875Q220.72597 145.85938 221.1166 146.26562Q221.50722 146.67188 222.14784 146.67188Q222.8041 146.67188 223.19472 146.26562Q223.58534 145.85938 223.58534 145.21875Q223.58534 144.5625 223.1791 144.15625Q222.77284 143.73438 222.16347 143.73438ZM226.63222 150.9375Q226.63222 150.65625 226.78847 150.46875Q226.96034 150.28125 227.28847 150.28125Q227.63222 150.28125 227.8041 150.46875Q227.97597 150.65625 227.97597 150.9375Q227.97597 151.20312 227.8041 151.39062Q227.63222 151.5625 227.28847 151.5625Q226.96034 151.5625 226.78847 151.39062Q226.63222 151.20312 226.63222 150.9375ZM229.9916 147.21875L230.4291 142.96875L234.8041 142.96875L234.8041 143.96875L231.35097 143.96875L231.08534 146.29688Q231.72597 145.92188 232.52284 145.92188Q233.6791 145.92188 234.3666 146.70312Q235.0541 147.46875 235.0541 148.78125Q235.0541 150.09375 234.33534 150.85938Q233.63222 151.625 232.35097 151.625Q231.22597 151.625 230.50722 151.0Q229.78847 150.35938 229.69472 149.25L230.71034 149.25Q230.81972 149.98438 231.2416 150.35938Q231.66347 150.73438 232.35097 150.73438Q233.10097 150.73438 233.53847 150.21875Q233.97597 149.70312 233.97597 148.79688Q233.97597 147.9375 233.50722 147.42188Q233.03847 146.90625 232.25722 146.90625Q231.5541 146.90625 231.14784 147.20312L230.8666 147.4375L229.9916 147.21875ZM238.06972 146.70312L238.88222 146.70312Q239.66347 146.6875 240.10097 146.29688Q240.53847 145.90625 240.53847 145.23438Q240.53847 143.73438 239.03847 143.73438Q238.33534 143.73438 237.91347 144.14062Q237.50722 144.54688 237.50722 145.20312L236.41347 145.20312Q236.41347 144.1875 237.14784 143.51562Q237.89784 142.84375 239.03847 142.84375Q240.2416 142.84375 240.9291 143.48438Q241.6166 144.125 241.6166 145.26562Q241.6166 145.82812 241.25722 146.34375Q240.89784 146.85938 240.27284 147.125Q240.97597 147.34375 241.35097 147.85938Q241.7416 148.375 241.7416 149.125Q241.7416 150.26562 240.9916 150.95312Q240.2416 151.625 239.03847 151.625Q237.85097 151.625 237.08534 150.96875Q236.33534 150.3125 236.33534 149.25L237.4291 149.25Q237.4291 149.92188 237.8666 150.32812Q238.3041 150.73438 239.0541 150.73438Q239.83534 150.73438 240.2416 150.32812Q240.66347 149.90625 240.66347 149.14062Q240.66347 148.40625 240.21034 148.01562Q239.75722 147.60938 238.88222 147.59375L238.06972 147.59375L238.06972 146.70312ZM243.9916 147.21875L244.4291 142.96875L248.8041 142.96875L248.8041 143.96875L245.35097 143.96875L245.08534 146.29688Q245.72597 145.92188 246.52284 145.92188Q247.6791 145.92188 248.3666 146.70312Q249.0541 147.46875 249.0541 148.78125Q249.0541 150.09375 248.33534 150.85938Q247.63222 151.625 246.35097 151.625Q245.22597 151.625 244.50722 151.0Q243.78847 150.35938 243.69472 149.25L244.71034 149.25Q244.81972 149.98438 245.2416 150.35938Q245.66347 150.73438 246.35097 150.73438Q247.10097 150.73438 247.53847 150.21875Q247.97597 149.70312 247.97597 148.79688Q247.97597 147.9375 247.50722 147.42188Q247.03847 146.90625 246.25722 146.90625Q245.5541 146.90625 245.14784 147.20312L244.8666 147.4375L243.9916 147.21875Z" fill-rule="nonzero"/><path stroke="#c27ba0" stroke-width="3.0" stroke-linejoin="round" stroke-linecap="round" d="M218.41937 172.57812L214.88812 180.5L213.7475 180.5L217.26312 172.85938L212.65375 172.85938L212.65375 171.96875L218.41937 171.96875L218.41937 172.57812ZM225.09125 174.1875Q225.09125 174.82812 224.7475 175.32812Q224.40375 175.82812 223.84125 176.10938Q224.4975 176.39062 224.88812 176.95312Q225.27875 177.5 225.27875 178.20312Q225.27875 179.29688 224.52875 179.96875Q223.79437 180.625 222.57562 180.625Q221.34125 180.625 220.59125 179.96875Q219.85687 179.29688 219.85687 178.20312Q219.85687 177.5 220.23187 176.95312Q220.60687 176.39062 221.27875 176.10938Q220.71625 175.82812 220.38812 175.32812Q220.06 174.82812 220.06 174.1875Q220.06 173.10938 220.7475 172.48438Q221.435 171.84375 222.57562 171.84375Q223.70062 171.84375 224.38812 172.48438Q225.09125 173.10938 225.09125 174.1875ZM224.20062 178.17188Q224.20062 177.45312 223.7475 177.01562Q223.29437 176.5625 222.56 176.5625Q221.82562 176.5625 221.3725 177.01562Q220.935 177.45312 220.935 178.1875Q220.935 178.90625 221.3725 179.32812Q221.81 179.73438 222.57562 179.73438Q223.32562 179.73438 223.76312 179.3125Q224.20062 178.89062 224.20062 178.17188ZM222.57562 172.73438Q221.935 172.73438 221.52875 173.14062Q221.13812 173.53125 221.13812 174.21875Q221.13812 174.85938 221.52875 175.26562Q221.91937 175.67188 222.56 175.67188Q223.21625 175.67188 223.60687 175.26562Q223.9975 174.85938 223.9975 174.21875Q223.9975 173.5625 223.59125 173.15625Q223.185 172.73438 222.57562 172.73438ZM227.04437 179.9375Q227.04437 179.65625 227.20062 179.46875Q227.3725 179.28125 227.70062 179.28125Q228.04437 179.28125 228.21625 179.46875Q228.38812 179.65625 228.38812 179.9375Q228.38812 180.20312 228.21625 180.39062Q228.04437 180.5625 227.70062 180.5625Q227.3725 180.5625 227.20062 180.39062Q227.04437 180.20312 227.04437 179.9375ZM235.41937 172.57812L231.88812 180.5L230.7475 180.5L234.26312 172.85938L229.65375 172.85938L229.65375 171.96875L235.41937 171.96875L235.41937 172.57812ZM242.4975 180.5L236.90375 180.5L236.90375 179.71875L239.85687 176.4375Q240.51312 175.6875 240.76312 175.23438Q241.01312 174.76562 241.01312 174.26562Q241.01312 173.59375 240.60687 173.17188Q240.21625 172.73438 239.52875 172.73438Q238.73187 172.73438 238.27875 173.20312Q237.82562 173.65625 237.82562 174.48438L236.7475 174.48438Q236.7475 173.29688 237.4975 172.57812Q238.26312 171.84375 239.52875 171.84375Q240.73187 171.84375 241.41937 172.46875Q242.10687 173.09375 242.10687 174.14062Q242.10687 175.39062 240.4975 177.14062L238.21625 179.60938L242.4975 179.60938L242.4975 180.5ZM249.41937 172.57812L245.88812 180.5L244.7475 180.5L248.26312 172.85938L243.65375 172.85938L243.65375 171.96875L249.41937 171.96875L249.41937 172.57812Z" fill-rule="nonzero"/><path fill="#000000" d="M218.41937 172.57812L214.88812 180.5L213.7475 180.5L217.26312 172.85938L212.65375 172.85938L212.65375 171.96875L218.41937 171.96875L218.41937 172.57812ZM225.09125 174.1875Q225.09125 174.82812 224.7475 175.32812Q224.40375 175.82812 223.84125 176.10938Q224.4975 176.39062 224.88812 176.95312Q225.27875 177.5 225.27875 178.20312Q225.27875 179.29688 224.52875 179.96875Q223.79437 180.625 222.57562 180.625Q221.34125 180.625 220.59125 179.96875Q219.85687 179.29688 219.85687 178.20312Q219.85687 177.5 220.23187 176.95312Q220.60687 176.39062 221.27875 176.10938Q220.71625 175.82812 220.38812 175.32812Q220.06 174.82812 220.06 174.1875Q220.06 173.10938 220.7475 172.48438Q221.435 171.84375 222.57562 171.84375Q223.70062 171.84375 224.38812 172.48438Q225.09125 173.10938 225.09125 174.1875ZM224.20062 178.17188Q224.20062 177.45312 223.7475 177.01562Q223.29437 176.5625 222.56 176.5625Q221.82562 176.5625 221.3725 177.01562Q220.935 177.45312 220.935 178.1875Q220.935 178.90625 221.3725 179.32812Q221.81 179.73438 222.57562 179.73438Q223.32562 179.73438 223.76312 179.3125Q224.20062 178.89062 224.20062 178.17188ZM222.57562 172.73438Q221.935 172.73438 221.52875 173.14062Q221.13812 173.53125 221.13812 174.21875Q221.13812 174.85938 221.52875 175.26562Q221.91937 175.67188 222.56 175.67188Q223.21625 175.67188 223.60687 175.26562Q223.9975 174.85938 223.9975 174.21875Q223.9975 173.5625 223.59125 173.15625Q223.185 172.73438 222.57562 172.73438ZM227.04437 179.9375Q227.04437 179.65625 227.20062 179.46875Q227.3725 179.28125 227.70062 179.28125Q228.04437 179.28125 228.21625 179.46875Q228.38812 179.65625 228.38812 179.9375Q228.38812 180.20312 228.21625 180.39062Q228.04437 180.5625 227.70062 180.5625Q227.3725 180.5625 227.20062 180.39062Q227.04437 180.20312 227.04437 179.9375ZM235.41937 172.57812L231.88812 180.5L230.7475 180.5L234.26312 172.85938L229.65375 172.85938L229.65375 171.96875L235.41937 171.96875L235.41937 172.57812ZM242.4975 180.5L236.90375 180.5L236.90375 179.71875L239.85687 176.4375Q240.51312 175.6875 240.76312 175.23438Q241.01312 174.76562 241.01312 174.26562Q241.01312 173.59375 240.60687 173.17188Q240.21625 172.73438 239.52875 172.73438Q238.73187 172.73438 238.27875 173.20312Q237.82562 173.65625 237.82562 174.48438L236.7475 174.48438Q236.7475 173.29688 237.4975 172.57812Q238.26312 171.84375 239.52875 171.84375Q240.73187 171.84375 241.41937 172.46875Q242.10687 173.09375 242.10687 174.14062Q242.10687 175.39062 240.4975 177.14062L238.21625 179.60938L242.4975 179.60938L242.4975 180.5ZM249.41937 172.57812L245.88812 180.5L244.7475 180.5L248.26312 172.85938L243.65375 172.85938L243.65375 171.96875L249.41937 171.96875L249.41937 172.57812Z" fill-rule="nonzero"/><path fill="#000000" d="M236.04688 241.23438L237.10938 241.14062Q237.1875 241.79688 237.46875 242.20312Q237.75 242.60938 238.32812 242.875Q238.92188 243.125 239.65625 243.125Q240.29688 243.125 240.79688 242.9375Q241.29688 242.73438 241.53125 242.40625Q241.78125 242.0625 241.78125 241.67188Q241.78125 241.26562 241.54688 240.96875Q241.3125 240.65625 240.78125 240.45312Q240.42188 240.3125 239.23438 240.03125Q238.0625 239.75 237.59375 239.5Q236.96875 239.17188 236.67188 238.70312Q236.375 238.21875 236.375 237.625Q236.375 236.98438 236.73438 236.42188Q237.10938 235.84375 237.8125 235.5625Q238.53125 235.26562 239.39062 235.26562Q240.34375 235.26562 241.07812 235.57812Q241.8125 235.875 242.20312 236.48438Q242.59375 237.07812 242.625 237.82812L241.53125 237.90625Q241.4375 237.09375 240.92188 236.6875Q240.42188 236.26562 239.4375 236.26562Q238.40625 236.26562 237.9375 236.64062Q237.46875 237.01562 237.46875 237.54688Q237.46875 238.01562 237.79688 238.3125Q238.125 238.60938 239.5 238.92188Q240.89062 239.23438 241.40625 239.46875Q242.15625 239.82812 242.51562 240.35938Q242.875 240.875 242.875 241.57812Q242.875 242.26562 242.48438 242.875Q242.09375 243.46875 241.35938 243.8125Q240.625 244.14062 239.70312 244.14062Q238.53125 244.14062 237.73438 243.8125Q236.95312 243.46875 236.5 242.78125Q236.0625 242.09375 236.04688 241.23438ZM244.29688 236.625L244.29688 235.40625L245.35938 235.40625L245.35938 236.625L244.29688 236.625ZM244.29688 244.0L244.29688 237.78125L245.35938 237.78125L245.35938 244.0L244.29688 244.0ZM246.73438 244.0L246.73438 243.14062L250.70312 238.59375Q250.01562 238.625 249.5 238.625L246.96875 238.625L246.96875 237.78125L252.0625 237.78125L252.0625 238.46875L248.6875 242.42188L248.03125 243.14062Q248.75 243.09375 249.35938 243.09375L252.25 243.09375L252.25 244.0L246.73438 244.0ZM256.54688 242.0L257.64062 242.125Q257.39062 243.07812 256.6875 243.60938Q255.98438 244.14062 254.90625 244.14062Q253.54688 244.14062 252.73438 243.29688Q251.9375 242.45312 251.9375 240.9375Q251.9375 239.375 252.75 238.51562Q253.5625 237.64062 254.84375 237.64062Q256.09375 237.64062 256.875 238.48438Q257.67188 239.32812 257.67188 240.875Q257.67188 240.96875 257.67188 241.15625L253.03125 241.15625Q253.09375 242.1875 253.60938 242.73438Q254.125 243.26562 254.90625 243.26562Q255.48438 243.26562 255.89062 242.96875Q256.3125 242.65625 256.54688 242.0ZM253.09375 240.29688L256.5625 240.29688Q256.5 239.5 256.17188 239.10938Q255.65625 238.5 254.85938 238.5Q254.125 238.5 253.625 238.98438Q253.14062 239.46875 253.09375 240.29688Z" fill-rule="nonzero"/><path fill="#000000" d="M53.796875 28.971458L53.796875 27.752708L54.859375 27.752708L54.859375 28.971458L53.796875 28.971458ZM53.796875 36.34646L53.796875 30.127708L54.859375 30.127708L54.859375 36.34646L53.796875 36.34646ZM56.796875 36.34646L56.796875 30.127708L57.734375 30.127708L57.734375 31.002708Q58.421875 29.987083 59.71875 29.987083Q60.28125 29.987083 60.75 30.190208Q61.234375 30.393333 61.46875 30.721458Q61.703125 31.049583 61.796875 31.487083Q61.84375 31.783958 61.84375 32.518333L61.84375 36.34646L60.796875 36.34646L60.796875 32.56521Q60.796875 31.908958 60.671875 31.596458Q60.546875 31.283958 60.234375 31.096458Q59.921875 30.893333 59.5 30.893333Q58.828125 30.893333 58.328125 31.330833Q57.84375 31.752708 57.84375 32.94021L57.84375 36.34646L56.796875 36.34646ZM63.796875 38.737083L63.796875 30.127708L64.75 30.127708L64.75 30.924583Q65.09375 30.455833 65.515625 30.221458Q65.953125 29.987083 66.5625 29.987083Q67.359375 29.987083 67.96875 30.393333Q68.578125 30.799583 68.875 31.549583Q69.1875 32.299583 69.1875 33.19021Q69.1875 34.143333 68.84375 34.90896Q68.515625 35.674583 67.859375 36.080833Q67.203125 36.487083 66.484375 36.487083Q65.953125 36.487083 65.53125 36.268333Q65.109375 36.03396 64.84375 35.705833L64.84375 38.737083L63.796875 38.737083ZM64.75 33.268333Q64.75 34.47146 65.234375 35.049583Q65.71875 35.612083 66.40625 35.612083Q67.109375 35.612083 67.609375 35.018333Q68.109375 34.424583 68.109375 33.174583Q68.109375 31.987083 67.625 31.408958Q67.140625 30.815208 66.453125 30.815208Q65.78125 30.815208 65.265625 31.440208Q64.75 32.06521 64.75 33.268333ZM74.875 36.34646L74.875 35.424583Q74.140625 36.487083 72.890625 36.487083Q72.34375 36.487083 71.859375 36.28396Q71.390625 36.06521 71.15625 35.75271Q70.921875 35.424583 70.828125 34.955833Q70.765625 34.65896 70.765625 33.97146L70.765625 30.127708L71.828125 30.127708L71.828125 33.580833Q71.828125 34.393333 71.890625 34.69021Q71.984375 35.09646 72.296875 35.34646Q72.625 35.580833 73.109375 35.580833Q73.578125 35.580833 73.984375 35.34646Q74.40625 35.09646 74.578125 34.674583Q74.765625 34.25271 74.765625 33.455833L74.765625 30.127708L75.8125 30.127708L75.8125 36.34646L74.875 36.34646ZM80.09375 35.40896L80.25 36.330833Q79.796875 36.424583 79.453125 36.424583Q78.875 36.424583 78.5625 36.25271Q78.25 36.06521 78.109375 35.768333Q77.984375 35.47146 77.984375 34.518333L77.984375 30.940208L77.21875 30.940208L77.21875 30.127708L77.984375 30.127708L77.984375 28.580833L79.03125 27.955833L79.03125 30.127708L80.09375 30.127708L80.09375 30.940208L79.03125 30.940208L79.03125 34.580833Q79.03125 35.03396 79.078125 35.15896Q79.140625 35.28396 79.265625 35.362083Q79.390625 35.44021 79.625 35.44021Q79.8125 35.44021 80.09375 35.40896Z" fill-rule="nonzero"/><path fill="#000000" d="M65.765625 65.00787L65.765625 56.414124L66.828125 56.414124L66.828125 65.00787L65.765625 65.00787ZM68.234375 65.00787L68.234375 64.1485L72.203125 59.601624Q71.515625 59.632874 71.0 59.632874L68.46875 59.632874L68.46875 58.789124L73.5625 58.789124L73.5625 59.476624L70.1875 63.42975L69.53125 64.1485Q70.25 64.10162 70.859375 64.10162L73.75 64.10162L73.75 65.00787L68.234375 65.00787ZM76.875 65.00787L76.875 62.945374L73.15625 62.945374L73.15625 61.976624L77.078125 56.414124L77.9375 56.414124L77.9375 61.976624L79.09375 61.976624L79.09375 62.945374L77.9375 62.945374L77.9375 65.00787L76.875 65.00787ZM76.875 61.976624L76.875 58.11725L74.1875 61.976624L76.875 61.976624Z" fill-rule="nonzero"/><path fill="#000000" d="M58.59375 94.18491L59.625 94.34116Q59.6875 94.80991 59.984375 95.02866Q60.375 95.32554 61.046875 95.32554Q61.78125 95.32554 62.171875 95.02866Q62.578125 94.73179 62.71875 94.21616Q62.8125 93.88804 62.796875 92.85679Q62.109375 93.66929 61.078125 93.66929Q59.796875 93.66929 59.09375 92.74741Q58.390625 91.80991 58.390625 90.52866Q58.390625 89.63804 58.703125 88.88804Q59.03125 88.12241 59.640625 87.71616Q60.25 87.30991 61.078125 87.30991Q62.1875 87.30991 62.90625 88.20054L62.90625 87.45054L63.875 87.45054L63.875 92.82554Q63.875 94.27866 63.578125 94.88804Q63.28125 95.49741 62.640625 95.84116Q62.0 96.20054 61.0625 96.20054Q59.953125 96.20054 59.265625 95.70054Q58.578125 95.20054 58.59375 94.18491ZM59.46875 90.45054Q59.46875 91.66929 59.953125 92.23179Q60.4375 92.79429 61.171875 92.79429Q61.90625 92.79429 62.390625 92.23179Q62.890625 91.66929 62.890625 90.48179Q62.890625 89.34116 62.375 88.76304Q61.875 88.18491 61.15625 88.18491Q60.453125 88.18491 59.953125 88.76304Q59.46875 89.32554 59.46875 90.45054ZM65.234375 93.66929L65.234375 92.80991L69.203125 88.26304Q68.515625 88.29429 68.0 88.29429L65.46875 88.29429L65.46875 87.45054L70.5625 87.45054L70.5625 88.13804L67.1875 92.09116L66.53125 92.80991Q67.25 92.76304 67.859375 92.76304L70.75 92.76304L70.75 93.66929L65.234375 93.66929ZM70.796875 86.29429L70.796875 85.07554L71.859375 85.07554L71.859375 86.29429L70.796875 86.29429ZM70.796875 93.66929L70.796875 87.45054L71.859375 87.45054L71.859375 93.66929L70.796875 93.66929ZM73.796875 96.05991L73.796875 87.45054L74.75 87.45054L74.75 88.24741Q75.09375 87.77866 75.515625 87.54429Q75.953125 87.30991 76.5625 87.30991Q77.359375 87.30991 77.96875 87.71616Q78.578125 88.12241 78.875 88.87241Q79.1875 89.62241 79.1875 90.51304Q79.1875 91.46616 78.84375 92.23179Q78.515625 92.99741 77.859375 93.40366Q77.203125 93.80991 76.484375 93.80991Q75.953125 93.80991 75.53125 93.59116Q75.109375 93.35679 74.84375 93.02866L74.84375 96.05991L73.796875 96.05991ZM74.75 90.59116Q74.75 91.79429 75.234375 92.37241Q75.71875 92.93491 76.40625 92.93491Q77.109375 92.93491 77.609375 92.34116Q78.109375 91.74741 78.109375 90.49741Q78.109375 89.30991 77.625 88.73179Q77.140625 88.13804 76.453125 88.13804Q75.78125 88.13804 75.265625 88.76304Q74.75 89.38804 74.75 90.59116Z" fill-rule="nonzero"/><path fill="#000000" d="M55.765625 122.33071L55.765625 113.73696L56.828125 113.73696L56.828125 122.33071L55.765625 122.33071ZM58.234375 122.33071L58.234375 121.47134L62.203125 116.92446Q61.515625 116.95571 61.0 116.95571L58.46875 116.95571L58.46875 116.11196L63.5625 116.11196L63.5625 116.79946L60.1875 120.75259L59.53125 121.47134Q60.25 121.42446 60.859375 121.42446L63.75 121.42446L63.75 122.33071L58.234375 122.33071ZM64.046875 122.33071L64.046875 116.92446L63.109375 116.92446L63.109375 116.11196L64.046875 116.11196L64.046875 115.44009Q64.046875 114.81509 64.15625 114.51821Q64.3125 114.09634 64.6875 113.84634Q65.078125 113.59634 65.765625 113.59634Q66.21875 113.59634 66.75 113.70571L66.59375 114.61196Q66.265625 114.56509 65.96875 114.56509Q65.484375 114.56509 65.28125 114.76821Q65.09375 114.97134 65.09375 115.53384L65.09375 116.11196L66.3125 116.11196L66.3125 116.92446L65.09375 116.92446L65.09375 122.33071L64.046875 122.33071ZM66.375 120.47134L67.40625 120.31509Q67.5 120.94009 67.890625 121.26821Q68.296875 121.59634 69.03125 121.59634Q69.75 121.59634 70.09375 121.31509Q70.453125 121.01821 70.453125 120.61196Q70.453125 120.25259 70.140625 120.04946Q69.921875 119.90884 69.0625 119.69009Q67.90625 119.39321 67.453125 119.19009Q67.015625 118.97134 66.78125 118.59634Q66.546875 118.22134 66.546875 117.75259Q66.546875 117.34634 66.734375 116.98696Q66.921875 116.62759 67.25 116.39321Q67.5 116.22134 67.921875 116.09634Q68.34375 115.97134 68.84375 115.97134Q69.5625 115.97134 70.109375 116.19009Q70.671875 116.39321 70.9375 116.75259Q71.203125 117.11196 71.296875 117.70571L70.265625 117.84634Q70.203125 117.37759 69.859375 117.11196Q69.53125 116.83071 68.90625 116.83071Q68.1875 116.83071 67.875 117.08071Q67.5625 117.31509 67.5625 117.64321Q67.5625 117.84634 67.6875 118.00259Q67.828125 118.17446 68.09375 118.28384Q68.25 118.34634 69.03125 118.54946Q70.15625 118.86196 70.59375 119.04946Q71.03125 119.23696 71.28125 119.59634Q71.53125 119.95571 71.53125 120.50259Q71.53125 121.03384 71.21875 121.50259Q70.921875 121.95571 70.34375 122.22134Q69.765625 122.47134 69.03125 122.47134Q67.8125 122.47134 67.171875 121.97134Q66.546875 121.45571 66.375 120.47134ZM78.046875 120.33071L79.140625 120.45571Q78.890625 121.40884 78.1875 121.94009Q77.484375 122.47134 76.40625 122.47134Q75.046875 122.47134 74.234375 121.62759Q73.4375 120.78384 73.4375 119.26821Q73.4375 117.70571 74.25 116.84634Q75.0625 115.97134 76.34375 115.97134Q77.59375 115.97134 78.375 116.81509Q79.171875 117.65884 79.171875 119.20571Q79.171875 119.29946 79.171875 119.48696L74.53125 119.48696Q74.59375 120.51821 75.109375 121.06509Q75.625 121.59634 76.40625 121.59634Q76.984375 121.59634 77.390625 121.29946Q77.8125 120.98696 78.046875 120.33071ZM74.59375 118.62759L78.0625 118.62759Q78.0 117.83071 77.671875 117.44009Q77.15625 116.83071 76.359375 116.83071Q75.625 116.83071 75.125 117.31509Q74.640625 117.79946 74.59375 118.62759Z" fill-rule="nonzero"/><path fill="#000000" d="M58.234375 150.99213L58.234375 150.13275L62.203125 145.58588Q61.515625 145.61713 61.0 145.61713L58.46875 145.61713L58.46875 144.77338L63.5625 144.77338L63.5625 145.46088L60.1875 149.414L59.53125 150.13275Q60.25 150.08588 60.859375 150.08588L63.75 150.08588L63.75 150.99213L58.234375 150.99213ZM63.375 149.13275L64.40625 148.9765Q64.5 149.6015 64.890625 149.92963Q65.296875 150.25775 66.03125 150.25775Q66.75 150.25775 67.09375 149.9765Q67.453125 149.67963 67.453125 149.27338Q67.453125 148.914 67.140625 148.71088Q66.921875 148.57025 66.0625 148.3515Q64.90625 148.05463 64.453125 147.8515Q64.015625 147.63275 63.78125 147.25775Q63.546875 146.88275 63.546875 146.414Q63.546875 146.00775 63.734375 145.64838Q63.921875 145.289 64.25 145.05463Q64.5 144.88275 64.921875 144.75775Q65.34375 144.63275 65.84375 144.63275Q66.5625 144.63275 67.109375 144.8515Q67.671875 145.05463 67.9375 145.414Q68.203125 145.77338 68.296875 146.36713L67.265625 146.50775Q67.203125 146.039 66.859375 145.77338Q66.53125 145.49213 65.90625 145.49213Q65.1875 145.49213 64.875 145.74213Q64.5625 145.9765 64.5625 146.30463Q64.5625 146.50775 64.6875 146.664Q64.828125 146.83588 65.09375 146.94525Q65.25 147.00775 66.03125 147.21088Q67.15625 147.52338 67.59375 147.71088Q68.03125 147.89838 68.28125 148.25775Q68.53125 148.61713 68.53125 149.164Q68.53125 149.69525 68.21875 150.164Q67.921875 150.61713 67.34375 150.88275Q66.765625 151.13275 66.03125 151.13275Q64.8125 151.13275 64.171875 150.63275Q63.546875 150.11713 63.375 149.13275ZM73.09375 150.05463L73.25 150.9765Q72.796875 151.07025 72.453125 151.07025Q71.875 151.07025 71.5625 150.89838Q71.25 150.71088 71.109375 150.414Q70.984375 150.11713 70.984375 149.164L70.984375 145.58588L70.21875 145.58588L70.21875 144.77338L70.984375 144.77338L70.984375 143.2265L72.03125 142.6015L72.03125 144.77338L73.09375 144.77338L73.09375 145.58588L72.03125 145.58588L72.03125 149.2265Q72.03125 149.67963 72.078125 149.80463Q72.140625 149.92963 72.265625 150.00775Q72.390625 150.08588 72.625 150.08588Q72.8125 150.08588 73.09375 150.05463ZM77.828125 150.99213L77.828125 150.21088Q77.234375 151.13275 76.09375 151.13275Q75.34375 151.13275 74.71875 150.7265Q74.09375 150.30463 73.75 149.57025Q73.40625 148.83588 73.40625 147.88275Q73.40625 146.96088 73.71875 146.19525Q74.03125 145.42963 74.65625 145.039Q75.28125 144.63275 76.046875 144.63275Q76.609375 144.63275 77.046875 144.86713Q77.484375 145.1015 77.765625 145.4765L77.765625 142.39838L78.8125 142.39838L78.8125 150.99213L77.828125 150.99213ZM74.5 147.88275Q74.5 149.08588 75.0 149.67963Q75.5 150.25775 76.1875 150.25775Q76.875 150.25775 77.359375 149.69525Q77.84375 149.13275 77.84375 147.9765Q77.84375 146.69525 77.34375 146.1015Q76.859375 145.50775 76.140625 145.50775Q75.4375 145.50775 74.96875 146.08588Q74.5 146.64838 74.5 147.88275Z" fill-rule="nonzero"/><path fill="#000000" d="M17.859375 177.3723L18.890625 177.51292Q18.71875 178.57542 18.015625 179.1848Q17.3125 179.79417 16.296875 179.79417Q15.015625 179.79417 14.234375 178.96605Q13.46875 178.1223 13.46875 176.5598Q13.46875 175.5598 13.796875 174.8098Q14.140625 174.04417 14.8125 173.66917Q15.5 173.29417 16.3125 173.29417Q17.3125 173.29417 17.953125 173.8098Q18.609375 174.3098 18.796875 175.26292L17.765625 175.41917Q17.625 174.79417 17.25 174.48167Q16.875 174.15355 16.34375 174.15355Q15.546875 174.15355 15.046875 174.73167Q14.546875 175.29417 14.546875 176.52855Q14.546875 177.79417 15.03125 178.35667Q15.515625 178.91917 16.28125 178.91917Q16.90625 178.91917 17.3125 178.54417Q17.734375 178.16917 17.859375 177.3723ZM19.40625 176.54417Q19.40625 174.8098 20.359375 173.98167Q21.15625 173.29417 22.3125 173.29417Q23.59375 173.29417 24.40625 174.13792Q25.234375 174.96605 25.234375 176.45042Q25.234375 177.65355 24.875 178.34105Q24.515625 179.02855 23.8125 179.41917Q23.125 179.79417 22.3125 179.79417Q21.015625 179.79417 20.203125 178.96605Q19.40625 178.1223 19.40625 176.54417ZM20.484375 176.54417Q20.484375 177.73167 21.0 178.32542Q21.53125 178.91917 22.3125 178.91917Q23.109375 178.91917 23.625 178.32542Q24.140625 177.73167 24.140625 176.51292Q24.140625 175.35667 23.609375 174.76292Q23.09375 174.16917 22.3125 174.16917Q21.53125 174.16917 21.0 174.76292Q20.484375 175.34105 20.484375 176.54417ZM26.796875 179.65355L26.796875 173.4348L27.734375 173.4348L27.734375 174.3098Q28.03125 173.84105 28.515625 173.57542Q29.0 173.29417 29.625 173.29417Q30.3125 173.29417 30.75 173.57542Q31.203125 173.85667 31.375 174.3723Q32.125 173.29417 33.296875 173.29417Q34.234375 173.29417 34.71875 173.8098Q35.21875 174.3098 35.21875 175.38792L35.21875 179.65355L34.171875 179.65355L34.171875 175.73167Q34.171875 175.10667 34.0625 174.82542Q33.96875 174.54417 33.703125 174.3723Q33.4375 174.20042 33.0625 174.20042Q32.40625 174.20042 31.96875 174.63792Q31.546875 175.07542 31.546875 176.04417L31.546875 179.65355L30.484375 179.65355L30.484375 175.60667Q30.484375 174.90355 30.21875 174.5598Q29.96875 174.20042 29.390625 174.20042Q28.9375 174.20042 28.5625 174.4348Q28.1875 174.66917 28.015625 175.1223Q27.84375 175.57542 27.84375 176.41917L27.84375 179.65355L26.796875 179.65355ZM37.796875 182.04417L37.796875 173.4348L38.75 173.4348L38.75 174.23167Q39.09375 173.76292 39.515625 173.52855Q39.953125 173.29417 40.5625 173.29417Q41.359375 173.29417 41.96875 173.70042Q42.578125 174.10667 42.875 174.85667Q43.1875 175.60667 43.1875 176.4973Q43.1875 177.45042 42.84375 178.21605Q42.515625 178.98167 41.859375 179.38792Q41.203125 179.79417 40.484375 179.79417Q39.953125 179.79417 39.53125 179.57542Q39.109375 179.34105 38.84375 179.01292L38.84375 182.04417L37.796875 182.04417ZM38.75 176.57542Q38.75 177.77855 39.234375 178.35667Q39.71875 178.91917 40.40625 178.91917Q41.109375 178.91917 41.609375 178.32542Q42.109375 177.73167 42.109375 176.48167Q42.109375 175.29417 41.625 174.71605Q41.140625 174.1223 40.453125 174.1223Q39.78125 174.1223 39.265625 174.7473Q38.75 175.3723 38.75 176.57542ZM44.78125 179.65355L44.78125 173.4348L45.734375 173.4348L45.734375 174.3723Q46.09375 173.71605 46.390625 173.51292Q46.703125 173.29417 47.078125 173.29417Q47.609375 173.29417 48.15625 173.6223L47.796875 174.60667Q47.40625 174.3723 47.03125 174.3723Q46.671875 174.3723 46.390625 174.59105Q46.125 174.79417 46.015625 175.16917Q45.828125 175.73167 45.828125 176.38792L45.828125 179.65355L44.78125 179.65355ZM53.046875 177.65355L54.140625 177.77855Q53.890625 178.73167 53.1875 179.26292Q52.484375 179.79417 51.40625 179.79417Q50.046875 179.79417 49.234375 178.95042Q48.4375 178.10667 48.4375 176.59105Q48.4375 175.02855 49.25 174.16917Q50.0625 173.29417 51.34375 173.29417Q52.59375 173.29417 53.375 174.13792Q54.171875 174.98167 54.171875 176.52855Q54.171875 176.6223 54.171875 176.8098L49.53125 176.8098Q49.59375 177.84105 50.109375 178.38792Q50.625 178.91917 51.40625 178.91917Q51.984375 178.91917 52.390625 178.6223Q52.8125 178.3098 53.046875 177.65355ZM49.59375 175.95042L53.0625 175.95042Q53.0 175.15355 52.671875 174.76292Q52.15625 174.15355 51.359375 174.15355Q50.625 174.15355 50.125 174.63792Q49.640625 175.1223 49.59375 175.95042ZM55.375 177.79417L56.40625 177.63792Q56.5 178.26292 56.890625 178.59105Q57.296875 178.91917 58.03125 178.91917Q58.75 178.91917 59.09375 178.63792Q59.453125 178.34105 59.453125 177.9348Q59.453125 177.57542 59.140625 177.3723Q58.921875 177.23167 58.0625 177.01292Q56.90625 176.71605 56.453125 176.51292Q56.015625 176.29417 55.78125 175.91917Q55.546875 175.54417 55.546875 175.07542Q55.546875 174.66917 55.734375 174.3098Q55.921875 173.95042 56.25 173.71605Q56.5 173.54417 56.921875 173.41917Q57.34375 173.29417 57.84375 173.29417Q58.5625 173.29417 59.109375 173.51292Q59.671875 173.71605 59.9375 174.07542Q60.203125 174.4348 60.296875 175.02855L59.265625 175.16917Q59.203125 174.70042 58.859375 174.4348Q58.53125 174.15355 57.90625 174.15355Q57.1875 174.15355 56.875 174.40355Q56.5625 174.63792 56.5625 174.96605Q56.5625 175.16917 56.6875 175.32542Q56.828125 175.4973 57.09375 175.60667Q57.25 175.66917 58.03125 175.8723Q59.15625 176.1848 59.59375 176.3723Q60.03125 176.5598 60.28125 176.91917Q60.53125 177.27855 60.53125 177.82542Q60.53125 178.35667 60.21875 178.82542Q59.921875 179.27855 59.34375 179.54417Q58.765625 179.79417 58.03125 179.79417Q56.8125 179.79417 56.171875 179.29417Q55.546875 178.77855 55.375 177.79417ZM62.375 177.79417L63.40625 177.63792Q63.5 178.26292 63.890625 178.59105Q64.296875 178.91917 65.03125 178.91917Q65.75 178.91917 66.09375 178.63792Q66.453125 178.34105 66.453125 177.9348Q66.453125 177.57542 66.140625 177.3723Q65.921875 177.23167 65.0625 177.01292Q63.90625 176.71605 63.453125 176.51292Q63.015625 176.29417 62.78125 175.91917Q62.546875 175.54417 62.546875 175.07542Q62.546875 174.66917 62.734375 174.3098Q62.921875 173.95042 63.25 173.71605Q63.5 173.54417 63.921875 173.41917Q64.34375 173.29417 64.84375 173.29417Q65.5625 173.29417 66.109375 173.51292Q66.671875 173.71605 66.9375 174.07542Q67.203125 174.4348 67.296875 175.02855L66.265625 175.16917Q66.203125 174.70042 65.859375 174.4348Q65.53125 174.15355 64.90625 174.15355Q64.1875 174.15355 63.875 174.40355Q63.5625 174.63792 63.5625 174.96605Q63.5625 175.16917 63.6875 175.32542Q63.828125 175.4973 64.09375 175.60667Q64.25 175.66917 65.03125 175.8723Q66.15625 176.1848 66.59375 176.3723Q67.03125 176.5598 67.28125 176.91917Q67.53125 177.27855 67.53125 177.82542Q67.53125 178.35667 67.21875 178.82542Q66.921875 179.27855 66.34375 179.54417Q65.765625 179.79417 65.03125 179.79417Q63.8125 179.79417 63.171875 179.29417Q62.546875 178.77855 62.375 177.79417ZM69.40625 176.54417Q69.40625 174.8098 70.359375 173.98167Q71.15625 173.29417 72.3125 173.29417Q73.59375 173.29417 74.40625 174.13792Q75.234375 174.96605 75.234375 176.45042Q75.234375 177.65355 74.875 178.34105Q74.515625 179.02855 73.8125 179.41917Q73.125 179.79417 72.3125 179.79417Q71.015625 179.79417 70.203125 178.96605Q69.40625 178.1223 69.40625 176.54417ZM70.484375 176.54417Q70.484375 177.73167 71.0 178.32542Q71.53125 178.91917 72.3125 178.91917Q73.109375 178.91917 73.625 178.32542Q74.140625 177.73167 74.140625 176.51292Q74.140625 175.35667 73.609375 174.76292Q73.09375 174.16917 72.3125 174.16917Q71.53125 174.16917 71.0 174.76292Q70.484375 175.34105 70.484375 176.54417ZM76.78125 179.65355L76.78125 173.4348L77.734375 173.4348L77.734375 174.3723Q78.09375 173.71605 78.390625 173.51292Q78.703125 173.29417 79.078125 173.29417Q79.609375 173.29417 80.15625 173.6223L79.796875 174.60667Q79.40625 174.3723 79.03125 174.3723Q78.671875 174.3723 78.390625 174.59105Q78.125 174.79417 78.015625 175.16917Q77.828125 175.73167 77.828125 176.38792L77.828125 179.65355L76.78125 179.65355Z" fill-rule="nonzero"/><path fill="#000000" d="M83.0 207.76562Q83.0 206.23438 83.3125 205.3125Q83.625 204.375 84.234375 203.875Q84.859375 203.375 85.796875 203.375Q86.484375 203.375 87.0 203.65625Q87.53125 203.9375 87.875 204.46875Q88.21875 204.98438 88.40625 205.73438Q88.59375 206.48438 88.59375 207.76562Q88.59375 209.28125 88.28125 210.20312Q87.984375 211.125 87.359375 211.64062Q86.75 212.14062 85.796875 212.14062Q84.5625 212.14062 83.84375 211.25Q83.0 210.1875 83.0 207.76562ZM84.078125 207.76562Q84.078125 209.875 84.578125 210.57812Q85.078125 211.28125 85.796875 211.28125Q86.53125 211.28125 87.015625 210.57812Q87.515625 209.875 87.515625 207.76562Q87.515625 205.64062 87.015625 204.95312Q86.53125 204.25 85.78125 204.25Q85.0625 204.25 84.625 204.85938Q84.078125 205.64062 84.078125 207.76562Z" fill-rule="nonzero"/><path fill="#000000" d="M186.83333 209.75L187.9427 209.65625Q188.0677 210.46875 188.5052 210.875Q188.95833 211.28125 189.59895 211.28125Q190.34895 211.28125 190.8802 210.70312Q191.41145 210.125 191.41145 209.1875Q191.41145 208.28125 190.89583 207.76562Q190.39583 207.23438 189.5677 207.23438Q189.0677 207.23438 188.64583 207.46875Q188.23958 207.70312 188.0052 208.0625L187.02083 207.9375L187.84895 203.53125L192.1302 203.53125L192.1302 204.53125L188.6927 204.53125L188.23958 206.84375Q189.0052 206.29688 189.84895 206.29688Q190.97395 206.29688 191.73958 207.07812Q192.52083 207.85938 192.52083 209.09375Q192.52083 210.25 191.84895 211.10938Q191.02083 212.14062 189.59895 212.14062Q188.42708 212.14062 187.67708 211.48438Q186.9427 210.82812 186.83333 209.75ZM193.83333 207.76562Q193.83333 206.23438 194.14583 205.3125Q194.45833 204.375 195.0677 203.875Q195.6927 203.375 196.6302 203.375Q197.3177 203.375 197.83333 203.65625Q198.36458 203.9375 198.70833 204.46875Q199.05208 204.98438 199.23958 205.73438Q199.42708 206.48438 199.42708 207.76562Q199.42708 209.28125 199.11458 210.20312Q198.8177 211.125 198.1927 211.64062Q197.58333 212.14062 196.6302 212.14062Q195.39583 212.14062 194.67708 211.25Q193.83333 210.1875 193.83333 207.76562ZM194.91145 207.76562Q194.91145 209.875 195.41145 210.57812Q195.91145 211.28125 196.6302 211.28125Q197.36458 211.28125 197.84895 210.57812Q198.34895 209.875 198.34895 207.76562Q198.34895 205.64062 197.84895 204.95312Q197.36458 204.25 196.61458 204.25Q195.89583 204.25 195.45833 204.85938Q194.91145 205.64062 194.91145 207.76562Z" fill-rule="nonzero"/><path fill="#000000" d="M294.6354 212.0L293.58853 212.0L293.58853 205.28125Q293.1979 205.64062 292.5729 206.01562Q291.96353 206.375 291.47916 206.54688L291.47916 205.53125Q292.35416 205.10938 293.0104 204.53125Q293.68228 203.9375 293.96353 203.375L294.6354 203.375L294.6354 212.0ZM297.66666 207.76562Q297.66666 206.23438 297.97916 205.3125Q298.29166 204.375 298.90103 203.875Q299.52603 203.375 300.46353 203.375Q301.15103 203.375 301.66666 203.65625Q302.1979 203.9375 302.54166 204.46875Q302.8854 204.98438 303.0729 205.73438Q303.2604 206.48438 303.2604 207.76562Q303.2604 209.28125 302.9479 210.20312Q302.65103 211.125 302.02603 211.64062Q301.41666 212.14062 300.46353 212.14062Q299.22916 212.14062 298.5104 211.25Q297.66666 210.1875 297.66666 207.76562ZM298.74478 207.76562Q298.74478 209.875 299.24478 210.57812Q299.74478 211.28125 300.46353 211.28125Q301.1979 211.28125 301.68228 210.57812Q302.18228 209.875 302.18228 207.76562Q302.18228 205.64062 301.68228 204.95312Q301.1979 204.25 300.4479 204.25Q299.72916 204.25 299.29166 204.85938Q298.74478 205.64062 298.74478 207.76562ZM304.66666 207.76562Q304.66666 206.23438 304.97916 205.3125Q305.29166 204.375 305.90103 203.875Q306.52603 203.375 307.46353 203.375Q308.15103 203.375 308.66666 203.65625Q309.1979 203.9375 309.54166 204.46875Q309.8854 204.98438 310.0729 205.73438Q310.2604 206.48438 310.2604 207.76562Q310.2604 209.28125 309.9479 210.20312Q309.65103 211.125 309.02603 211.64062Q308.41666 212.14062 307.46353 212.14062Q306.22916 212.14062 305.5104 211.25Q304.66666 210.1875 304.66666 207.76562ZM305.74478 207.76562Q305.74478 209.875 306.24478 210.57812Q306.74478 211.28125 307.46353 211.28125Q308.1979 211.28125 308.68228 210.57812Q309.18228 209.875 309.18228 207.76562Q309.18228 205.64062 308.68228 204.95312Q308.1979 204.25 307.4479 204.25Q306.72916 204.25 306.29166 204.85938Q305.74478 205.64062 305.74478 207.76562Z" fill-rule="nonzero"/><path fill="#000000" d="M401.96875 212.0L400.92188 212.0L400.92188 205.28125Q400.53125 205.64062 399.90625 206.01562Q399.29688 206.375 398.8125 206.54688L398.8125 205.53125Q399.6875 205.10938 400.34375 204.53125Q401.01562 203.9375 401.29688 203.375L401.96875 203.375L401.96875 212.0ZM405.0 209.75L406.10938 209.65625Q406.23438 210.46875 406.67188 210.875Q407.125 211.28125 407.76562 211.28125Q408.51562 211.28125 409.04688 210.70312Q409.57812 210.125 409.57812 209.1875Q409.57812 208.28125 409.0625 207.76562Q408.5625 207.23438 407.73438 207.23438Q407.23438 207.23438 406.8125 207.46875Q406.40625 207.70312 406.17188 208.0625L405.1875 207.9375L406.01562 203.53125L410.29688 203.53125L410.29688 204.53125L406.85938 204.53125L406.40625 206.84375Q407.17188 206.29688 408.01562 206.29688Q409.14062 206.29688 409.90625 207.07812Q410.6875 207.85938 410.6875 209.09375Q410.6875 210.25 410.01562 211.10938Q409.1875 212.14062 407.76562 212.14062Q406.59375 212.14062 405.84375 211.48438Q405.10938 210.82812 405.0 209.75ZM412.0 207.76562Q412.0 206.23438 412.3125 205.3125Q412.625 204.375 413.23438 203.875Q413.85938 203.375 414.79688 203.375Q415.48438 203.375 416.0 203.65625Q416.53125 203.9375 416.875 204.46875Q417.21875 204.98438 417.40625 205.73438Q417.59375 206.48438 417.59375 207.76562Q417.59375 209.28125 417.28125 210.20312Q416.98438 211.125 416.35938 211.64062Q415.75 212.14062 414.79688 212.14062Q413.5625 212.14062 412.84375 211.25Q412.0 210.1875 412.0 207.76562ZM413.07812 207.76562Q413.07812 209.875 413.57812 210.57812Q414.07812 211.28125 414.79688 211.28125Q415.53125 211.28125 416.01562 210.57812Q416.51562 209.875 416.51562 207.76562Q416.51562 205.64062 416.01562 204.95312Q415.53125 204.25 414.78125 204.25Q414.0625 204.25 413.625 204.85938Q413.07812 205.64062 413.07812 207.76562Z" fill-rule="nonzero"/></svg>