<svg version="1.1" viewBox="0.0 0.0 429.0 266.0" fill="none" stroke="none" stroke-linecap="square" stroke-miterlimit="10" width="429" height="266" xmlns:xlink="http://www.w3.org/1999/xlink" xmlns="http://www.w3.org/2000/svg"><path fill="#ffffff" d="M0 0L429.0 0L429.0 266.0L0 266.0L0 0Z" fill-rule="nonzero"/><path stroke="#333333" stroke-width="1.0" stroke-linecap="butt" d="M47.5 200.5L415.5 200.5" fill-rule="nonzero"/><path stroke="#cccccc" stroke-width="1.0" stroke-linecap="butt" d="M47.5 151.5L415.5 151.5" fill-rule="nonzero"/><path stroke="#cccccc" stroke-width="1.0" stroke-linecap="butt" d="M47.5 102.5L415.5 102.5" fill-rule="nonzero"/><path stroke="#cccccc" stroke-width="1.0" stroke-linecap="butt" d="M47.5 53.5L415.5 53.5" fill-rule="nonzero"/><clipPath id="id_0"><path d="M47.3 53.166668L415.7 53.166668L415.7 200.7L47.3 200.7L47.3 53.166668Z" clip-rule="nonzero"/></clipPath><path stroke="#000000" stroke-width="2.0" stroke-linecap="butt" stroke-opacity="0.0" clip-path="url(#id_0)" d="M63.0 201.0L53.0 201.0L53.0 81.0C53.0 79.89543 53.89543 79.0 55.0 79.0L61.0 79.0C62.10457 79.0 63.0 79.89543 63.0 81.0Z" fill-rule="nonzero"/><path fill="#4285f4" clip-path="url(#id_0)" d="M63.0 201.0L53.0 201.0L53.0 81.0C53.0 79.89543 53.89543 79.0 55.0 79.0L61.0 79.0C62.10457 79.0 63.0 79.89543 63.0 81.0Z" fill-rule="nonzero"/><path stroke="#000000" stroke-width="2.0" stroke-linecap="butt" stroke-opacity="0.0" clip-path="url(#id_0)" d="M79.0 201.0L69.0 201.0L69.0 66.0C69.0 64.89543 69.89543 64.0 71.0 64.0L77.0 64.0C78.10457 64.0 79.0 64.89543 79.0 66.0Z" fill-rule="nonzero"/><path fill="#4285f4" clip-path="url(#id_0)" d="M79.0 201.0L69.0 201.0L69.0 66.0C69.0 64.89543 69.89543 64.0 71.0 64.0L77.0 64.0C78.10457 64.0 79.0 64.89543 79.0 66.0Z" fill-rule="nonzero"/><path stroke="#000000" stroke-width="2.0" stroke-linecap="butt" stroke-opacity="0.0" clip-path="url(#id_0)" d="M95.0 201.0L85.0 201.0L85.0 93.0C85.0 91.89543 85.89543 91.0 87.0 91.0L93.0 91.0C94.10457 91.0 95.0 91.89543 95.0 93.0Z" fill-rule="nonzero"/><path fill="#4285f4" clip-path="url(#id_0)" d="M95.0 201.0L85.0 201.0L85.0 93.0C85.0 91.89543 85.89543 91.0 87.0 91.0L93.0 91.0C94.10457 91.0 95.0 91.89543 95.0 93.0Z" fill-rule="nonzero"/><path stroke="#000000" stroke-width="2.0" stroke-linecap="butt" stroke-opacity="0.0" clip-path="url(#id_0)" d="M110.0 201.0L100.0 201.0L100.0 108.0C100.0 106.89543 100.89543 106.0 102.0 106.0L108.0 106.0C109.10457 106.0 110.0 106.89543 110.0 108.0Z" fill-rule="nonzero"/><path fill="#4285f4" clip-path="url(#id_0)" d="M110.0 201.0L100.0 201.0L100.0 108.0C100.0 106.89543 100.89543 106.0 102.0 106.0L108.0 106.0C109.10457 106.0 110.0 106.89543 110.0 108.0Z" fill-rule="nonzero"/><path stroke="#000000" stroke-width="2.0" stroke-linecap="butt" stroke-opacity="0.0" clip-path="url(#id_0)" d="M126.0 201.0L116.0 201.0L116.0 127.0C116.0 125.89543 116.89543 125.0 118.0 125.0L124.0 125.0C125.10457 125.0 126.0 125.89543 126.0 127.0Z" fill-rule="nonzero"/><path fill="#4285f4" clip-path="url(#id_0)" d="M126.0 201.0L116.0 201.0L116.0 127.0C116.0 125.89543 116.89543 125.0 118.0 125.0L124.0 125.0C125.10457 125.0 126.0 125.89543 126.0 127.0Z" fill-rule="nonzero"/><path stroke="#000000" stroke-width="2.0" stroke-linecap="butt" stroke-opacity="0.0" clip-path="url(#id_0)" d="M142.0 201.0L132.0 201.0L132.0 144.0C132.0 142.89543 132.89543 142.0 134.0 142.0L140.0 142.0C141.10457 142.0 142.0 142.89543 142.0 144.0Z" fill-rule="nonzero"/><path fill="#4285f4" clip-path="url(#id_0)" d="M142.0 201.0L132.0 201.0L132.0 144.0C132.0 142.89543 132.89543 142.0 134.0 142.0L140.0 142.0C141.10457 142.0 142.0 142.89543 142.0 144.0Z" fill-rule="nonzero"/><path stroke="#000000" stroke-width="2.0" stroke-linecap="butt" stroke-opacity="0.0" clip-path="url(#id_0)" d="M158.0 201.0L148.0 201.0L148.0 159.0C148.0 157.89543 148.89543 157.0 150.0 157.0L156.0 157.0C157.10457 157.0 158.0 157.89543 158.0 159.0Z" fill-rule="nonzero"/><path fill="#4285f4" clip-path="url(#id_0)" d="M158.0 201.0L148.0 201.0L148.0 159.0C148.0 157.89543 148.89543 157.0 150.0 157.0L156.0 157.0C157.10457 157.0 158.0 157.89543 158.0 159.0Z" fill-rule="nonzero"/><path stroke="#000000" stroke-width="2.0" stroke-linecap="butt" stroke-opacity="0.0" clip-path="url(#id_0)" d="M173.0 201.0L163.0 201.0L163.0 171.0C163.0 169.89543 163.89543 169.0 165.0 169.0L171.0 169.0C172.10457 169.0 173.0 169.89543 173.0 171.0Z" fill-rule="nonzero"/><path fill="#4285f4" clip-path="url(#id_0)" d="M173.0 201.0L163.0 201.0L163.0 171.0C163.0 169.89543 163.89543 169.0 165.0 169.0L171.0 169.0C172.10457 169.0 173.0 169.89543 173.0 171.0Z" fill-rule="nonzero"/><path stroke="#000000" stroke-width="2.0" stroke-linecap="butt" stroke-opacity="0.0" clip-path="url(#id_0)" d="M189.0 201.0L179.0 201.0L179.0 180.0C179.0 178.89543 179.89543 178.0 181.0 178.0L187.0 178.0C188.10457 178.0 189.0 178.89543 189.0 180.0Z" fill-rule="nonzero"/><path fill="#4285f4" clip-path="url(#id_0)" d="M189.0 201.0L179.0 201.0L179.0 180.0C179.0 178.89543 179.89543 178.0 181.0 178.0L187.0 178.0C188.10457 178.0 189.0 178.89543 189.0 180.0Z" fill-rule="nonzero"/><path stroke="#000000" stroke-width="2.0" stroke-linecap="butt" stroke-opacity="0.0" clip-path="url(#id_0)" d="M205.0 201.0L195.0 201.0L195.0 186.0C195.0 184.89543 195.89543 184.0 197.0 184.0L203.0 184.0C204.10457 184.0 205.0 184.89543 205.0 186.0Z" fill-rule="nonzero"/><path fill="#4285f4" clip-path="url(#id_0)" d="M205.0 201.0L195.0 201.0L195.0 186.0C195.0 184.89543 195.89543 184.0 197.0 184.0L203.0 184.0C204.10457 184.0 205.0 184.89543 205.0 186.0Z" fill-rule="nonzero"/><path stroke="#000000" stroke-width="2.0" stroke-linecap="butt" stroke-opacity="0.0" clip-path="url(#id_0)" d="M221.0 201.0L211.0 201.0L211.0 190.0C211.0 188.89543 211.89543 188.0 213.0 188.0L219.0 188.0C220.10457 188.0 221.0 188.89543 221.0 190.0Z" fill-rule="nonzero"/><path fill="#4285f4" clip-path="url(#id_0)" d="M221.0 201.0L211.0 201.0L211.0 190.0C211.0 188.89543 211.89543 188.0 213.0 188.0L219.0 188.0C220.10457 188.0 221.0 188.89543 221.0 190.0Z" fill-rule="nonzero"/><path stroke="#000000" stroke-width="2.0" stroke-linecap="butt" stroke-opacity="0.0" clip-path="url(#id_0)" d="M237.0 201.0L227.0 201.0L227.0 193.0C227.0 191.89543 227.89543 191.0 229.0 191.0L235.0 191.0C236.10457 191.0 237.0 191.89543 237.0 193.0Z" fill-rule="nonzero"/><path fill="#4285f4" clip-path="url(#id_0)" d="M237.0 201.0L227.0 201.0L227.0 193.0C227.0 191.89543 227.89543 191.0 229.0 191.0L235.0 191.0C236.10457 191.0 237.0 191.89543 237.0 193.0Z" fill-rule="nonzero"/><path stroke="#000000" stroke-width="2.0" stroke-linecap="butt" stroke-opacity="0.0" clip-path="url(#id_0)" d="M252.0 201.0L242.0 201.0L242.0 195.0C242.0 193.89543 242.89543 193.0 244.0 193.0L250.0 193.0C251.10457 193.0 252.0 193.89543 252.0 195.0Z" fill-rule="nonzero"/><path fill="#4285f4" clip-path="url(#id_0)" d="M252.0 201.0L242.0 201.0L242.0 195.0C242.0 193.89543 242.89543 193.0 244.0 193.0L250.0 193.0C251.10457 193.0 252.0 193.89543 252.0 195.0Z" fill-rule="nonzero"/><path stroke="#000000" stroke-width="2.0" stroke-linecap="butt" stroke-opacity="0.0" clip-path="url(#id_0)" d="M268.0 201.0L258.0 201.0L258.0 197.0C258.0 195.89543 258.89542 195.0 260.0 195.0L266.0 195.0C267.10458 195.0 268.0 195.89543 268.0 197.0Z" fill-rule="nonzero"/><path fill="#4285f4" clip-path="url(#id_0)" d="M268.0 201.0L258.0 201.0L258.0 197.0C258.0 195.89543 258.89542 195.0 260.0 195.0L266.0 195.0C267.10458 195.0 268.0 195.89543 268.0 197.0Z" fill-rule="nonzero"/><path stroke="#000000" stroke-width="2.0" stroke-linecap="butt" stroke-opacity="0.0" clip-path="url(#id_0)" d="M284.0 201.0L274.0 201.0L274.0 198.0C274.0 196.89543 274.89542 196.0 276.0 196.0L282.0 196.0C283.10458 196.0 284.0 196.89543 284.0 198.0Z" fill-rule="nonzero"/><path fill="#4285f4" clip-path="url(#id_0)" d="M284.0 201.0L274.0 201.0L274.0 198.0C274.0 196.89543 274.89542 196.0 276.0 196.0L282.0 196.0C283.10458 196.0 284.0 196.89543 284.0 198.0Z" fill-rule="nonzero"/><path stroke="#000000" stroke-width="2.0" stroke-linecap="butt" stroke-opacity="0.0" clip-path="url(#id_0)" d="M300.0 201.0L290.0 201.0L290.0 199.0C290.0 197.89543 290.89542 197.0 292.0 197.0L298.0 197.0C299.10458 197.0 300.0 197.89543 300.0 199.0Z" fill-rule="nonzero"/><path fill="#4285f4" clip-path="url(#id_0)" d="M300.0 201.0L290.0 201.0L290.0 199.0C290.0 197.89543 290.89542 197.0 292.0 197.0L298.0 197.0C299.10458 197.0 300.0 197.89543 300.0 199.0Z" fill-rule="nonzero"/><path stroke="#000000" stroke-width="2.0" stroke-linecap="butt" stroke-opacity="0.0" clip-path="url(#id_0)" d="M315.0 201.0L305.0 201.0L305.0 199.0C305.0 197.89543 305.89542 197.0 307.0 197.0L313.0 197.0C314.10458 197.0 315.0 197.89543 315.0 199.0Z" fill-rule="nonzero"/><path fill="#4285f4" clip-path="url(#id_0)" d="M315.0 201.0L305.0 201.0L305.0 199.0C305.0 197.89543 305.89542 197.0 307.0 197.0L313.0 197.0C314.10458 197.0 315.0 197.89543 315.0 199.0Z" fill-rule="nonzero"/><path stroke="#000000" stroke-width="2.0" stroke-linecap="butt" stroke-opacity="0.0" clip-path="url(#id_0)" d="M331.0 201.0L321.0 201.0L321.0 199.0C321.0 197.89543 321.89542 197.0 323.0 197.0L329.0 197.0C330.10458 197.0 331.0 197.89543 331.0 199.0Z" fill-rule="nonzero"/><path fill="#4285f4" clip-path="url(#id_0)" d="M331.0 201.0L321.0 201.0L321.0 199.0C321.0 197.89543 321.89542 197.0 323.0 197.0L329.0 197.0C330.10458 197.0 331.0 197.89543 331.0 199.0Z" fill-rule="nonzero"/><path stroke="#000000" stroke-width="2.0" stroke-linecap="butt" stroke-opacity="0.0" clip-path="url(#id_0)" d="M347.0 201.0L337.0 201.0L337.0 199.5C337.0 198.67157 337.67157 198.0 338.5 198.0L345.5 198.0C346.32843 198.0 347.0 198.67157 347.0 199.5Z" fill-rule="nonzero"/><path fill="#4285f4" clip-path="url(#id_0)" d="M347.0 201.0L337.0 201.0L337.0 199.5C337.0 198.67157 337.67157 198.0 338.5 198.0L345.5 198.0C346.32843 198.0 347.0 198.67157 347.0 199.5Z" fill-rule="nonzero"/><path stroke="#000000" stroke-width="2.0" stroke-linecap="butt" stroke-opacity="0.0" clip-path="url(#id_0)" d="M363.0 201.0L353.0 201.0L353.0 200.0C353.0 199.44771 353.44772 199.0 354.0 199.0L362.0 199.0C362.55228 199.0 363.0 199.44771 363.0 200.0Z" fill-rule="nonzero"/><path fill="#4285f4" clip-path="url(#id_0)" d="M363.0 201.0L353.0 201.0L353.0 200.0C353.0 199.44771 353.44772 199.0 354.0 199.0L362.0 199.0C362.55228 199.0 363.0 199.44771 363.0 200.0Z" fill-rule="nonzero"/><path stroke="#000000" stroke-width="2.0" stroke-linecap="butt" stroke-opacity="0.0" clip-path="url(#id_0)" d="M378.0 201.0L368.0 201.0L368.0 200.0C368.0 199.44771 368.44772 199.0 369.0 199.0L377.0 199.0C377.55228 199.0 378.0 199.44771 378.0 200.0Z" fill-rule="nonzero"/><path fill="#4285f4" clip-path="url(#id_0)" d="M378.0 201.0L368.0 201.0L368.0 200.0C368.0 199.44771 368.44772 199.0 369.0 199.0L377.0 199.0C377.55228 199.0 378.0 199.44771 378.0 200.0Z" fill-rule="nonzero"/><path stroke="#000000" stroke-width="2.0" stroke-linecap="butt" stroke-opacity="0.0" clip-path="url(#id_0)" d="M394.0 201.0L384.0 201.0L384.0 200.0C384.0 199.44771 384.44772 199.0 385.0 199.0L393.0 199.0C393.55228 199.0 394.0 199.44771 394.0 200.0Z" fill-rule="nonzero"/><path fill="#4285f4" clip-path="url(#id_0)" d="M394.0 201.0L384.0 201.0L384.0 200.0C384.0 199.44771 384.44772 199.0 385.0 199.0L393.0 199.0C393.55228 199.0 394.0 199.44771 394.0 200.0Z" fill-rule="nonzero"/><path stroke="#000000" stroke-width="2.0" stroke-linecap="butt" stroke-opacity="0.0" clip-path="url(#id_0)" d="M410.0 201.0L400.0 201.0L400.0 200.0C400.0 199.44771 400.44772 199.0 401.0 199.0L409.0 199.0C409.55228 199.0 410.0 199.44771 410.0 200.0Z" fill-rule="nonzero"/><path fill="#4285f4" clip-path="url(#id_0)" d="M410.0 201.0L400.0 201.0L400.0 200.0C400.0 199.44771 400.44772 199.0 401.0 199.0L409.0 199.0C409.55228 199.0 410.0 199.44771 410.0 200.0Z" fill-rule="nonzero"/><path fill="#000000" d="M197.89062 249.7L197.89062 241.10625L199.60938 241.10625L201.64062 247.18437Q201.92188 248.04375 202.04688 248.46562Q202.1875 247.99687 202.5 247.09062L204.5625 241.10625L206.09375 241.10625L206.09375 249.7L205.0 249.7L205.0 242.5125L202.5 249.7L201.46875 249.7L198.98438 242.3875L198.98438 249.7L197.89062 249.7ZM210.85938 248.93437Q210.26562 249.43437 209.71875 249.6375Q209.1875 249.84062 208.5625 249.84062Q207.53125 249.84062 206.98438 249.34062Q206.4375 248.84062 206.4375 248.05937Q206.4375 247.60625 206.64062 247.23125Q206.84375 246.84062 207.1875 246.62187Q207.53125 246.3875 207.95312 246.27812Q208.25 246.18437 208.89062 246.10625Q210.15625 245.96562 210.76562 245.74687Q210.76562 245.52812 210.76562 245.48125Q210.76562 244.825 210.46875 244.55937Q210.0625 244.21562 209.26562 244.21562Q208.53125 244.21562 208.17188 244.48125Q207.8125 244.73125 207.64062 245.3875L206.60938 245.24687Q206.75 244.59062 207.07812 244.18437Q207.40625 243.77812 208.01562 243.55937Q208.625 243.34062 209.42188 243.34062Q210.21875 243.34062 210.71875 243.52812Q211.21875 243.71562 211.45312 243.99687Q211.6875 244.27812 211.78125 244.71562Q211.82812 244.98125 211.82812 245.68437L211.82812 247.09062Q211.82812 248.55937 211.89062 248.95Q211.96875 249.34062 212.17188 249.7L211.0625 249.7Q210.90625 249.37187 210.85938 248.93437ZM210.76562 246.575Q210.1875 246.80937 209.04688 246.98125Q208.39062 247.075 208.125 247.2Q207.85938 247.30937 207.70312 247.52812Q207.5625 247.74687 207.5625 248.02812Q207.5625 248.45 207.875 248.73125Q208.20312 249.0125 208.8125 249.0125Q209.42188 249.0125 209.89062 248.74687Q210.375 248.48125 210.59375 248.0125Q210.76562 247.65312 210.76562 246.96562L210.76562 246.575ZM216.09375 248.7625L216.25 249.68437Q215.79688 249.77812 215.45312 249.77812Q214.875 249.77812 214.5625 249.60625Q214.25 249.41875 214.10938 249.12187Q213.98438 248.825 213.98438 247.87187L213.98438 244.29375L213.21875 244.29375L213.21875 243.48125L213.98438 243.48125L213.98438 241.93437L215.03125 241.30937L215.03125 243.48125L216.09375 243.48125L216.09375 244.29375L215.03125 244.29375L215.03125 247.93437Q215.03125 248.3875 215.07812 248.5125Q215.14062 248.6375 215.26562 248.71562Q215.39062 248.79375 215.625 248.79375Q215.8125 248.79375 216.09375 248.7625ZM220.85938 247.41875L221.89062 247.55937Q221.71875 248.62187 221.01562 249.23125Q220.3125 249.84062 219.29688 249.84062Q218.01562 249.84062 217.23438 249.0125Q216.46875 248.16875 216.46875 246.60625Q216.46875 245.60625 216.79688 244.85625Q217.14062 244.09062 217.8125 243.71562Q218.5 243.34062 219.3125 243.34062Q220.3125 243.34062 220.95312 243.85625Q221.60938 244.35625 221.79688 245.30937L220.76562 245.46562Q220.625 244.84062 220.25 244.52812Q219.875 244.2 219.34375 244.2Q218.54688 244.2 218.04688 244.77812Q217.54688 245.34062 217.54688 246.575Q217.54688 247.84062 218.03125 248.40312Q218.51562 248.96562 219.28125 248.96562Q219.90625 248.96562 220.3125 248.59062Q220.73438 248.21562 220.85938 247.41875ZM222.79688 249.7L222.79688 241.10625L223.84375 241.10625L223.84375 244.18437Q224.57812 243.34062 225.70312 243.34062Q226.40625 243.34062 226.90625 243.62187Q227.42188 243.8875 227.64062 244.37187Q227.85938 244.84062 227.85938 245.7625L227.85938 249.7L226.8125 249.7L226.8125 245.7625Q226.8125 244.96562 226.46875 244.60625Q226.125 244.24687 225.5 244.24687Q225.03125 244.24687 224.60938 244.49687Q224.20312 244.73125 224.01562 245.15312Q223.84375 245.55937 223.84375 246.29375L223.84375 249.7L222.79688 249.7ZM232.76562 249.7L232.76562 241.10625L233.82812 241.10625L233.82812 249.7L232.76562 249.7ZM240.04688 247.7L241.14062 247.825Q240.89062 248.77812 240.1875 249.30937Q239.48438 249.84062 238.40625 249.84062Q237.04688 249.84062 236.23438 248.99687Q235.4375 248.15312 235.4375 246.6375Q235.4375 245.075 236.25 244.21562Q237.0625 243.34062 238.34375 243.34062Q239.59375 243.34062 240.375 244.18437Q241.17188 245.02812 241.17188 246.575Q241.17188 246.66875 241.17188 246.85625L236.53125 246.85625Q236.59375 247.8875 237.10938 248.43437Q237.625 248.96562 238.40625 248.96562Q238.98438 248.96562 239.39062 248.66875Q239.8125 248.35625 240.04688 247.7ZM236.59375 245.99687L240.0625 245.99687Q240.0 245.2 239.67188 244.80937Q239.15625 244.2 238.35938 244.2Q237.625 244.2 237.125 244.68437Q236.64062 245.16875 236.59375 245.99687ZM242.79688 249.7L242.79688 243.48125L243.73438 243.48125L243.73438 244.35625Q244.42188 243.34062 245.71875 243.34062Q246.28125 243.34062 246.75 243.54375Q247.23438 243.74687 247.46875 244.075Q247.70312 244.40312 247.79688 244.84062Q247.84375 245.1375 247.84375 245.87187L247.84375 249.7L246.79688 249.7L246.79688 245.91875Q246.79688 245.2625 246.67188 244.95Q246.54688 244.6375 246.23438 244.45Q245.92188 244.24687 245.5 244.24687Q244.82812 244.24687 244.32812 244.68437Q243.84375 245.10625 243.84375 246.29375L243.84375 249.7L242.79688 249.7ZM249.59375 250.21562L250.625 250.37187Q250.6875 250.84062 250.98438 251.05937Q251.375 251.35625 252.04688 251.35625Q252.78125 251.35625 253.17188 251.05937Q253.57812 250.7625 253.71875 250.24687Q253.8125 249.91875 253.79688 248.8875Q253.10938 249.7 252.07812 249.7Q250.79688 249.7 250.09375 248.77812Q249.39062 247.84062 249.39062 246.55937Q249.39062 245.66875 249.70312 244.91875Q250.03125 244.15312 250.64062 243.74687Q251.25 243.34062 252.07812 243.34062Q253.1875 243.34062 253.90625 244.23125L253.90625 243.48125L254.875 243.48125L254.875 248.85625Q254.875 250.30937 254.57812 250.91875Q254.28125 251.52812 253.64062 251.87187Q253.0 252.23125 252.0625 252.23125Q250.95312 252.23125 250.26562 251.73125Q249.57812 251.23125 249.59375 250.21562ZM250.46875 246.48125Q250.46875 247.7 250.95312 248.2625Q251.4375 248.825 252.17188 248.825Q252.90625 248.825 253.39062 248.2625Q253.89062 247.7 253.89062 246.5125Q253.89062 245.37187 253.375 244.79375Q252.875 244.21562 252.15625 244.21562Q251.45312 244.21562 250.95312 244.79375Q250.46875 245.35625 250.46875 246.48125ZM259.09375 248.7625L259.25 249.68437Q258.79688 249.77812 258.45312 249.77812Q257.875 249.77812 257.5625 249.60625Q257.25 249.41875 257.10938 249.12187Q256.98438 248.825 256.98438 247.87187L256.98438 244.29375L256.21875 244.29375L256.21875 243.48125L256.98438 243.48125L256.98438 241.93437L258.03125 241.30937L258.03125 243.48125L259.09375 243.48125L259.09375 244.29375L258.03125 244.29375L258.03125 247.93437Q258.03125 248.3875 258.07812 248.5125Q258.14062 248.6375 258.26562 248.71562Q258.39062 248.79375 258.625 248.79375Q258.8125 248.79375 259.09375 248.7625ZM259.79688 249.7L259.79688 241.10625L260.84375 241.10625L260.84375 244.18437Q261.57812 243.34062 262.70312 243.34062Q263.40625 243.34062 263.90625 243.62187Q264.42188 243.8875 264.64062 244.37187Q264.85938 244.84062 264.85938 245.7625L264.85938 249.7L263.8125 249.7L263.8125 245.7625Q263.8125 244.96562 263.46875 244.60625Q263.125 244.24687 262.5 244.24687Q262.03125 244.24687 261.60938 244.49687Q261.20312 244.73125 261.01562 245.15312Q260.84375 245.55937 260.84375 246.29375L260.84375 249.7L259.79688 249.7Z" fill-rule="nonzero"/><path fill="#000000" d="M34.8 200.46562Q34.8 198.93437 35.1125 198.0125Q35.425 197.075 36.034374 196.575Q36.659374 196.075 37.596874 196.075Q38.284374 196.075 38.8 196.35625Q39.33125 196.6375 39.675 197.16875Q40.01875 197.68437 40.20625 198.43437Q40.39375 199.18437 40.39375 200.46562Q40.39375 201.98125 40.08125 202.90312Q39.784374 203.825 39.159374 204.34062Q38.55 204.84062 37.596874 204.84062Q36.3625 204.84062 35.64375 203.95Q34.8 202.8875 34.8 200.46562ZM35.878124 200.46562Q35.878124 202.575 36.378124 203.27812Q36.878124 203.98125 37.596874 203.98125Q38.33125 203.98125 38.815624 203.27812Q39.315624 202.575 39.315624 200.46562Q39.315624 198.34062 38.815624 197.65312Q38.33125 196.95 37.58125 196.95Q36.8625 196.95 36.425 197.55937Q35.878124 198.34062 35.878124 200.46562Z" fill-rule="nonzero"/><path fill="#000000" d="M20.8 153.27222L21.909374 153.17847Q22.034374 153.99097 22.471874 154.39722Q22.925 154.80347 23.565624 154.80347Q24.315624 154.80347 24.846874 154.22534Q25.378124 153.64722 25.378124 152.70972Q25.378124 151.80347 24.8625 151.28784Q24.3625 150.75659 23.534374 150.75659Q23.034374 150.75659 22.6125 150.99097Q22.20625 151.22534 21.971874 151.58472L20.9875 151.45972L21.815624 147.05347L26.096874 147.05347L26.096874 148.05347L22.659374 148.05347L22.20625 150.36597Q22.971874 149.81909 23.815624 149.81909Q24.940624 149.81909 25.70625 150.60034Q26.4875 151.38159 26.4875 152.61597Q26.4875 153.77222 25.815624 154.63159Q24.9875 155.66284 23.565624 155.66284Q22.39375 155.66284 21.64375 155.00659Q20.909374 154.35034 20.8 153.27222ZM27.8 151.28784Q27.8 149.75659 28.1125 148.83472Q28.425 147.89722 29.034374 147.39722Q29.659374 146.89722 30.596874 146.89722Q31.284374 146.89722 31.8 147.17847Q32.33125 147.45972 32.675 147.99097Q33.01875 148.50659 33.20625 149.25659Q33.39375 150.00659 33.39375 151.28784Q33.39375 152.80347 33.08125 153.72534Q32.784374 154.64722 32.159374 155.16284Q31.55 155.66284 30.596874 155.66284Q29.3625 155.66284 28.64375 154.77222Q27.8 153.70972 27.8 151.28784ZM28.878124 151.28784Q28.878124 153.39722 29.378124 154.10034Q29.878124 154.80347 30.596874 154.80347Q31.33125 154.80347 31.815624 154.10034Q32.315624 153.39722 32.315624 151.28784Q32.315624 149.16284 31.815624 148.47534Q31.33125 147.77222 30.58125 147.77222Q29.8625 147.77222 29.425 148.38159Q28.878124 149.16284 28.878124 151.28784ZM34.8 151.28784Q34.8 149.75659 35.1125 148.83472Q35.425 147.89722 36.034374 147.39722Q36.659374 146.89722 37.596874 146.89722Q38.284374 146.89722 38.8 147.17847Q39.33125 147.45972 39.675 147.99097Q40.01875 148.50659 40.20625 149.25659Q40.39375 150.00659 40.39375 151.28784Q40.39375 152.80347 40.08125 153.72534Q39.784374 154.64722 39.159374 155.16284Q38.55 155.66284 37.596874 155.66284Q36.3625 155.66284 35.64375 154.77222Q34.8 153.70972 34.8 151.28784ZM35.878124 151.28784Q35.878124 153.39722 36.378124 154.10034Q36.878124 154.80347 37.596874 154.80347Q38.33125 154.80347 38.815624 154.10034Q39.315624 153.39722 39.315624 151.28784Q39.315624 149.16284 38.815624 148.47534Q38.33125 147.77222 37.58125 147.77222Q36.8625 147.77222 36.425 148.38159Q35.878124 149.16284 35.878124 151.28784Z" fill-rule="nonzero"/><path fill="#000000" d="M17.76875 106.344444L16.721874 106.344444L16.721874 99.625694Q16.33125 99.98507 15.70625 100.36007Q15.096875 100.719444 14.6125 100.89132L14.6125 99.875694Q15.4875 99.45382 16.14375 98.875694Q16.815624 98.281944 17.096874 97.719444L17.76875 97.719444L17.76875 106.344444ZM20.8 102.11007Q20.8 100.57882 21.1125 99.656944Q21.425 98.719444 22.034374 98.219444Q22.659374 97.719444 23.596874 97.719444Q24.284374 97.719444 24.8 98.000694Q25.33125 98.281944 25.675 98.813194Q26.01875 99.32882 26.20625 100.07882Q26.39375 100.82882 26.39375 102.11007Q26.39375 103.625694 26.08125 104.54757Q25.784374 105.469444 25.159374 105.98507Q24.55 106.48507 23.596874 106.48507Q22.3625 106.48507 21.64375 105.594444Q20.8 104.531944 20.8 102.11007ZM21.878124 102.11007Q21.878124 104.219444 22.378124 104.92257Q22.878124 105.625694 23.596874 105.625694Q24.33125 105.625694 24.815624 104.92257Q25.315624 104.219444 25.315624 102.11007Q25.315624 99.98507 24.815624 99.29757Q24.33125 98.594444 23.58125 98.594444Q22.8625 98.594444 22.425 99.20382Q21.878124 99.98507 21.878124 102.11007ZM27.8 102.11007Q27.8 100.57882 28.1125 99.656944Q28.425 98.719444 29.034374 98.219444Q29.659374 97.719444 30.596874 97.719444Q31.284374 97.719444 31.8 98.000694Q32.33125 98.281944 32.675 98.813194Q33.01875 99.32882 33.20625 100.07882Q33.39375 100.82882 33.39375 102.11007Q33.39375 103.625694 33.08125 104.54757Q32.784374 105.469444 32.159374 105.98507Q31.55 106.48507 30.596874 106.48507Q29.3625 106.48507 28.64375 105.594444Q27.8 104.531944 27.8 102.11007ZM28.878124 102.11007Q28.878124 104.219444 29.378124 104.92257Q29.878124 105.625694 30.596874 105.625694Q31.33125 105.625694 31.815624 104.92257Q32.315624 104.219444 32.315624 102.11007Q32.315624 99.98507 31.815624 99.29757Q31.33125 98.594444 30.58125 98.594444Q29.8625 98.594444 29.425 99.20382Q28.878124 99.98507 28.878124 102.11007ZM34.8 102.11007Q34.8 100.57882 35.1125 99.656944Q35.425 98.719444 36.034374 98.219444Q36.659374 97.719444 37.596874 97.719444Q38.284374 97.719444 38.8 98.000694Q39.33125 98.281944 39.675 98.813194Q40.01875 99.32882 40.20625 100.07882Q40.39375 100.82882 40.39375 102.11007Q40.39375 103.625694 40.08125 104.54757Q39.784374 105.469444 39.159374 105.98507Q38.55 106.48507 37.596874 106.48507Q36.3625 106.48507 35.64375 105.594444Q34.8 104.531944 34.8 102.11007ZM35.878124 102.11007Q35.878124 104.219444 36.378124 104.92257Q36.878124 105.625694 37.596874 105.625694Q38.33125 105.625694 38.815624 104.92257Q39.315624 104.219444 39.315624 102.11007Q39.315624 99.98507 38.815624 99.29757Q38.33125 98.594444 37.58125 98.594444Q36.8625 98.594444 36.425 99.20382Q35.878124 99.98507 35.878124 102.11007Z" fill-rule="nonzero"/><path fill="#000000" d="M17.76875 57.166668L16.721874 57.166668L16.721874 50.447918Q16.33125 50.807293 15.70625 51.182293Q15.096875 51.541668 14.6125 51.713543L14.6125 50.697918Q15.4875 50.276043 16.14375 49.697918Q16.815624 49.104168 17.096874 48.541668L17.76875 48.541668L17.76875 57.166668ZM20.8 54.916668L21.909374 54.822918Q22.034374 55.635418 22.471874 56.041668Q22.925 56.447918 23.565624 56.447918Q24.315624 56.447918 24.846874 55.869793Q25.378124 55.291668 25.378124 54.354168Q25.378124 53.447918 24.8625 52.932293Q24.3625 52.401043 23.534374 52.401043Q23.034374 52.401043 22.6125 52.635418Q22.20625 52.869793 21.971874 53.229168L20.9875 53.104168L21.815624 48.697918L26.096874 48.697918L26.096874 49.697918L22.659374 49.697918L22.20625 52.010418Q22.971874 51.463543 23.815624 51.463543Q24.940624 51.463543 25.70625 52.244793Q26.4875 53.026043 26.4875 54.260418Q26.4875 55.416668 25.815624 56.276043Q24.9875 57.307293 23.565624 57.307293Q22.39375 57.307293 21.64375 56.651043Q20.909374 55.994793 20.8 54.916668ZM27.8 52.932293Q27.8 51.401043 28.1125 50.479168Q28.425 49.541668 29.034374 49.041668Q29.659374 48.541668 30.596874 48.541668Q31.284374 48.541668 31.8 48.822918Q32.33125 49.104168 32.675 49.635418Q33.01875 50.151043 33.20625 50.901043Q33.39375 51.651043 33.39375 52.932293Q33.39375 54.447918 33.08125 55.369793Q32.784374 56.291668 32.159374 56.807293Q31.55 57.307293 30.596874 57.307293Q29.3625 57.307293 28.64375 56.416668Q27.8 55.354168 27.8 52.932293ZM28.878124 52.932293Q28.878124 55.041668 29.378124 55.744793Q29.878124 56.447918 30.596874 56.447918Q31.33125 56.447918 31.815624 55.744793Q32.315624 55.041668 32.315624 52.932293Q32.315624 50.807293 31.815624 50.119793Q31.33125 49.416668 30.58125 49.416668Q29.8625 49.416668 29.425 50.026043Q28.878124 50.807293 28.878124 52.932293ZM34.8 52.932293Q34.8 51.401043 35.1125 50.479168Q35.425 49.541668 36.034374 49.041668Q36.659374 48.541668 37.596874 48.541668Q38.284374 48.541668 38.8 48.822918Q39.33125 49.104168 39.675 49.635418Q40.01875 50.151043 40.20625 50.901043Q40.39375 51.651043 40.39375 52.932293Q40.39375 54.447918 40.08125 55.369793Q39.784374 56.291668 39.159374 56.807293Q38.55 57.307293 37.596874 57.307293Q36.3625 57.307293 35.64375 56.416668Q34.8 55.354168 34.8 52.932293ZM35.878124 52.932293Q35.878124 55.041668 36.378124 55.744793Q36.878124 56.447918 37.596874 56.447918Q38.33125 56.447918 38.815624 55.744793Q39.315624 55.041668 39.315624 52.932293Q39.315624 50.807293 38.815624 50.119793Q38.33125 49.416668 37.58125 49.416668Q36.8625 49.416668 36.425 50.026043Q35.878124 50.807293 35.878124 52.932293Z" fill-rule="nonzero"/><path fill="#000000" d="M61.949688 209.825L59.887188 209.825L59.887188 213.54375L58.918438 213.54375L53.355938 209.62187L53.355938 208.7625L58.918438 208.7625L58.918438 207.60625L59.887188 207.60625L59.887188 208.7625L61.949688 208.7625L61.949688 209.825ZM58.918438 209.825L55.059063 209.825L58.918438 212.5125L58.918438 209.825Z" fill-rule="nonzero"/><path fill="#000000" d="M75.47699 213.2L75.38324 212.09062Q76.19574 211.96562 76.60199 211.52812Q77.00824 211.075 77.00824 210.43437Q77.00824 209.68437 76.430115 209.15312Q75.85199 208.62187 74.91449 208.62187Q74.00824 208.62187 73.492615 209.1375Q72.961365 209.6375 72.961365 210.46562Q72.961365 210.96562 73.19574 211.3875Q73.430115 211.79375 73.78949 212.02812L73.66449 213.0125L69.25824 212.18437L69.25824 207.90312L70.25824 207.90312L70.25824 211.34062L72.57074 211.79375Q72.023865 211.02812 72.023865 210.18437Q72.023865 209.05937 72.805115 208.29375Q73.586365 207.5125 74.82074 207.5125Q75.97699 207.5125 76.836365 208.18437Q77.867615 209.0125 77.867615 210.43437Q77.867615 211.60625 77.211365 212.35625Q76.555115 213.09062 75.47699 213.2Z" fill-rule="nonzero"/><path fill="#000000" d="M87.01992 207.73125L87.098045 208.77812Q86.473045 208.91875 86.191795 209.16875Q85.73867 209.60625 85.73867 210.23125Q85.73867 210.73125 86.01992 211.12187Q86.39492 211.60625 87.098045 211.90312Q87.785545 212.18437 89.066795 212.2Q88.48867 211.825 88.20742 211.27812Q87.92617 210.71562 87.92617 210.10625Q87.92617 209.05937 88.70742 208.325Q89.48867 207.575 90.70742 207.575Q91.51992 207.575 92.223045 207.93437Q92.910545 208.27812 93.285545 208.8875Q93.64492 209.49687 93.64492 210.2625Q93.64492 211.59062 92.67617 212.41875Q91.70742 213.24687 89.48867 213.24687Q86.98867 213.24687 85.86367 212.325Q84.879295 211.52812 84.879295 210.16875Q84.879295 209.15312 85.45742 208.5125Q86.01992 207.85625 87.01992 207.73125ZM90.723045 212.02812Q91.26992 212.02812 91.76992 211.80937Q92.254295 211.575 92.51992 211.16875Q92.785545 210.74687 92.785545 210.27812Q92.785545 209.62187 92.254295 209.1375Q91.70742 208.65312 90.785545 208.65312Q89.89492 208.65312 89.379295 209.1375Q88.86367 209.60625 88.86367 210.325Q88.86367 211.04375 89.379295 211.54375Q89.89492 212.02812 90.723045 212.02812Z" fill-rule="nonzero"/><path fill="#000000" d="M101.81284 213.1375L100.79722 213.1375L100.79722 207.575L101.62534 207.575Q102.50034 208.3875 103.95347 209.2Q105.39097 209.99687 106.92222 210.43437Q108.00034 210.7625 109.28159 210.84062L109.28159 211.93437Q108.26597 211.91875 106.82847 211.54375Q105.39097 211.15312 104.06284 210.45Q102.73472 209.73125 101.81284 208.91875L101.81284 213.1375Z" fill-rule="nonzero"/><path fill="#000000" d="M120.40265 211.57501Q120.15265 212.23126 119.71515 212.55939Q119.262024 212.87189 118.65265 212.87189Q117.71515 212.87189 117.074524 212.20001Q116.4339 211.51251 116.4339 210.40314Q116.4339 209.27814 117.09015 208.59064Q117.7464 207.90314 118.6839 207.90314Q119.27765 207.90314 119.71515 208.21564Q120.15265 208.52814 120.40265 209.16876Q120.65265 208.37189 121.230774 207.96564Q121.8089 207.55939 122.605774 207.55939Q123.699524 207.55939 124.449524 208.34064Q125.199524 209.10626 125.199524 210.38751Q125.199524 211.65314 124.449524 212.43439Q123.699524 213.21564 122.574524 213.21564Q121.730774 213.21564 121.168274 212.79376Q120.605774 212.35626 120.40265 211.57501ZM118.605774 211.79376Q119.21515 211.79376 119.605774 211.40314Q119.9964 210.99689 119.9964 210.37189Q119.9964 209.76251 119.6214 209.37189Q119.230774 208.98126 118.668274 208.98126Q118.09015 208.98126 117.699524 209.38751Q117.293274 209.79376 117.293274 210.38751Q117.293274 210.99689 117.6839 211.40314Q118.074524 211.79376 118.605774 211.79376ZM122.574524 212.12189Q123.02765 212.12189 123.449524 211.91876Q123.8714 211.70001 124.105774 211.27814Q124.34015 210.85626 124.34015 210.37189Q124.34015 209.62189 123.855774 209.13751Q123.3714 208.63751 122.6214 208.63751Q121.855774 208.63751 121.355774 209.13751Q120.855774 209.63751 120.855774 210.40314Q120.855774 211.15314 121.355774 211.63751Q121.84015 212.12189 122.574524 212.12189Z" fill-rule="nonzero"/><path fill="#000000" d="M138.85182 213.04375L138.75807 212.02812Q139.47682 211.90312 139.80495 211.54375Q140.11745 211.16875 140.11745 210.60625Q140.11745 210.12187 139.8987 209.7625Q139.66432 209.3875 139.30495 209.15312Q138.92995 208.91875 138.30495 208.7625Q137.66432 208.60625 137.00807 208.60625Q136.92995 208.60625 136.78932 208.60625Q137.28932 208.91875 137.61745 209.46562Q137.92995 210.0125 137.92995 210.65312Q137.92995 211.73125 137.16432 212.46562Q136.38307 213.2 135.11745 213.2Q133.80495 213.2 133.00807 212.43437Q132.2112 211.65312 132.2112 210.49687Q132.2112 209.66875 132.66432 208.98125Q133.11745 208.27812 133.9612 207.91875Q134.78932 207.55937 136.36745 207.55937Q138.00807 207.55937 138.99245 207.91875Q139.9612 208.2625 140.47682 208.98125Q140.97682 209.68437 140.97682 210.62187Q140.97682 211.6375 140.42995 212.27812Q139.86745 212.91875 138.85182 213.04375ZM135.05495 208.73125Q134.1487 208.73125 133.61745 209.21562Q133.0862 209.68437 133.0862 210.37187Q133.0862 211.075 133.66432 211.60625Q134.22682 212.12187 135.1487 212.12187Q135.9612 212.12187 136.47682 211.62187Q136.99245 211.12187 136.99245 210.40312Q136.99245 209.66875 136.47682 209.2Q135.9612 208.73125 135.05495 208.73125Z" fill-rule="nonzero"/><path fill="#000000" d="M156.6135 216.23125L156.6135 217.27812L149.89474 217.27812Q150.25412 217.66875 150.62912 218.29375Q150.9885 218.90312 151.16037 219.3875L150.14474 219.3875Q149.72287 218.5125 149.14474 217.85625Q148.551 217.18437 147.9885 216.90312L147.9885 216.23125L156.6135 216.23125ZM152.37912 213.2Q150.84787 213.2 149.926 212.8875Q148.9885 212.575 148.4885 211.96562Q147.9885 211.34062 147.9885 210.40312Q147.9885 209.71562 148.26974 209.2Q148.551 208.66875 149.08224 208.325Q149.59787 207.98125 150.34787 207.79375Q151.09787 207.60625 152.37912 207.60625Q153.89474 207.60625 154.81662 207.91875Q155.7385 208.21562 156.25412 208.84062Q156.75412 209.45 156.75412 210.40312Q156.75412 211.6375 155.8635 212.35625Q154.801 213.2 152.37912 213.2ZM152.37912 212.12187Q154.4885 212.12187 155.19162 211.62187Q155.89474 211.12187 155.89474 210.40312Q155.89474 209.66875 155.19162 209.18437Q154.4885 208.68437 152.37912 208.68437Q150.25412 208.68437 149.56662 209.18437Q148.8635 209.66875 148.8635 210.41875Q148.8635 211.1375 149.47287 211.575Q150.25412 212.12187 152.37912 212.12187Z" fill-rule="nonzero"/><path fill="#000000" d="M172.39081 216.23125L172.39081 217.27812L165.67206 217.27812Q166.03143 217.66875 166.40643 218.29375Q166.76581 218.90312 166.93768 219.3875L165.92206 219.3875Q165.50018 218.5125 164.92206 217.85625Q164.32831 217.18437 163.76581 216.90312L163.76581 216.23125L172.39081 216.23125ZM172.39081 209.23125L172.39081 210.27812L165.67206 210.27812Q166.03143 210.66875 166.40643 211.29375Q166.76581 211.90312 166.93768 212.3875L165.92206 212.3875Q165.50018 211.5125 164.92206 210.85625Q164.32831 210.18437 163.76581 209.90312L163.76581 209.23125L172.39081 209.23125Z" fill-rule="nonzero"/><path fill="#000000" d="M188.1681 216.23126L188.1681 217.27814L181.44936 217.27814Q181.80873 217.66876 182.18373 218.29376Q182.5431 218.90314 182.71498 219.38751L181.69936 219.38751Q181.27748 218.51251 180.69936 217.85626Q180.1056 217.18439 179.5431 216.90314L179.5431 216.23126L188.1681 216.23126ZM187.15248 207.65314L188.1681 207.65314L188.1681 213.34064Q187.7931 213.34064 187.43373 213.21564Q186.8556 212.99689 186.2931 212.52814Q185.7306 212.04376 184.99623 211.13751Q183.83998 209.73126 183.1681 209.24689Q182.49623 208.74689 181.90248 208.74689Q181.27748 208.74689 180.8556 209.20001Q180.4181 209.65314 180.4181 210.37189Q180.4181 211.13751 180.87123 211.59064Q181.32436 212.04376 182.13686 212.05939L182.02748 213.13751Q180.80873 213.02814 180.18373 212.30939Q179.5431 211.57501 179.5431 210.34064Q179.5431 209.10626 180.2306 208.38751Q180.9181 207.66876 181.93373 207.66876Q182.44936 207.66876 182.94936 207.88751Q183.43373 208.09064 183.99623 208.59064Q184.5431 209.07501 185.49623 210.20001Q186.2931 211.15314 186.58998 211.43439Q186.87123 211.70001 187.15248 211.87189L187.15248 207.65314Z" fill-rule="nonzero"/><path fill="#000000" d="M203.9454 216.23125L203.9454 217.27812L197.22665 217.27812Q197.58603 217.66875 197.96103 218.29375Q198.3204 218.90312 198.49228 219.3875L197.47665 219.3875Q197.05478 218.5125 196.47665 217.85625Q195.8829 217.18437 195.3204 216.90312L195.3204 216.23125L203.9454 216.23125ZM201.67978 213.2L201.53915 212.1375Q202.42978 211.96562 202.83603 211.52812Q203.22665 211.09062 203.22665 210.46562Q203.22665 209.71562 202.71103 209.2Q202.1954 208.68437 201.42978 208.68437Q200.71103 208.68437 200.24228 209.16875Q199.7579 209.6375 199.7579 210.37187Q199.7579 210.66875 199.8829 211.12187L198.9454 210.99687Q198.96103 210.8875 198.96103 210.825Q198.96103 210.15312 198.61728 209.62187Q198.2579 209.075 197.52353 209.075Q196.9454 209.075 196.5704 209.46562Q196.17978 209.85625 196.17978 210.48125Q196.17978 211.09062 196.5704 211.5125Q196.96103 211.91875 197.72665 212.02812L197.53915 213.09062Q196.49228 212.90312 195.91415 212.21562Q195.3204 211.52812 195.3204 210.5125Q195.3204 209.80937 195.6329 209.21562Q195.92978 208.62187 196.4454 208.30937Q196.96103 207.99687 197.55478 207.99687Q198.10165 207.99687 198.5704 208.29375Q199.02353 208.59062 199.28915 209.16875Q199.46103 208.41875 200.02353 207.99687Q200.5704 207.575 201.41415 207.575Q202.53915 207.575 203.3204 208.40312Q204.10165 209.21562 204.10165 210.46562Q204.10165 211.59062 203.42978 212.34062Q202.74228 213.09062 201.67978 213.2Z" fill-rule="nonzero"/><path fill="#000000" d="M219.7227 216.23125L219.7227 217.27812L213.00395 217.27812Q213.36333 217.66875 213.73833 218.29375Q214.0977 218.90312 214.26958 219.3875L213.25395 219.3875Q212.83208 218.5125 212.25395 217.85625Q211.6602 217.18437 211.0977 216.90312L211.0977 216.23125L219.7227 216.23125ZM219.7227 209.825L217.6602 209.825L217.6602 213.54375L216.69145 213.54375L211.12895 209.62187L211.12895 208.7625L216.69145 208.7625L216.69145 207.60625L217.6602 207.60625L217.6602 208.7625L219.7227 208.7625L219.7227 209.825ZM216.69145 209.825L212.83208 209.825L216.69145 212.5125L216.69145 209.825Z" fill-rule="nonzero"/><path fill="#000000" d="M235.50002 216.23125L235.50002 217.27812L228.78127 217.27812Q229.14064 217.66875 229.51564 218.29375Q229.87502 218.90312 230.04689 219.3875L229.03127 219.3875Q228.60939 218.5125 228.03127 217.85625Q227.43752 217.18437 226.87502 216.90312L226.87502 216.23125L235.50002 216.23125ZM233.25002 213.2L233.15627 212.09062Q233.96877 211.96562 234.37502 211.52812Q234.78127 211.075 234.78127 210.43437Q234.78127 209.68437 234.20314 209.15312Q233.62502 208.62187 232.68752 208.62187Q231.78127 208.62187 231.26564 209.1375Q230.73439 209.6375 230.73439 210.46562Q230.73439 210.96562 230.96877 211.3875Q231.20314 211.79375 231.56252 212.02812L231.43752 213.0125L227.03127 212.18437L227.03127 207.90312L228.03127 207.90312L228.03127 211.34062L230.34377 211.79375Q229.79689 211.02812 229.79689 210.18437Q229.79689 209.05937 230.57814 208.29375Q231.35939 207.5125 232.59377 207.5125Q233.75002 207.5125 234.60939 208.18437Q235.64064 209.0125 235.64064 210.43437Q235.64064 211.60625 234.98439 212.35625Q234.32814 213.09062 233.25002 213.2Z" fill-rule="nonzero"/><path fill="#000000" d="M251.27731 216.23125L251.27731 217.27812L244.55856 217.27812Q244.91794 217.66875 245.29294 218.29375Q245.65231 218.90312 245.82419 219.3875L244.80856 219.3875Q244.38669 218.5125 243.80856 217.85625Q243.21481 217.18437 242.65231 216.90312L242.65231 216.23125L251.27731 216.23125ZM244.79294 207.73125L244.87106 208.77812Q244.24606 208.91875 243.96481 209.16875Q243.51169 209.60625 243.51169 210.23125Q243.51169 210.73125 243.79294 211.12187Q244.16794 211.60625 244.87106 211.90312Q245.55856 212.18437 246.83981 212.2Q246.26169 211.825 245.98044 211.27812Q245.69919 210.71562 245.69919 210.10625Q245.69919 209.05937 246.48044 208.325Q247.26169 207.575 248.48044 207.575Q249.29294 207.575 249.99606 207.93437Q250.68356 208.27812 251.05856 208.8875Q251.41794 209.49687 251.41794 210.2625Q251.41794 211.59062 250.44919 212.41875Q249.48044 213.24687 247.26169 213.24687Q244.76169 213.24687 243.63669 212.325Q242.65231 211.52812 242.65231 210.16875Q242.65231 209.15312 243.23044 208.5125Q243.79294 207.85625 244.79294 207.73125ZM248.49606 212.02812Q249.04294 212.02812 249.54294 211.80937Q250.02731 211.575 250.29294 211.16875Q250.55856 210.74687 250.55856 210.27812Q250.55856 209.62187 250.02731 209.1375Q249.48044 208.65312 248.55856 208.65312Q247.66794 208.65312 247.15231 209.1375Q246.63669 209.60625 246.63669 210.325Q246.63669 211.04375 247.15231 211.54375Q247.66794 212.02812 248.49606 212.02812Z" fill-rule="nonzero"/><path fill="#000000" d="M267.05463 216.23126L267.05463 217.27814L260.33588 217.27814Q260.69525 217.66876 261.07025 218.29376Q261.42963 218.90314 261.6015 219.38751L260.58588 219.38751Q260.164 218.51251 259.58588 217.85626Q258.99213 217.18439 258.42963 216.90314L258.42963 216.23126L267.05463 216.23126ZM259.58588 213.13751L258.57025 213.13751L258.57025 207.57501L259.39838 207.57501Q260.27338 208.38751 261.7265 209.20001Q263.164 209.99689 264.69525 210.43439Q265.77338 210.76251 267.05463 210.84064L267.05463 211.93439Q266.039 211.91876 264.6015 211.54376Q263.164 211.15314 261.83588 210.45001Q260.50775 209.73126 259.58588 208.91876L259.58588 213.13751Z" fill-rule="nonzero"/><path fill="#000000" d="M282.8319 216.23125L282.8319 217.27812L276.11316 217.27812Q276.47253 217.66875 276.84753 218.29375Q277.2069 218.90312 277.37878 219.3875L276.36316 219.3875Q275.94128 218.5125 275.36316 217.85625Q274.7694 217.18437 274.2069 216.90312L274.2069 216.23125L282.8319 216.23125ZM278.17566 211.575Q277.92566 212.23125 277.48816 212.55937Q277.03503 212.87187 276.42566 212.87187Q275.48816 212.87187 274.84753 212.2Q274.2069 211.5125 274.2069 210.40312Q274.2069 209.27812 274.86316 208.59062Q275.5194 207.90312 276.4569 207.90312Q277.05066 207.90312 277.48816 208.21562Q277.92566 208.52812 278.17566 209.16875Q278.42566 208.37187 279.00378 207.96562Q279.5819 207.55937 280.37878 207.55937Q281.47253 207.55937 282.22253 208.34062Q282.97253 209.10625 282.97253 210.3875Q282.97253 211.65312 282.22253 212.43437Q281.47253 213.21562 280.34753 213.21562Q279.50378 213.21562 278.94128 212.79375Q278.37878 212.35625 278.17566 211.575ZM276.37878 211.79375Q276.98816 211.79375 277.37878 211.40312Q277.7694 210.99687 277.7694 210.37187Q277.7694 209.7625 277.3944 209.37187Q277.00378 208.98125 276.44128 208.98125Q275.86316 208.98125 275.47253 209.3875Q275.06628 209.79375 275.06628 210.3875Q275.06628 210.99687 275.4569 211.40312Q275.84753 211.79375 276.37878 211.79375ZM280.34753 212.12187Q280.80066 212.12187 281.22253 211.91875Q281.6444 211.7 281.87878 211.27812Q282.11316 210.85625 282.11316 210.37187Q282.11316 209.62187 281.62878 209.1375Q281.1444 208.6375 280.3944 208.6375Q279.62878 208.6375 279.12878 209.1375Q278.62878 209.6375 278.62878 210.40312Q278.62878 211.15312 279.12878 211.6375Q279.61316 212.12187 280.34753 212.12187Z" fill-rule="nonzero"/><path fill="#000000" d="M298.60922 216.23123L298.60922 217.2781L291.89047 217.2781Q292.24985 217.66873 292.62485 218.29373Q292.98422 218.9031 293.1561 219.38748L292.14047 219.38748Q291.7186 218.51248 291.14047 217.85623Q290.54672 217.18436 289.98422 216.9031L289.98422 216.23123L298.60922 216.23123ZM296.62485 213.04373L296.5311 212.0281Q297.24985 211.9031 297.57797 211.54373Q297.89047 211.16873 297.89047 210.60623Q297.89047 210.12186 297.67172 209.76248Q297.43735 209.38748 297.07797 209.1531Q296.70297 208.91873 296.07797 208.76248Q295.43735 208.60623 294.7811 208.60623Q294.70297 208.60623 294.56235 208.60623Q295.06235 208.91873 295.39047 209.4656Q295.70297 210.01248 295.70297 210.6531Q295.70297 211.73123 294.93735 212.4656Q294.1561 213.19998 292.89047 213.19998Q291.57797 213.19998 290.7811 212.43436Q289.98422 211.6531 289.98422 210.49686Q289.98422 209.66873 290.43735 208.98123Q290.89047 208.2781 291.73422 207.91873Q292.56235 207.55936 294.14047 207.55936Q295.7811 207.55936 296.76547 207.91873Q297.73422 208.26248 298.24985 208.98123Q298.74985 209.68436 298.74985 210.62186Q298.74985 211.63748 298.20297 212.2781Q297.64047 212.91873 296.62485 213.04373ZM292.82797 208.73123Q291.92172 208.73123 291.39047 209.2156Q290.85922 209.68436 290.85922 210.37186Q290.85922 211.07498 291.43735 211.60623Q291.99985 212.12186 292.92172 212.12186Q293.73422 212.12186 294.24985 211.62186Q294.76547 211.12186 294.76547 210.4031Q294.76547 209.66873 294.24985 209.19998Q293.73422 208.73123 292.82797 208.73123Z" fill-rule="nonzero"/><path fill="#000000" d="M313.37088 214.65314L314.3865 214.65314L314.3865 220.34064Q314.0115 220.34064 313.65213 220.21564Q313.074 219.99689 312.5115 219.52814Q311.949 219.04376 311.21463 218.13751Q310.05838 216.73126 309.3865 216.24689Q308.71463 215.74689 308.12088 215.74689Q307.49588 215.74689 307.074 216.20001Q306.6365 216.65314 306.6365 217.37189Q306.6365 218.13751 307.08963 218.59064Q307.54276 219.04376 308.35526 219.05939L308.24588 220.13751Q307.02713 220.02814 306.40213 219.30939Q305.7615 218.57501 305.7615 217.34064Q305.7615 216.10626 306.449 215.38751Q307.1365 214.66876 308.15213 214.66876Q308.66776 214.66876 309.16776 214.88751Q309.65213 215.09064 310.21463 215.59064Q310.7615 216.07501 311.71463 217.20001Q312.5115 218.15314 312.80838 218.43439Q313.08963 218.70001 313.37088 218.87189L313.37088 214.65314ZM310.15213 213.20001Q308.62088 213.20001 307.699 212.88751Q306.7615 212.57501 306.2615 211.96564Q305.7615 211.34064 305.7615 210.40314Q305.7615 209.71564 306.04276 209.20001Q306.324 208.66876 306.85526 208.32501Q307.37088 207.98126 308.12088 207.79376Q308.87088 207.60626 310.15213 207.60626Q311.66776 207.60626 312.58963 207.91876Q313.5115 208.21564 314.02713 208.84064Q314.52713 209.45001 314.52713 210.40314Q314.52713 211.63751 313.6365 212.35626Q312.574 213.20001 310.15213 213.20001ZM310.15213 212.12189Q312.2615 212.12189 312.96463 211.62189Q313.66776 211.12189 313.66776 210.40314Q313.66776 209.66876 312.96463 209.18439Q312.2615 208.68439 310.15213 208.68439Q308.02713 208.68439 307.33963 209.18439Q306.6365 209.66876 306.6365 210.41876Q306.6365 211.13751 307.24588 211.57501Q308.02713 212.12189 310.15213 212.12189Z" fill-rule="nonzero"/><path fill="#000000" d="M329.1482 214.65312L330.16382 214.65312L330.16382 220.34062Q329.78882 220.34062 329.42944 220.21562Q328.85132 219.99687 328.28882 219.52812Q327.72632 219.04375 326.99194 218.1375Q325.8357 216.73125 325.16382 216.24687Q324.49194 215.74687 323.8982 215.74687Q323.2732 215.74687 322.85132 216.2Q322.41382 216.65312 322.41382 217.37187Q322.41382 218.1375 322.86694 218.59062Q323.32007 219.04375 324.13257 219.05937L324.0232 220.1375Q322.80444 220.02812 322.17944 219.30937Q321.53882 218.575 321.53882 217.34062Q321.53882 216.10625 322.22632 215.3875Q322.91382 214.66875 323.92944 214.66875Q324.44507 214.66875 324.94507 214.8875Q325.42944 215.09062 325.99194 215.59062Q326.53882 216.075 327.49194 217.2Q328.28882 218.15312 328.5857 218.43437Q328.86694 218.7 329.1482 218.87187L329.1482 214.65312ZM330.16382 209.23125L330.16382 210.27812L323.44507 210.27812Q323.80444 210.66875 324.17944 211.29375Q324.53882 211.90312 324.7107 212.3875L323.69507 212.3875Q323.2732 211.5125 322.69507 210.85625Q322.10132 210.18437 321.53882 209.90312L321.53882 209.23125L330.16382 209.23125Z" fill-rule="nonzero"/><path fill="#000000" d="M344.9255 214.65314L345.94113 214.65314L345.94113 220.34064Q345.56613 220.34064 345.20676 220.21564Q344.62863 219.99689 344.06613 219.52814Q343.50363 219.04376 342.76926 218.13751Q341.613 216.73126 340.94113 216.24689Q340.26926 215.74689 339.6755 215.74689Q339.0505 215.74689 338.62863 216.20001Q338.19113 216.65314 338.19113 217.37189Q338.19113 218.13751 338.64426 218.59064Q339.09738 219.04376 339.90988 219.05939L339.8005 220.13751Q338.58176 220.02814 337.95676 219.30939Q337.31613 218.57501 337.31613 217.34064Q337.31613 216.10626 338.00363 215.38751Q338.69113 214.66876 339.70676 214.66876Q340.22238 214.66876 340.72238 214.88751Q341.20676 215.09064 341.76926 215.59064Q342.31613 216.07501 343.26926 217.20001Q344.06613 218.15314 344.363 218.43439Q344.64426 218.70001 344.9255 218.87189L344.9255 214.65314ZM344.9255 207.65314L345.94113 207.65314L345.94113 213.34064Q345.56613 213.34064 345.20676 213.21564Q344.62863 212.99689 344.06613 212.52814Q343.50363 212.04376 342.76926 211.13751Q341.613 209.73126 340.94113 209.24689Q340.26926 208.74689 339.6755 208.74689Q339.0505 208.74689 338.62863 209.20001Q338.19113 209.65314 338.19113 210.37189Q338.19113 211.13751 338.64426 211.59064Q339.09738 212.04376 339.90988 212.05939L339.8005 213.13751Q338.58176 213.02814 337.95676 212.30939Q337.31613 211.57501 337.31613 210.34064Q337.31613 209.10626 338.00363 208.38751Q338.69113 207.66876 339.70676 207.66876Q340.22238 207.66876 340.72238 207.88751Q341.20676 208.09064 341.76926 208.59064Q342.31613 209.07501 343.26926 210.20001Q344.06613 211.15314 344.363 211.43439Q344.64426 211.70001 344.9255 211.87189L344.9255 207.65314Z" fill-rule="nonzero"/><path fill="#000000" d="M360.7028 214.65312L361.7184 214.65312L361.7184 220.34062Q361.3434 220.34062 360.98404 220.21562Q360.4059 219.99687 359.8434 219.52812Q359.2809 219.04375 358.54654 218.1375Q357.3903 216.73125 356.7184 216.24687Q356.04654 215.74687 355.4528 215.74687Q354.8278 215.74687 354.4059 216.2Q353.9684 216.65312 353.9684 217.37187Q353.9684 218.1375 354.42154 218.59062Q354.87466 219.04375 355.68716 219.05937L355.5778 220.1375Q354.35904 220.02812 353.73404 219.30937Q353.0934 218.575 353.0934 217.34062Q353.0934 216.10625 353.7809 215.3875Q354.4684 214.66875 355.48404 214.66875Q355.99966 214.66875 356.49966 214.8875Q356.98404 215.09062 357.54654 215.59062Q358.0934 216.075 359.04654 217.2Q359.8434 218.15312 360.1403 218.43437Q360.42154 218.7 360.7028 218.87187L360.7028 214.65312ZM359.4528 213.2L359.31216 212.1375Q360.2028 211.96562 360.60904 211.52812Q360.99966 211.09062 360.99966 210.46562Q360.99966 209.71562 360.48404 209.2Q359.9684 208.68437 359.2028 208.68437Q358.48404 208.68437 358.0153 209.16875Q357.5309 209.6375 357.5309 210.37187Q357.5309 210.66875 357.6559 211.12187L356.7184 210.99687Q356.73404 210.8875 356.73404 210.825Q356.73404 210.15312 356.3903 209.62187Q356.0309 209.075 355.29654 209.075Q354.7184 209.075 354.3434 209.46562Q353.9528 209.85625 353.9528 210.48125Q353.9528 211.09062 354.3434 211.5125Q354.73404 211.91875 355.49966 212.02812L355.31216 213.09062Q354.2653 212.90312 353.68716 212.21562Q353.0934 211.52812 353.0934 210.5125Q353.0934 209.80937 353.4059 209.21562Q353.7028 208.62187 354.2184 208.30937Q354.73404 207.99687 355.3278 207.99687Q355.87466 207.99687 356.3434 208.29375Q356.79654 208.59062 357.06216 209.16875Q357.23404 208.41875 357.79654 207.99687Q358.3434 207.575 359.18716 207.575Q360.31216 207.575 361.0934 208.40312Q361.87466 209.21562 361.87466 210.46562Q361.87466 211.59062 361.2028 212.34062Q360.5153 213.09062 359.4528 213.2Z" fill-rule="nonzero"/><path fill="#000000" d="M376.4801 214.65312L377.49573 214.65312L377.49573 220.34062Q377.12073 220.34062 376.76135 220.21562Q376.18323 219.99687 375.62073 219.52812Q375.05823 219.04375 374.32385 218.1375Q373.1676 216.73125 372.49573 216.24687Q371.82385 215.74687 371.2301 215.74687Q370.6051 215.74687 370.18323 216.2Q369.74573 216.65312 369.74573 217.37187Q369.74573 218.1375 370.19885 218.59062Q370.65198 219.04375 371.46448 219.05937L371.3551 220.1375Q370.13635 220.02812 369.51135 219.30937Q368.87073 218.575 368.87073 217.34062Q368.87073 216.10625 369.55823 215.3875Q370.24573 214.66875 371.26135 214.66875Q371.77698 214.66875 372.27698 214.8875Q372.76135 215.09062 373.32385 215.59062Q373.87073 216.075 374.82385 217.2Q375.62073 218.15312 375.9176 218.43437Q376.19885 218.7 376.4801 218.87187L376.4801 214.65312ZM377.49573 209.825L375.43323 209.825L375.43323 213.54375L374.46448 213.54375L368.90198 209.62187L368.90198 208.7625L374.46448 208.7625L374.46448 207.60625L375.43323 207.60625L375.43323 208.7625L377.49573 208.7625L377.49573 209.825ZM374.46448 209.825L370.6051 209.825L374.46448 212.5125L374.46448 209.825Z" fill-rule="nonzero"/><path fill="#000000" d="M392.25742 214.65314L393.27304 214.65314L393.27304 220.34064Q392.89804 220.34064 392.53867 220.21564Q391.96054 219.99689 391.39804 219.52814Q390.83554 219.04376 390.10117 218.13751Q388.94492 216.73126 388.27304 216.24689Q387.60117 215.74689 387.00742 215.74689Q386.38242 215.74689 385.96054 216.20001Q385.52304 216.65314 385.52304 217.37189Q385.52304 218.13751 385.97617 218.59064Q386.4293 219.04376 387.2418 219.05939L387.13242 220.13751Q385.91367 220.02814 385.28867 219.30939Q384.64804 218.57501 384.64804 217.34064Q384.64804 216.10626 385.33554 215.38751Q386.02304 214.66876 387.03867 214.66876Q387.5543 214.66876 388.0543 214.88751Q388.53867 215.09064 389.10117 215.59064Q389.64804 216.07501 390.60117 217.20001Q391.39804 218.15314 391.69492 218.43439Q391.97617 218.70001 392.25742 218.87189L392.25742 214.65314ZM391.02304 213.20001L390.9293 212.09064Q391.7418 211.96564 392.14804 211.52814Q392.5543 211.07501 392.5543 210.43439Q392.5543 209.68439 391.97617 209.15314Q391.39804 208.62189 390.46054 208.62189Q389.5543 208.62189 389.03867 209.13751Q388.50742 209.63751 388.50742 210.46564Q388.50742 210.96564 388.7418 211.38751Q388.97617 211.79376 389.33554 212.02814L389.21054 213.01251L384.8043 212.18439L384.8043 207.90314L385.8043 207.90314L385.8043 211.34064L388.1168 211.79376Q387.56992 211.02814 387.56992 210.18439Q387.56992 209.05939 388.35117 208.29376Q389.13242 207.51251 390.3668 207.51251Q391.52304 207.51251 392.38242 208.18439Q393.41367 209.01251 393.41367 210.43439Q393.41367 211.60626 392.75742 212.35626Q392.10117 213.09064 391.02304 213.20001Z" fill-rule="nonzero"/><path fill="#000000" d="M408.0347 214.65312L409.05032 214.65312L409.05032 220.34062Q408.67532 220.34062 408.31595 220.21562Q407.73782 219.99687 407.17532 219.52812Q406.61282 219.04375 405.87845 218.1375Q404.7222 216.73125 404.05032 216.24687Q403.37845 215.74687 402.7847 215.74687Q402.1597 215.74687 401.73782 216.2Q401.30032 216.65312 401.30032 217.37187Q401.30032 218.1375 401.75345 218.59062Q402.20657 219.04375 403.01907 219.05937L402.9097 220.1375Q401.69095 220.02812 401.06595 219.30937Q400.42532 218.575 400.42532 217.34062Q400.42532 216.10625 401.11282 215.3875Q401.80032 214.66875 402.81595 214.66875Q403.33157 214.66875 403.83157 214.8875Q404.31595 215.09062 404.87845 215.59062Q405.42532 216.075 406.37845 217.2Q407.17532 218.15312 407.4722 218.43437Q407.75345 218.7 408.0347 218.87187L408.0347 214.65312ZM402.56595 207.73125L402.64407 208.77812Q402.01907 208.91875 401.73782 209.16875Q401.2847 209.60625 401.2847 210.23125Q401.2847 210.73125 401.56595 211.12187Q401.94095 211.60625 402.64407 211.90312Q403.33157 212.18437 404.61282 212.2Q404.0347 211.825 403.75345 211.27812Q403.4722 210.71562 403.4722 210.10625Q403.4722 209.05937 404.25345 208.325Q405.0347 207.575 406.25345 207.575Q407.06595 207.575 407.76907 207.93437Q408.45657 208.27812 408.83157 208.8875Q409.19095 209.49687 409.19095 210.2625Q409.19095 211.59062 408.2222 212.41875Q407.25345 213.24687 405.0347 213.24687Q402.5347 213.24687 401.4097 212.325Q400.42532 211.52812 400.42532 210.16875Q400.42532 209.15312 401.00345 208.5125Q401.56595 207.85625 402.56595 207.73125ZM406.26907 212.02812Q406.81595 212.02812 407.31595 211.80937Q407.80032 211.575 408.06595 211.16875Q408.33157 210.74687 408.33157 210.27812Q408.33157 209.62187 407.80032 209.1375Q407.25345 208.65312 406.33157 208.65312Q405.44095 208.65312 404.92532 209.1375Q404.4097 209.60625 404.4097 210.325Q404.4097 211.04375 404.92532 211.54375Q405.44095 212.02812 406.26907 212.02812Z" fill-rule="nonzero"/><path fill="#757575" d="M14.784375 32.3L14.784375 17.9875L17.64375 17.9875L21.01875 28.1125Q21.4875 29.534374 21.70625 30.2375Q21.95625 29.45625 22.471874 27.940624L25.89375 17.9875L28.440624 17.9875L28.440624 32.3L26.628124 32.3L26.628124 20.315624L22.45625 32.3L20.753124 32.3L16.6125 20.1125L16.6125 32.3L14.784375 32.3ZM38.39375 31.01875Q37.409374 31.846874 36.503124 32.190624Q35.596874 32.534374 34.565624 32.534374Q32.8625 32.534374 31.940624 31.70625Q31.01875 30.8625 31.01875 29.565624Q31.01875 28.8 31.3625 28.175Q31.721874 27.55 32.284374 27.175Q32.846874 26.784374 33.55 26.58125Q34.065624 26.45625 35.1125 26.315624Q37.2375 26.065624 38.2375 25.721874Q38.253124 25.3625 38.253124 25.253124Q38.253124 24.190624 37.753124 23.7375Q37.08125 23.14375 35.753124 23.14375Q34.503124 23.14375 33.909374 23.58125Q33.33125 24.01875 33.05 25.128124L31.33125 24.89375Q31.565624 23.784374 32.096874 23.1125Q32.628124 22.425 33.64375 22.065624Q34.659374 21.690624 36.003124 21.690624Q37.33125 21.690624 38.159374 22.003124Q38.9875 22.315624 39.378124 22.8Q39.76875 23.26875 39.925 23.9875Q40.01875 24.440624 40.01875 25.6125L40.01875 27.95625Q40.01875 30.409374 40.128124 31.065624Q40.2375 31.70625 40.58125 32.3L38.7375 32.3Q38.471874 31.753124 38.39375 31.01875ZM38.2375 27.096874Q37.284374 27.4875 35.3625 27.753124Q34.284374 27.909374 33.83125 28.1125Q33.39375 28.3 33.14375 28.675Q32.89375 29.05 32.89375 29.51875Q32.89375 30.221874 33.425 30.690624Q33.95625 31.159374 34.9875 31.159374Q36.003124 31.159374 36.784374 30.721874Q37.58125 30.26875 37.95625 29.503124Q38.2375 28.89375 38.2375 27.7375L38.2375 27.096874ZM46.45625 30.721874L46.70625 32.284374Q45.971874 32.440624 45.378124 32.440624Q44.425 32.440624 43.89375 32.14375Q43.378124 31.83125 43.159374 31.346874Q42.940624 30.846874 42.940624 29.26875L42.940624 23.3L41.659374 23.3L41.659374 21.925L42.940624 21.925L42.940624 19.3625L44.690624 18.3L44.690624 21.925L46.45625 21.925L46.45625 23.3L44.690624 23.3L44.690624 29.3625Q44.690624 30.1125 44.784374 30.33125Q44.878124 30.534374 45.08125 30.675Q45.3 30.8 45.690624 30.8Q45.971874 30.8 46.45625 30.721874ZM55.39375 28.503124L57.1125 28.721874Q56.83125 30.51875 55.659374 31.534374Q54.503124 32.534374 52.8 32.534374Q50.675 32.534374 49.378124 31.14375Q48.08125 29.753124 48.08125 27.159374Q48.08125 25.471874 48.628124 24.221874Q49.190624 22.95625 50.33125 22.33125Q51.471874 21.690624 52.815624 21.690624Q54.503124 21.690624 55.565624 22.55Q56.64375 23.409374 56.95625 24.971874L55.2375 25.2375Q55.003124 24.190624 54.378124 23.675Q53.753124 23.14375 52.878124 23.14375Q51.55 23.14375 50.721874 24.096874Q49.89375 25.05 49.89375 27.096874Q49.89375 29.190624 50.690624 30.14375Q51.4875 31.08125 52.784374 31.08125Q53.815624 31.08125 54.503124 30.45625Q55.20625 29.815624 55.39375 28.503124ZM58.6125 32.3L58.6125 17.9875L60.378124 17.9875L60.378124 23.1125Q61.6125 21.690624 63.4875 21.690624Q64.62813 21.690624 65.47188 22.14375Q66.33125 22.596874 66.69063 23.409374Q67.06563 24.20625 67.06563 25.721874L67.06563 32.3L65.31563 32.3L65.31563 25.721874Q65.31563 24.409374 64.7375 23.815624Q64.15938 23.20625 63.128124 23.20625Q62.346874 23.20625 61.64375 23.6125Q60.95625 24.01875 60.659374 24.721874Q60.378124 25.409374 60.378124 26.628124L60.378124 32.3L58.6125 32.3ZM74.58125 32.3L74.58125 17.9875L76.33125 17.9875L76.33125 32.3L74.58125 32.3ZM85.72188 28.95625L87.53438 29.190624Q87.1125 30.76875 85.94063 31.659374Q84.78438 32.534374 82.97188 32.534374Q80.70625 32.534374 79.3625 31.14375Q78.03438 29.7375 78.03438 27.20625Q78.03438 24.58125 79.37813 23.14375Q80.72188 21.690624 82.87813 21.690624Q84.95625 21.690624 86.26875 23.1125Q87.59688 24.51875 87.59688 27.096874Q87.59688 27.253124 87.58125 27.565624L79.84688 27.565624Q79.94063 29.26875 80.81563 30.175Q81.69063 31.08125 82.9875 31.08125Q83.95625 31.08125 84.62813 30.58125Q85.31563 30.065624 85.72188 28.95625ZM79.94063 26.1125L85.7375 26.1125Q85.62813 24.815624 85.08125 24.159374Q84.2375 23.14375 82.89375 23.14375Q81.69063 23.14375 80.8625 23.95625Q80.03438 24.753124 79.94063 26.1125ZM89.6125 32.3L89.6125 21.925L91.20625 21.925L91.20625 23.409374Q92.34688 21.690624 94.50313 21.690624Q95.44063 21.690624 96.22188 22.034374Q97.01875 22.3625 97.40938 22.909374Q97.8 23.45625 97.95625 24.20625Q98.05 24.70625 98.05 25.925L98.05 32.3L96.28438 32.3L96.28438 25.9875Q96.28438 24.909374 96.08125 24.378124Q95.87813 23.846874 95.34688 23.534374Q94.83125 23.221874 94.12813 23.221874Q93.00313 23.221874 92.19063 23.940624Q91.37813 24.64375 91.37813 26.628124L91.37813 32.3L89.6125 32.3ZM99.3 33.159374L101.00313 33.409374Q101.1125 34.20625 101.59688 34.565624Q102.25313 35.05 103.39375 35.05Q104.6125 35.05 105.26875 34.565624Q105.94063 34.08125 106.175 33.20625Q106.31563 32.659374 106.3 30.940624Q105.14375 32.3 103.425 32.3Q101.28438 32.3 100.1125 30.753124Q98.94063 29.20625 98.94063 27.05Q98.94063 25.565624 99.47188 24.315624Q100.01875 23.065624 101.03438 22.378124Q102.06563 21.690624 103.44063 21.690624Q105.26875 21.690624 106.47188 23.175L106.47188 21.925L108.08125 21.925L108.08125 30.89375Q108.08125 33.315624 107.58125 34.315624Q107.09688 35.33125 106.01875 35.909374Q104.95625 36.503124 103.39375 36.503124Q101.55 36.503124 100.39375 35.675Q99.25313 34.846874 99.3 33.159374ZM100.75313 26.925Q100.75313 28.971874 101.56563 29.909374Q102.37813 30.846874 103.59688 30.846874Q104.8 30.846874 105.6125 29.909374Q106.44063 28.971874 106.44063 26.9875Q106.44063 25.08125 105.59688 24.1125Q104.75313 23.14375 103.56563 23.14375Q102.39375 23.14375 101.56563 24.096874Q100.75313 25.05 100.75313 26.925ZM114.45625 30.721874L114.70625 32.284374Q113.97188 32.440624 113.37813 32.440624Q112.425 32.440624 111.89375 32.14375Q111.37813 31.83125 111.15938 31.346874Q110.94063 30.846874 110.94063 29.26875L110.94063 23.3L109.65938 23.3L109.65938 21.925L110.94063 21.925L110.94063 19.3625L112.69063 18.3L112.69063 21.925L114.45625 21.925L114.45625 23.3L112.69063 23.3L112.69063 29.3625Q112.69063 30.1125 112.78438 30.33125Q112.87813 30.534374 113.08125 30.675Q113.3 30.8 113.69063 30.8Q113.97188 30.8 114.45625 30.721874ZM116.6125 32.3L116.6125 17.9875L118.37813 17.9875L118.37813 23.1125Q119.6125 21.690624 121.4875 21.690624Q122.62813 21.690624 123.47188 22.14375Q124.33125 22.596874 124.69063 23.409374Q125.06563 24.20625 125.06563 25.721874L125.06563 32.3L123.31563 32.3L123.31563 25.721874Q123.31563 24.409374 122.7375 23.815624Q122.15938 23.20625 121.12813 23.20625Q120.34688 23.20625 119.64375 23.6125Q118.95625 24.01875 118.65938 24.721874Q118.37813 25.409374 118.37813 26.628124L118.37813 32.3L116.6125 32.3ZM139.34688 32.3L139.34688 30.9875Q138.3625 32.534374 136.44063 32.534374Q135.20625 32.534374 134.15938 31.846874Q133.12813 31.159374 132.55 29.940624Q131.9875 28.721874 131.9875 27.128124Q131.9875 25.565624 132.50313 24.3Q133.01875 23.034374 134.05 22.3625Q135.09688 21.690624 136.3625 21.690624Q137.3 21.690624 138.03438 22.096874Q138.76875 22.4875 139.2375 23.1125L139.2375 17.9875L140.97188 17.9875L140.97188 32.3L139.34688 32.3ZM133.78438 27.128124Q133.78438 29.1125 134.62813 30.096874Q135.47188 31.08125 136.6125 31.08125Q137.76875 31.08125 138.56563 30.14375Q139.37813 29.20625 139.37813 27.26875Q139.37813 25.14375 138.55 24.14375Q137.7375 23.14375 136.53438 23.14375Q135.3625 23.14375 134.56563 24.1125Q133.78438 25.065624 133.78438 27.128124ZM143.62813 20.003124L143.62813 17.9875L145.39375 17.9875L145.39375 20.003124L143.62813 20.003124ZM143.62813 32.3L143.62813 21.925L145.39375 21.925L145.39375 32.3L143.62813 32.3ZM146.90938 29.20625L148.65938 28.925Q148.8 29.971874 149.47188 30.534374Q150.14375 31.08125 151.34688 31.08125Q152.55 31.08125 153.12813 30.596874Q153.72188 30.096874 153.72188 29.440624Q153.72188 28.846874 153.20625 28.503124Q152.84688 28.26875 151.40938 27.909374Q149.47188 27.409374 148.72188 27.065624Q147.9875 26.70625 147.59688 26.08125Q147.20625 25.440624 147.20625 24.675Q147.20625 23.9875 147.51875 23.39375Q147.84688 22.8 148.39375 22.409374Q148.8 22.1125 149.50313 21.909374Q150.22188 21.690624 151.03438 21.690624Q152.25313 21.690624 153.175 22.05Q154.09688 22.39375 154.53438 23.003124Q154.97188 23.596874 155.14375 24.596874L153.425 24.83125Q153.3 24.034374 152.7375 23.596874Q152.175 23.14375 151.15938 23.14375Q149.94063 23.14375 149.425 23.55Q148.90938 23.940624 148.90938 24.471874Q148.90938 24.815624 149.12813 25.096874Q149.33125 25.378124 149.8 25.565624Q150.06563 25.659374 151.34688 26.003124Q153.22188 26.503124 153.95625 26.83125Q154.69063 27.14375 155.1125 27.753124Q155.53438 28.346874 155.53438 29.253124Q155.53438 30.128124 155.01875 30.909374Q154.50313 31.690624 153.53438 32.1125Q152.56563 32.534374 151.34688 32.534374Q149.33125 32.534374 148.26875 31.690624Q147.20625 30.846874 146.90938 29.20625ZM161.45625 30.721874L161.70625 32.284374Q160.97188 32.440624 160.37813 32.440624Q159.425 32.440624 158.89375 32.14375Q158.37813 31.83125 158.15938 31.346874Q157.94063 30.846874 157.94063 29.26875L157.94063 23.3L156.65938 23.3L156.65938 21.925L157.94063 21.925L157.94063 19.3625L159.69063 18.3L159.69063 21.925L161.45625 21.925L161.45625 23.3L159.69063 23.3L159.69063 29.3625Q159.69063 30.1125 159.78438 30.33125Q159.87813 30.534374 160.08125 30.675Q160.3 30.8 160.69063 30.8Q160.97188 30.8 161.45625 30.721874ZM163.59688 32.3L163.59688 21.925L165.175 21.925L165.175 23.503124Q165.78438 22.39375 166.3 22.05Q166.81563 21.690624 167.425 21.690624Q168.31563 21.690624 169.2375 22.253124L168.62813 23.89375Q167.9875 23.503124 167.34688 23.503124Q166.76875 23.503124 166.3 23.8625Q165.84688 24.20625 165.64375 24.815624Q165.3625 25.753124 165.3625 26.8625L165.3625 32.3L163.59688 32.3ZM170.62813 20.003124L170.62813 17.9875L172.39375 17.9875L172.39375 20.003124L170.62813 20.003124ZM170.62813 32.3L170.62813 21.925L172.39375 21.925L172.39375 32.3L170.62813 32.3ZM176.2375 32.3L174.6125 32.3L174.6125 17.9875L176.3625 17.9875L176.3625 23.096874Q177.4875 21.690624 179.20625 21.690624Q180.15938 21.690624 181.01875 22.08125Q181.87813 22.471874 182.425 23.175Q182.97188 23.8625 183.28438 24.846874Q183.59688 25.83125 183.59688 26.95625Q183.59688 29.628124 182.28438 31.08125Q180.97188 32.534374 179.12813 32.534374Q177.28438 32.534374 176.2375 31.003124L176.2375 32.3ZM176.22188 27.034374Q176.22188 28.89375 176.72188 29.7375Q177.56563 31.08125 178.97188 31.08125Q180.12813 31.08125 180.95625 30.08125Q181.8 29.08125 181.8 27.096874Q181.8 25.065624 180.9875 24.1125Q180.19063 23.14375 179.05 23.14375Q177.89375 23.14375 177.05 24.14375Q176.22188 25.14375 176.22188 27.034374ZM192.40938 32.3L192.40938 30.76875Q191.20625 32.534374 189.12813 32.534374Q188.20625 32.534374 187.40938 32.190624Q186.6125 31.83125 186.22188 31.3Q185.84688 30.76875 185.69063 29.9875Q185.58125 29.471874 185.58125 28.346874L185.58125 21.925L187.33125 21.925L187.33125 27.675Q187.33125 29.05 187.44063 29.534374Q187.6125 30.221874 188.14375 30.628124Q188.69063 31.01875 189.47188 31.01875Q190.26875 31.01875 190.95625 30.6125Q191.65938 30.20625 191.94063 29.51875Q192.2375 28.815624 192.2375 27.4875L192.2375 21.925L193.9875 21.925L193.9875 32.3L192.40938 32.3ZM199.45625 30.721874L199.70625 32.284374Q198.97188 32.440624 198.37813 32.440624Q197.425 32.440624 196.89375 32.14375Q196.37813 31.83125 196.15938 31.346874Q195.94063 30.846874 195.94063 29.26875L195.94063 23.3L194.65938 23.3L194.65938 21.925L195.94063 21.925L195.94063 19.3625L197.69063 18.3L197.69063 21.925L199.45625 21.925L199.45625 23.3L197.69063 23.3L197.69063 29.3625Q197.69063 30.1125 197.78438 30.33125Q197.87813 30.534374 198.08125 30.675Q198.3 30.8 198.69063 30.8Q198.97188 30.8 199.45625 30.721874ZM201.62813 20.003124L201.62813 17.9875L203.39375 17.9875L203.39375 20.003124L201.62813 20.003124ZM201.62813 32.3L201.62813 21.925L203.39375 21.925L203.39375 32.3L201.62813 32.3ZM204.97188 27.1125Q204.97188 24.2375 206.56563 22.846874Q207.90938 21.690624 209.83125 21.690624Q211.97188 21.690624 213.31563 23.096874Q214.675 24.503124 214.675 26.971874Q214.675 28.971874 214.08125 30.128124Q213.4875 31.26875 212.33125 31.909374Q211.19063 32.534374 209.83125 32.534374Q207.64375 32.534374 206.3 31.14375Q204.97188 29.7375 204.97188 27.1125ZM206.76875 27.1125Q206.76875 29.1125 207.62813 30.096874Q208.50313 31.08125 209.83125 31.08125Q211.14375 31.08125 212.00313 30.096874Q212.87813 29.096874 212.87813 27.05Q212.87813 25.128124 212.00313 24.14375Q211.12813 23.14375 209.83125 23.14375Q208.50313 23.14375 207.62813 24.14375Q206.76875 25.128124 206.76875 27.1125ZM216.6125 32.3L216.6125 21.925L218.20625 21.925L218.20625 23.409374Q219.34688 21.690624 221.50313 21.690624Q222.44063 21.690624 223.22188 22.034374Q224.01875 22.3625 224.40938 22.909374Q224.8 23.45625 224.95625 24.20625Q225.05 24.70625 225.05 25.925L225.05 32.3L223.28438 32.3L223.28438 25.9875Q223.28438 24.909374 223.08125 24.378124Q222.87813 23.846874 222.34688 23.534374Q221.83125 23.221874 221.12813 23.221874Q220.00313 23.221874 219.19063 23.940624Q218.37813 24.64375 218.37813 26.628124L218.37813 32.3L216.6125 32.3Z" fill-rule="nonzero"/></svg>