<svg version="1.1" viewBox="0.0 0.0 670.0 415.0" fill="none" stroke="none" stroke-linecap="square" stroke-miterlimit="10" width="670" height="415" xmlns:xlink="http://www.w3.org/1999/xlink" xmlns="http://www.w3.org/2000/svg"><path fill="#ffffff" d="M0 0L670.0 0L670.0 415.0L0 415.0L0 0Z" fill-rule="nonzero"/><path stroke="#cccccc" stroke-width="1.0" stroke-linecap="butt" d="M132.5 65.5L132.5 336.5" fill-rule="nonzero"/><path stroke="#cccccc" stroke-width="1.0" stroke-linecap="butt" d="M240.5 65.5L240.5 336.5" fill-rule="nonzero"/><path stroke="#cccccc" stroke-width="1.0" stroke-linecap="butt" d="M348.5 65.5L348.5 336.5" fill-rule="nonzero"/><path stroke="#cccccc" stroke-width="1.0" stroke-linecap="butt" d="M456.5 65.5L456.5 336.5" fill-rule="nonzero"/><path stroke="#cccccc" stroke-width="1.0" stroke-linecap="butt" d="M564.5 65.5L564.5 336.5" fill-rule="nonzero"/><path stroke="#e6e6e6" stroke-width="1.0" stroke-linecap="butt" d="M96.5 65.5L96.5 336.5" fill-rule="nonzero"/><path stroke="#e6e6e6" stroke-width="1.0" stroke-linecap="butt" d="M168.5 65.5L168.5 336.5" fill-rule="nonzero"/><path stroke="#e6e6e6" stroke-width="1.0" stroke-linecap="butt" d="M204.5 65.5L204.5 336.5" fill-rule="nonzero"/><path stroke="#e6e6e6" stroke-width="1.0" stroke-linecap="butt" d="M276.5 65.5L276.5 336.5" fill-rule="nonzero"/><path stroke="#e6e6e6" stroke-width="1.0" stroke-linecap="butt" d="M312.5 65.5L312.5 336.5" fill-rule="nonzero"/><path stroke="#e6e6e6" stroke-width="1.0" stroke-linecap="butt" d="M384.5 65.5L384.5 336.5" fill-rule="nonzero"/><path stroke="#e6e6e6" stroke-width="1.0" stroke-linecap="butt" d="M420.5 65.5L420.5 336.5" fill-rule="nonzero"/><path stroke="#e6e6e6" stroke-width="1.0" stroke-linecap="butt" d="M492.5 65.5L492.5 336.5" fill-rule="nonzero"/><path stroke="#e6e6e6" stroke-width="1.0" stroke-linecap="butt" d="M528.5 65.5L528.5 336.5" fill-rule="nonzero"/><path stroke="#e6e6e6" stroke-width="1.0" stroke-linecap="butt" d="M600.5 65.5L600.5 336.5" fill-rule="nonzero"/><path stroke="#e6e6e6" stroke-width="1.0" stroke-linecap="butt" d="M636.5 65.5L636.5 336.5" fill-rule="nonzero"/><path stroke="#cccccc" stroke-width="1.0" stroke-linecap="butt" d="M85.5 336.5L649.5 336.5" fill-rule="nonzero"/><path stroke="#cccccc" stroke-width="1.0" stroke-linecap="butt" d="M85.5 268.5L649.5 268.5" fill-rule="nonzero"/><path stroke="#cccccc" stroke-width="1.0" stroke-linecap="butt" d="M85.5 200.5L649.5 200.5" fill-rule="nonzero"/><path stroke="#cccccc" stroke-width="1.0" stroke-linecap="butt" d="M85.5 133.5L649.5 133.5" fill-rule="nonzero"/><path stroke="#cccccc" stroke-width="1.0" stroke-linecap="butt" d="M85.5 65.5L649.5 65.5" fill-rule="nonzero"/><path stroke="#e6e6e6" stroke-width="1.0" stroke-linecap="butt" d="M85.5 313.5L649.5 313.5" fill-rule="nonzero"/><path stroke="#e6e6e6" stroke-width="1.0" stroke-linecap="butt" d="M85.5 291.5L649.5 291.5" fill-rule="nonzero"/><path stroke="#e6e6e6" stroke-width="1.0" stroke-linecap="butt" d="M85.5 246.5L649.5 246.5" fill-rule="nonzero"/><path stroke="#e6e6e6" stroke-width="1.0" stroke-linecap="butt" d="M85.5 223.5L649.5 223.5" fill-rule="nonzero"/><path stroke="#e6e6e6" stroke-width="1.0" stroke-linecap="butt" d="M85.5 178.5L649.5 178.5" fill-rule="nonzero"/><path stroke="#e6e6e6" stroke-width="1.0" stroke-linecap="butt" d="M85.5 155.5L649.5 155.5" fill-rule="nonzero"/><path stroke="#e6e6e6" stroke-width="1.0" stroke-linecap="butt" d="M85.5 110.5L649.5 110.5" fill-rule="nonzero"/><path stroke="#e6e6e6" stroke-width="1.0" stroke-linecap="butt" d="M85.5 88.5L649.5 88.5" fill-rule="nonzero"/><path stroke="#000000" stroke-width="1.0" stroke-linecap="butt" d="M649.5 336.5L85.5 336.5" fill-rule="nonzero"/><path stroke="#000000" stroke-width="1.0" stroke-linecap="butt" d="M85.5 336.5L85.5 65.5" fill-rule="nonzero"/><clipPath id="id_0"><path d="M85.75 65.583336L649.25 65.583336L649.25 336.25L85.75 336.25L85.75 65.583336Z" clip-rule="nonzero"/></clipPath><path stroke="#4285f4" stroke-width="2.0" stroke-linecap="butt" clip-path="url(#id_0)" d="M92.5803 86.58646L94.0597 89.77366L97.45864 91.69913L97.47084 117.26174L98.56939 125.1724L101.04167 130.62523L104.06305 141.7089L105.12334 153.03094L106.933525 160.8051L113.889435 172.09984L117.01221 182.0895L126.41182 185.93771L128.974 189.18207L129.8534 192.19916L133.69106 198.65387L138.3273 201.93965L141.80989 203.59642L144.86606 208.63774L149.04979 212.50223L149.359 221.74174L160.31038 227.03792L172.64801 229.58871L179.82358 230.9102L185.77162 232.75815L185.86816 237.7516L196.36633 241.17148L199.76886 245.32492L209.71263 249.30328L218.21532 251.12209L222.68094 252.06082L237.36157 256.87418L250.95528 260.12344L256.2809 261.5551L263.48395 262.3127L296.6353 264.41888L370.3214 266.94434L381.81766 268.8006L412.55588 269.04486L425.33054 270.8812L570.13586 279.48505L572.16437 282.5358L638.7186 284.09122L642.4197 284.5116" fill-rule="nonzero"/><path fill="#4285f4" clip-path="url(#id_0)" d="M97.0803 86.58646C97.0803 89.07174 95.06558 91.08646 92.5803 91.08646C90.095024 91.08646 88.0803 89.07174 88.0803 86.58646C88.0803 84.10117 90.095024 82.08646 92.5803 82.08646C95.06558 82.08646 97.0803 84.10117 97.0803 86.58646Z" fill-rule="nonzero"/><path fill="#4285f4" clip-path="url(#id_0)" d="M98.5597 89.77366C98.5597 92.25894 96.54498 94.27366 94.0597 94.27366C91.57442 94.27366 89.5597 92.25894 89.5597 89.77366C89.5597 87.28838 91.57442 85.27366 94.0597 85.27366C96.54498 85.27366 98.5597 87.28838 98.5597 89.77366Z" fill-rule="nonzero"/><path fill="#4285f4" clip-path="url(#id_0)" d="M101.95864 91.69913C101.95864 94.1844 99.943924 96.19913 97.45864 96.19913C94.97336 96.19913 92.95864 94.1844 92.95864 91.69913C92.95864 89.213844 94.97336 87.19913 97.45864 87.19913C99.943924 87.19913 101.95864 89.213844 101.95864 91.69913Z" fill-rule="nonzero"/><path fill="#4285f4" clip-path="url(#id_0)" d="M101.97084 117.26174C101.97084 119.747025 99.956116 121.76174 97.47084 121.76174C94.98556 121.76174 92.97084 119.747025 92.97084 117.26174C92.97084 114.77646 94.98556 112.76174 97.47084 112.76174C99.956116 112.76174 101.97084 114.77646 101.97084 117.26174Z" fill-rule="nonzero"/><path fill="#4285f4" clip-path="url(#id_0)" d="M103.06939 125.1724C103.06939 127.657684 101.05467 129.67241 98.56939 129.67241C96.08411 129.67241 94.06939 127.657684 94.06939 125.1724C94.06939 122.68712 96.08411 120.6724 98.56939 120.6724C101.05467 120.6724 103.06939 122.68712 103.06939 125.1724Z" fill-rule="nonzero"/><path fill="#4285f4" clip-path="url(#id_0)" d="M105.54167 130.62523C105.54167 133.1105 103.526955 135.12523 101.04167 135.12523C98.5564 135.12523 96.54167 133.1105 96.54167 130.62523C96.54167 128.13995 98.5564 126.12523 101.04167 126.12523C103.526955 126.12523 105.54167 128.13995 105.54167 130.62523Z" fill-rule="nonzero"/><path fill="#4285f4" clip-path="url(#id_0)" d="M108.56305 141.7089C108.56305 144.19418 106.54833 146.2089 104.06305 146.2089C101.57777 146.2089 99.56305 144.19418 99.56305 141.7089C99.56305 139.22362 101.57777 137.2089 104.06305 137.2089C106.54833 137.2089 108.56305 139.22362 108.56305 141.7089Z" fill-rule="nonzero"/><path fill="#4285f4" clip-path="url(#id_0)" d="M109.62334 153.03094C109.62334 155.51622 107.60862 157.53094 105.12334 157.53094C102.638054 157.53094 100.62334 155.51622 100.62334 153.03094C100.62334 150.54565 102.638054 148.53094 105.12334 148.53094C107.60862 148.53094 109.62334 150.54565 109.62334 153.03094Z" fill-rule="nonzero"/><path fill="#4285f4" clip-path="url(#id_0)" d="M111.433525 160.8051C111.433525 163.29037 109.4188 165.3051 106.933525 165.3051C104.44824 165.3051 102.433525 163.29037 102.433525 160.8051C102.433525 158.31981 104.44824 156.3051 106.933525 156.3051C109.4188 156.3051 111.433525 158.31981 111.433525 160.8051Z" fill-rule="nonzero"/><path fill="#4285f4" clip-path="url(#id_0)" d="M118.389435 172.09984C118.389435 174.58513 116.37472 176.59984 113.889435 176.59984C111.40415 176.59984 109.389435 174.58513 109.389435 172.09984C109.389435 169.61456 111.40415 167.59984 113.889435 167.59984C116.37472 167.59984 118.389435 169.61456 118.389435 172.09984Z" fill-rule="nonzero"/><path fill="#4285f4" clip-path="url(#id_0)" d="M121.51221 182.0895C121.51221 184.57477 119.49749 186.5895 117.01221 186.5895C114.526924 186.5895 112.51221 184.57477 112.51221 182.0895C112.51221 179.60422 114.526924 177.5895 117.01221 177.5895C119.49749 177.5895 121.51221 179.60422 121.51221 182.0895Z" fill-rule="nonzero"/><path fill="#4285f4" clip-path="url(#id_0)" d="M130.91182 185.93771C130.91182 188.42299 128.8971 190.43771 126.41182 190.43771C123.92654 190.43771 121.91182 188.42299 121.91182 185.93771C121.91182 183.45242 123.92654 181.43771 126.41182 181.43771C128.8971 181.43771 130.91182 183.45242 130.91182 185.93771Z" fill-rule="nonzero"/><path fill="#4285f4" clip-path="url(#id_0)" d="M133.474 189.18207C133.474 191.66734 131.45927 193.68207 128.974 193.68207C126.488716 193.68207 124.47399 191.66734 124.47399 189.18207C124.47399 186.6968 126.488716 184.68207 128.974 184.68207C131.45927 184.68207 133.474 186.6968 133.474 189.18207Z" fill-rule="nonzero"/><path fill="#4285f4" clip-path="url(#id_0)" d="M134.3534 192.19916C134.3534 194.68445 132.33867 196.69916 129.8534 196.69916C127.36811 196.69916 125.35339 194.68445 125.35339 192.19916C125.35339 189.71388 127.36811 187.69916 129.8534 187.69916C132.33867 187.69916 134.3534 189.71388 134.3534 192.19916Z" fill-rule="nonzero"/><path fill="#4285f4" clip-path="url(#id_0)" d="M138.19106 198.65387C138.19106 201.13914 136.17633 203.15387 133.69106 203.15387C131.20578 203.15387 129.19106 201.13914 129.19106 198.65387C129.19106 196.16858 131.20578 194.15387 133.69106 194.15387C136.17633 194.15387 138.19106 196.16858 138.19106 198.65387Z" fill-rule="nonzero"/><path fill="#4285f4" clip-path="url(#id_0)" d="M142.8273 201.93965C142.8273 204.42493 140.81259 206.43965 138.3273 206.43965C135.84203 206.43965 133.8273 204.42493 133.8273 201.93965C133.8273 199.45436 135.84203 197.43965 138.3273 197.43965C140.81259 197.43965 142.8273 199.45436 142.8273 201.93965Z" fill-rule="nonzero"/><path fill="#4285f4" clip-path="url(#id_0)" d="M146.30989 203.59642C146.30989 206.08171 144.29518 208.09642 141.80989 208.09642C139.32462 208.09642 137.30989 206.08171 137.30989 203.59642C137.30989 201.11115 139.32462 199.09642 141.80989 199.09642C144.29518 199.09642 146.30989 201.11115 146.30989 203.59642Z" fill-rule="nonzero"/><path fill="#4285f4" clip-path="url(#id_0)" d="M149.36606 208.63774C149.36606 211.12302 147.35135 213.13774 144.86606 213.13774C142.38078 213.13774 140.36606 211.12302 140.36606 208.63774C140.36606 206.15245 142.38078 204.13774 144.86606 204.13774C147.35135 204.13774 149.36606 206.15245 149.36606 208.63774Z" fill-rule="nonzero"/><path fill="#4285f4" clip-path="url(#id_0)" d="M153.54979 212.50223C153.54979 214.9875 151.53506 217.00223 149.04979 217.00223C146.5645 217.00223 144.54979 214.9875 144.54979 212.50223C144.54979 210.01695 146.5645 208.00223 149.04979 208.00223C151.53506 208.00223 153.54979 210.01695 153.54979 212.50223Z" fill-rule="nonzero"/><path fill="#4285f4" clip-path="url(#id_0)" d="M153.859 221.74174C153.859 224.22702 151.84427 226.24174 149.359 226.24174C146.8737 226.24174 144.859 224.22702 144.859 221.74174C144.859 219.25645 146.8737 217.24174 149.359 217.24174C151.84427 217.24174 153.859 219.25645 153.859 221.74174Z" fill-rule="nonzero"/><path fill="#4285f4" clip-path="url(#id_0)" d="M164.81038 227.03792C164.81038 229.52321 162.79565 231.53792 160.31038 231.53792C157.82509 231.53792 155.81038 229.52321 155.81038 227.03792C155.81038 224.55264 157.82509 222.53792 160.31038 222.53792C162.79565 222.53792 164.81038 224.55264 164.81038 227.03792Z" fill-rule="nonzero"/><path fill="#4285f4" clip-path="url(#id_0)" d="M177.14801 229.58871C177.14801 232.074 175.13329 234.08871 172.64801 234.08871C170.16272 234.08871 168.14801 232.074 168.14801 229.58871C168.14801 227.10344 170.16272 225.08871 172.64801 225.08871C175.13329 225.08871 177.14801 227.10344 177.14801 229.58871Z" fill-rule="nonzero"/><path fill="#4285f4" clip-path="url(#id_0)" d="M184.32358 230.9102C184.32358 233.3955 182.30885 235.4102 179.82358 235.4102C177.33829 235.4102 175.32358 233.3955 175.32358 230.9102C175.32358 228.42493 177.33829 226.4102 179.82358 226.4102C182.30885 226.4102 184.32358 228.42493 184.32358 230.9102Z" fill-rule="nonzero"/><path fill="#4285f4" clip-path="url(#id_0)" d="M190.27162 232.75815C190.27162 235.24344 188.2569 237.25815 185.77162 237.25815C183.28633 237.25815 181.27162 235.24344 181.27162 232.75815C181.27162 230.27287 183.28633 228.25815 185.77162 228.25815C188.2569 228.25815 190.27162 230.27287 190.27162 232.75815Z" fill-rule="nonzero"/><path fill="#4285f4" clip-path="url(#id_0)" d="M190.36816 237.7516C190.36816 240.2369 188.35344 242.2516 185.86816 242.2516C183.38289 242.2516 181.36816 240.2369 181.36816 237.7516C181.36816 235.26633 183.38289 233.2516 185.86816 233.2516C188.35344 233.2516 190.36816 235.26633 190.36816 237.7516Z" fill-rule="nonzero"/><path fill="#4285f4" clip-path="url(#id_0)" d="M200.86633 241.17148C200.86633 243.65677 198.85162 245.67148 196.36633 245.67148C193.88106 245.67148 191.86633 243.65677 191.86633 241.17148C191.86633 238.6862 193.88106 236.67148 196.36633 236.67148C198.85162 236.67148 200.86633 238.6862 200.86633 241.17148Z" fill-rule="nonzero"/><path fill="#4285f4" clip-path="url(#id_0)" d="M204.26886 245.32492C204.26886 247.81021 202.25415 249.82492 199.76886 249.82492C197.28358 249.82492 195.26886 247.81021 195.26886 245.32492C195.26886 242.83965 197.28358 240.82492 199.76886 240.82492C202.25415 240.82492 204.26886 242.83965 204.26886 245.32492Z" fill-rule="nonzero"/><path fill="#4285f4" clip-path="url(#id_0)" d="M214.21263 249.30328C214.21263 251.78857 212.1979 253.80328 209.71263 253.80328C207.22736 253.80328 205.21263 251.78857 205.21263 249.30328C205.21263 246.81801 207.22736 244.80328 209.71263 244.80328C212.1979 244.80328 214.21263 246.81801 214.21263 249.30328Z" fill-rule="nonzero"/><path fill="#4285f4" clip-path="url(#id_0)" d="M222.71532 251.12209C222.71532 253.60736 220.7006 255.62209 218.21532 255.62209C215.73004 255.62209 213.71532 253.60736 213.71532 251.12209C213.71532 248.63681 215.73004 246.62209 218.21532 246.62209C220.7006 246.62209 222.71532 248.63681 222.71532 251.12209Z" fill-rule="nonzero"/><path fill="#4285f4" clip-path="url(#id_0)" d="M227.18094 252.06082C227.18094 254.5461 225.16621 256.56082 222.68094 256.56082C220.19566 256.56082 218.18094 254.5461 218.18094 252.06082C218.18094 249.57555 220.19566 247.56082 222.68094 247.56082C225.16621 247.56082 227.18094 249.57555 227.18094 252.06082Z" fill-rule="nonzero"/><path fill="#4285f4" clip-path="url(#id_0)" d="M241.86157 256.87418C241.86157 259.35947 239.84685 261.37418 237.36157 261.37418C234.8763 261.37418 232.86157 259.35947 232.86157 256.87418C232.86157 254.3889 234.8763 252.37419 237.36157 252.37419C239.84685 252.37419 241.86157 254.3889 241.86157 256.87418Z" fill-rule="nonzero"/><path fill="#4285f4" clip-path="url(#id_0)" d="M255.45528 260.12344C255.45528 262.6087 253.44055 264.62344 250.95528 264.62344C248.46999 264.62344 246.45528 262.6087 246.45528 260.12344C246.45528 257.63815 248.46999 255.62343 250.95528 255.62343C253.44055 255.62343 255.45528 257.63815 255.45528 260.12344Z" fill-rule="nonzero"/><path fill="#4285f4" clip-path="url(#id_0)" d="M260.7809 261.5551C260.7809 264.04037 258.7662 266.0551 256.2809 266.0551C253.79564 266.0551 251.78091 264.04037 251.78091 261.5551C251.78091 259.06982 253.79564 257.0551 256.2809 257.0551C258.7662 257.0551 260.7809 259.06982 260.7809 261.5551Z" fill-rule="nonzero"/><path fill="#4285f4" clip-path="url(#id_0)" d="M267.98395 262.3127C267.98395 264.798 265.96924 266.8127 263.48395 266.8127C260.99866 266.8127 258.98395 264.798 258.98395 262.3127C258.98395 259.82742 260.99866 257.8127 263.48395 257.8127C265.96924 257.8127 267.98395 259.82742 267.98395 262.3127Z" fill-rule="nonzero"/><path fill="#4285f4" clip-path="url(#id_0)" d="M301.1353 264.41888C301.1353 266.90414 299.12057 268.91888 296.6353 268.91888C294.15002 268.91888 292.1353 266.90414 292.1353 264.41888C292.1353 261.9336 294.15002 259.91888 296.6353 259.91888C299.12057 259.91888 301.1353 261.9336 301.1353 264.41888Z" fill-rule="nonzero"/><path fill="#4285f4" clip-path="url(#id_0)" d="M374.8214 266.94434C374.8214 269.42963 372.8067 271.44434 370.3214 271.44434C367.83615 271.44434 365.8214 269.42963 365.8214 266.94434C365.8214 264.45908 367.83615 262.44434 370.3214 262.44434C372.8067 262.44434 374.8214 264.45908 374.8214 266.94434Z" fill-rule="nonzero"/><path fill="#4285f4" clip-path="url(#id_0)" d="M386.31766 268.8006C386.31766 271.2859 384.30295 273.3006 381.81766 273.3006C379.3324 273.3006 377.31766 271.2859 377.31766 268.8006C377.31766 266.3153 379.3324 264.3006 381.81766 264.3006C384.30295 264.3006 386.31766 266.3153 386.31766 268.8006Z" fill-rule="nonzero"/><path fill="#4285f4" clip-path="url(#id_0)" d="M417.05588 269.04486C417.05588 271.53015 415.04117 273.54486 412.55588 273.54486C410.07062 273.54486 408.05588 271.53015 408.05588 269.04486C408.05588 266.55957 410.07062 264.54486 412.55588 264.54486C415.04117 264.54486 417.05588 266.55957 417.05588 269.04486Z" fill-rule="nonzero"/><path fill="#4285f4" clip-path="url(#id_0)" d="M429.83054 270.8812C429.83054 273.3665 427.81583 275.3812 425.33054 275.3812C422.84525 275.3812 420.83054 273.3665 420.83054 270.8812C420.83054 268.3959 422.84525 266.3812 425.33054 266.3812C427.81583 266.3812 429.83054 268.3959 429.83054 270.8812Z" fill-rule="nonzero"/><path fill="#4285f4" clip-path="url(#id_0)" d="M574.63586 279.48505C574.63586 281.9703 572.62115 283.98505 570.13586 283.98505C567.6506 283.98505 565.63586 281.9703 565.63586 279.48505C565.63586 276.99976 567.6506 274.98505 570.13586 274.98505C572.62115 274.98505 574.63586 276.99976 574.63586 279.48505Z" fill-rule="nonzero"/><path fill="#4285f4" clip-path="url(#id_0)" d="M576.66437 282.5358C576.66437 285.0211 574.64966 287.0358 572.16437 287.0358C569.6791 287.0358 567.66437 285.0211 567.66437 282.5358C567.66437 280.05054 569.6791 278.0358 572.16437 278.0358C574.64966 278.0358 576.66437 280.05054 576.66437 282.5358Z" fill-rule="nonzero"/><path fill="#4285f4" clip-path="url(#id_0)" d="M643.2186 284.09122C643.2186 286.5765 641.2039 288.59122 638.7186 288.59122C636.23334 288.59122 634.2186 286.5765 634.2186 284.09122C634.2186 281.60593 636.23334 279.59122 638.7186 279.59122C641.2039 279.59122 643.2186 281.60593 643.2186 284.09122Z" fill-rule="nonzero"/><path fill="#4285f4" clip-path="url(#id_0)" d="M646.9197 284.5116C646.9197 286.9969 644.90497 289.0116 642.4197 289.0116C639.9344 289.0116 637.9197 286.9969 637.9197 284.5116C637.9197 282.02634 639.9344 280.0116 642.4197 280.0116C644.90497 280.0116 646.9197 282.02634 646.9197 284.5116Z" fill-rule="nonzero"/><path stroke="#000000" stroke-width="1.0" stroke-linecap="butt" d="M96.5 339.5L96.5 333.5" fill-rule="nonzero"/><path stroke="#000000" stroke-width="1.0" stroke-linecap="butt" d="M168.5 339.5L168.5 333.5" fill-rule="nonzero"/><path stroke="#000000" stroke-width="1.0" stroke-linecap="butt" d="M204.5 339.5L204.5 333.5" fill-rule="nonzero"/><path stroke="#000000" stroke-width="1.0" stroke-linecap="butt" d="M276.5 339.5L276.5 333.5" fill-rule="nonzero"/><path stroke="#000000" stroke-width="1.0" stroke-linecap="butt" d="M312.5 339.5L312.5 333.5" fill-rule="nonzero"/><path stroke="#000000" stroke-width="1.0" stroke-linecap="butt" d="M384.5 339.5L384.5 333.5" fill-rule="nonzero"/><path stroke="#000000" stroke-width="1.0" stroke-linecap="butt" d="M420.5 339.5L420.5 333.5" fill-rule="nonzero"/><path stroke="#000000" stroke-width="1.0" stroke-linecap="butt" d="M492.5 339.5L492.5 333.5" fill-rule="nonzero"/><path stroke="#000000" stroke-width="1.0" stroke-linecap="butt" d="M528.5 339.5L528.5 333.5" fill-rule="nonzero"/><path stroke="#000000" stroke-width="1.0" stroke-linecap="butt" d="M600.5 339.5L600.5 333.5" fill-rule="nonzero"/><path stroke="#000000" stroke-width="1.0" stroke-linecap="butt" d="M636.5 339.5L636.5 333.5" fill-rule="nonzero"/><path stroke="#000000" stroke-width="1.0" stroke-linecap="butt" d="M132.5 342.5L132.5 330.5" fill-rule="nonzero"/><path stroke="#000000" stroke-width="1.0" stroke-linecap="butt" d="M240.5 342.5L240.5 330.5" fill-rule="nonzero"/><path stroke="#000000" stroke-width="1.0" stroke-linecap="butt" d="M348.5 342.5L348.5 330.5" fill-rule="nonzero"/><path stroke="#000000" stroke-width="1.0" stroke-linecap="butt" d="M456.5 342.5L456.5 330.5" fill-rule="nonzero"/><path stroke="#000000" stroke-width="1.0" stroke-linecap="butt" d="M564.5 342.5L564.5 330.5" fill-rule="nonzero"/><path stroke="#000000" stroke-width="1.0" stroke-linecap="butt" d="M82.5 313.5L88.5 313.5" fill-rule="nonzero"/><path stroke="#000000" stroke-width="1.0" stroke-linecap="butt" d="M82.5 291.5L88.5 291.5" fill-rule="nonzero"/><path stroke="#000000" stroke-width="1.0" stroke-linecap="butt" d="M82.5 246.5L88.5 246.5" fill-rule="nonzero"/><path stroke="#000000" stroke-width="1.0" stroke-linecap="butt" d="M82.5 223.5L88.5 223.5" fill-rule="nonzero"/><path stroke="#000000" stroke-width="1.0" stroke-linecap="butt" d="M82.5 178.5L88.5 178.5" fill-rule="nonzero"/><path stroke="#000000" stroke-width="1.0" stroke-linecap="butt" d="M82.5 155.5L88.5 155.5" fill-rule="nonzero"/><path stroke="#000000" stroke-width="1.0" stroke-linecap="butt" d="M82.5 110.5L88.5 110.5" fill-rule="nonzero"/><path stroke="#000000" stroke-width="1.0" stroke-linecap="butt" d="M82.5 88.5L88.5 88.5" fill-rule="nonzero"/><path stroke="#000000" stroke-width="1.0" stroke-linecap="butt" d="M79.5 336.5L91.5 336.5" fill-rule="nonzero"/><path stroke="#000000" stroke-width="1.0" stroke-linecap="butt" d="M79.5 268.5L91.5 268.5" fill-rule="nonzero"/><path stroke="#000000" stroke-width="1.0" stroke-linecap="butt" d="M79.5 200.5L91.5 200.5" fill-rule="nonzero"/><path stroke="#000000" stroke-width="1.0" stroke-linecap="butt" d="M79.5 133.5L91.5 133.5" fill-rule="nonzero"/><path stroke="#000000" stroke-width="1.0" stroke-linecap="butt" d="M79.5 65.5L91.5 65.5" fill-rule="nonzero"/><path fill="#000000" d="M341.10938 391.25L341.10938 383.67188L338.28125 383.67188L338.28125 382.65625L345.09375 382.65625L345.09375 383.67188L342.25 383.67188L342.25 391.25L341.10938 391.25ZM345.79688 383.875L345.79688 382.65625L346.85938 382.65625L346.85938 383.875L345.79688 383.875ZM345.79688 391.25L345.79688 385.03125L346.85938 385.03125L346.85938 391.25L345.79688 391.25ZM348.79688 391.25L348.79688 385.03125L349.73438 385.03125L349.73438 385.90625Q350.03125 385.4375 350.51562 385.17188Q351.0 384.89062 351.625 384.89062Q352.3125 384.89062 352.75 385.17188Q353.20312 385.45312 353.375 385.96875Q354.125 384.89062 355.29688 384.89062Q356.23438 384.89062 356.71875 385.40625Q357.21875 385.90625 357.21875 386.98438L357.21875 391.25L356.17188 391.25L356.17188 387.32812Q356.17188 386.70312 356.0625 386.42188Q355.96875 386.14062 355.70312 385.96875Q355.4375 385.79688 355.0625 385.79688Q354.40625 385.79688 353.96875 386.23438Q353.54688 386.67188 353.54688 387.64062L353.54688 391.25L352.48438 391.25L352.48438 387.20312Q352.48438 386.5 352.21875 386.15625Q351.96875 385.79688 351.39062 385.79688Q350.9375 385.79688 350.5625 386.03125Q350.1875 386.26562 350.01562 386.71875Q349.84375 387.17188 349.84375 388.01562L349.84375 391.25L348.79688 391.25ZM364.04688 389.25L365.14062 389.375Q364.89062 390.32812 364.1875 390.85938Q363.48438 391.39062 362.40625 391.39062Q361.04688 391.39062 360.23438 390.54688Q359.4375 389.70312 359.4375 388.1875Q359.4375 386.625 360.25 385.76562Q361.0625 384.89062 362.34375 384.89062Q363.59375 384.89062 364.375 385.73438Q365.17188 386.57812 365.17188 388.125Q365.17188 388.21875 365.17188 388.40625L360.53125 388.40625Q360.59375 389.4375 361.10938 389.98438Q361.625 390.51562 362.40625 390.51562Q362.98438 390.51562 363.39062 390.21875Q363.8125 389.90625 364.04688 389.25ZM360.59375 387.54688L364.0625 387.54688Q364.0 386.75 363.67188 386.35938Q363.15625 385.75 362.35938 385.75Q361.625 385.75 361.125 386.23438Q360.64062 386.71875 360.59375 387.54688ZM371.8125 393.78125Q370.9375 392.67188 370.32812 391.20312Q369.73438 389.71875 369.73438 388.14062Q369.73438 386.75 370.17188 385.46875Q370.70312 383.98438 371.8125 382.51562L372.5625 382.51562Q371.85938 383.73438 371.625 384.25Q371.26562 385.0625 371.0625 385.9375Q370.8125 387.03125 370.8125 388.14062Q370.8125 390.96875 372.5625 393.78125L371.8125 393.78125ZM373.375 389.39062L374.40625 389.23438Q374.5 389.85938 374.89062 390.1875Q375.29688 390.51562 376.03125 390.51562Q376.75 390.51562 377.09375 390.23438Q377.45312 389.9375 377.45312 389.53125Q377.45312 389.17188 377.14062 388.96875Q376.92188 388.82812 376.0625 388.60938Q374.90625 388.3125 374.45312 388.10938Q374.01562 387.89062 373.78125 387.51562Q373.54688 387.14062 373.54688 386.67188Q373.54688 386.26562 373.73438 385.90625Q373.92188 385.54688 374.25 385.3125Q374.5 385.14062 374.92188 385.01562Q375.34375 384.89062 375.84375 384.89062Q376.5625 384.89062 377.10938 385.10938Q377.67188 385.3125 377.9375 385.67188Q378.20312 386.03125 378.29688 386.625L377.26562 386.76562Q377.20312 386.29688 376.85938 386.03125Q376.53125 385.75 375.90625 385.75Q375.1875 385.75 374.875 386.0Q374.5625 386.23438 374.5625 386.5625Q374.5625 386.76562 374.6875 386.92188Q374.82812 387.09375 375.09375 387.20312Q375.25 387.26562 376.03125 387.46875Q377.15625 387.78125 377.59375 387.96875Q378.03125 388.15625 378.28125 388.51562Q378.53125 388.875 378.53125 389.42188Q378.53125 389.95312 378.21875 390.42188Q377.92188 390.875 377.34375 391.14062Q376.76562 391.39062 376.03125 391.39062Q374.8125 391.39062 374.17188 390.89062Q373.54688 390.375 373.375 389.39062ZM385.04688 389.25L386.14062 389.375Q385.89062 390.32812 385.1875 390.85938Q384.48438 391.39062 383.40625 391.39062Q382.04688 391.39062 381.23438 390.54688Q380.4375 389.70312 380.4375 388.1875Q380.4375 386.625 381.25 385.76562Q382.0625 384.89062 383.34375 384.89062Q384.59375 384.89062 385.375 385.73438Q386.17188 386.57812 386.17188 388.125Q386.17188 388.21875 386.17188 388.40625L381.53125 388.40625Q381.59375 389.4375 382.10938 389.98438Q382.625 390.51562 383.40625 390.51562Q383.98438 390.51562 384.39062 390.21875Q384.8125 389.90625 385.04688 389.25ZM381.59375 387.54688L385.0625 387.54688Q385.0 386.75 384.67188 386.35938Q384.15625 385.75 383.35938 385.75Q382.625 385.75 382.125 386.23438Q381.64062 386.71875 381.59375 387.54688ZM391.85938 388.96875L392.89062 389.10938Q392.71875 390.17188 392.01562 390.78125Q391.3125 391.39062 390.29688 391.39062Q389.01562 391.39062 388.23438 390.5625Q387.46875 389.71875 387.46875 388.15625Q387.46875 387.15625 387.79688 386.40625Q388.14062 385.64062 388.8125 385.26562Q389.5 384.89062 390.3125 384.89062Q391.3125 384.89062 391.95312 385.40625Q392.60938 385.90625 392.79688 386.85938L391.76562 387.01562Q391.625 386.39062 391.25 386.07812Q390.875 385.75 390.34375 385.75Q389.54688 385.75 389.04688 386.32812Q388.54688 386.89062 388.54688 388.125Q388.54688 389.39062 389.03125 389.95312Q389.51562 390.51562 390.28125 390.51562Q390.90625 390.51562 391.3125 390.14062Q391.73438 389.76562 391.85938 388.96875ZM394.48438 393.78125L393.73438 393.78125Q395.48438 390.96875 395.48438 388.14062Q395.48438 387.04688 395.23438 385.95312Q395.03125 385.07812 394.67188 384.26562Q394.4375 383.75 393.73438 382.51562L394.48438 382.51562Q395.57812 383.98438 396.10938 385.46875Q396.5625 386.75 396.5625 388.14062Q396.5625 389.71875 395.95312 391.20312Q395.34375 392.67188 394.48438 393.78125Z" fill-rule="nonzero"/><path fill="#000000" d="M28.984375 235.3698L28.890625 234.3073Q29.546875 234.22917 29.953125 233.94792Q30.359375 233.66667 30.625 233.08855Q30.875 232.4948 30.875 231.76042Q30.875 231.1198 30.6875 230.6198Q30.484375 230.1198 30.15625 229.88542Q29.8125 229.63542 29.421875 229.63542Q29.015625 229.63542 28.71875 229.8698Q28.40625 230.10417 28.203125 230.63542Q28.0625 230.9948 27.78125 232.1823Q27.5 233.35417 27.25 233.82292Q26.921875 234.44792 26.453125 234.7448Q25.96875 235.04167 25.375 235.04167Q24.734375 235.04167 24.171875 234.6823Q23.59375 234.3073 23.3125 233.60417Q23.015625 232.88542 23.015625 232.02605Q23.015625 231.07292 23.328125 230.33855Q23.625 229.60417 24.234375 229.21355Q24.828125 228.82292 25.578125 228.79167L25.65625 229.88542Q24.84375 229.97917 24.4375 230.4948Q24.015625 230.9948 24.015625 231.97917Q24.015625 233.01042 24.390625 233.47917Q24.765625 233.94792 25.296875 233.94792Q25.765625 233.94792 26.0625 233.6198Q26.359375 233.29167 26.671875 231.91667Q26.984375 230.52605 27.21875 230.01042Q27.578125 229.26042 28.109375 228.90105Q28.625 228.54167 29.328125 228.54167Q30.015625 228.54167 30.625 228.9323Q31.21875 229.32292 31.5625 230.0573Q31.890625 230.79167 31.890625 231.71355Q31.890625 232.88542 31.5625 233.6823Q31.21875 234.46355 30.53125 234.91667Q29.84375 235.35417 28.984375 235.3698ZM24.375 227.1198L23.15625 227.1198L23.15625 226.0573L24.375 226.0573L24.375 227.1198ZM31.75 227.1198L25.53125 227.1198L25.53125 226.0573L31.75 226.0573L31.75 227.1198ZM31.75 224.6823L30.890625 224.6823L26.34375 220.71355Q26.375 221.40105 26.375 221.91667L26.375 224.44792L25.53125 224.44792L25.53125 219.35417L26.21875 219.35417L30.171875 222.72917L30.890625 223.38542Q30.84375 222.66667 30.84375 222.0573L30.84375 219.16667L31.75 219.16667L31.75 224.6823ZM29.75 214.8698L29.875 213.77605Q30.828125 214.02605 31.359375 214.72917Q31.890625 215.4323 31.890625 216.51042Q31.890625 217.8698 31.046875 218.6823Q30.203125 219.47917 28.6875 219.47917Q27.125 219.47917 26.265625 218.66667Q25.390625 217.85417 25.390625 216.57292Q25.390625 215.32292 26.234375 214.54167Q27.078125 213.7448 28.625 213.7448Q28.71875 213.7448 28.90625 213.7448L28.90625 218.38542Q29.9375 218.32292 30.484375 217.8073Q31.015625 217.29167 31.015625 216.51042Q31.015625 215.9323 30.71875 215.52605Q30.40625 215.10417 29.75 214.8698ZM28.046875 218.32292L28.046875 214.85417Q27.25 214.91667 26.859375 215.2448Q26.25 215.76042 26.25 216.5573Q26.25 217.29167 26.734375 217.79167Q27.21875 218.27605 28.046875 218.32292ZM34.28125 207.10417Q33.171875 207.97917 31.703125 208.58855Q30.21875 209.1823 28.640625 209.1823Q27.25 209.1823 25.96875 208.7448Q24.484375 208.21355 23.015625 207.10417L23.015625 206.35417Q24.234375 207.0573 24.75 207.29167Q25.5625 207.65105 26.4375 207.85417Q27.53125 208.10417 28.640625 208.10417Q31.46875 208.10417 34.28125 206.35417L34.28125 207.10417ZM31.75 205.02605L23.15625 205.02605L23.15625 203.3073L29.234375 201.27605Q30.09375 200.9948 30.515625 200.8698Q30.046875 200.72917 29.140625 200.41667L23.15625 198.35417L23.15625 196.82292L31.75 196.82292L31.75 197.91667L24.5625 197.91667L31.75 200.41667L31.75 201.44792L24.4375 203.9323L31.75 203.9323L31.75 205.02605ZM31.75 196.04167L23.15625 196.04167L23.15625 192.8073Q23.15625 191.82292 23.421875 191.22917Q23.6875 190.63542 24.234375 190.3073Q24.765625 189.96355 25.359375 189.96355Q25.90625 189.96355 26.390625 190.26042Q26.875 190.5573 27.171875 191.16667Q27.40625 190.38542 27.96875 189.97917Q28.515625 189.5573 29.265625 189.5573Q29.859375 189.5573 30.390625 189.8073Q30.90625 190.0573 31.1875 190.4323Q31.46875 190.8073 31.609375 191.38542Q31.75 191.94792 31.75 192.76042L31.75 196.04167ZM26.765625 194.90105L26.765625 193.04167Q26.765625 192.29167 26.671875 191.96355Q26.546875 191.52605 26.25 191.3073Q25.9375 191.08855 25.484375 191.08855Q25.0625 191.08855 24.734375 191.29167Q24.40625 191.4948 24.296875 191.88542Q24.171875 192.26042 24.171875 193.1823L24.171875 194.90105L26.765625 194.90105ZM30.734375 194.90105L30.734375 192.76042Q30.734375 192.21355 30.6875 191.9948Q30.625 191.58855 30.46875 191.33855Q30.296875 191.07292 29.984375 190.90105Q29.671875 190.72917 29.265625 190.72917Q28.78125 190.72917 28.421875 190.97917Q28.0625 191.21355 27.921875 191.65105Q27.78125 192.08855 27.78125 192.91667L27.78125 194.90105L30.734375 194.90105ZM34.28125 187.4323L34.28125 188.1823Q31.46875 186.4323 28.640625 186.4323Q27.546875 186.4323 26.453125 186.6823Q25.578125 186.88542 24.765625 187.2448Q24.25 187.47917 23.015625 188.1823L23.015625 187.4323Q24.484375 186.33855 25.96875 185.8073Q27.25 185.35417 28.640625 185.35417Q30.21875 185.35417 31.703125 185.96355Q33.171875 186.57292 34.28125 187.4323Z" fill-rule="nonzero"/><path fill="#000000" d="M58.796875 339.23438L58.796875 340.25L53.109375 340.25Q53.109375 339.875 53.234375 339.51562Q53.453125 338.9375 53.921875 338.375Q54.40625 337.8125 55.3125 337.07812Q56.71875 335.92188 57.203125 335.25Q57.703125 334.57812 57.703125 333.98438Q57.703125 333.35938 57.25 332.9375Q56.796875 332.5 56.078125 332.5Q55.3125 332.5 54.859375 332.95312Q54.40625 333.40625 54.390625 334.21875L53.3125 334.10938Q53.421875 332.89062 54.140625 332.26562Q54.875 331.625 56.109375 331.625Q57.34375 331.625 58.0625 332.3125Q58.78125 333.0 58.78125 334.01562Q58.78125 334.53125 58.5625 335.03125Q58.359375 335.51562 57.859375 336.07812Q57.375 336.625 56.25 337.57812Q55.296875 338.375 55.015625 338.67188Q54.75 338.95312 54.578125 339.23438L58.796875 339.23438ZM63.625 340.25L63.625 338.1875L59.90625 338.1875L59.90625 337.21875L63.828125 331.65625L64.6875 331.65625L64.6875 337.21875L65.84375 337.21875L65.84375 338.1875L64.6875 338.1875L64.6875 340.25L63.625 340.25ZM63.625 337.21875L63.625 333.35938L60.9375 337.21875L63.625 337.21875ZM67.25 336.01562Q67.25 334.48438 67.5625 333.5625Q67.875 332.625 68.484375 332.125Q69.109375 331.625 70.046875 331.625Q70.734375 331.625 71.25 331.90625Q71.78125 332.1875 72.125 332.71875Q72.46875 333.23438 72.65625 333.98438Q72.84375 334.73438 72.84375 336.01562Q72.84375 337.53125 72.53125 338.45312Q72.234375 339.375 71.609375 339.89062Q71.0 340.39062 70.046875 340.39062Q68.8125 340.39062 68.09375 339.5Q67.25 338.4375 67.25 336.01562ZM68.328125 336.01562Q68.328125 338.125 68.828125 338.82812Q69.328125 339.53125 70.046875 339.53125Q70.78125 339.53125 71.265625 338.82812Q71.765625 338.125 71.765625 336.01562Q71.765625 333.89062 71.265625 333.20312Q70.78125 332.5 70.03125 332.5Q69.3125 332.5 68.875 333.10938Q68.328125 333.89062 68.328125 336.01562Z" fill-rule="nonzero"/><path fill="#000000" d="M58.796875 271.56772L58.796875 272.58334L53.109375 272.58334Q53.109375 272.20834 53.234375 271.84897Q53.453125 271.27084 53.921875 270.70834Q54.40625 270.14584 55.3125 269.41147Q56.71875 268.25522 57.203125 267.58334Q57.703125 266.91147 57.703125 266.31772Q57.703125 265.69272 57.25 265.27084Q56.796875 264.83334 56.078125 264.83334Q55.3125 264.83334 54.859375 265.28647Q54.40625 265.7396 54.390625 266.5521L53.3125 266.44272Q53.421875 265.22397 54.140625 264.59897Q54.875 263.95834 56.109375 263.95834Q57.34375 263.95834 58.0625 264.64584Q58.78125 265.33334 58.78125 266.34897Q58.78125 266.8646 58.5625 267.3646Q58.359375 267.84897 57.859375 268.41147Q57.375 268.95834 56.25 269.91147Q55.296875 270.70834 55.015625 271.00522Q54.75 271.28647 54.578125 271.56772L58.796875 271.56772ZM65.71875 266.09897L64.671875 266.1771Q64.53125 265.5521 64.28125 265.27084Q63.84375 264.81772 63.21875 264.81772Q62.71875 264.81772 62.328125 265.09897Q61.84375 265.47397 61.546875 266.1771Q61.265625 266.8646 61.25 268.14584Q61.625 267.56772 62.171875 267.28647Q62.734375 267.00522 63.34375 267.00522Q64.390625 267.00522 65.125 267.78647Q65.875 268.56772 65.875 269.78647Q65.875 270.59897 65.515625 271.3021Q65.171875 271.9896 64.5625 272.3646Q63.953125 272.72397 63.1875 272.72397Q61.859375 272.72397 61.03125 271.75522Q60.203125 270.78647 60.203125 268.56772Q60.203125 266.06772 61.125 264.94272Q61.921875 263.95834 63.28125 263.95834Q64.296875 263.95834 64.9375 264.53647Q65.59375 265.09897 65.71875 266.09897ZM61.421875 269.8021Q61.421875 270.34897 61.640625 270.84897Q61.875 271.33334 62.28125 271.59897Q62.703125 271.8646 63.171875 271.8646Q63.828125 271.8646 64.3125 271.33334Q64.796875 270.78647 64.796875 269.8646Q64.796875 268.97397 64.3125 268.45834Q63.84375 267.94272 63.125 267.94272Q62.40625 267.94272 61.90625 268.45834Q61.421875 268.97397 61.421875 269.8021ZM67.25 268.34897Q67.25 266.81772 67.5625 265.89584Q67.875 264.95834 68.484375 264.45834Q69.109375 263.95834 70.046875 263.95834Q70.734375 263.95834 71.25 264.2396Q71.78125 264.52084 72.125 265.0521Q72.46875 265.56772 72.65625 266.31772Q72.84375 267.06772 72.84375 268.34897Q72.84375 269.8646 72.53125 270.78647Q72.234375 271.70834 71.609375 272.22397Q71.0 272.72397 70.046875 272.72397Q68.8125 272.72397 68.09375 271.83334Q67.25 270.77084 67.25 268.34897ZM68.328125 268.34897Q68.328125 270.45834 68.828125 271.16147Q69.328125 271.8646 70.046875 271.8646Q70.78125 271.8646 71.265625 271.16147Q71.765625 270.45834 71.765625 268.34897Q71.765625 266.22397 71.265625 265.53647Q70.78125 264.83334 70.03125 264.83334Q69.3125 264.83334 68.875 265.44272Q68.328125 266.22397 68.328125 268.34897Z" fill-rule="nonzero"/><path fill="#000000" d="M58.796875 203.90105L58.796875 204.91667L53.109375 204.91667Q53.109375 204.54167 53.234375 204.1823Q53.453125 203.60417 53.921875 203.04167Q54.40625 202.47917 55.3125 201.7448Q56.71875 200.58855 57.203125 199.91667Q57.703125 199.2448 57.703125 198.65105Q57.703125 198.02605 57.25 197.60417Q56.796875 197.16667 56.078125 197.16667Q55.3125 197.16667 54.859375 197.6198Q54.40625 198.07292 54.390625 198.88542L53.3125 198.77605Q53.421875 197.5573 54.140625 196.9323Q54.875 196.29167 56.109375 196.29167Q57.34375 196.29167 58.0625 196.97917Q58.78125 197.66667 58.78125 198.6823Q58.78125 199.19792 58.5625 199.69792Q58.359375 200.1823 57.859375 200.7448Q57.375 201.29167 56.25 202.2448Q55.296875 203.04167 55.015625 203.33855Q54.75 203.6198 54.578125 203.90105L58.796875 203.90105ZM61.875 200.26042Q61.21875 200.01042 60.890625 199.57292Q60.578125 199.1198 60.578125 198.51042Q60.578125 197.57292 61.25 196.9323Q61.9375 196.29167 63.046875 196.29167Q64.171875 196.29167 64.859375 196.94792Q65.546875 197.60417 65.546875 198.54167Q65.546875 199.13542 65.234375 199.57292Q64.921875 200.01042 64.28125 200.26042Q65.078125 200.51042 65.484375 201.08855Q65.890625 201.66667 65.890625 202.46355Q65.890625 203.5573 65.109375 204.3073Q64.34375 205.0573 63.0625 205.0573Q61.796875 205.0573 61.015625 204.3073Q60.234375 203.5573 60.234375 202.4323Q60.234375 201.58855 60.65625 201.02605Q61.09375 200.46355 61.875 200.26042ZM61.65625 198.46355Q61.65625 199.07292 62.046875 199.46355Q62.453125 199.85417 63.078125 199.85417Q63.6875 199.85417 64.078125 199.47917Q64.46875 199.08855 64.46875 198.52605Q64.46875 197.94792 64.0625 197.5573Q63.65625 197.15105 63.0625 197.15105Q62.453125 197.15105 62.046875 197.54167Q61.65625 197.9323 61.65625 198.46355ZM61.328125 202.4323Q61.328125 202.88542 61.53125 203.3073Q61.75 203.72917 62.171875 203.96355Q62.59375 204.19792 63.078125 204.19792Q63.828125 204.19792 64.3125 203.71355Q64.8125 203.22917 64.8125 202.47917Q64.8125 201.71355 64.3125 201.21355Q63.8125 200.71355 63.046875 200.71355Q62.296875 200.71355 61.8125 201.21355Q61.328125 201.69792 61.328125 202.4323ZM67.25 200.6823Q67.25 199.15105 67.5625 198.22917Q67.875 197.29167 68.484375 196.79167Q69.109375 196.29167 70.046875 196.29167Q70.734375 196.29167 71.25 196.57292Q71.78125 196.85417 72.125 197.38542Q72.46875 197.90105 72.65625 198.65105Q72.84375 199.40105 72.84375 200.6823Q72.84375 202.19792 72.53125 203.1198Q72.234375 204.04167 71.609375 204.5573Q71.0 205.0573 70.046875 205.0573Q68.8125 205.0573 68.09375 204.16667Q67.25 203.10417 67.25 200.6823ZM68.328125 200.6823Q68.328125 202.79167 68.828125 203.4948Q69.328125 204.19792 70.046875 204.19792Q70.78125 204.19792 71.265625 203.4948Q71.765625 202.79167 71.765625 200.6823Q71.765625 198.5573 71.265625 197.8698Q70.78125 197.16667 70.03125 197.16667Q69.3125 197.16667 68.875 197.77605Q68.328125 198.5573 68.328125 200.6823Z" fill-rule="nonzero"/><path fill="#000000" d="M53.25 134.98438L54.3125 134.84375Q54.484375 135.73438 54.921875 136.14062Q55.359375 136.53125 55.984375 136.53125Q56.734375 136.53125 57.25 136.01562Q57.765625 135.5 57.765625 134.73438Q57.765625 134.01562 57.28125 133.54688Q56.8125 133.0625 56.078125 133.0625Q55.78125 133.0625 55.328125 133.1875L55.453125 132.25Q55.5625 132.26562 55.625 132.26562Q56.296875 132.26562 56.828125 131.92188Q57.375 131.5625 57.375 130.82812Q57.375 130.25 56.984375 129.875Q56.59375 129.48438 55.96875 129.48438Q55.359375 129.48438 54.9375 129.875Q54.53125 130.26562 54.421875 131.03125L53.359375 130.84375Q53.546875 129.79688 54.234375 129.21875Q54.921875 128.625 55.9375 128.625Q56.640625 128.625 57.234375 128.9375Q57.828125 129.23438 58.140625 129.75Q58.453125 130.26562 58.453125 130.85938Q58.453125 131.40625 58.15625 131.875Q57.859375 132.32812 57.28125 132.59375Q58.03125 132.76562 58.453125 133.32812Q58.875 133.875 58.875 134.71875Q58.875 135.84375 58.046875 136.625Q57.234375 137.40625 55.984375 137.40625Q54.859375 137.40625 54.109375 136.73438Q53.359375 136.04688 53.25 134.98438ZM60.25 133.01562Q60.25 131.48438 60.5625 130.5625Q60.875 129.625 61.484375 129.125Q62.109375 128.625 63.046875 128.625Q63.734375 128.625 64.25 128.90625Q64.78125 129.1875 65.125 129.71875Q65.46875 130.23438 65.65625 130.98438Q65.84375 131.73438 65.84375 133.01562Q65.84375 134.53125 65.53125 135.45312Q65.234375 136.375 64.609375 136.89062Q64.0 137.39062 63.046875 137.39062Q61.8125 137.39062 61.09375 136.5Q60.25 135.4375 60.25 133.01562ZM61.328125 133.01562Q61.328125 135.125 61.828125 135.82812Q62.328125 136.53125 63.046875 136.53125Q63.78125 136.53125 64.265625 135.82812Q64.765625 135.125 64.765625 133.01562Q64.765625 130.89062 64.265625 130.20312Q63.78125 129.5 63.03125 129.5Q62.3125 129.5 61.875 130.10938Q61.328125 130.89062 61.328125 133.01562ZM67.25 133.01562Q67.25 131.48438 67.5625 130.5625Q67.875 129.625 68.484375 129.125Q69.109375 128.625 70.046875 128.625Q70.734375 128.625 71.25 128.90625Q71.78125 129.1875 72.125 129.71875Q72.46875 130.23438 72.65625 130.98438Q72.84375 131.73438 72.84375 133.01562Q72.84375 134.53125 72.53125 135.45312Q72.234375 136.375 71.609375 136.89062Q71.0 137.39062 70.046875 137.39062Q68.8125 137.39062 68.09375 136.5Q67.25 135.4375 67.25 133.01562ZM68.328125 133.01562Q68.328125 135.125 68.828125 135.82812Q69.328125 136.53125 70.046875 136.53125Q70.78125 136.53125 71.265625 135.82812Q71.765625 135.125 71.765625 133.01562Q71.765625 130.89062 71.265625 130.20312Q70.78125 129.5 70.03125 129.5Q69.3125 129.5 68.875 130.10938Q68.328125 130.89062 68.328125 133.01562Z" fill-rule="nonzero"/><path fill="#000000" d="M53.25 67.31771L54.3125 67.177086Q54.484375 68.06771 54.921875 68.47396Q55.359375 68.864586 55.984375 68.864586Q56.734375 68.864586 57.25 68.34896Q57.765625 67.833336 57.765625 67.06771Q57.765625 66.34896 57.28125 65.88021Q56.8125 65.395836 56.078125 65.395836Q55.78125 65.395836 55.328125 65.520836L55.453125 64.583336Q55.5625 64.59896 55.625 64.59896Q56.296875 64.59896 56.828125 64.25521Q57.375 63.895836 57.375 63.16146Q57.375 62.583336 56.984375 62.208336Q56.59375 61.81771 55.96875 61.81771Q55.359375 61.81771 54.9375 62.208336Q54.53125 62.59896 54.421875 63.364586L53.359375 63.177086Q53.546875 62.13021 54.234375 61.552086Q54.921875 60.958336 55.9375 60.958336Q56.640625 60.958336 57.234375 61.270836Q57.828125 61.56771 58.140625 62.083336Q58.453125 62.59896 58.453125 63.19271Q58.453125 63.739586 58.15625 64.208336Q57.859375 64.66146 57.28125 64.927086Q58.03125 65.09896 58.453125 65.66146Q58.875 66.208336 58.875 67.052086Q58.875 68.177086 58.046875 68.958336Q57.234375 69.739586 55.984375 69.739586Q54.859375 69.739586 54.109375 69.06771Q53.359375 68.38021 53.25 67.31771ZM65.796875 68.56771L65.796875 69.583336L60.109375 69.583336Q60.109375 69.208336 60.234375 68.84896Q60.453125 68.270836 60.921875 67.708336Q61.40625 67.145836 62.3125 66.41146Q63.71875 65.25521 64.203125 64.583336Q64.703125 63.91146 64.703125 63.31771Q64.703125 62.69271 64.25 62.270836Q63.796875 61.833336 63.078125 61.833336Q62.3125 61.833336 61.859375 62.28646Q61.40625 62.739586 61.390625 63.552086L60.3125 63.44271Q60.421875 62.22396 61.140625 61.59896Q61.875 60.958336 63.109375 60.958336Q64.34375 60.958336 65.0625 61.645836Q65.78125 62.333336 65.78125 63.34896Q65.78125 63.864586 65.5625 64.364586Q65.359375 64.84896 64.859375 65.41146Q64.375 65.958336 63.25 66.91146Q62.296875 67.708336 62.015625 68.00521Q61.75 68.28646 61.578125 68.56771L65.796875 68.56771ZM67.25 65.34896Q67.25 63.81771 67.5625 62.895836Q67.875 61.958336 68.484375 61.458336Q69.109375 60.958336 70.046875 60.958336Q70.734375 60.958336 71.25 61.239586Q71.78125 61.520836 72.125 62.052086Q72.46875 62.56771 72.65625 63.31771Q72.84375 64.06771 72.84375 65.34896Q72.84375 66.864586 72.53125 67.78646Q72.234375 68.708336 71.609375 69.22396Q71.0 69.72396 70.046875 69.72396Q68.8125 69.72396 68.09375 68.833336Q67.25 67.770836 67.25 65.34896ZM68.328125 65.34896Q68.328125 67.458336 68.828125 68.16146Q69.328125 68.864586 70.046875 68.864586Q70.78125 68.864586 71.265625 68.16146Q71.765625 67.458336 71.765625 65.34896Q71.765625 63.22396 71.265625 62.53646Q70.78125 61.833336 70.03125 61.833336Q69.3125 61.833336 68.875 62.44271Q68.328125 63.22396 68.328125 65.34896Z" fill-rule="nonzero"/><path fill="#000000" d="M131.27231 358.23438L131.27231 359.25L125.58481 359.25Q125.58481 358.875 125.70981 358.51562Q125.92856 357.9375 126.39731 357.375Q126.88168 356.8125 127.78793 356.07812Q129.19418 354.92188 129.67856 354.25Q130.17856 353.57812 130.17856 352.98438Q130.17856 352.35938 129.72543 351.9375Q129.27231 351.5 128.55356 351.5Q127.78793 351.5 127.33481 351.95312Q126.88168 352.40625 126.86606 353.21875L125.78793 353.10938Q125.89731 351.89062 126.61606 351.26562Q127.35043 350.625 128.58481 350.625Q129.81918 350.625 130.53793 351.3125Q131.25668 352.0 131.25668 353.01562Q131.25668 353.53125 131.03793 354.03125Q130.83481 354.51562 130.33481 355.07812Q129.85043 355.625 128.72543 356.57812Q127.77231 357.375 127.49106 357.67188Q127.22543 357.95312 127.05356 358.23438L131.27231 358.23438ZM132.72543 357.0L133.83481 356.90625Q133.95981 357.71875 134.39731 358.125Q134.85043 358.53125 135.49106 358.53125Q136.24106 358.53125 136.77231 357.95312Q137.30356 357.375 137.30356 356.4375Q137.30356 355.53125 136.78793 355.01562Q136.28793 354.48438 135.45981 354.48438Q134.95981 354.48438 134.53793 354.71875Q134.13168 354.95312 133.89731 355.3125L132.91293 355.1875L133.74106 350.78125L138.02231 350.78125L138.02231 351.78125L134.58481 351.78125L134.13168 354.09375Q134.89731 353.54688 135.74106 353.54688Q136.86606 353.54688 137.63168 354.32812Q138.41293 355.10938 138.41293 356.34375Q138.41293 357.5 137.74106 358.35938Q136.91293 359.39062 135.49106 359.39062Q134.31918 359.39062 133.56918 358.73438Q132.83481 358.07812 132.72543 357.0Z" fill-rule="nonzero"/><path fill="#000000" d="M233.70569 357.0L234.81506 356.90625Q234.94006 357.71875 235.37756 358.125Q235.83069 358.53125 236.47131 358.53125Q237.22131 358.53125 237.75256 357.95312Q238.28381 357.375 238.28381 356.4375Q238.28381 355.53125 237.76819 355.01562Q237.26819 354.48438 236.44006 354.48438Q235.94006 354.48438 235.51819 354.71875Q235.11194 354.95312 234.87756 355.3125L233.89319 355.1875L234.72131 350.78125L239.00256 350.78125L239.00256 351.78125L235.56506 351.78125L235.11194 354.09375Q235.87756 353.54688 236.72131 353.54688Q237.84631 353.54688 238.61194 354.32812Q239.39319 355.10938 239.39319 356.34375Q239.39319 357.5 238.72131 358.35938Q237.89319 359.39062 236.47131 359.39062Q235.29944 359.39062 234.54944 358.73438Q233.81506 358.07812 233.70569 357.0ZM240.70569 355.01562Q240.70569 353.48438 241.01819 352.5625Q241.33069 351.625 241.94006 351.125Q242.56506 350.625 243.50256 350.625Q244.19006 350.625 244.70569 350.90625Q245.23694 351.1875 245.58069 351.71875Q245.92444 352.23438 246.11194 352.98438Q246.29944 353.73438 246.29944 355.01562Q246.29944 356.53125 245.98694 357.45312Q245.69006 358.375 245.06506 358.89062Q244.45569 359.39062 243.50256 359.39062Q242.26819 359.39062 241.54944 358.5Q240.70569 357.4375 240.70569 355.01562ZM241.78381 355.01562Q241.78381 357.125 242.28381 357.82812Q242.78381 358.53125 243.50256 358.53125Q244.23694 358.53125 244.72131 357.82812Q245.22131 357.125 245.22131 355.01562Q245.22131 352.89062 244.72131 352.20312Q244.23694 351.5 243.48694 351.5Q242.76819 351.5 242.33069 352.10938Q241.78381 352.89062 241.78381 355.01562Z" fill-rule="nonzero"/><path fill="#000000" d="M341.74844 351.78125L341.74844 350.76562L347.31094 350.76562L347.31094 351.59375Q346.49844 352.46875 345.68594 353.92188Q344.88907 355.35938 344.45157 356.89062Q344.12344 357.96875 344.04532 359.25L342.95157 359.25Q342.9672 358.23438 343.3422 356.79688Q343.73282 355.35938 344.43594 354.03125Q345.1547 352.70312 345.9672 351.78125L341.74844 351.78125ZM348.68594 357.0L349.79532 356.90625Q349.92032 357.71875 350.35782 358.125Q350.81094 358.53125 351.45157 358.53125Q352.20157 358.53125 352.73282 357.95312Q353.26407 357.375 353.26407 356.4375Q353.26407 355.53125 352.74844 355.01562Q352.24844 354.48438 351.42032 354.48438Q350.92032 354.48438 350.49844 354.71875Q350.0922 354.95312 349.85782 355.3125L348.87344 355.1875L349.70157 350.78125L353.98282 350.78125L353.98282 351.78125L350.54532 351.78125L350.0922 354.09375Q350.85782 353.54688 351.70157 353.54688Q352.82657 353.54688 353.5922 354.32812Q354.37344 355.10938 354.37344 356.34375Q354.37344 357.5 353.70157 358.35938Q352.87344 359.39062 351.45157 359.39062Q350.2797 359.39062 349.5297 358.73438Q348.79532 358.07812 348.68594 357.0Z" fill-rule="nonzero"/><path fill="#000000" d="M450.13495 359.25L449.08807 359.25L449.08807 352.53125Q448.69745 352.89062 448.07245 353.26562Q447.46307 353.625 446.9787 353.79688L446.9787 352.78125Q447.8537 352.35938 448.50995 351.78125Q449.18182 351.1875 449.46307 350.625L450.13495 350.625L450.13495 359.25ZM453.1662 355.01562Q453.1662 353.48438 453.4787 352.5625Q453.7912 351.625 454.40057 351.125Q455.02557 350.625 455.96307 350.625Q456.65057 350.625 457.1662 350.90625Q457.69745 351.1875 458.0412 351.71875Q458.38495 352.23438 458.57245 352.98438Q458.75995 353.73438 458.75995 355.01562Q458.75995 356.53125 458.44745 357.45312Q458.15057 358.375 457.52557 358.89062Q456.9162 359.39062 455.96307 359.39062Q454.7287 359.39062 454.00995 358.5Q453.1662 357.4375 453.1662 355.01562ZM454.24432 355.01562Q454.24432 357.125 454.74432 357.82812Q455.24432 358.53125 455.96307 358.53125Q456.69745 358.53125 457.18182 357.82812Q457.68182 357.125 457.68182 355.01562Q457.68182 352.89062 457.18182 352.20312Q456.69745 351.5 455.94745 351.5Q455.2287 351.5 454.7912 352.10938Q454.24432 352.89062 454.24432 355.01562ZM460.1662 355.01562Q460.1662 353.48438 460.4787 352.5625Q460.7912 351.625 461.40057 351.125Q462.02557 350.625 462.96307 350.625Q463.65057 350.625 464.1662 350.90625Q464.69745 351.1875 465.0412 351.71875Q465.38495 352.23438 465.57245 352.98438Q465.75995 353.73438 465.75995 355.01562Q465.75995 356.53125 465.44745 357.45312Q465.15057 358.375 464.52557 358.89062Q463.9162 359.39062 462.96307 359.39062Q461.7287 359.39062 461.00995 358.5Q460.1662 357.4375 460.1662 355.01562ZM461.24432 355.01562Q461.24432 357.125 461.74432 357.82812Q462.24432 358.53125 462.96307 358.53125Q463.69745 358.53125 464.18182 357.82812Q464.68182 357.125 464.68182 355.01562Q464.68182 352.89062 464.18182 352.20312Q463.69745 351.5 462.94745 351.5Q462.2287 351.5 461.7912 352.10938Q461.24432 352.89062 461.24432 355.01562Z" fill-rule="nonzero"/><path fill="#000000" d="M558.1152 359.25L557.0683 359.25L557.0683 352.53125Q556.6777 352.89062 556.0527 353.26562Q555.4433 353.625 554.9589 353.79688L554.9589 352.78125Q555.8339 352.35938 556.4902 351.78125Q557.16205 351.1875 557.4433 350.625L558.1152 350.625L558.1152 359.25ZM566.6933 358.23438L566.6933 359.25L561.0058 359.25Q561.0058 358.875 561.1308 358.51562Q561.34955 357.9375 561.8183 357.375Q562.3027 356.8125 563.2089 356.07812Q564.6152 354.92188 565.09955 354.25Q565.59955 353.57812 565.59955 352.98438Q565.59955 352.35938 565.1464 351.9375Q564.6933 351.5 563.97455 351.5Q563.2089 351.5 562.7558 351.95312Q562.3027 352.40625 562.28705 353.21875L561.2089 353.10938Q561.3183 351.89062 562.03705 351.26562Q562.7714 350.625 564.0058 350.625Q565.2402 350.625 565.9589 351.3125Q566.6777 352.0 566.6777 353.01562Q566.6777 353.53125 566.4589 354.03125Q566.2558 354.51562 565.7558 355.07812Q565.2714 355.625 564.1464 356.57812Q563.1933 357.375 562.91205 357.67188Q562.6464 357.95312 562.47455 358.23438L566.6933 358.23438ZM568.1464 357.0L569.2558 356.90625Q569.3808 357.71875 569.8183 358.125Q570.2714 358.53125 570.91205 358.53125Q571.66205 358.53125 572.1933 357.95312Q572.72455 357.375 572.72455 356.4375Q572.72455 355.53125 572.2089 355.01562Q571.7089 354.48438 570.8808 354.48438Q570.3808 354.48438 569.9589 354.71875Q569.5527 354.95312 569.3183 355.3125L568.3339 355.1875L569.16205 350.78125L573.4433 350.78125L573.4433 351.78125L570.0058 351.78125L569.5527 354.09375Q570.3183 353.54688 571.16205 353.54688Q572.28705 353.54688 573.0527 354.32812Q573.8339 355.10938 573.8339 356.34375Q573.8339 357.5 573.16205 358.35938Q572.3339 359.39062 570.91205 359.39062Q569.7402 359.39062 568.9902 358.73438Q568.2558 358.07812 568.1464 357.0Z" fill-rule="nonzero"/><path fill="#757575" d="M21.65625 35.15625L23.4375 35.0Q23.5625 36.0625 24.015625 36.75Q24.484375 37.4375 25.453125 37.875Q26.4375 38.296875 27.671875 38.296875Q28.75 38.296875 29.578125 37.984375Q30.40625 37.65625 30.8125 37.09375Q31.21875 36.53125 31.21875 35.859375Q31.21875 35.1875 30.828125 34.6875Q30.4375 34.1875 29.546875 33.84375Q28.96875 33.609375 26.984375 33.140625Q25.015625 32.671875 24.234375 32.25Q23.203125 31.71875 22.703125 30.921875Q22.203125 30.125 22.203125 29.140625Q22.203125 28.046875 22.8125 27.109375Q23.421875 26.171875 24.609375 25.6875Q25.796875 25.1875 27.234375 25.1875Q28.828125 25.1875 30.046875 25.703125Q31.265625 26.21875 31.90625 27.21875Q32.5625 28.203125 32.609375 29.46875L30.796875 29.609375Q30.65625 28.25 29.8125 27.5625Q28.96875 26.859375 27.3125 26.859375Q25.59375 26.859375 24.796875 27.5Q24.015625 28.125 24.015625 29.0Q24.015625 29.78125 24.578125 30.28125Q25.125 30.78125 27.4375 31.296875Q29.75 31.8125 30.609375 32.203125Q31.859375 32.78125 32.453125 33.671875Q33.046875 34.546875 33.046875 35.703125Q33.046875 36.84375 32.390625 37.859375Q31.734375 38.875 30.5 39.4375Q29.28125 40.0 27.75 40.0Q25.8125 40.0 24.5 39.4375Q23.1875 38.859375 22.4375 37.71875Q21.6875 36.578125 21.65625 35.15625ZM35.078125 27.453125L35.078125 25.4375L36.84375 25.4375L36.84375 27.453125L35.078125 27.453125ZM35.078125 39.75L35.078125 29.375L36.84375 29.375L36.84375 39.75L35.078125 39.75ZM38.140625 39.75L38.140625 38.328125L44.75 30.75Q43.625 30.796875 42.765625 30.796875L38.53125 30.796875L38.53125 29.375L47.015625 29.375L47.015625 30.546875L41.390625 37.125L40.3125 38.328125Q41.484375 38.234375 42.53125 38.234375L47.328125 38.234375L47.328125 39.75L38.140625 39.75ZM55.171875 36.40625L56.984375 36.640625Q56.5625 38.21875 55.390625 39.109375Q54.234375 39.984375 52.421875 39.984375Q50.15625 39.984375 48.8125 38.59375Q47.484375 37.1875 47.484375 34.65625Q47.484375 32.03125 48.828125 30.59375Q50.171875 29.140625 52.328125 29.140625Q54.40625 29.140625 55.71875 30.5625Q57.046875 31.96875 57.046875 34.546875Q57.046875 34.703125 57.03125 35.015625L49.296875 35.015625Q49.390625 36.71875 50.265625 37.625Q51.140625 38.53125 52.4375 38.53125Q53.40625 38.53125 54.078125 38.03125Q54.765625 37.515625 55.171875 36.40625ZM49.390625 33.5625L55.1875 33.5625Q55.078125 32.265625 54.53125 31.609375Q53.6875 30.59375 52.34375 30.59375Q51.140625 30.59375 50.3125 31.40625Q49.484375 32.203125 49.390625 33.5625ZM67.953125 39.75L64.0 29.375L65.859375 29.375L68.09375 35.59375Q68.453125 36.59375 68.75 37.671875Q68.984375 36.859375 69.40625 35.703125L71.703125 29.375L73.515625 29.375L69.59375 39.75L67.953125 39.75ZM73.359375 36.65625L75.109375 36.375Q75.25 37.421875 75.921875 37.984375Q76.59375 38.53125 77.796875 38.53125Q79.0 38.53125 79.578125 38.046875Q80.171875 37.546875 80.171875 36.890625Q80.171875 36.296875 79.65625 35.953125Q79.296875 35.71875 77.859375 35.359375Q75.921875 34.859375 75.171875 34.515625Q74.4375 34.15625 74.046875 33.53125Q73.65625 32.890625 73.65625 32.125Q73.65625 31.4375 73.96875 30.84375Q74.296875 30.25 74.84375 29.859375Q75.25 29.5625 75.953125 29.359375Q76.671875 29.140625 77.484375 29.140625Q78.703125 29.140625 79.625 29.5Q80.546875 29.84375 80.984375 30.453125Q81.421875 31.046875 81.59375 32.046875L79.875 32.28125Q79.75 31.484375 79.1875 31.046875Q78.625 30.59375 77.609375 30.59375Q76.390625 30.59375 75.875 31.0Q75.359375 31.390625 75.359375 31.921875Q75.359375 32.265625 75.578125 32.546875Q75.78125 32.828125 76.25 33.015625Q76.515625 33.109375 77.796875 33.453125Q79.671875 33.953125 80.40625 34.28125Q81.140625 34.59375 81.5625 35.203125Q81.984375 35.796875 81.984375 36.703125Q81.984375 37.578125 81.46875 38.359375Q80.953125 39.140625 79.984375 39.5625Q79.015625 39.984375 77.796875 39.984375Q75.78125 39.984375 74.71875 39.140625Q73.65625 38.296875 73.359375 36.65625ZM84.5625 39.75L84.5625 37.75L86.5625 37.75L86.5625 39.75L84.5625 39.75ZM99.9375 39.75L99.9375 27.125L95.21875 27.125L95.21875 25.4375L106.5625 25.4375L106.5625 27.125L101.828125 27.125L101.828125 39.75L99.9375 39.75ZM108.078125 27.453125L108.078125 25.4375L109.84375 25.4375L109.84375 27.453125L108.078125 27.453125ZM108.078125 39.75L108.078125 29.375L109.84375 29.375L109.84375 39.75L108.078125 39.75ZM112.0625 39.75L112.0625 29.375L113.640625 29.375L113.640625 30.828125Q114.125 30.078125 114.9375 29.609375Q115.75 29.140625 116.78125 29.140625Q117.9375 29.140625 118.671875 29.625Q119.40625 30.09375 119.71875 30.953125Q120.953125 29.140625 122.921875 29.140625Q124.46875 29.140625 125.296875 30.0Q126.125 30.859375 126.125 32.625L126.125 39.75L124.375 39.75L124.375 33.21875Q124.375 32.15625 124.203125 31.703125Q124.03125 31.234375 123.578125 30.953125Q123.140625 30.671875 122.53125 30.671875Q121.4375 30.671875 120.703125 31.40625Q119.984375 32.125 119.984375 33.71875L119.984375 39.75L118.234375 39.75L118.234375 33.015625Q118.234375 31.84375 117.796875 31.265625Q117.375 30.671875 116.390625 30.671875Q115.65625 30.671875 115.015625 31.0625Q114.390625 31.453125 114.109375 32.203125Q113.828125 32.953125 113.828125 34.375L113.828125 39.75L112.0625 39.75ZM135.17188 36.40625L136.98438 36.640625Q136.5625 38.21875 135.39062 39.109375Q134.23438 39.984375 132.42188 39.984375Q130.15625 39.984375 128.8125 38.59375Q127.484375 37.1875 127.484375 34.65625Q127.484375 32.03125 128.82812 30.59375Q130.17188 29.140625 132.32812 29.140625Q134.40625 29.140625 135.71875 30.5625Q137.04688 31.96875 137.04688 34.546875Q137.04688 34.703125 137.03125 35.015625L129.29688 35.015625Q129.39062 36.71875 130.26562 37.625Q131.14062 38.53125 132.4375 38.53125Q133.40625 38.53125 134.07812 38.03125Q134.76562 37.515625 135.17188 36.40625ZM129.39062 33.5625L135.1875 33.5625Q135.07812 32.265625 134.53125 31.609375Q133.6875 30.59375 132.34375 30.59375Q131.14062 30.59375 130.3125 31.40625Q129.48438 32.203125 129.39062 33.5625ZM148.42188 43.953125Q146.96875 42.125 145.96875 39.671875Q144.96875 37.203125 144.96875 34.5625Q144.96875 32.234375 145.71875 30.109375Q146.59375 27.640625 148.42188 25.1875L149.6875 25.1875Q148.5 27.21875 148.125 28.09375Q147.53125 29.4375 147.1875 30.90625Q146.76562 32.734375 146.76562 34.578125Q146.76562 39.265625 149.6875 43.953125L148.42188 43.953125ZM159.17188 36.40625L160.98438 36.640625Q160.5625 38.21875 159.39062 39.109375Q158.23438 39.984375 156.42188 39.984375Q154.15625 39.984375 152.8125 38.59375Q151.48438 37.1875 151.48438 34.65625Q151.48438 32.03125 152.82812 30.59375Q154.17188 29.140625 156.32812 29.140625Q158.40625 29.140625 159.71875 30.5625Q161.04688 31.96875 161.04688 34.546875Q161.04688 34.703125 161.03125 35.015625L153.29688 35.015625Q153.39062 36.71875 154.26562 37.625Q155.14062 38.53125 156.4375 38.53125Q157.40625 38.53125 158.07812 38.03125Q158.76562 37.515625 159.17188 36.40625ZM153.39062 33.5625L159.1875 33.5625Q159.07812 32.265625 158.53125 31.609375Q157.6875 30.59375 156.34375 30.59375Q155.14062 30.59375 154.3125 31.40625Q153.48438 32.203125 153.39062 33.5625ZM163.0625 39.75L163.0625 29.375L164.65625 29.375L164.65625 30.859375Q165.79688 29.140625 167.95312 29.140625Q168.89062 29.140625 169.67188 29.484375Q170.46875 29.8125 170.85938 30.359375Q171.25 30.90625 171.40625 31.65625Q171.5 32.15625 171.5 33.375L171.5 39.75L169.73438 39.75L169.73438 33.4375Q169.73438 32.359375 169.53125 31.828125Q169.32812 31.296875 168.79688 30.984375Q168.28125 30.671875 167.57812 30.671875Q166.45312 30.671875 165.64062 31.390625Q164.82812 32.09375 164.82812 34.078125L164.82812 39.75L163.0625 39.75ZM174.98438 39.75L171.8125 29.375L173.625 29.375L175.28125 35.359375L175.89062 37.59375Q175.9375 37.421875 176.42188 35.453125L178.07812 29.375L179.89062 29.375L181.4375 35.390625L181.95312 37.375L182.54688 35.375L184.32812 29.375L186.03125 29.375L182.79688 39.75L180.96875 39.75L179.3125 33.53125L178.92188 31.765625L176.8125 39.75L174.98438 39.75ZM188.07812 27.453125L188.07812 25.4375L189.84375 25.4375L189.84375 27.453125L188.07812 27.453125ZM188.07812 39.75L188.07812 29.375L189.84375 29.375L189.84375 39.75L188.07812 39.75ZM192.07812 39.75L192.07812 25.4375L193.84375 25.4375L193.84375 33.59375L198.0 29.375L200.26562 29.375L196.3125 33.21875L200.67188 39.75L198.5 39.75L195.07812 34.453125L193.84375 35.640625L193.84375 39.75L192.07812 39.75ZM201.84375 36.4375L203.53125 36.28125Q203.75 37.46875 204.34375 38.015625Q204.95312 38.546875 205.90625 38.546875Q206.71875 38.546875 207.32812 38.1875Q207.9375 37.8125 208.32812 37.1875Q208.71875 36.5625 208.98438 35.515625Q209.25 34.453125 209.25 33.359375Q209.25 33.25 209.23438 33.015625Q208.70312 33.84375 207.79688 34.375Q206.89062 34.890625 205.8125 34.890625Q204.04688 34.890625 202.8125 33.609375Q201.57812 32.3125 201.57812 30.203125Q201.57812 28.03125 202.85938 26.703125Q204.15625 25.375 206.07812 25.375Q207.48438 25.375 208.64062 26.125Q209.79688 26.875 210.39062 28.265625Q211.0 29.65625 211.0 32.296875Q211.0 35.046875 210.39062 36.671875Q209.79688 38.296875 208.625 39.15625Q207.45312 40.0 205.875 40.0Q204.1875 40.0 203.125 39.0625Q202.0625 38.125 201.84375 36.4375ZM209.04688 30.125Q209.04688 28.609375 208.23438 27.71875Q207.4375 26.828125 206.29688 26.828125Q205.125 26.828125 204.25 27.796875Q203.39062 28.75 203.39062 30.265625Q203.39062 31.640625 204.20312 32.5Q205.03125 33.34375 206.25 33.34375Q207.46875 33.34375 208.25 32.5Q209.04688 31.640625 209.04688 30.125ZM214.21875 43.953125L212.96875 43.953125Q215.875 39.265625 215.875 34.578125Q215.875 32.734375 215.46875 30.9375Q215.125 29.46875 214.53125 28.125Q214.15625 27.234375 212.96875 25.1875L214.21875 25.1875Q216.0625 27.640625 216.9375 30.109375Q217.6875 32.234375 217.6875 34.5625Q217.6875 37.203125 216.67188 39.671875Q215.67188 42.125 214.21875 43.953125Z" fill-rule="nonzero"/></svg>