<svg version="1.1" viewBox="0.0 0.0 670.0 415.0" fill="none" stroke="none" stroke-linecap="square" stroke-miterlimit="10" width="670" height="415" xmlns:xlink="http://www.w3.org/1999/xlink" xmlns="http://www.w3.org/2000/svg"><path fill="#ffffff" d="M0 0L670.0 0L670.0 415.0L0 415.0L0 0Z" fill-rule="nonzero"/><path stroke="#cccccc" stroke-width="1.0" stroke-linecap="butt" d="M126.5 65.5L126.5 342.5" fill-rule="nonzero"/><path stroke="#cccccc" stroke-width="1.0" stroke-linecap="butt" d="M235.5 65.5L235.5 342.5" fill-rule="nonzero"/><path stroke="#cccccc" stroke-width="1.0" stroke-linecap="butt" d="M344.5 65.5L344.5 342.5" fill-rule="nonzero"/><path stroke="#cccccc" stroke-width="1.0" stroke-linecap="butt" d="M454.5 65.5L454.5 342.5" fill-rule="nonzero"/><path stroke="#cccccc" stroke-width="1.0" stroke-linecap="butt" d="M563.5 65.5L563.5 342.5" fill-rule="nonzero"/><path stroke="#cccccc" stroke-width="1.0" stroke-linecap="butt" d="M79.5 342.5L649.5 342.5" fill-rule="nonzero"/><path stroke="#cccccc" stroke-width="1.0" stroke-linecap="butt" d="M79.5 273.5L649.5 273.5" fill-rule="nonzero"/><path stroke="#cccccc" stroke-width="1.0" stroke-linecap="butt" d="M79.5 203.5L649.5 203.5" fill-rule="nonzero"/><path stroke="#cccccc" stroke-width="1.0" stroke-linecap="butt" d="M79.5 134.5L649.5 134.5" fill-rule="nonzero"/><path stroke="#cccccc" stroke-width="1.0" stroke-linecap="butt" d="M79.5 65.5L649.5 65.5" fill-rule="nonzero"/><clipPath id="id_0"><path d="M79.75 65.583336L649.25 65.583336L649.25 342.25L79.75 342.25L79.75 65.583336Z" clip-rule="nonzero"/></clipPath><path stroke="#4285f4" stroke-width="2.0" stroke-linecap="butt" clip-path="url(#id_0)" d="M86.58205 87.05204L88.07758 90.3099L91.51359 92.278046L91.52592 118.407326L92.63645 126.49334L95.1357 132.06705L98.190025 143.39641L99.26188 154.96944L101.091805 162.91592L108.12357 174.46104L111.2804 184.67213L120.782524 188.60567L123.37264 191.92194L124.261635 195.00592L128.14114 201.6037L132.82797 204.96233L136.34854 206.65582L139.43803 211.8089L143.66739 215.75905L143.97997 225.20338L155.05078 230.61696L167.52296 233.2243L174.77678 234.57509L180.7897 236.464L180.8873 241.56815L191.49997 245.06383L194.9396 249.30934L204.99182 253.3759L213.58723 255.23502L218.10155 256.19455L232.94229 261.11462L246.68425 264.43588L252.06796 265.89932L259.34955 266.6737L292.86246 268.82657L367.3522 271.40802L378.97382 273.30542L410.04727 273.55508L422.96124 275.43213L569.34576 284.22668L571.3964 287.3451L638.6765 288.935L642.41797 289.3647" fill-rule="nonzero"/><path fill="#4285f4" clip-path="url(#id_0)" d="M91.08205 87.05204C91.08205 89.53732 89.06733 91.55204 86.58205 91.55204C84.09676 91.55204 82.08205 89.53732 82.08205 87.05204C82.08205 84.56676 84.09676 82.55204 86.58205 82.55204C89.06733 82.55204 91.08205 84.56676 91.08205 87.05204Z" fill-rule="nonzero"/><path fill="#4285f4" clip-path="url(#id_0)" d="M92.57758 90.3099C92.57758 92.79518 90.56286 94.8099 88.07758 94.8099C85.5923 94.8099 83.57758 92.79518 83.57758 90.3099C83.57758 87.82462 85.5923 85.8099 88.07758 85.8099C90.56286 85.8099 92.57758 87.82462 92.57758 90.3099Z" fill-rule="nonzero"/><path fill="#4285f4" clip-path="url(#id_0)" d="M96.01359 92.278046C96.01359 94.76333 93.99887 96.778046 91.51359 96.778046C89.028305 96.778046 87.01359 94.76333 87.01359 92.278046C87.01359 89.79276 89.028305 87.778046 91.51359 87.778046C93.99887 87.778046 96.01359 89.79276 96.01359 92.278046Z" fill-rule="nonzero"/><path fill="#4285f4" clip-path="url(#id_0)" d="M96.02592 118.407326C96.02592 120.8926 94.0112 122.907326 91.52592 122.907326C89.040634 122.907326 87.02592 120.8926 87.02592 118.407326C87.02592 115.92204 89.040634 113.907326 91.52592 113.907326C94.0112 113.907326 96.02592 115.92204 96.02592 118.407326Z" fill-rule="nonzero"/><path fill="#4285f4" clip-path="url(#id_0)" d="M97.13645 126.49334C97.13645 128.97862 95.121735 130.99335 92.63645 130.99335C90.15117 130.99335 88.13645 128.97862 88.13645 126.49334C88.13645 124.008064 90.15117 121.99334 92.63645 121.99334C95.121735 121.99334 97.13645 124.008064 97.13645 126.49334Z" fill-rule="nonzero"/><path fill="#4285f4" clip-path="url(#id_0)" d="M99.6357 132.06705C99.6357 134.55232 97.62098 136.56705 95.1357 136.56705C92.65042 136.56705 90.6357 134.55232 90.6357 132.06705C90.6357 129.58177 92.65042 127.56705 95.1357 127.56705C97.62098 127.56705 99.6357 129.58177 99.6357 132.06705Z" fill-rule="nonzero"/><path fill="#4285f4" clip-path="url(#id_0)" d="M102.690025 143.39641C102.690025 145.88168 100.67531 147.89641 98.190025 147.89641C95.70474 147.89641 93.690025 145.88168 93.690025 143.39641C93.690025 140.91113 95.70474 138.89641 98.190025 138.89641C100.67531 138.89641 102.690025 140.91113 102.690025 143.39641Z" fill-rule="nonzero"/><path fill="#4285f4" clip-path="url(#id_0)" d="M103.76188 154.96944C103.76188 157.45471 101.747154 159.46944 99.26188 159.46944C96.776596 159.46944 94.76188 157.45471 94.76188 154.96944C94.76188 152.48415 96.776596 150.46944 99.26188 150.46944C101.747154 150.46944 103.76188 152.48415 103.76188 154.96944Z" fill-rule="nonzero"/><path fill="#4285f4" clip-path="url(#id_0)" d="M105.591805 162.91592C105.591805 165.4012 103.57709 167.41592 101.091805 167.41592C98.60652 167.41592 96.591805 165.4012 96.591805 162.91592C96.591805 160.43065 98.60652 158.41592 101.091805 158.41592C103.57709 158.41592 105.591805 160.43065 105.591805 162.91592Z" fill-rule="nonzero"/><path fill="#4285f4" clip-path="url(#id_0)" d="M112.62357 174.46104C112.62357 176.94633 110.60886 178.96104 108.12357 178.96104C105.63829 178.96104 103.62357 176.94633 103.62357 174.46104C103.62357 171.97577 105.63829 169.96104 108.12357 169.96104C110.60886 169.96104 112.62357 171.97577 112.62357 174.46104Z" fill-rule="nonzero"/><path fill="#4285f4" clip-path="url(#id_0)" d="M115.7804 184.67213C115.7804 187.15742 113.765686 189.17213 111.2804 189.17213C108.79512 189.17213 106.7804 187.15742 106.7804 184.67213C106.7804 182.18686 108.79512 180.17213 111.2804 180.17213C113.765686 180.17213 115.7804 182.18686 115.7804 184.67213Z" fill-rule="nonzero"/><path fill="#4285f4" clip-path="url(#id_0)" d="M125.282524 188.60567C125.282524 191.09094 123.26781 193.10567 120.782524 193.10567C118.29724 193.10567 116.282524 191.09094 116.282524 188.60567C116.282524 186.12038 118.29724 184.10567 120.782524 184.10567C123.26781 184.10567 125.282524 186.12038 125.282524 188.60567Z" fill-rule="nonzero"/><path fill="#4285f4" clip-path="url(#id_0)" d="M127.87264 191.92194C127.87264 194.40723 125.857925 196.42194 123.37264 196.42194C120.88737 196.42194 118.87264 194.40723 118.87264 191.92194C118.87264 189.43666 120.88737 187.42194 123.37264 187.42194C125.857925 187.42194 127.87264 189.43666 127.87264 191.92194Z" fill-rule="nonzero"/><path fill="#4285f4" clip-path="url(#id_0)" d="M128.76164 195.00592C128.76164 197.4912 126.74692 199.50592 124.261635 199.50592C121.77635 199.50592 119.761635 197.4912 119.761635 195.00592C119.761635 192.52063 121.77635 190.50592 124.261635 190.50592C126.74692 190.50592 128.76164 192.52063 128.76164 195.00592Z" fill-rule="nonzero"/><path fill="#4285f4" clip-path="url(#id_0)" d="M132.64114 201.6037C132.64114 204.08899 130.62643 206.1037 128.14114 206.1037C125.65587 206.1037 123.64115 204.08899 123.64115 201.6037C123.64115 199.11842 125.65587 197.1037 128.14114 197.1037C130.62643 197.1037 132.64114 199.11842 132.64114 201.6037Z" fill-rule="nonzero"/><path fill="#4285f4" clip-path="url(#id_0)" d="M137.32797 204.96233C137.32797 207.4476 135.31325 209.46233 132.82797 209.46233C130.34268 209.46233 128.32797 207.4476 128.32797 204.96233C128.32797 202.47704 130.34268 200.46233 132.82797 200.46233C135.31325 200.46233 137.32797 202.47704 137.32797 204.96233Z" fill-rule="nonzero"/><path fill="#4285f4" clip-path="url(#id_0)" d="M140.84854 206.65582C140.84854 209.14111 138.83382 211.15582 136.34854 211.15582C133.86325 211.15582 131.84854 209.14111 131.84854 206.65582C131.84854 204.17055 133.86325 202.15582 136.34854 202.15582C138.83382 202.15582 140.84854 204.17055 140.84854 206.65582Z" fill-rule="nonzero"/><path fill="#4285f4" clip-path="url(#id_0)" d="M143.93803 211.8089C143.93803 214.29417 141.92331 216.3089 139.43803 216.3089C136.95274 216.3089 134.93803 214.29417 134.93803 211.8089C134.93803 209.32361 136.95274 207.3089 139.43803 207.3089C141.92331 207.3089 143.93803 209.32361 143.93803 211.8089Z" fill-rule="nonzero"/><path fill="#4285f4" clip-path="url(#id_0)" d="M148.16739 215.75905C148.16739 218.24434 146.15266 220.25905 143.66739 220.25905C141.1821 220.25905 139.16739 218.24434 139.16739 215.75905C139.16739 213.27377 141.1821 211.25905 143.66739 211.25905C146.15266 211.25905 148.16739 213.27377 148.16739 215.75905Z" fill-rule="nonzero"/><path fill="#4285f4" clip-path="url(#id_0)" d="M148.47997 225.20338C148.47997 227.68866 146.46524 229.70338 143.97997 229.70338C141.49467 229.70338 139.47997 227.68866 139.47997 225.20338C139.47997 222.7181 141.49467 220.70338 143.97997 220.70338C146.46524 220.70338 148.47997 222.7181 148.47997 225.20338Z" fill-rule="nonzero"/><path fill="#4285f4" clip-path="url(#id_0)" d="M159.55078 230.61696C159.55078 233.10225 157.53606 235.11696 155.05078 235.11696C152.56549 235.11696 150.55078 233.10225 150.55078 230.61696C150.55078 228.13168 152.56549 226.11696 155.05078 226.11696C157.53606 226.11696 159.55078 228.13168 159.55078 230.61696Z" fill-rule="nonzero"/><path fill="#4285f4" clip-path="url(#id_0)" d="M172.02296 233.2243C172.02296 235.7096 170.00824 237.7243 167.52296 237.7243C165.03767 237.7243 163.02296 235.7096 163.02296 233.2243C163.02296 230.73903 165.03767 228.7243 167.52296 228.7243C170.00824 228.7243 172.02296 230.73903 172.02296 233.2243Z" fill-rule="nonzero"/><path fill="#4285f4" clip-path="url(#id_0)" d="M179.27678 234.57509C179.27678 237.06038 177.26207 239.07509 174.77678 239.07509C172.2915 239.07509 170.27678 237.06038 170.27678 234.57509C170.27678 232.08981 172.2915 230.07509 174.77678 230.07509C177.26207 230.07509 179.27678 232.08981 179.27678 234.57509Z" fill-rule="nonzero"/><path fill="#4285f4" clip-path="url(#id_0)" d="M185.2897 236.464C185.2897 238.94928 183.27498 240.964 180.7897 240.964C178.30441 240.964 176.2897 238.94928 176.2897 236.464C176.2897 233.97871 178.30441 231.964 180.7897 231.964C183.27498 231.964 185.2897 233.97871 185.2897 236.464Z" fill-rule="nonzero"/><path fill="#4285f4" clip-path="url(#id_0)" d="M185.3873 241.56815C185.3873 244.05342 183.37259 246.06815 180.8873 246.06815C178.40202 246.06815 176.3873 244.05342 176.3873 241.56815C176.3873 239.08287 178.40202 237.06815 180.8873 237.06815C183.37259 237.06815 185.3873 239.08287 185.3873 241.56815Z" fill-rule="nonzero"/><path fill="#4285f4" clip-path="url(#id_0)" d="M195.99997 245.06383C195.99997 247.54912 193.98524 249.56383 191.49997 249.56383C189.01468 249.56383 186.99997 247.54912 186.99997 245.06383C186.99997 242.57855 189.01468 240.56383 191.49997 240.56383C193.98524 240.56383 195.99997 242.57855 195.99997 245.06383Z" fill-rule="nonzero"/><path fill="#4285f4" clip-path="url(#id_0)" d="M199.4396 249.30934C199.4396 251.79463 197.42488 253.80934 194.9396 253.80934C192.45432 253.80934 190.4396 251.79463 190.4396 249.30934C190.4396 246.82407 192.45432 244.80934 194.9396 244.80934C197.42488 244.80934 199.4396 246.82407 199.4396 249.30934Z" fill-rule="nonzero"/><path fill="#4285f4" clip-path="url(#id_0)" d="M209.49182 253.3759C209.49182 255.86118 207.4771 257.8759 204.99182 257.8759C202.50653 257.8759 200.49182 255.86118 200.49182 253.3759C200.49182 250.89061 202.50653 248.8759 204.99182 248.8759C207.4771 248.8759 209.49182 250.89061 209.49182 253.3759Z" fill-rule="nonzero"/><path fill="#4285f4" clip-path="url(#id_0)" d="M218.08723 255.23502C218.08723 257.7203 216.07251 259.73502 213.58723 259.73502C211.10194 259.73502 209.08723 257.7203 209.08723 255.23502C209.08723 252.74973 211.10194 250.73502 213.58723 250.73502C216.07251 250.73502 218.08723 252.74973 218.08723 255.23502Z" fill-rule="nonzero"/><path fill="#4285f4" clip-path="url(#id_0)" d="M222.60155 256.19455C222.60155 258.67984 220.58684 260.69455 218.10155 260.69455C215.61627 260.69455 213.60155 258.67984 213.60155 256.19455C213.60155 253.70927 215.61627 251.69456 218.10155 251.69456C220.58684 251.69456 222.60155 253.70927 222.60155 256.19455Z" fill-rule="nonzero"/><path fill="#4285f4" clip-path="url(#id_0)" d="M237.44229 261.11462C237.44229 263.5999 235.42757 265.61462 232.94229 265.61462C230.45702 265.61462 228.44229 263.5999 228.44229 261.11462C228.44229 258.62933 230.45702 256.61462 232.94229 256.61462C235.42757 256.61462 237.44229 258.62933 237.44229 261.11462Z" fill-rule="nonzero"/><path fill="#4285f4" clip-path="url(#id_0)" d="M251.18425 264.43588C251.18425 266.92117 249.16953 268.93588 246.68425 268.93588C244.19896 268.93588 242.18425 266.92117 242.18425 264.43588C242.18425 261.95062 244.19896 259.93588 246.68425 259.93588C249.16953 259.93588 251.18425 261.95062 251.18425 264.43588Z" fill-rule="nonzero"/><path fill="#4285f4" clip-path="url(#id_0)" d="M256.56796 265.89932C256.56796 268.38458 254.55325 270.39932 252.06796 270.39932C249.58269 270.39932 247.56796 268.38458 247.56796 265.89932C247.56796 263.41403 249.58269 261.39932 252.06796 261.39932C254.55325 261.39932 256.56796 263.41403 256.56796 265.89932Z" fill-rule="nonzero"/><path fill="#4285f4" clip-path="url(#id_0)" d="M263.84955 266.6737C263.84955 269.159 261.83484 271.1737 259.34955 271.1737C256.8643 271.1737 254.84956 269.159 254.84956 266.6737C254.84956 264.18842 256.8643 262.1737 259.34955 262.1737C261.83484 262.1737 263.84955 264.18842 263.84955 266.6737Z" fill-rule="nonzero"/><path fill="#4285f4" clip-path="url(#id_0)" d="M297.36246 268.82657C297.36246 271.31183 295.34775 273.32657 292.86246 273.32657C290.37717 273.32657 288.36246 271.31183 288.36246 268.82657C288.36246 266.34128 290.37717 264.32657 292.86246 264.32657C295.34775 264.32657 297.36246 266.34128 297.36246 268.82657Z" fill-rule="nonzero"/><path fill="#4285f4" clip-path="url(#id_0)" d="M371.8522 271.40802C371.8522 273.8933 369.83746 275.90802 367.3522 275.90802C364.8669 275.90802 362.8522 273.8933 362.8522 271.40802C362.8522 268.92273 364.8669 266.90802 367.3522 266.90802C369.83746 266.90802 371.8522 268.92273 371.8522 271.40802Z" fill-rule="nonzero"/><path fill="#4285f4" clip-path="url(#id_0)" d="M383.47382 273.30542C383.47382 275.79068 381.4591 277.80542 378.97382 277.80542C376.48853 277.80542 374.47382 275.79068 374.47382 273.30542C374.47382 270.82013 376.48853 268.80542 378.97382 268.80542C381.4591 268.80542 383.47382 270.82013 383.47382 273.30542Z" fill-rule="nonzero"/><path fill="#4285f4" clip-path="url(#id_0)" d="M414.54727 273.55508C414.54727 276.04037 412.53253 278.05508 410.04727 278.05508C407.56198 278.05508 405.54727 276.04037 405.54727 273.55508C405.54727 271.06982 407.56198 269.05508 410.04727 269.05508C412.53253 269.05508 414.54727 271.06982 414.54727 273.55508Z" fill-rule="nonzero"/><path fill="#4285f4" clip-path="url(#id_0)" d="M427.46124 275.43213C427.46124 277.91742 425.4465 279.93213 422.96124 279.93213C420.47595 279.93213 418.46124 277.91742 418.46124 275.43213C418.46124 272.94684 420.47595 270.93213 422.96124 270.93213C425.4465 270.93213 427.46124 272.94684 427.46124 275.43213Z" fill-rule="nonzero"/><path fill="#4285f4" clip-path="url(#id_0)" d="M573.84576 284.22668C573.84576 286.71198 571.83105 288.72668 569.34576 288.72668C566.86053 288.72668 564.84576 286.71198 564.84576 284.22668C564.84576 281.74142 566.86053 279.72668 569.34576 279.72668C571.83105 279.72668 573.84576 281.74142 573.84576 284.22668Z" fill-rule="nonzero"/><path fill="#4285f4" clip-path="url(#id_0)" d="M575.8964 287.3451C575.8964 289.83038 573.8817 291.8451 571.3964 291.8451C568.91113 291.8451 566.8964 289.83038 566.8964 287.3451C566.8964 284.85983 568.91113 282.8451 571.3964 282.8451C573.8817 282.8451 575.8964 284.85983 575.8964 287.3451Z" fill-rule="nonzero"/><path fill="#4285f4" clip-path="url(#id_0)" d="M643.1765 288.935C643.1765 291.4203 641.1618 293.435 638.6765 293.435C636.1912 293.435 634.1765 291.4203 634.1765 288.935C634.1765 286.4497 636.1912 284.435 638.6765 284.435C641.1618 284.435 643.1765 286.4497 643.1765 288.935Z" fill-rule="nonzero"/><path fill="#4285f4" clip-path="url(#id_0)" d="M646.91797 289.3647C646.91797 291.84998 644.90326 293.8647 642.41797 293.8647C639.9327 293.8647 637.91797 291.84998 637.91797 289.3647C637.91797 286.87943 639.9327 284.8647 642.41797 284.8647C644.90326 284.8647 646.91797 286.87943 646.91797 289.3647Z" fill-rule="nonzero"/><path fill="#000000" d="M338.10938 391.25L338.10938 383.67188L335.28125 383.67188L335.28125 382.65625L342.09375 382.65625L342.09375 383.67188L339.25 383.67188L339.25 391.25L338.10938 391.25ZM342.79688 383.875L342.79688 382.65625L343.85938 382.65625L343.85938 383.875L342.79688 383.875ZM342.79688 391.25L342.79688 385.03125L343.85938 385.03125L343.85938 391.25L342.79688 391.25ZM345.79688 391.25L345.79688 385.03125L346.73438 385.03125L346.73438 385.90625Q347.03125 385.4375 347.51562 385.17188Q348.0 384.89062 348.625 384.89062Q349.3125 384.89062 349.75 385.17188Q350.20312 385.45312 350.375 385.96875Q351.125 384.89062 352.29688 384.89062Q353.23438 384.89062 353.71875 385.40625Q354.21875 385.90625 354.21875 386.98438L354.21875 391.25L353.17188 391.25L353.17188 387.32812Q353.17188 386.70312 353.0625 386.42188Q352.96875 386.14062 352.70312 385.96875Q352.4375 385.79688 352.0625 385.79688Q351.40625 385.79688 350.96875 386.23438Q350.54688 386.67188 350.54688 387.64062L350.54688 391.25L349.48438 391.25L349.48438 387.20312Q349.48438 386.5 349.21875 386.15625Q348.96875 385.79688 348.39062 385.79688Q347.9375 385.79688 347.5625 386.03125Q347.1875 386.26562 347.01562 386.71875Q346.84375 387.17188 346.84375 388.01562L346.84375 391.25L345.79688 391.25ZM361.04688 389.25L362.14062 389.375Q361.89062 390.32812 361.1875 390.85938Q360.48438 391.39062 359.40625 391.39062Q358.04688 391.39062 357.23438 390.54688Q356.4375 389.70312 356.4375 388.1875Q356.4375 386.625 357.25 385.76562Q358.0625 384.89062 359.34375 384.89062Q360.59375 384.89062 361.375 385.73438Q362.17188 386.57812 362.17188 388.125Q362.17188 388.21875 362.17188 388.40625L357.53125 388.40625Q357.59375 389.4375 358.10938 389.98438Q358.625 390.51562 359.40625 390.51562Q359.98438 390.51562 360.39062 390.21875Q360.8125 389.90625 361.04688 389.25ZM357.59375 387.54688L361.0625 387.54688Q361.0 386.75 360.67188 386.35938Q360.15625 385.75 359.35938 385.75Q358.625 385.75 358.125 386.23438Q357.64062 386.71875 357.59375 387.54688ZM368.8125 393.78125Q367.9375 392.67188 367.32812 391.20312Q366.73438 389.71875 366.73438 388.14062Q366.73438 386.75 367.17188 385.46875Q367.70312 383.98438 368.8125 382.51562L369.5625 382.51562Q368.85938 383.73438 368.625 384.25Q368.26562 385.0625 368.0625 385.9375Q367.8125 387.03125 367.8125 388.14062Q367.8125 390.96875 369.5625 393.78125L368.8125 393.78125ZM370.375 389.39062L371.40625 389.23438Q371.5 389.85938 371.89062 390.1875Q372.29688 390.51562 373.03125 390.51562Q373.75 390.51562 374.09375 390.23438Q374.45312 389.9375 374.45312 389.53125Q374.45312 389.17188 374.14062 388.96875Q373.92188 388.82812 373.0625 388.60938Q371.90625 388.3125 371.45312 388.10938Q371.01562 387.89062 370.78125 387.51562Q370.54688 387.14062 370.54688 386.67188Q370.54688 386.26562 370.73438 385.90625Q370.92188 385.54688 371.25 385.3125Q371.5 385.14062 371.92188 385.01562Q372.34375 384.89062 372.84375 384.89062Q373.5625 384.89062 374.10938 385.10938Q374.67188 385.3125 374.9375 385.67188Q375.20312 386.03125 375.29688 386.625L374.26562 386.76562Q374.20312 386.29688 373.85938 386.03125Q373.53125 385.75 372.90625 385.75Q372.1875 385.75 371.875 386.0Q371.5625 386.23438 371.5625 386.5625Q371.5625 386.76562 371.6875 386.92188Q371.82812 387.09375 372.09375 387.20312Q372.25 387.26562 373.03125 387.46875Q374.15625 387.78125 374.59375 387.96875Q375.03125 388.15625 375.28125 388.51562Q375.53125 388.875 375.53125 389.42188Q375.53125 389.95312 375.21875 390.42188Q374.92188 390.875 374.34375 391.14062Q373.76562 391.39062 373.03125 391.39062Q371.8125 391.39062 371.17188 390.89062Q370.54688 390.375 370.375 389.39062ZM382.04688 389.25L383.14062 389.375Q382.89062 390.32812 382.1875 390.85938Q381.48438 391.39062 380.40625 391.39062Q379.04688 391.39062 378.23438 390.54688Q377.4375 389.70312 377.4375 388.1875Q377.4375 386.625 378.25 385.76562Q379.0625 384.89062 380.34375 384.89062Q381.59375 384.89062 382.375 385.73438Q383.17188 386.57812 383.17188 388.125Q383.17188 388.21875 383.17188 388.40625L378.53125 388.40625Q378.59375 389.4375 379.10938 389.98438Q379.625 390.51562 380.40625 390.51562Q380.98438 390.51562 381.39062 390.21875Q381.8125 389.90625 382.04688 389.25ZM378.59375 387.54688L382.0625 387.54688Q382.0 386.75 381.67188 386.35938Q381.15625 385.75 380.35938 385.75Q379.625 385.75 379.125 386.23438Q378.64062 386.71875 378.59375 387.54688ZM388.85938 388.96875L389.89062 389.10938Q389.71875 390.17188 389.01562 390.78125Q388.3125 391.39062 387.29688 391.39062Q386.01562 391.39062 385.23438 390.5625Q384.46875 389.71875 384.46875 388.15625Q384.46875 387.15625 384.79688 386.40625Q385.14062 385.64062 385.8125 385.26562Q386.5 384.89062 387.3125 384.89062Q388.3125 384.89062 388.95312 385.40625Q389.60938 385.90625 389.79688 386.85938L388.76562 387.01562Q388.625 386.39062 388.25 386.07812Q387.875 385.75 387.34375 385.75Q386.54688 385.75 386.04688 386.32812Q385.54688 386.89062 385.54688 388.125Q385.54688 389.39062 386.03125 389.95312Q386.51562 390.51562 387.28125 390.51562Q387.90625 390.51562 388.3125 390.14062Q388.73438 389.76562 388.85938 388.96875ZM391.48438 393.78125L390.73438 393.78125Q392.48438 390.96875 392.48438 388.14062Q392.48438 387.04688 392.23438 385.95312Q392.03125 385.07812 391.67188 384.26562Q391.4375 383.75 390.73438 382.51562L391.48438 382.51562Q392.57812 383.98438 393.10938 385.46875Q393.5625 386.75 393.5625 388.14062Q393.5625 389.71875 392.95312 391.20312Q392.34375 392.67188 391.48438 393.78125Z" fill-rule="nonzero"/><path fill="#000000" d="M28.984375 235.3698L28.890625 234.3073Q29.546875 234.22917 29.953125 233.94792Q30.359375 233.66667 30.625 233.08855Q30.875 232.4948 30.875 231.76042Q30.875 231.1198 30.6875 230.6198Q30.484375 230.1198 30.15625 229.88542Q29.8125 229.63542 29.421875 229.63542Q29.015625 229.63542 28.71875 229.8698Q28.40625 230.10417 28.203125 230.63542Q28.0625 230.9948 27.78125 232.1823Q27.5 233.35417 27.25 233.82292Q26.921875 234.44792 26.453125 234.7448Q25.96875 235.04167 25.375 235.04167Q24.734375 235.04167 24.171875 234.6823Q23.59375 234.3073 23.3125 233.60417Q23.015625 232.88542 23.015625 232.02605Q23.015625 231.07292 23.328125 230.33855Q23.625 229.60417 24.234375 229.21355Q24.828125 228.82292 25.578125 228.79167L25.65625 229.88542Q24.84375 229.97917 24.4375 230.4948Q24.015625 230.9948 24.015625 231.97917Q24.015625 233.01042 24.390625 233.47917Q24.765625 233.94792 25.296875 233.94792Q25.765625 233.94792 26.0625 233.6198Q26.359375 233.29167 26.671875 231.91667Q26.984375 230.52605 27.21875 230.01042Q27.578125 229.26042 28.109375 228.90105Q28.625 228.54167 29.328125 228.54167Q30.015625 228.54167 30.625 228.9323Q31.21875 229.32292 31.5625 230.0573Q31.890625 230.79167 31.890625 231.71355Q31.890625 232.88542 31.5625 233.6823Q31.21875 234.46355 30.53125 234.91667Q29.84375 235.35417 28.984375 235.3698ZM24.375 227.1198L23.15625 227.1198L23.15625 226.0573L24.375 226.0573L24.375 227.1198ZM31.75 227.1198L25.53125 227.1198L25.53125 226.0573L31.75 226.0573L31.75 227.1198ZM31.75 224.6823L30.890625 224.6823L26.34375 220.71355Q26.375 221.40105 26.375 221.91667L26.375 224.44792L25.53125 224.44792L25.53125 219.35417L26.21875 219.35417L30.171875 222.72917L30.890625 223.38542Q30.84375 222.66667 30.84375 222.0573L30.84375 219.16667L31.75 219.16667L31.75 224.6823ZM29.75 214.8698L29.875 213.77605Q30.828125 214.02605 31.359375 214.72917Q31.890625 215.4323 31.890625 216.51042Q31.890625 217.8698 31.046875 218.6823Q30.203125 219.47917 28.6875 219.47917Q27.125 219.47917 26.265625 218.66667Q25.390625 217.85417 25.390625 216.57292Q25.390625 215.32292 26.234375 214.54167Q27.078125 213.7448 28.625 213.7448Q28.71875 213.7448 28.90625 213.7448L28.90625 218.38542Q29.9375 218.32292 30.484375 217.8073Q31.015625 217.29167 31.015625 216.51042Q31.015625 215.9323 30.71875 215.52605Q30.40625 215.10417 29.75 214.8698ZM28.046875 218.32292L28.046875 214.85417Q27.25 214.91667 26.859375 215.2448Q26.25 215.76042 26.25 216.5573Q26.25 217.29167 26.734375 217.79167Q27.21875 218.27605 28.046875 218.32292ZM34.28125 207.10417Q33.171875 207.97917 31.703125 208.58855Q30.21875 209.1823 28.640625 209.1823Q27.25 209.1823 25.96875 208.7448Q24.484375 208.21355 23.015625 207.10417L23.015625 206.35417Q24.234375 207.0573 24.75 207.29167Q25.5625 207.65105 26.4375 207.85417Q27.53125 208.10417 28.640625 208.10417Q31.46875 208.10417 34.28125 206.35417L34.28125 207.10417ZM31.75 205.02605L23.15625 205.02605L23.15625 203.3073L29.234375 201.27605Q30.09375 200.9948 30.515625 200.8698Q30.046875 200.72917 29.140625 200.41667L23.15625 198.35417L23.15625 196.82292L31.75 196.82292L31.75 197.91667L24.5625 197.91667L31.75 200.41667L31.75 201.44792L24.4375 203.9323L31.75 203.9323L31.75 205.02605ZM31.75 196.04167L23.15625 196.04167L23.15625 192.8073Q23.15625 191.82292 23.421875 191.22917Q23.6875 190.63542 24.234375 190.3073Q24.765625 189.96355 25.359375 189.96355Q25.90625 189.96355 26.390625 190.26042Q26.875 190.5573 27.171875 191.16667Q27.40625 190.38542 27.96875 189.97917Q28.515625 189.5573 29.265625 189.5573Q29.859375 189.5573 30.390625 189.8073Q30.90625 190.0573 31.1875 190.4323Q31.46875 190.8073 31.609375 191.38542Q31.75 191.94792 31.75 192.76042L31.75 196.04167ZM26.765625 194.90105L26.765625 193.04167Q26.765625 192.29167 26.671875 191.96355Q26.546875 191.52605 26.25 191.3073Q25.9375 191.08855 25.484375 191.08855Q25.0625 191.08855 24.734375 191.29167Q24.40625 191.4948 24.296875 191.88542Q24.171875 192.26042 24.171875 193.1823L24.171875 194.90105L26.765625 194.90105ZM30.734375 194.90105L30.734375 192.76042Q30.734375 192.21355 30.6875 191.9948Q30.625 191.58855 30.46875 191.33855Q30.296875 191.07292 29.984375 190.90105Q29.671875 190.72917 29.265625 190.72917Q28.78125 190.72917 28.421875 190.97917Q28.0625 191.21355 27.921875 191.65105Q27.78125 192.08855 27.78125 192.91667L27.78125 194.90105L30.734375 194.90105ZM34.28125 187.4323L34.28125 188.1823Q31.46875 186.4323 28.640625 186.4323Q27.546875 186.4323 26.453125 186.6823Q25.578125 186.88542 24.765625 187.2448Q24.25 187.47917 23.015625 188.1823L23.015625 187.4323Q24.484375 186.33855 25.96875 185.8073Q27.25 185.35417 28.640625 185.35417Q30.21875 185.35417 31.703125 185.96355Q33.171875 186.57292 34.28125 187.4323Z" fill-rule="nonzero"/><path fill="#000000" d="M58.796875 345.23438L58.796875 346.25L53.109375 346.25Q53.109375 345.875 53.234375 345.51562Q53.453125 344.9375 53.921875 344.375Q54.40625 343.8125 55.3125 343.07812Q56.71875 341.92188 57.203125 341.25Q57.703125 340.57812 57.703125 339.98438Q57.703125 339.35938 57.25 338.9375Q56.796875 338.5 56.078125 338.5Q55.3125 338.5 54.859375 338.95312Q54.40625 339.40625 54.390625 340.21875L53.3125 340.10938Q53.421875 338.89062 54.140625 338.26562Q54.875 337.625 56.109375 337.625Q57.34375 337.625 58.0625 338.3125Q58.78125 339.0 58.78125 340.01562Q58.78125 340.53125 58.5625 341.03125Q58.359375 341.51562 57.859375 342.07812Q57.375 342.625 56.25 343.57812Q55.296875 344.375 55.015625 344.67188Q54.75 344.95312 54.578125 345.23438L58.796875 345.23438ZM63.625 346.25L63.625 344.1875L59.90625 344.1875L59.90625 343.21875L63.828125 337.65625L64.6875 337.65625L64.6875 343.21875L65.84375 343.21875L65.84375 344.1875L64.6875 344.1875L64.6875 346.25L63.625 346.25ZM63.625 343.21875L63.625 339.35938L60.9375 343.21875L63.625 343.21875ZM67.25 342.01562Q67.25 340.48438 67.5625 339.5625Q67.875 338.625 68.484375 338.125Q69.109375 337.625 70.046875 337.625Q70.734375 337.625 71.25 337.90625Q71.78125 338.1875 72.125 338.71875Q72.46875 339.23438 72.65625 339.98438Q72.84375 340.73438 72.84375 342.01562Q72.84375 343.53125 72.53125 344.45312Q72.234375 345.375 71.609375 345.89062Q71.0 346.39062 70.046875 346.39062Q68.8125 346.39062 68.09375 345.5Q67.25 344.4375 67.25 342.01562ZM68.328125 342.01562Q68.328125 344.125 68.828125 344.82812Q69.328125 345.53125 70.046875 345.53125Q70.78125 345.53125 71.265625 344.82812Q71.765625 344.125 71.765625 342.01562Q71.765625 339.89062 71.265625 339.20312Q70.78125 338.5 70.03125 338.5Q69.3125 338.5 68.875 339.10938Q68.328125 339.89062 68.328125 342.01562Z" fill-rule="nonzero"/><path fill="#000000" d="M58.796875 276.06772L58.796875 277.08334L53.109375 277.08334Q53.109375 276.70834 53.234375 276.34897Q53.453125 275.77084 53.921875 275.20834Q54.40625 274.64584 55.3125 273.91147Q56.71875 272.75522 57.203125 272.08334Q57.703125 271.41147 57.703125 270.81772Q57.703125 270.19272 57.25 269.77084Q56.796875 269.33334 56.078125 269.33334Q55.3125 269.33334 54.859375 269.78647Q54.40625 270.2396 54.390625 271.0521L53.3125 270.94272Q53.421875 269.72397 54.140625 269.09897Q54.875 268.45834 56.109375 268.45834Q57.34375 268.45834 58.0625 269.14584Q58.78125 269.83334 58.78125 270.84897Q58.78125 271.3646 58.5625 271.8646Q58.359375 272.34897 57.859375 272.91147Q57.375 273.45834 56.25 274.41147Q55.296875 275.20834 55.015625 275.50522Q54.75 275.78647 54.578125 276.06772L58.796875 276.06772ZM65.71875 270.59897L64.671875 270.6771Q64.53125 270.0521 64.28125 269.77084Q63.84375 269.31772 63.21875 269.31772Q62.71875 269.31772 62.328125 269.59897Q61.84375 269.97397 61.546875 270.6771Q61.265625 271.3646 61.25 272.64584Q61.625 272.06772 62.171875 271.78647Q62.734375 271.50522 63.34375 271.50522Q64.390625 271.50522 65.125 272.28647Q65.875 273.06772 65.875 274.28647Q65.875 275.09897 65.515625 275.8021Q65.171875 276.4896 64.5625 276.8646Q63.953125 277.22397 63.1875 277.22397Q61.859375 277.22397 61.03125 276.25522Q60.203125 275.28647 60.203125 273.06772Q60.203125 270.56772 61.125 269.44272Q61.921875 268.45834 63.28125 268.45834Q64.296875 268.45834 64.9375 269.03647Q65.59375 269.59897 65.71875 270.59897ZM61.421875 274.3021Q61.421875 274.84897 61.640625 275.34897Q61.875 275.83334 62.28125 276.09897Q62.703125 276.3646 63.171875 276.3646Q63.828125 276.3646 64.3125 275.83334Q64.796875 275.28647 64.796875 274.3646Q64.796875 273.47397 64.3125 272.95834Q63.84375 272.44272 63.125 272.44272Q62.40625 272.44272 61.90625 272.95834Q61.421875 273.47397 61.421875 274.3021ZM67.25 272.84897Q67.25 271.31772 67.5625 270.39584Q67.875 269.45834 68.484375 268.95834Q69.109375 268.45834 70.046875 268.45834Q70.734375 268.45834 71.25 268.7396Q71.78125 269.02084 72.125 269.5521Q72.46875 270.06772 72.65625 270.81772Q72.84375 271.56772 72.84375 272.84897Q72.84375 274.3646 72.53125 275.28647Q72.234375 276.20834 71.609375 276.72397Q71.0 277.22397 70.046875 277.22397Q68.8125 277.22397 68.09375 276.33334Q67.25 275.27084 67.25 272.84897ZM68.328125 272.84897Q68.328125 274.95834 68.828125 275.66147Q69.328125 276.3646 70.046875 276.3646Q70.78125 276.3646 71.265625 275.66147Q71.765625 274.95834 71.765625 272.84897Q71.765625 270.72397 71.265625 270.03647Q70.78125 269.33334 70.03125 269.33334Q69.3125 269.33334 68.875 269.94272Q68.328125 270.72397 68.328125 272.84897Z" fill-rule="nonzero"/><path fill="#000000" d="M58.796875 206.90105L58.796875 207.91667L53.109375 207.91667Q53.109375 207.54167 53.234375 207.1823Q53.453125 206.60417 53.921875 206.04167Q54.40625 205.47917 55.3125 204.7448Q56.71875 203.58855 57.203125 202.91667Q57.703125 202.2448 57.703125 201.65105Q57.703125 201.02605 57.25 200.60417Q56.796875 200.16667 56.078125 200.16667Q55.3125 200.16667 54.859375 200.6198Q54.40625 201.07292 54.390625 201.88542L53.3125 201.77605Q53.421875 200.5573 54.140625 199.9323Q54.875 199.29167 56.109375 199.29167Q57.34375 199.29167 58.0625 199.97917Q58.78125 200.66667 58.78125 201.6823Q58.78125 202.19792 58.5625 202.69792Q58.359375 203.1823 57.859375 203.7448Q57.375 204.29167 56.25 205.2448Q55.296875 206.04167 55.015625 206.33855Q54.75 206.6198 54.578125 206.90105L58.796875 206.90105ZM61.875 203.26042Q61.21875 203.01042 60.890625 202.57292Q60.578125 202.1198 60.578125 201.51042Q60.578125 200.57292 61.25 199.9323Q61.9375 199.29167 63.046875 199.29167Q64.171875 199.29167 64.859375 199.94792Q65.546875 200.60417 65.546875 201.54167Q65.546875 202.13542 65.234375 202.57292Q64.921875 203.01042 64.28125 203.26042Q65.078125 203.51042 65.484375 204.08855Q65.890625 204.66667 65.890625 205.46355Q65.890625 206.5573 65.109375 207.3073Q64.34375 208.0573 63.0625 208.0573Q61.796875 208.0573 61.015625 207.3073Q60.234375 206.5573 60.234375 205.4323Q60.234375 204.58855 60.65625 204.02605Q61.09375 203.46355 61.875 203.26042ZM61.65625 201.46355Q61.65625 202.07292 62.046875 202.46355Q62.453125 202.85417 63.078125 202.85417Q63.6875 202.85417 64.078125 202.47917Q64.46875 202.08855 64.46875 201.52605Q64.46875 200.94792 64.0625 200.5573Q63.65625 200.15105 63.0625 200.15105Q62.453125 200.15105 62.046875 200.54167Q61.65625 200.9323 61.65625 201.46355ZM61.328125 205.4323Q61.328125 205.88542 61.53125 206.3073Q61.75 206.72917 62.171875 206.96355Q62.59375 207.19792 63.078125 207.19792Q63.828125 207.19792 64.3125 206.71355Q64.8125 206.22917 64.8125 205.47917Q64.8125 204.71355 64.3125 204.21355Q63.8125 203.71355 63.046875 203.71355Q62.296875 203.71355 61.8125 204.21355Q61.328125 204.69792 61.328125 205.4323ZM67.25 203.6823Q67.25 202.15105 67.5625 201.22917Q67.875 200.29167 68.484375 199.79167Q69.109375 199.29167 70.046875 199.29167Q70.734375 199.29167 71.25 199.57292Q71.78125 199.85417 72.125 200.38542Q72.46875 200.90105 72.65625 201.65105Q72.84375 202.40105 72.84375 203.6823Q72.84375 205.19792 72.53125 206.1198Q72.234375 207.04167 71.609375 207.5573Q71.0 208.0573 70.046875 208.0573Q68.8125 208.0573 68.09375 207.16667Q67.25 206.10417 67.25 203.6823ZM68.328125 203.6823Q68.328125 205.79167 68.828125 206.4948Q69.328125 207.19792 70.046875 207.19792Q70.78125 207.19792 71.265625 206.4948Q71.765625 205.79167 71.765625 203.6823Q71.765625 201.5573 71.265625 200.8698Q70.78125 200.16667 70.03125 200.16667Q69.3125 200.16667 68.875 200.77605Q68.328125 201.5573 68.328125 203.6823Z" fill-rule="nonzero"/><path fill="#000000" d="M53.25 136.48438L54.3125 136.34375Q54.484375 137.23438 54.921875 137.64062Q55.359375 138.03125 55.984375 138.03125Q56.734375 138.03125 57.25 137.51562Q57.765625 137.0 57.765625 136.23438Q57.765625 135.51562 57.28125 135.04688Q56.8125 134.5625 56.078125 134.5625Q55.78125 134.5625 55.328125 134.6875L55.453125 133.75Q55.5625 133.76562 55.625 133.76562Q56.296875 133.76562 56.828125 133.42188Q57.375 133.0625 57.375 132.32812Q57.375 131.75 56.984375 131.375Q56.59375 130.98438 55.96875 130.98438Q55.359375 130.98438 54.9375 131.375Q54.53125 131.76562 54.421875 132.53125L53.359375 132.34375Q53.546875 131.29688 54.234375 130.71875Q54.921875 130.125 55.9375 130.125Q56.640625 130.125 57.234375 130.4375Q57.828125 130.73438 58.140625 131.25Q58.453125 131.76562 58.453125 132.35938Q58.453125 132.90625 58.15625 133.375Q57.859375 133.82812 57.28125 134.09375Q58.03125 134.26562 58.453125 134.82812Q58.875 135.375 58.875 136.21875Q58.875 137.34375 58.046875 138.125Q57.234375 138.90625 55.984375 138.90625Q54.859375 138.90625 54.109375 138.23438Q53.359375 137.54688 53.25 136.48438ZM60.25 134.51562Q60.25 132.98438 60.5625 132.0625Q60.875 131.125 61.484375 130.625Q62.109375 130.125 63.046875 130.125Q63.734375 130.125 64.25 130.40625Q64.78125 130.6875 65.125 131.21875Q65.46875 131.73438 65.65625 132.48438Q65.84375 133.23438 65.84375 134.51562Q65.84375 136.03125 65.53125 136.95312Q65.234375 137.875 64.609375 138.39062Q64.0 138.89062 63.046875 138.89062Q61.8125 138.89062 61.09375 138.0Q60.25 136.9375 60.25 134.51562ZM61.328125 134.51562Q61.328125 136.625 61.828125 137.32812Q62.328125 138.03125 63.046875 138.03125Q63.78125 138.03125 64.265625 137.32812Q64.765625 136.625 64.765625 134.51562Q64.765625 132.39062 64.265625 131.70312Q63.78125 131.0 63.03125 131.0Q62.3125 131.0 61.875 131.60938Q61.328125 132.39062 61.328125 134.51562ZM67.25 134.51562Q67.25 132.98438 67.5625 132.0625Q67.875 131.125 68.484375 130.625Q69.109375 130.125 70.046875 130.125Q70.734375 130.125 71.25 130.40625Q71.78125 130.6875 72.125 131.21875Q72.46875 131.73438 72.65625 132.48438Q72.84375 133.23438 72.84375 134.51562Q72.84375 136.03125 72.53125 136.95312Q72.234375 137.875 71.609375 138.39062Q71.0 138.89062 70.046875 138.89062Q68.8125 138.89062 68.09375 138.0Q67.25 136.9375 67.25 134.51562ZM68.328125 134.51562Q68.328125 136.625 68.828125 137.32812Q69.328125 138.03125 70.046875 138.03125Q70.78125 138.03125 71.265625 137.32812Q71.765625 136.625 71.765625 134.51562Q71.765625 132.39062 71.265625 131.70312Q70.78125 131.0 70.03125 131.0Q69.3125 131.0 68.875 131.60938Q68.328125 132.39062 68.328125 134.51562Z" fill-rule="nonzero"/><path fill="#000000" d="M53.25 67.31771L54.3125 67.177086Q54.484375 68.06771 54.921875 68.47396Q55.359375 68.864586 55.984375 68.864586Q56.734375 68.864586 57.25 68.34896Q57.765625 67.833336 57.765625 67.06771Q57.765625 66.34896 57.28125 65.88021Q56.8125 65.395836 56.078125 65.395836Q55.78125 65.395836 55.328125 65.520836L55.453125 64.583336Q55.5625 64.59896 55.625 64.59896Q56.296875 64.59896 56.828125 64.25521Q57.375 63.895836 57.375 63.16146Q57.375 62.583336 56.984375 62.208336Q56.59375 61.81771 55.96875 61.81771Q55.359375 61.81771 54.9375 62.208336Q54.53125 62.59896 54.421875 63.364586L53.359375 63.177086Q53.546875 62.13021 54.234375 61.552086Q54.921875 60.958336 55.9375 60.958336Q56.640625 60.958336 57.234375 61.270836Q57.828125 61.56771 58.140625 62.083336Q58.453125 62.59896 58.453125 63.19271Q58.453125 63.739586 58.15625 64.208336Q57.859375 64.66146 57.28125 64.927086Q58.03125 65.09896 58.453125 65.66146Q58.875 66.208336 58.875 67.052086Q58.875 68.177086 58.046875 68.958336Q57.234375 69.739586 55.984375 69.739586Q54.859375 69.739586 54.109375 69.06771Q53.359375 68.38021 53.25 67.31771ZM65.796875 68.56771L65.796875 69.583336L60.109375 69.583336Q60.109375 69.208336 60.234375 68.84896Q60.453125 68.270836 60.921875 67.708336Q61.40625 67.145836 62.3125 66.41146Q63.71875 65.25521 64.203125 64.583336Q64.703125 63.91146 64.703125 63.31771Q64.703125 62.69271 64.25 62.270836Q63.796875 61.833336 63.078125 61.833336Q62.3125 61.833336 61.859375 62.28646Q61.40625 62.739586 61.390625 63.552086L60.3125 63.44271Q60.421875 62.22396 61.140625 61.59896Q61.875 60.958336 63.109375 60.958336Q64.34375 60.958336 65.0625 61.645836Q65.78125 62.333336 65.78125 63.34896Q65.78125 63.864586 65.5625 64.364586Q65.359375 64.84896 64.859375 65.41146Q64.375 65.958336 63.25 66.91146Q62.296875 67.708336 62.015625 68.00521Q61.75 68.28646 61.578125 68.56771L65.796875 68.56771ZM67.25 65.34896Q67.25 63.81771 67.5625 62.895836Q67.875 61.958336 68.484375 61.458336Q69.109375 60.958336 70.046875 60.958336Q70.734375 60.958336 71.25 61.239586Q71.78125 61.520836 72.125 62.052086Q72.46875 62.56771 72.65625 63.31771Q72.84375 64.06771 72.84375 65.34896Q72.84375 66.864586 72.53125 67.78646Q72.234375 68.708336 71.609375 69.22396Q71.0 69.72396 70.046875 69.72396Q68.8125 69.72396 68.09375 68.833336Q67.25 67.770836 67.25 65.34896ZM68.328125 65.34896Q68.328125 67.458336 68.828125 68.16146Q69.328125 68.864586 70.046875 68.864586Q70.78125 68.864586 71.265625 68.16146Q71.765625 67.458336 71.765625 65.34896Q71.765625 63.22396 71.265625 62.53646Q70.78125 61.833336 70.03125 61.833336Q69.3125 61.833336 68.875 62.44271Q68.328125 63.22396 68.328125 65.34896Z" fill-rule="nonzero"/><path fill="#000000" d="M125.70642 358.23438L125.70642 359.25L120.01892 359.25Q120.01892 358.875 120.14392 358.51562Q120.36267 357.9375 120.83142 357.375Q121.315796 356.8125 122.222046 356.07812Q123.628296 354.92188 124.11267 354.25Q124.61267 353.57812 124.61267 352.98438Q124.61267 352.35938 124.159546 351.9375Q123.70642 351.5 122.98767 351.5Q122.222046 351.5 121.76892 351.95312Q121.315796 352.40625 121.30017 353.21875L120.222046 353.10938Q120.33142 351.89062 121.05017 351.26562Q121.784546 350.625 123.01892 350.625Q124.253296 350.625 124.972046 351.3125Q125.690796 352.0 125.690796 353.01562Q125.690796 353.53125 125.472046 354.03125Q125.26892 354.51562 124.76892 355.07812Q124.284546 355.625 123.159546 356.57812Q122.20642 357.375 121.92517 357.67188Q121.659546 357.95312 121.48767 358.23438L125.70642 358.23438ZM127.159546 357.0L128.26892 356.90625Q128.39392 357.71875 128.83142 358.125Q129.28455 358.53125 129.92517 358.53125Q130.67517 358.53125 131.20642 357.95312Q131.73767 357.375 131.73767 356.4375Q131.73767 355.53125 131.22205 355.01562Q130.72205 354.48438 129.89392 354.48438Q129.39392 354.48438 128.97205 354.71875Q128.5658 354.95312 128.33142 355.3125L127.347046 355.1875L128.17517 350.78125L132.45642 350.78125L132.45642 351.78125L129.01892 351.78125L128.5658 354.09375Q129.33142 353.54688 130.17517 353.54688Q131.30017 353.54688 132.0658 354.32812Q132.84705 355.10938 132.84705 356.34375Q132.84705 357.5 132.17517 358.35938Q131.34705 359.39062 129.92517 359.39062Q128.7533 359.39062 128.0033 358.73438Q127.26892 358.07812 127.159546 357.0Z" fill-rule="nonzero"/><path fill="#000000" d="M229.31743 357.0L230.4268 356.90625Q230.5518 357.71875 230.9893 358.125Q231.44243 358.53125 232.08305 358.53125Q232.83305 358.53125 233.3643 357.95312Q233.89555 357.375 233.89555 356.4375Q233.89555 355.53125 233.37993 355.01562Q232.87993 354.48438 232.0518 354.48438Q231.5518 354.48438 231.12993 354.71875Q230.72368 354.95312 230.4893 355.3125L229.50493 355.1875L230.33305 350.78125L234.6143 350.78125L234.6143 351.78125L231.1768 351.78125L230.72368 354.09375Q231.4893 353.54688 232.33305 353.54688Q233.45805 353.54688 234.22368 354.32812Q235.00493 355.10938 235.00493 356.34375Q235.00493 357.5 234.33305 358.35938Q233.50493 359.39062 232.08305 359.39062Q230.91118 359.39062 230.16118 358.73438Q229.4268 358.07812 229.31743 357.0ZM236.31743 355.01562Q236.31743 353.48438 236.62993 352.5625Q236.94243 351.625 237.5518 351.125Q238.1768 350.625 239.1143 350.625Q239.8018 350.625 240.31743 350.90625Q240.84868 351.1875 241.19243 351.71875Q241.53618 352.23438 241.72368 352.98438Q241.91118 353.73438 241.91118 355.01562Q241.91118 356.53125 241.59868 357.45312Q241.3018 358.375 240.6768 358.89062Q240.06743 359.39062 239.1143 359.39062Q237.87993 359.39062 237.16118 358.5Q236.31743 357.4375 236.31743 355.01562ZM237.39555 355.01562Q237.39555 357.125 237.89555 357.82812Q238.39555 358.53125 239.1143 358.53125Q239.84868 358.53125 240.33305 357.82812Q240.83305 357.125 240.83305 355.01562Q240.83305 352.89062 240.33305 352.20312Q239.84868 351.5 239.09868 351.5Q238.37993 351.5 237.94243 352.10938Q237.39555 352.89062 237.39555 355.01562Z" fill-rule="nonzero"/><path fill="#000000" d="M338.5378 351.78125L338.5378 350.76562L344.1003 350.76562L344.1003 351.59375Q343.2878 352.46875 342.4753 353.92188Q341.67844 355.35938 341.24094 356.89062Q340.9128 357.96875 340.8347 359.25L339.74094 359.25Q339.75656 358.23438 340.13156 356.79688Q340.5222 355.35938 341.2253 354.03125Q341.94406 352.70312 342.75656 351.78125L338.5378 351.78125ZM345.4753 357.0L346.5847 356.90625Q346.7097 357.71875 347.1472 358.125Q347.6003 358.53125 348.24094 358.53125Q348.99094 358.53125 349.5222 357.95312Q350.05344 357.375 350.05344 356.4375Q350.05344 355.53125 349.5378 355.01562Q349.0378 354.48438 348.2097 354.48438Q347.7097 354.48438 347.2878 354.71875Q346.88156 354.95312 346.6472 355.3125L345.6628 355.1875L346.49094 350.78125L350.7722 350.78125L350.7722 351.78125L347.3347 351.78125L346.88156 354.09375Q347.6472 353.54688 348.49094 353.54688Q349.61594 353.54688 350.38156 354.32812Q351.1628 355.10938 351.1628 356.34375Q351.1628 357.5 350.49094 358.35938Q349.6628 359.39062 348.24094 359.39062Q347.06906 359.39062 346.31906 358.73438Q345.5847 358.07812 345.4753 357.0Z" fill-rule="nonzero"/><path fill="#000000" d="M448.10193 359.25L447.05505 359.25L447.05505 352.53125Q446.66443 352.89062 446.03943 353.26562Q445.43005 353.625 444.94568 353.79688L444.94568 352.78125Q445.82068 352.35938 446.47693 351.78125Q447.1488 351.1875 447.43005 350.625L448.10193 350.625L448.10193 359.25ZM451.13318 355.01562Q451.13318 353.48438 451.44568 352.5625Q451.75818 351.625 452.36755 351.125Q452.99255 350.625 453.93005 350.625Q454.61755 350.625 455.13318 350.90625Q455.66443 351.1875 456.00818 351.71875Q456.35193 352.23438 456.53943 352.98438Q456.72693 353.73438 456.72693 355.01562Q456.72693 356.53125 456.41443 357.45312Q456.11755 358.375 455.49255 358.89062Q454.88318 359.39062 453.93005 359.39062Q452.69568 359.39062 451.97693 358.5Q451.13318 357.4375 451.13318 355.01562ZM452.2113 355.01562Q452.2113 357.125 452.7113 357.82812Q453.2113 358.53125 453.93005 358.53125Q454.66443 358.53125 455.1488 357.82812Q455.6488 357.125 455.6488 355.01562Q455.6488 352.89062 455.1488 352.20312Q454.66443 351.5 453.91443 351.5Q453.19568 351.5 452.75818 352.10938Q452.2113 352.89062 452.2113 355.01562ZM458.13318 355.01562Q458.13318 353.48438 458.44568 352.5625Q458.75818 351.625 459.36755 351.125Q459.99255 350.625 460.93005 350.625Q461.61755 350.625 462.13318 350.90625Q462.66443 351.1875 463.00818 351.71875Q463.35193 352.23438 463.53943 352.98438Q463.72693 353.73438 463.72693 355.01562Q463.72693 356.53125 463.41443 357.45312Q463.11755 358.375 462.49255 358.89062Q461.88318 359.39062 460.93005 359.39062Q459.69568 359.39062 458.97693 358.5Q458.13318 357.4375 458.13318 355.01562ZM459.2113 355.01562Q459.2113 357.125 459.7113 357.82812Q460.2113 358.53125 460.93005 358.53125Q461.66443 358.53125 462.1488 357.82812Q462.6488 357.125 462.6488 355.01562Q462.6488 352.89062 462.1488 352.20312Q461.66443 351.5 460.91443 351.5Q460.19568 351.5 459.75818 352.10938Q459.2113 352.89062 459.2113 355.01562Z" fill-rule="nonzero"/><path fill="#000000" d="M557.2598 359.25L556.21295 359.25L556.21295 352.53125Q555.8223 352.89062 555.1973 353.26562Q554.58795 353.625 554.1036 353.79688L554.1036 352.78125Q554.9786 352.35938 555.6348 351.78125Q556.3067 351.1875 556.58795 350.625L557.2598 350.625L557.2598 359.25ZM565.83795 358.23438L565.83795 359.25L560.15045 359.25Q560.15045 358.875 560.27545 358.51562Q560.4942 357.9375 560.96295 357.375Q561.4473 356.8125 562.3536 356.07812Q563.7598 354.92188 564.2442 354.25Q564.7442 353.57812 564.7442 352.98438Q564.7442 352.35938 564.2911 351.9375Q563.83795 351.5 563.1192 351.5Q562.3536 351.5 561.90045 351.95312Q561.4473 352.40625 561.4317 353.21875L560.3536 353.10938Q560.46295 351.89062 561.1817 351.26562Q561.9161 350.625 563.15045 350.625Q564.3848 350.625 565.1036 351.3125Q565.8223 352.0 565.8223 353.01562Q565.8223 353.53125 565.6036 354.03125Q565.40045 354.51562 564.90045 355.07812Q564.4161 355.625 563.2911 356.57812Q562.33795 357.375 562.0567 357.67188Q561.7911 357.95312 561.6192 358.23438L565.83795 358.23438ZM567.2911 357.0L568.40045 356.90625Q568.52545 357.71875 568.96295 358.125Q569.4161 358.53125 570.0567 358.53125Q570.8067 358.53125 571.33795 357.95312Q571.8692 357.375 571.8692 356.4375Q571.8692 355.53125 571.3536 355.01562Q570.8536 354.48438 570.02545 354.48438Q569.52545 354.48438 569.1036 354.71875Q568.6973 354.95312 568.46295 355.3125L567.4786 355.1875L568.3067 350.78125L572.58795 350.78125L572.58795 351.78125L569.15045 351.78125L568.6973 354.09375Q569.46295 353.54688 570.3067 353.54688Q571.4317 353.54688 572.1973 354.32812Q572.9786 355.10938 572.9786 356.34375Q572.9786 357.5 572.3067 358.35938Q571.4786 359.39062 570.0567 359.39062Q568.8848 359.39062 568.1348 358.73438Q567.40045 358.07812 567.2911 357.0Z" fill-rule="nonzero"/><path fill="#757575" d="M21.65625 35.15625L23.4375 35.0Q23.5625 36.0625 24.015625 36.75Q24.484375 37.4375 25.453125 37.875Q26.4375 38.296875 27.671875 38.296875Q28.75 38.296875 29.578125 37.984375Q30.40625 37.65625 30.8125 37.09375Q31.21875 36.53125 31.21875 35.859375Q31.21875 35.1875 30.828125 34.6875Q30.4375 34.1875 29.546875 33.84375Q28.96875 33.609375 26.984375 33.140625Q25.015625 32.671875 24.234375 32.25Q23.203125 31.71875 22.703125 30.921875Q22.203125 30.125 22.203125 29.140625Q22.203125 28.046875 22.8125 27.109375Q23.421875 26.171875 24.609375 25.6875Q25.796875 25.1875 27.234375 25.1875Q28.828125 25.1875 30.046875 25.703125Q31.265625 26.21875 31.90625 27.21875Q32.5625 28.203125 32.609375 29.46875L30.796875 29.609375Q30.65625 28.25 29.8125 27.5625Q28.96875 26.859375 27.3125 26.859375Q25.59375 26.859375 24.796875 27.5Q24.015625 28.125 24.015625 29.0Q24.015625 29.78125 24.578125 30.28125Q25.125 30.78125 27.4375 31.296875Q29.75 31.8125 30.609375 32.203125Q31.859375 32.78125 32.453125 33.671875Q33.046875 34.546875 33.046875 35.703125Q33.046875 36.84375 32.390625 37.859375Q31.734375 38.875 30.5 39.4375Q29.28125 40.0 27.75 40.0Q25.8125 40.0 24.5 39.4375Q23.1875 38.859375 22.4375 37.71875Q21.6875 36.578125 21.65625 35.15625ZM35.078125 27.453125L35.078125 25.4375L36.84375 25.4375L36.84375 27.453125L35.078125 27.453125ZM35.078125 39.75L35.078125 29.375L36.84375 29.375L36.84375 39.75L35.078125 39.75ZM38.140625 39.75L38.140625 38.328125L44.75 30.75Q43.625 30.796875 42.765625 30.796875L38.53125 30.796875L38.53125 29.375L47.015625 29.375L47.015625 30.546875L41.390625 37.125L40.3125 38.328125Q41.484375 38.234375 42.53125 38.234375L47.328125 38.234375L47.328125 39.75L38.140625 39.75ZM55.171875 36.40625L56.984375 36.640625Q56.5625 38.21875 55.390625 39.109375Q54.234375 39.984375 52.421875 39.984375Q50.15625 39.984375 48.8125 38.59375Q47.484375 37.1875 47.484375 34.65625Q47.484375 32.03125 48.828125 30.59375Q50.171875 29.140625 52.328125 29.140625Q54.40625 29.140625 55.71875 30.5625Q57.046875 31.96875 57.046875 34.546875Q57.046875 34.703125 57.03125 35.015625L49.296875 35.015625Q49.390625 36.71875 50.265625 37.625Q51.140625 38.53125 52.4375 38.53125Q53.40625 38.53125 54.078125 38.03125Q54.765625 37.515625 55.171875 36.40625ZM49.390625 33.5625L55.1875 33.5625Q55.078125 32.265625 54.53125 31.609375Q53.6875 30.59375 52.34375 30.59375Q51.140625 30.59375 50.3125 31.40625Q49.484375 32.203125 49.390625 33.5625ZM67.953125 39.75L64.0 29.375L65.859375 29.375L68.09375 35.59375Q68.453125 36.59375 68.75 37.671875Q68.984375 36.859375 69.40625 35.703125L71.703125 29.375L73.515625 29.375L69.59375 39.75L67.953125 39.75ZM73.359375 36.65625L75.109375 36.375Q75.25 37.421875 75.921875 37.984375Q76.59375 38.53125 77.796875 38.53125Q79.0 38.53125 79.578125 38.046875Q80.171875 37.546875 80.171875 36.890625Q80.171875 36.296875 79.65625 35.953125Q79.296875 35.71875 77.859375 35.359375Q75.921875 34.859375 75.171875 34.515625Q74.4375 34.15625 74.046875 33.53125Q73.65625 32.890625 73.65625 32.125Q73.65625 31.4375 73.96875 30.84375Q74.296875 30.25 74.84375 29.859375Q75.25 29.5625 75.953125 29.359375Q76.671875 29.140625 77.484375 29.140625Q78.703125 29.140625 79.625 29.5Q80.546875 29.84375 80.984375 30.453125Q81.421875 31.046875 81.59375 32.046875L79.875 32.28125Q79.75 31.484375 79.1875 31.046875Q78.625 30.59375 77.609375 30.59375Q76.390625 30.59375 75.875 31.0Q75.359375 31.390625 75.359375 31.921875Q75.359375 32.265625 75.578125 32.546875Q75.78125 32.828125 76.25 33.015625Q76.515625 33.109375 77.796875 33.453125Q79.671875 33.953125 80.40625 34.28125Q81.140625 34.59375 81.5625 35.203125Q81.984375 35.796875 81.984375 36.703125Q81.984375 37.578125 81.46875 38.359375Q80.953125 39.140625 79.984375 39.5625Q79.015625 39.984375 77.796875 39.984375Q75.78125 39.984375 74.71875 39.140625Q73.65625 38.296875 73.359375 36.65625ZM84.5625 39.75L84.5625 37.75L86.5625 37.75L86.5625 39.75L84.5625 39.75ZM99.9375 39.75L99.9375 27.125L95.21875 27.125L95.21875 25.4375L106.5625 25.4375L106.5625 27.125L101.828125 27.125L101.828125 39.75L99.9375 39.75ZM108.078125 27.453125L108.078125 25.4375L109.84375 25.4375L109.84375 27.453125L108.078125 27.453125ZM108.078125 39.75L108.078125 29.375L109.84375 29.375L109.84375 39.75L108.078125 39.75ZM112.0625 39.75L112.0625 29.375L113.640625 29.375L113.640625 30.828125Q114.125 30.078125 114.9375 29.609375Q115.75 29.140625 116.78125 29.140625Q117.9375 29.140625 118.671875 29.625Q119.40625 30.09375 119.71875 30.953125Q120.953125 29.140625 122.921875 29.140625Q124.46875 29.140625 125.296875 30.0Q126.125 30.859375 126.125 32.625L126.125 39.75L124.375 39.75L124.375 33.21875Q124.375 32.15625 124.203125 31.703125Q124.03125 31.234375 123.578125 30.953125Q123.140625 30.671875 122.53125 30.671875Q121.4375 30.671875 120.703125 31.40625Q119.984375 32.125 119.984375 33.71875L119.984375 39.75L118.234375 39.75L118.234375 33.015625Q118.234375 31.84375 117.796875 31.265625Q117.375 30.671875 116.390625 30.671875Q115.65625 30.671875 115.015625 31.0625Q114.390625 31.453125 114.109375 32.203125Q113.828125 32.953125 113.828125 34.375L113.828125 39.75L112.0625 39.75ZM135.17188 36.40625L136.98438 36.640625Q136.5625 38.21875 135.39062 39.109375Q134.23438 39.984375 132.42188 39.984375Q130.15625 39.984375 128.8125 38.59375Q127.484375 37.1875 127.484375 34.65625Q127.484375 32.03125 128.82812 30.59375Q130.17188 29.140625 132.32812 29.140625Q134.40625 29.140625 135.71875 30.5625Q137.04688 31.96875 137.04688 34.546875Q137.04688 34.703125 137.03125 35.015625L129.29688 35.015625Q129.39062 36.71875 130.26562 37.625Q131.14062 38.53125 132.4375 38.53125Q133.40625 38.53125 134.07812 38.03125Q134.76562 37.515625 135.17188 36.40625ZM129.39062 33.5625L135.1875 33.5625Q135.07812 32.265625 134.53125 31.609375Q133.6875 30.59375 132.34375 30.59375Q131.14062 30.59375 130.3125 31.40625Q129.48438 32.203125 129.39062 33.5625ZM148.42188 43.953125Q146.96875 42.125 145.96875 39.671875Q144.96875 37.203125 144.96875 34.5625Q144.96875 32.234375 145.71875 30.109375Q146.59375 27.640625 148.42188 25.1875L149.6875 25.1875Q148.5 27.21875 148.125 28.09375Q147.53125 29.4375 147.1875 30.90625Q146.76562 32.734375 146.76562 34.578125Q146.76562 39.265625 149.6875 43.953125L148.42188 43.953125ZM159.17188 36.40625L160.98438 36.640625Q160.5625 38.21875 159.39062 39.109375Q158.23438 39.984375 156.42188 39.984375Q154.15625 39.984375 152.8125 38.59375Q151.48438 37.1875 151.48438 34.65625Q151.48438 32.03125 152.82812 30.59375Q154.17188 29.140625 156.32812 29.140625Q158.40625 29.140625 159.71875 30.5625Q161.04688 31.96875 161.04688 34.546875Q161.04688 34.703125 161.03125 35.015625L153.29688 35.015625Q153.39062 36.71875 154.26562 37.625Q155.14062 38.53125 156.4375 38.53125Q157.40625 38.53125 158.07812 38.03125Q158.76562 37.515625 159.17188 36.40625ZM153.39062 33.5625L159.1875 33.5625Q159.07812 32.265625 158.53125 31.609375Q157.6875 30.59375 156.34375 30.59375Q155.14062 30.59375 154.3125 31.40625Q153.48438 32.203125 153.39062 33.5625ZM163.0625 39.75L163.0625 29.375L164.65625 29.375L164.65625 30.859375Q165.79688 29.140625 167.95312 29.140625Q168.89062 29.140625 169.67188 29.484375Q170.46875 29.8125 170.85938 30.359375Q171.25 30.90625 171.40625 31.65625Q171.5 32.15625 171.5 33.375L171.5 39.75L169.73438 39.75L169.73438 33.4375Q169.73438 32.359375 169.53125 31.828125Q169.32812 31.296875 168.79688 30.984375Q168.28125 30.671875 167.57812 30.671875Q166.45312 30.671875 165.64062 31.390625Q164.82812 32.09375 164.82812 34.078125L164.82812 39.75L163.0625 39.75ZM174.98438 39.75L171.8125 29.375L173.625 29.375L175.28125 35.359375L175.89062 37.59375Q175.9375 37.421875 176.42188 35.453125L178.07812 29.375L179.89062 29.375L181.4375 35.390625L181.95312 37.375L182.54688 35.375L184.32812 29.375L186.03125 29.375L182.79688 39.75L180.96875 39.75L179.3125 33.53125L178.92188 31.765625L176.8125 39.75L174.98438 39.75ZM188.07812 27.453125L188.07812 25.4375L189.84375 25.4375L189.84375 27.453125L188.07812 27.453125ZM188.07812 39.75L188.07812 29.375L189.84375 29.375L189.84375 39.75L188.07812 39.75ZM192.07812 39.75L192.07812 25.4375L193.84375 25.4375L193.84375 33.59375L198.0 29.375L200.26562 29.375L196.3125 33.21875L200.67188 39.75L198.5 39.75L195.07812 34.453125L193.84375 35.640625L193.84375 39.75L192.07812 39.75ZM201.84375 36.4375L203.53125 36.28125Q203.75 37.46875 204.34375 38.015625Q204.95312 38.546875 205.90625 38.546875Q206.71875 38.546875 207.32812 38.1875Q207.9375 37.8125 208.32812 37.1875Q208.71875 36.5625 208.98438 35.515625Q209.25 34.453125 209.25 33.359375Q209.25 33.25 209.23438 33.015625Q208.70312 33.84375 207.79688 34.375Q206.89062 34.890625 205.8125 34.890625Q204.04688 34.890625 202.8125 33.609375Q201.57812 32.3125 201.57812 30.203125Q201.57812 28.03125 202.85938 26.703125Q204.15625 25.375 206.07812 25.375Q207.48438 25.375 208.64062 26.125Q209.79688 26.875 210.39062 28.265625Q211.0 29.65625 211.0 32.296875Q211.0 35.046875 210.39062 36.671875Q209.79688 38.296875 208.625 39.15625Q207.45312 40.0 205.875 40.0Q204.1875 40.0 203.125 39.0625Q202.0625 38.125 201.84375 36.4375ZM209.04688 30.125Q209.04688 28.609375 208.23438 27.71875Q207.4375 26.828125 206.29688 26.828125Q205.125 26.828125 204.25 27.796875Q203.39062 28.75 203.39062 30.265625Q203.39062 31.640625 204.20312 32.5Q205.03125 33.34375 206.25 33.34375Q207.46875 33.34375 208.25 32.5Q209.04688 31.640625 209.04688 30.125ZM214.21875 43.953125L212.96875 43.953125Q215.875 39.265625 215.875 34.578125Q215.875 32.734375 215.46875 30.9375Q215.125 29.46875 214.53125 28.125Q214.15625 27.234375 212.96875 25.1875L214.21875 25.1875Q216.0625 27.640625 216.9375 30.109375Q217.6875 32.234375 217.6875 34.5625Q217.6875 37.203125 216.67188 39.671875Q215.67188 42.125 214.21875 43.953125Z" fill-rule="nonzero"/></svg>