<svg version="1.1" viewBox="0.0 0.0 470.0 292.0" fill="none" stroke="none" stroke-linecap="square" stroke-miterlimit="10" width="470" height="292" xmlns:xlink="http://www.w3.org/1999/xlink" xmlns="http://www.w3.org/2000/svg"><path fill="#ffffff" d="M0 0L470.0 0L470.0 292.0L0 292.0L0 0Z" fill-rule="nonzero"/><path fill="#6aa84f" d="M235.0 14.6C251.48982 14.6 267.8323 17.703804 283.17395 23.749311L235.0 146.0Z" fill-rule="nonzero"/><path fill="#93c47d" d="M283.17395 23.749311C292.19708 27.304955 300.79883 31.848635 308.822 37.297318L235.0 146.0Z" fill-rule="nonzero"/><path fill="#434343" d="M308.822 37.297318C346.65958 62.993515 368.41284 106.51645 366.25348 152.20357L235.0 146.0Z" fill-rule="nonzero"/><path fill="#666666" d="M366.25348 152.20357C362.86542 223.88722 302.59155 279.59406 230.86343 277.33487C159.13531 275.0757 102.48656 215.68625 103.61628 143.93146C104.74601 72.176674 163.23633 14.6 235.0 14.6L235.0 146.0Z" fill-rule="nonzero"/><path fill="#1a1a1a" d="M15.490625 227.65932L15.490625 219.06557L17.209375 219.06557L19.240625 225.14369Q19.521875 226.00307 19.646875 226.42494Q19.7875 225.95619 20.1 225.04994L22.1625 219.06557L23.69375 219.06557L23.69375 227.65932L22.6 227.65932L22.6 220.47182L20.1 227.65932L19.06875 227.65932L16.584375 220.34682L16.584375 227.65932L15.490625 227.65932ZM28.459375 226.89369Q27.865625 227.39369 27.31875 227.59682Q26.7875 227.79994 26.1625 227.79994Q25.13125 227.79994 24.584375 227.29994Q24.0375 226.79994 24.0375 226.01869Q24.0375 225.56557 24.240625 225.19057Q24.44375 224.79994 24.7875 224.58119Q25.13125 224.34682 25.553125 224.23744Q25.85 224.14369 26.490625 224.06557Q27.75625 223.92494 28.365625 223.70619Q28.365625 223.48744 28.365625 223.44057Q28.365625 222.78432 28.06875 222.51869Q27.6625 222.17494 26.865625 222.17494Q26.13125 222.17494 25.771875 222.44057Q25.4125 222.69057 25.240625 223.34682L24.209375 223.20619Q24.35 222.54994 24.678125 222.14369Q25.00625 221.73744 25.615625 221.51869Q26.225 221.29994 27.021875 221.29994Q27.81875 221.29994 28.31875 221.48744Q28.81875 221.67494 29.053125 221.95619Q29.2875 222.23744 29.38125 222.67494Q29.428125 222.94057 29.428125 223.64369L29.428125 225.04994Q29.428125 226.51869 29.490625 226.90932Q29.56875 227.29994 29.771875 227.65932L28.6625 227.65932Q28.50625 227.33119 28.459375 226.89369ZM28.365625 224.53432Q27.7875 224.76869 26.646875 224.94057Q25.990625 225.03432 25.725 225.15932Q25.459375 225.26869 25.303125 225.48744Q25.1625 225.70619 25.1625 225.98744Q25.1625 226.40932 25.475 226.69057Q25.803125 226.97182 26.4125 226.97182Q27.021875 226.97182 27.490625 226.70619Q27.975 226.44057 28.19375 225.97182Q28.365625 225.61244 28.365625 224.92494L28.365625 224.53432ZM33.69375 226.72182L33.85 227.64369Q33.396873 227.73744 33.053123 227.73744Q32.475 227.73744 32.1625 227.56557Q31.85 227.37807 31.709375 227.08119Q31.584375 226.78432 31.584375 225.83119L31.584375 222.25307L30.81875 222.25307L30.81875 221.44057L31.584375 221.44057L31.584375 219.89369L32.63125 219.26869L32.63125 221.44057L33.69375 221.44057L33.69375 222.25307L32.63125 222.25307L32.63125 225.89369Q32.63125 226.34682 32.678123 226.47182Q32.740623 226.59682 32.865623 226.67494Q32.990623 226.75307 33.225 226.75307Q33.4125 226.75307 33.69375 226.72182ZM38.459373 225.37807L39.490623 225.51869Q39.31875 226.58119 38.615623 227.19057Q37.9125 227.79994 36.896873 227.79994Q35.615623 227.79994 34.834373 226.97182Q34.06875 226.12807 34.06875 224.56557Q34.06875 223.56557 34.396873 222.81557Q34.740623 222.04994 35.4125 221.67494Q36.1 221.29994 36.9125 221.29994Q37.9125 221.29994 38.553123 221.81557Q39.209373 222.31557 39.396873 223.26869L38.365623 223.42494Q38.225 222.79994 37.85 222.48744Q37.475 222.15932 36.94375 222.15932Q36.146873 222.15932 35.646873 222.73744Q35.146873 223.29994 35.146873 224.53432Q35.146873 225.79994 35.63125 226.36244Q36.115623 226.92494 36.88125 226.92494Q37.50625 226.92494 37.9125 226.54994Q38.334373 226.17494 38.459373 225.37807ZM40.396873 227.65932L40.396873 219.06557L41.44375 219.06557L41.44375 222.14369Q42.178123 221.29994 43.303123 221.29994Q44.00625 221.29994 44.50625 221.58119Q45.021873 221.84682 45.240623 222.33119Q45.459373 222.79994 45.459373 223.72182L45.459373 227.65932L44.4125 227.65932L44.4125 223.72182Q44.4125 222.92494 44.06875 222.56557Q43.725 222.20619 43.1 222.20619Q42.63125 222.20619 42.209373 222.45619Q41.803123 222.69057 41.615623 223.11244Q41.44375 223.51869 41.44375 224.25307L41.44375 227.65932L40.396873 227.65932ZM50.00625 224.54994Q50.00625 222.81557 50.959373 221.98744Q51.75625 221.29994 52.9125 221.29994Q54.19375 221.29994 55.00625 222.14369Q55.834373 222.97182 55.834373 224.45619Q55.834373 225.65932 55.475 226.34682Q55.115623 227.03432 54.4125 227.42494Q53.725 227.79994 52.9125 227.79994Q51.615623 227.79994 50.803123 226.97182Q50.00625 226.12807 50.00625 224.54994ZM51.084373 224.54994Q51.084373 225.73744 51.6 226.33119Q52.13125 226.92494 52.9125 226.92494Q53.709373 226.92494 54.225 226.33119Q54.740623 225.73744 54.740623 224.51869Q54.740623 223.36244 54.209373 222.76869Q53.69375 222.17494 52.9125 222.17494Q52.13125 222.17494 51.6 222.76869Q51.084373 223.34682 51.084373 224.54994ZM57.646873 227.65932L57.646873 222.25307L56.709373 222.25307L56.709373 221.44057L57.646873 221.44057L57.646873 220.76869Q57.646873 220.14369 57.75625 219.84682Q57.9125 219.42494 58.2875 219.17494Q58.678123 218.92494 59.365623 218.92494Q59.81875 218.92494 60.35 219.03432L60.19375 219.94057Q59.865623 219.89369 59.56875 219.89369Q59.084373 219.89369 58.88125 220.09682Q58.69375 220.29994 58.69375 220.86244L58.69375 221.44057L59.9125 221.44057L59.9125 222.25307L58.69375 222.25307L58.69375 227.65932L57.646873 227.65932ZM60.646873 227.65932L60.646873 222.25307L59.709373 222.25307L59.709373 221.44057L60.646873 221.44057L60.646873 220.76869Q60.646873 220.14369 60.75625 219.84682Q60.9125 219.42494 61.2875 219.17494Q61.678123 218.92494 62.365623 218.92494Q62.81875 218.92494 63.35 219.03432L63.19375 219.94057Q62.865623 219.89369 62.56875 219.89369Q62.084373 219.89369 61.88125 220.09682Q61.69375 220.29994 61.69375 220.86244L61.69375 221.44057L62.9125 221.44057L62.9125 222.25307L61.69375 222.25307L61.69375 227.65932L60.646873 227.65932ZM62.975 225.79994L64.00625 225.64369Q64.1 226.26869 64.49062 226.59682Q64.89687 226.92494 65.63125 226.92494Q66.35 226.92494 66.69375 226.64369Q67.05312 226.34682 67.05312 225.94057Q67.05312 225.58119 66.74062 225.37807Q66.52187 225.23744 65.6625 225.01869Q64.50625 224.72182 64.05312 224.51869Q63.615623 224.29994 63.38125 223.92494Q63.146873 223.54994 63.146873 223.08119Q63.146873 222.67494 63.334373 222.31557Q63.521873 221.95619 63.85 221.72182Q64.1 221.54994 64.52187 221.42494Q64.94375 221.29994 65.44375 221.29994Q66.1625 221.29994 66.70937 221.51869Q67.27187 221.72182 67.5375 222.08119Q67.80312 222.44057 67.89687 223.03432L66.86562 223.17494Q66.80312 222.70619 66.45937 222.44057Q66.13125 222.15932 65.50625 222.15932Q64.7875 222.15932 64.475 222.40932Q64.1625 222.64369 64.1625 222.97182Q64.1625 223.17494 64.2875 223.33119Q64.42812 223.50307 64.69375 223.61244Q64.85 223.67494 65.63125 223.87807Q66.75625 224.19057 67.19375 224.37807Q67.63125 224.56557 67.88125 224.92494Q68.13125 225.28432 68.13125 225.83119Q68.13125 226.36244 67.81875 226.83119Q67.52187 227.28432 66.94375 227.54994Q66.36562 227.79994 65.63125 227.79994Q64.4125 227.79994 63.771873 227.29994Q63.146873 226.78432 62.975 225.79994ZM74.64687 225.65932L75.74062 225.78432Q75.49062 226.73744 74.7875 227.26869Q74.08437 227.79994 73.00625 227.79994Q71.64687 227.79994 70.83437 226.95619Q70.0375 226.11244 70.0375 224.59682Q70.0375 223.03432 70.85 222.17494Q71.6625 221.29994 72.94375 221.29994Q74.19375 221.29994 74.975 222.14369Q75.77187 222.98744 75.77187 224.53432Q75.77187 224.62807 75.77187 224.81557L71.13125 224.81557Q71.19375 225.84682 71.70937 226.39369Q72.225 226.92494 73.00625 226.92494Q73.58437 226.92494 73.99062 226.62807Q74.4125 226.31557 74.64687 225.65932ZM71.19375 223.95619L74.6625 223.95619Q74.6 223.15932 74.27187 222.76869Q73.75625 222.15932 72.95937 222.15932Q72.225 222.15932 71.725 222.64369Q71.24062 223.12807 71.19375 223.95619ZM79.69375 226.72182L79.85 227.64369Q79.39687 227.73744 79.05312 227.73744Q78.475 227.73744 78.1625 227.56557Q77.85 227.37807 77.70937 227.08119Q77.58437 226.78432 77.58437 225.83119L77.58437 222.25307L76.81875 222.25307L76.81875 221.44057L77.58437 221.44057L77.58437 219.89369L78.63125 219.26869L78.63125 221.44057L79.69375 221.44057L79.69375 222.25307L78.63125 222.25307L78.63125 225.89369Q78.63125 226.34682 78.67812 226.47182Q78.74062 226.59682 78.86562 226.67494Q78.99062 226.75307 79.225 226.75307Q79.4125 226.75307 79.69375 226.72182Z" fill-rule="nonzero"/><path fill="#9e9e9e" d="M15.1625 237.19057L15.1625 236.17494L20.725 236.17494L20.725 237.00307Q19.9125 237.87807 19.1 239.33119Q18.303125 240.76869 17.865625 242.29994Q17.5375 243.37807 17.459375 244.65932L16.365625 244.65932Q16.38125 243.64369 16.75625 242.20619Q17.146875 240.76869 17.85 239.44057Q18.56875 238.11244 19.38125 237.19057L15.1625 237.19057ZM25.475 244.65932L25.475 242.59682L21.75625 242.59682L21.75625 241.62807L25.678125 236.06557L26.5375 236.06557L26.5375 241.62807L27.69375 241.62807L27.69375 242.59682L26.5375 242.59682L26.5375 244.65932L25.475 244.65932ZM25.475 241.62807L25.475 237.76869L22.7875 241.62807L25.475 241.62807ZM29.69375 244.65932L29.69375 243.45619L30.896875 243.45619L30.896875 244.65932L29.69375 244.65932ZM37.646873 243.64369L37.646873 244.65932L31.959375 244.65932Q31.959375 244.28432 32.084373 243.92494Q32.303123 243.34682 32.771873 242.78432Q33.25625 242.22182 34.1625 241.48744Q35.56875 240.33119 36.053123 239.65932Q36.553123 238.98744 36.553123 238.39369Q36.553123 237.76869 36.1 237.34682Q35.646873 236.90932 34.928123 236.90932Q34.1625 236.90932 33.709373 237.36244Q33.25625 237.81557 33.240623 238.62807L32.1625 238.51869Q32.271873 237.29994 32.990623 236.67494Q33.725 236.03432 34.959373 236.03432Q36.19375 236.03432 36.9125 236.72182Q37.63125 237.40932 37.63125 238.42494Q37.63125 238.94057 37.4125 239.44057Q37.209373 239.92494 36.709373 240.48744Q36.225 241.03432 35.1 241.98744Q34.146873 242.78432 33.865623 243.08119Q33.6 243.36244 33.428123 243.64369L37.646873 243.64369ZM39.303123 238.12807Q39.303123 237.20619 39.75625 236.56557Q40.225 235.92494 41.1 235.92494Q41.9125 235.92494 42.44375 236.50307Q42.975 237.08119 42.975 238.19057Q42.975 239.28432 42.428123 239.87807Q41.896873 240.45619 41.115623 240.45619Q40.334373 240.45619 39.81875 239.87807Q39.303123 239.29994 39.303123 238.12807ZM41.13125 236.64369Q40.740623 236.64369 40.475 236.98744Q40.225 237.33119 40.225 238.23744Q40.225 239.06557 40.475 239.40932Q40.740623 239.73744 41.13125 239.73744Q41.5375 239.73744 41.7875 239.39369Q42.053123 239.04994 42.053123 238.15932Q42.053123 237.31557 41.7875 236.98744Q41.521873 236.64369 41.13125 236.64369ZM41.13125 244.97182L45.834373 235.92494L46.69375 235.92494L42.00625 244.97182L41.13125 244.97182ZM44.85 242.64369Q44.85 241.72182 45.303123 241.08119Q45.771873 240.44057 46.6625 240.44057Q47.475 240.44057 48.00625 241.01869Q48.5375 241.58119 48.5375 242.70619Q48.5375 243.79994 47.990623 244.39369Q47.459373 244.97182 46.6625 244.97182Q45.896873 244.97182 45.365623 244.39369Q44.85 243.81557 44.85 242.64369ZM46.69375 241.15932Q46.2875 241.15932 46.021873 241.50307Q45.771873 241.84682 45.771873 242.75307Q45.771873 243.56557 46.0375 243.90932Q46.303123 244.25307 46.69375 244.25307Q47.084373 244.25307 47.35 243.90932Q47.615623 243.56557 47.615623 242.65932Q47.615623 241.83119 47.35 241.50307Q47.084373 241.15932 46.69375 241.15932Z" fill-rule="nonzero"/><path stroke="#757575" stroke-width="1.0" stroke-linecap="butt" d="M14.6 232.15932L97.6 232.15932L144.67226 232.15932" fill-rule="nonzero"/><path fill="#9e9e9e" d="M146.67226 232.15932C146.67226 231.05475 145.77682 230.15932 144.67226 230.15932C143.56769 230.15932 142.67226 231.05475 142.67226 232.15932C142.67226 233.26389 143.56769 234.15932 144.67226 234.15932C145.77682 234.15932 146.67226 233.26389 146.67226 232.15932" fill-rule="nonzero"/><path fill="#1a1a1a" d="M415.275 25.6L415.275 17.00625L416.41562 17.00625L416.41562 24.584375L420.65 24.584375L420.65 25.6L415.275 25.6ZM422.19687 18.225L422.19687 17.00625L423.25937 17.00625L423.25937 18.225L422.19687 18.225ZM422.19687 25.6L422.19687 19.38125L423.25937 19.38125L423.25937 25.6L422.19687 25.6ZM427.49374 24.6625L427.65 25.584375Q427.19687 25.678125 426.85312 25.678125Q426.275 25.678125 425.9625 25.50625Q425.65 25.31875 425.50937 25.021875Q425.38437 24.725 425.38437 23.771875L425.38437 20.19375L424.61874 20.19375L424.61874 19.38125L425.38437 19.38125L425.38437 17.834375L426.43124 17.209375L426.43124 19.38125L427.49374 19.38125L427.49374 20.19375L426.43124 20.19375L426.43124 23.834375Q426.43124 24.2875 426.47812 24.4125Q426.54062 24.5375 426.66562 24.615625Q426.79062 24.69375 427.025 24.69375Q427.2125 24.69375 427.49374 24.6625ZM432.44687 23.6L433.54062 23.725Q433.29062 24.678125 432.5875 25.209375Q431.88437 25.740625 430.80624 25.740625Q429.44687 25.740625 428.63437 24.896875Q427.8375 24.053125 427.8375 22.5375Q427.8375 20.975 428.65 20.115625Q429.4625 19.240625 430.74374 19.240625Q431.99374 19.240625 432.775 20.084375Q433.57187 20.928125 433.57187 22.475Q433.57187 22.56875 433.57187 22.75625L428.93124 22.75625Q428.99374 23.7875 429.50937 24.334375Q430.025 24.865625 430.80624 24.865625Q431.38437 24.865625 431.79062 24.56875Q432.2125 24.25625 432.44687 23.6ZM428.99374 21.896875L432.4625 21.896875Q432.4 21.1 432.07187 20.709375Q431.55624 20.1 430.75937 20.1Q430.025 20.1 429.525 20.584375Q429.04062 21.06875 428.99374 21.896875ZM435.18124 25.6L435.18124 19.38125L436.13437 19.38125L436.13437 20.31875Q436.49374 19.6625 436.79062 19.459375Q437.10312 19.240625 437.47812 19.240625Q438.00937 19.240625 438.55624 19.56875L438.19687 20.553125Q437.80624 20.31875 437.43124 20.31875Q437.07187 20.31875 436.79062 20.5375Q436.525 20.740625 436.41562 21.115625Q436.22812 21.678125 436.22812 22.334375L436.22812 25.6L435.18124 25.6ZM443.25937 24.834375Q442.66562 25.334375 442.11874 25.5375Q441.5875 25.740625 440.9625 25.740625Q439.93124 25.740625 439.38437 25.240625Q438.8375 24.740625 438.8375 23.959375Q438.8375 23.50625 439.04062 23.13125Q439.24374 22.740625 439.5875 22.521875Q439.93124 22.2875 440.35312 22.178125Q440.65 22.084375 441.29062 22.00625Q442.55624 21.865625 443.16562 21.646875Q443.16562 21.428125 443.16562 21.38125Q443.16562 20.725 442.86874 20.459375Q442.4625 20.115625 441.66562 20.115625Q440.93124 20.115625 440.57187 20.38125Q440.2125 20.63125 440.04062 21.2875L439.00937 21.146875Q439.15 20.490625 439.47812 20.084375Q439.80624 19.678125 440.41562 19.459375Q441.025 19.240625 441.82187 19.240625Q442.61874 19.240625 443.11874 19.428125Q443.61874 19.615625 443.85312 19.896875Q444.0875 20.178125 444.18124 20.615625Q444.22812 20.88125 444.22812 21.584375L444.22812 22.990625Q444.22812 24.459375 444.29062 24.85Q444.36874 25.240625 444.57187 25.6L443.4625 25.6Q443.30624 25.271875 443.25937 24.834375ZM443.16562 22.475Q442.5875 22.709375 441.44687 22.88125Q440.79062 22.975 440.525 23.1Q440.25937 23.209375 440.10312 23.428125Q439.9625 23.646875 439.9625 23.928125Q439.9625 24.35 440.275 24.63125Q440.60312 24.9125 441.2125 24.9125Q441.82187 24.9125 442.29062 24.646875Q442.775 24.38125 442.99374 23.9125Q443.16562 23.553125 443.16562 22.865625L443.16562 22.475ZM446.16562 25.6L446.16562 17.00625L447.22812 17.00625L447.22812 25.6L446.16562 25.6ZM448.775 23.740625L449.80624 23.584375Q449.9 24.209375 450.29062 24.5375Q450.69687 24.865625 451.43124 24.865625Q452.15 24.865625 452.49374 24.584375Q452.85312 24.2875 452.85312 23.88125Q452.85312 23.521875 452.54062 23.31875Q452.32187 23.178125 451.4625 22.959375Q450.30624 22.6625 449.85312 22.459375Q449.41562 22.240625 449.18124 21.865625Q448.94687 21.490625 448.94687 21.021875Q448.94687 20.615625 449.13437 20.25625Q449.32187 19.896875 449.65 19.6625Q449.9 19.490625 450.32187 19.365625Q450.74374 19.240625 451.24374 19.240625Q451.9625 19.240625 452.50937 19.459375Q453.07187 19.6625 453.3375 20.021875Q453.60312 20.38125 453.69687 20.975L452.66562 21.115625Q452.60312 20.646875 452.25937 20.38125Q451.93124 20.1 451.30624 20.1Q450.5875 20.1 450.275 20.35Q449.9625 20.584375 449.9625 20.9125Q449.9625 21.115625 450.0875 21.271875Q450.22812 21.44375 450.49374 21.553125Q450.65 21.615625 451.43124 21.81875Q452.55624 22.13125 452.99374 22.31875Q453.43124 22.50625 453.68124 22.865625Q453.93124 23.225 453.93124 23.771875Q453.93124 24.303125 453.61874 24.771875Q453.32187 25.225 452.74374 25.490625Q452.16562 25.740625 451.43124 25.740625Q450.2125 25.740625 449.57187 25.240625Q448.94687 24.725 448.775 23.740625Z" fill-rule="nonzero"/><path fill="#9e9e9e" d="M433.36874 36.115623L432.32187 36.19375Q432.18124 35.56875 431.93124 35.2875Q431.49374 34.834373 430.86874 34.834373Q430.36874 34.834373 429.97812 35.115623Q429.49374 35.490623 429.19687 36.19375Q428.91562 36.88125 428.9 38.1625Q429.275 37.584373 429.82187 37.303123Q430.38437 37.021873 430.99374 37.021873Q432.04062 37.021873 432.775 37.803123Q433.525 38.584373 433.525 39.803123Q433.525 40.615623 433.16562 41.31875Q432.82187 42.00625 432.2125 42.38125Q431.60312 42.740623 430.8375 42.740623Q429.50937 42.740623 428.68124 41.771873Q427.85312 40.803123 427.85312 38.584373Q427.85312 36.084373 428.775 34.959373Q429.57187 33.975 430.93124 33.975Q431.94687 33.975 432.5875 34.553123Q433.24374 35.115623 433.36874 36.115623ZM429.07187 39.81875Q429.07187 40.365623 429.29062 40.865623Q429.525 41.35 429.93124 41.615623Q430.35312 41.88125 430.82187 41.88125Q431.47812 41.88125 431.9625 41.35Q432.44687 40.803123 432.44687 39.88125Q432.44687 38.990623 431.9625 38.475Q431.49374 37.959373 430.775 37.959373Q430.05624 37.959373 429.55624 38.475Q429.07187 38.990623 429.07187 39.81875ZM435.49374 42.6L435.49374 41.396873L436.69687 41.396873L436.69687 42.6L435.49374 42.6ZM437.9 38.365623Q437.9 36.834373 438.2125 35.9125Q438.525 34.975 439.13437 34.475Q439.75937 33.975 440.69687 33.975Q441.38437 33.975 441.9 34.25625Q442.43124 34.5375 442.775 35.06875Q443.11874 35.584373 443.30624 36.334373Q443.49374 37.084373 443.49374 38.365623Q443.49374 39.88125 443.18124 40.803123Q442.88437 41.725 442.25937 42.240623Q441.65 42.740623 440.69687 42.740623Q439.4625 42.740623 438.74374 41.85Q437.9 40.7875 437.9 38.365623ZM438.97812 38.365623Q438.97812 40.475 439.47812 41.178123Q439.97812 41.88125 440.69687 41.88125Q441.43124 41.88125 441.91562 41.178123Q442.41562 40.475 442.41562 38.365623Q442.41562 36.240623 441.91562 35.553123Q441.43124 34.85 440.68124 34.85Q439.9625 34.85 439.525 35.459373Q438.97812 36.240623 438.97812 38.365623ZM445.10312 36.06875Q445.10312 35.146873 445.55624 34.50625Q446.025 33.865623 446.9 33.865623Q447.7125 33.865623 448.24374 34.44375Q448.775 35.021873 448.775 36.13125Q448.775 37.225 448.22812 37.81875Q447.69687 38.396873 446.91562 38.396873Q446.13437 38.396873 445.61874 37.81875Q445.10312 37.240623 445.10312 36.06875ZM446.93124 34.584373Q446.54062 34.584373 446.275 34.928123Q446.025 35.271873 446.025 36.178123Q446.025 37.00625 446.275 37.35Q446.54062 37.678123 446.93124 37.678123Q447.3375 37.678123 447.5875 37.334373Q447.85312 36.990623 447.85312 36.1Q447.85312 35.25625 447.5875 34.928123Q447.32187 34.584373 446.93124 34.584373ZM446.93124 42.9125L451.63437 33.865623L452.49374 33.865623L447.80624 42.9125L446.93124 42.9125ZM450.65 40.584373Q450.65 39.6625 451.10312 39.021873Q451.57187 38.38125 452.4625 38.38125Q453.275 38.38125 453.80624 38.959373Q454.3375 39.521873 454.3375 40.646873Q454.3375 41.740623 453.79062 42.334373Q453.25937 42.9125 452.4625 42.9125Q451.69687 42.9125 451.16562 42.334373Q450.65 41.75625 450.65 40.584373ZM452.49374 39.1Q452.0875 39.1 451.82187 39.44375Q451.57187 39.7875 451.57187 40.69375Q451.57187 41.50625 451.8375 41.85Q452.10312 42.19375 452.49374 42.19375Q452.88437 42.19375 453.15 41.85Q453.41562 41.50625 453.41562 40.6Q453.41562 39.771873 453.15 39.44375Q452.88437 39.1 452.49374 39.1Z" fill-rule="nonzero"/><path stroke="#757575" stroke-width="1.0" stroke-linecap="butt" d="M455.4 30.1L372.4 30.1L258.29166 23.362211" fill-rule="nonzero"/><path fill="#9e9e9e" d="M260.29166 23.362211C260.29166 22.25764 259.39624 21.362211 258.29166 21.362211C257.1871 21.362211 256.29166 22.25764 256.29166 23.362211C256.29166 24.46678 257.1871 25.362211 258.29166 25.362211C259.39624 25.362211 260.29166 24.46678 260.29166 23.362211" fill-rule="nonzero"/><path fill="#1a1a1a" d="M378.275 56.6L378.275 48.00625L379.41562 48.00625L379.41562 55.584373L383.65 55.584373L383.65 56.6L378.275 56.6ZM385.19687 49.225L385.19687 48.00625L386.25937 48.00625L386.25937 49.225L385.19687 49.225ZM385.19687 56.6L385.19687 50.38125L386.25937 50.38125L386.25937 56.6L385.19687 56.6ZM390.49374 55.6625L390.65 56.584373Q390.19687 56.678123 389.85312 56.678123Q389.275 56.678123 388.9625 56.50625Q388.65 56.31875 388.50937 56.021873Q388.38437 55.725 388.38437 54.771873L388.38437 51.19375L387.61874 51.19375L387.61874 50.38125L388.38437 50.38125L388.38437 48.834373L389.43124 48.209373L389.43124 50.38125L390.49374 50.38125L390.49374 51.19375L389.43124 51.19375L389.43124 54.834373Q389.43124 55.2875 389.47812 55.4125Q389.54062 55.5375 389.66562 55.615623Q389.79062 55.69375 390.025 55.69375Q390.2125 55.69375 390.49374 55.6625ZM395.44687 54.6L396.54062 54.725Q396.29062 55.678123 395.5875 56.209373Q394.88437 56.740623 393.80624 56.740623Q392.44687 56.740623 391.63437 55.896873Q390.8375 55.053123 390.8375 53.5375Q390.8375 51.975 391.65 51.115623Q392.4625 50.240623 393.74374 50.240623Q394.99374 50.240623 395.775 51.084373Q396.57187 51.928123 396.57187 53.475Q396.57187 53.56875 396.57187 53.75625L391.93124 53.75625Q391.99374 54.7875 392.50937 55.334373Q393.025 55.865623 393.80624 55.865623Q394.38437 55.865623 394.79062 55.56875Q395.2125 55.25625 395.44687 54.6ZM391.99374 52.896873L395.4625 52.896873Q395.4 52.1 395.07187 51.709373Q394.55624 51.1 393.75937 51.1Q393.025 51.1 392.525 51.584373Q392.04062 52.06875 391.99374 52.896873ZM398.18124 56.6L398.18124 50.38125L399.13437 50.38125L399.13437 51.31875Q399.49374 50.6625 399.79062 50.459373Q400.10312 50.240623 400.47812 50.240623Q401.00937 50.240623 401.55624 50.56875L401.19687 51.553123Q400.80624 51.31875 400.43124 51.31875Q400.07187 51.31875 399.79062 51.5375Q399.525 51.740623 399.41562 52.115623Q399.22812 52.678123 399.22812 53.334373L399.22812 56.6L398.18124 56.6ZM406.25937 55.834373Q405.66562 56.334373 405.11874 56.5375Q404.5875 56.740623 403.9625 56.740623Q402.93124 56.740623 402.38437 56.240623Q401.8375 55.740623 401.8375 54.959373Q401.8375 54.50625 402.04062 54.13125Q402.24374 53.740623 402.5875 53.521873Q402.93124 53.2875 403.35312 53.178123Q403.65 53.084373 404.29062 53.00625Q405.55624 52.865623 406.16562 52.646873Q406.16562 52.428123 406.16562 52.38125Q406.16562 51.725 405.86874 51.459373Q405.4625 51.115623 404.66562 51.115623Q403.93124 51.115623 403.57187 51.38125Q403.2125 51.63125 403.04062 52.2875L402.00937 52.146873Q402.15 51.490623 402.47812 51.084373Q402.80624 50.678123 403.41562 50.459373Q404.025 50.240623 404.82187 50.240623Q405.61874 50.240623 406.11874 50.428123Q406.61874 50.615623 406.85312 50.896873Q407.0875 51.178123 407.18124 51.615623Q407.22812 51.88125 407.22812 52.584373L407.22812 53.990623Q407.22812 55.459373 407.29062 55.85Q407.36874 56.240623 407.57187 56.6L406.4625 56.6Q406.30624 56.271873 406.25937 55.834373ZM406.16562 53.475Q405.5875 53.709373 404.44687 53.88125Q403.79062 53.975 403.525 54.1Q403.25937 54.209373 403.10312 54.428123Q402.9625 54.646873 402.9625 54.928123Q402.9625 55.35 403.275 55.63125Q403.60312 55.9125 404.2125 55.9125Q404.82187 55.9125 405.29062 55.646873Q405.775 55.38125 405.99374 54.9125Q406.16562 54.553123 406.16562 53.865623L406.16562 53.475ZM409.16562 56.6L409.16562 48.00625L410.22812 48.00625L410.22812 56.6L409.16562 56.6ZM411.775 54.740623L412.80624 54.584373Q412.9 55.209373 413.29062 55.5375Q413.69687 55.865623 414.43124 55.865623Q415.15 55.865623 415.49374 55.584373Q415.85312 55.2875 415.85312 54.88125Q415.85312 54.521873 415.54062 54.31875Q415.32187 54.178123 414.4625 53.959373Q413.30624 53.6625 412.85312 53.459373Q412.41562 53.240623 412.18124 52.865623Q411.94687 52.490623 411.94687 52.021873Q411.94687 51.615623 412.13437 51.25625Q412.32187 50.896873 412.65 50.6625Q412.9 50.490623 413.32187 50.365623Q413.74374 50.240623 414.24374 50.240623Q414.9625 50.240623 415.50937 50.459373Q416.07187 50.6625 416.3375 51.021873Q416.60312 51.38125 416.69687 51.975L415.66562 52.115623Q415.60312 51.646873 415.25937 51.38125Q414.93124 51.1 414.30624 51.1Q413.5875 51.1 413.275 51.35Q412.9625 51.584373 412.9625 51.9125Q412.9625 52.115623 413.0875 52.271873Q413.22812 52.44375 413.49374 52.553123Q413.65 52.615623 414.43124 52.81875Q415.55624 53.13125 415.99374 53.31875Q416.43124 53.50625 416.68124 53.865623Q416.93124 54.225 416.93124 54.771873Q416.93124 55.303123 416.61874 55.771873Q416.32187 56.225 415.74374 56.490623Q415.16562 56.740623 414.43124 56.740623Q413.2125 56.740623 412.57187 56.240623Q411.94687 55.725 411.775 54.740623ZM422.16562 56.6L422.16562 48.00625L423.22812 48.00625L423.22812 56.6L422.16562 56.6ZM429.44687 54.6L430.54062 54.725Q430.29062 55.678123 429.5875 56.209373Q428.88437 56.740623 427.80624 56.740623Q426.44687 56.740623 425.63437 55.896873Q424.8375 55.053123 424.8375 53.5375Q424.8375 51.975 425.65 51.115623Q426.4625 50.240623 427.74374 50.240623Q428.99374 50.240623 429.775 51.084373Q430.57187 51.928123 430.57187 53.475Q430.57187 53.56875 430.57187 53.75625L425.93124 53.75625Q425.99374 54.7875 426.50937 55.334373Q427.025 55.865623 427.80624 55.865623Q428.38437 55.865623 428.79062 55.56875Q429.2125 55.25625 429.44687 54.6ZM425.99374 52.896873L429.4625 52.896873Q429.4 52.1 429.07187 51.709373Q428.55624 51.1 427.75937 51.1Q427.025 51.1 426.525 51.584373Q426.04062 52.06875 425.99374 52.896873ZM432.19687 56.6L432.19687 50.38125L433.13437 50.38125L433.13437 51.25625Q433.82187 50.240623 435.11874 50.240623Q435.68124 50.240623 436.15 50.44375Q436.63437 50.646873 436.86874 50.975Q437.10312 51.303123 437.19687 51.740623Q437.24374 52.0375 437.24374 52.771873L437.24374 56.6L436.19687 56.6L436.19687 52.81875Q436.19687 52.1625 436.07187 51.85Q435.94687 51.5375 435.63437 51.35Q435.32187 51.146873 434.9 51.146873Q434.22812 51.146873 433.72812 51.584373Q433.24374 52.00625 433.24374 53.19375L433.24374 56.6L432.19687 56.6ZM438.99374 57.115623L440.025 57.271873Q440.0875 57.740623 440.38437 57.959373Q440.775 58.25625 441.44687 58.25625Q442.18124 58.25625 442.57187 57.959373Q442.97812 57.6625 443.11874 57.146873Q443.2125 56.81875 443.19687 55.7875Q442.50937 56.6 441.47812 56.6Q440.19687 56.6 439.49374 55.678123Q438.79062 54.740623 438.79062 53.459373Q438.79062 52.56875 439.10312 51.81875Q439.43124 51.053123 440.04062 50.646873Q440.65 50.240623 441.47812 50.240623Q442.5875 50.240623 443.30624 51.13125L443.30624 50.38125L444.275 50.38125L444.275 55.75625Q444.275 57.209373 443.97812 57.81875Q443.68124 58.428123 443.04062 58.771873Q442.4 59.13125 441.4625 59.13125Q440.35312 59.13125 439.66562 58.63125Q438.97812 58.13125 438.99374 57.115623ZM439.86874 53.38125Q439.86874 54.6 440.35312 55.1625Q440.8375 55.725 441.57187 55.725Q442.30624 55.725 442.79062 55.1625Q443.29062 54.6 443.29062 53.4125Q443.29062 52.271873 442.775 51.69375Q442.275 51.115623 441.55624 51.115623Q440.85312 51.115623 440.35312 51.69375Q439.86874 52.25625 439.86874 53.38125ZM448.49374 55.6625L448.65 56.584373Q448.19687 56.678123 447.85312 56.678123Q447.275 56.678123 446.9625 56.50625Q446.65 56.31875 446.50937 56.021873Q446.38437 55.725 446.38437 54.771873L446.38437 51.19375L445.61874 51.19375L445.61874 50.38125L446.38437 50.38125L446.38437 48.834373L447.43124 48.209373L447.43124 50.38125L448.49374 50.38125L448.49374 51.19375L447.43124 51.19375L447.43124 54.834373Q447.43124 55.2875 447.47812 55.4125Q447.54062 55.5375 447.66562 55.615623Q447.79062 55.69375 448.025 55.69375Q448.2125 55.69375 448.49374 55.6625ZM449.19687 56.6L449.19687 48.00625L450.24374 48.00625L450.24374 51.084373Q450.97812 50.240623 452.10312 50.240623Q452.80624 50.240623 453.30624 50.521873Q453.82187 50.7875 454.04062 51.271873Q454.25937 51.740623 454.25937 52.6625L454.25937 56.6L453.2125 56.6L453.2125 52.6625Q453.2125 51.865623 452.86874 51.50625Q452.525 51.146873 451.9 51.146873Q451.43124 51.146873 451.00937 51.396873Q450.60312 51.63125 450.41562 52.053123Q450.24374 52.459373 450.24374 53.19375L450.24374 56.6L449.19687 56.6Z" fill-rule="nonzero"/><path fill="#9e9e9e" d="M427.9 71.33437L428.9625 71.19375Q429.13437 72.08437 429.57187 72.49062Q430.00937 72.88125 430.63437 72.88125Q431.38437 72.88125 431.9 72.36562Q432.41562 71.85 432.41562 71.08437Q432.41562 70.36562 431.93124 69.89687Q431.4625 69.4125 430.72812 69.4125Q430.43124 69.4125 429.97812 69.5375L430.10312 68.6Q430.2125 68.61562 430.275 68.61562Q430.94687 68.61562 431.47812 68.27187Q432.025 67.9125 432.025 67.17812Q432.025 66.6 431.63437 66.225Q431.24374 65.83437 430.61874 65.83437Q430.00937 65.83437 429.5875 66.225Q429.18124 66.61562 429.07187 67.38125L428.00937 67.19375Q428.19687 66.14687 428.88437 65.56875Q429.57187 64.975 430.5875 64.975Q431.29062 64.975 431.88437 65.2875Q432.47812 65.58437 432.79062 66.1Q433.10312 66.61562 433.10312 67.20937Q433.10312 67.75625 432.80624 68.225Q432.50937 68.67812 431.93124 68.94375Q432.68124 69.11562 433.10312 69.67812Q433.525 70.225 433.525 71.06875Q433.525 72.19375 432.69687 72.975Q431.88437 73.75625 430.63437 73.75625Q429.50937 73.75625 428.75937 73.08437Q428.00937 72.39687 427.9 71.33437ZM435.49374 73.6L435.49374 72.39687L436.69687 72.39687L436.69687 73.6L435.49374 73.6ZM437.9 71.35L439.00937 71.25625Q439.13437 72.06875 439.57187 72.475Q440.025 72.88125 440.66562 72.88125Q441.41562 72.88125 441.94687 72.30312Q442.47812 71.725 442.47812 70.7875Q442.47812 69.88125 441.9625 69.36562Q441.4625 68.83437 440.63437 68.83437Q440.13437 68.83437 439.7125 69.06875Q439.30624 69.30312 439.07187 69.6625L438.0875 69.5375L438.91562 65.13125L443.19687 65.13125L443.19687 66.13125L439.75937 66.13125L439.30624 68.44375Q440.07187 67.89687 440.91562 67.89687Q442.04062 67.89687 442.80624 68.67812Q443.5875 69.45937 443.5875 70.69375Q443.5875 71.85 442.91562 72.70937Q442.0875 73.74062 440.66562 73.74062Q439.49374 73.74062 438.74374 73.08437Q438.00937 72.42812 437.9 71.35ZM445.10312 67.06875Q445.10312 66.14687 445.55624 65.50625Q446.025 64.86562 446.9 64.86562Q447.7125 64.86562 448.24374 65.44375Q448.775 66.02187 448.775 67.13125Q448.775 68.225 448.22812 68.81875Q447.69687 69.39687 446.91562 69.39687Q446.13437 69.39687 445.61874 68.81875Q445.10312 68.24062 445.10312 67.06875ZM446.93124 65.58437Q446.54062 65.58437 446.275 65.92812Q446.025 66.27187 446.025 67.17812Q446.025 68.00625 446.275 68.35Q446.54062 68.67812 446.93124 68.67812Q447.3375 68.67812 447.5875 68.33437Q447.85312 67.99062 447.85312 67.1Q447.85312 66.25625 447.5875 65.92812Q447.32187 65.58437 446.93124 65.58437ZM446.93124 73.9125L451.63437 64.86562L452.49374 64.86562L447.80624 73.9125L446.93124 73.9125ZM450.65 71.58437Q450.65 70.6625 451.10312 70.02187Q451.57187 69.38125 452.4625 69.38125Q453.275 69.38125 453.80624 69.95937Q454.3375 70.52187 454.3375 71.64687Q454.3375 72.74062 453.79062 73.33437Q453.25937 73.9125 452.4625 73.9125Q451.69687 73.9125 451.16562 73.33437Q450.65 72.75625 450.65 71.58437ZM452.49374 70.1Q452.0875 70.1 451.82187 70.44375Q451.57187 70.7875 451.57187 71.69375Q451.57187 72.50625 451.8375 72.85Q452.10312 73.19375 452.49374 73.19375Q452.88437 73.19375 453.15 72.85Q453.41562 72.50625 453.41562 71.6Q453.41562 70.77187 453.15 70.44375Q452.88437 70.1 452.49374 70.1Z" fill-rule="nonzero"/><path stroke="#757575" stroke-width="1.0" stroke-linecap="butt" d="M455.4 61.1L372.4 61.1L293.30432 35.622753" fill-rule="nonzero"/><path fill="#9e9e9e" d="M295.30432 35.622753C295.30432 34.518185 294.40887 33.622753 293.30432 33.622753C292.19974 33.622753 291.30432 34.518185 291.30432 35.622753C291.30432 36.72732 292.19974 37.622753 293.30432 37.622753C294.40887 37.622753 295.30432 36.72732 295.30432 35.622753" fill-rule="nonzero"/><path fill="#1a1a1a" d="M383.29062 87.6L383.29062 79.00625L385.00937 79.00625L387.04062 85.08437Q387.32187 85.94375 387.44687 86.36562Q387.5875 85.89687 387.9 84.99062L389.9625 79.00625L391.49374 79.00625L391.49374 87.6L390.4 87.6L390.4 80.4125L387.9 87.6L386.86874 87.6L384.38437 80.2875L384.38437 87.6L383.29062 87.6ZM396.25937 86.83437Q395.66562 87.33437 395.11874 87.5375Q394.5875 87.74062 393.9625 87.74062Q392.93124 87.74062 392.38437 87.24062Q391.8375 86.74062 391.8375 85.95937Q391.8375 85.50625 392.04062 85.13125Q392.24374 84.74062 392.5875 84.52187Q392.93124 84.2875 393.35312 84.17812Q393.65 84.08437 394.29062 84.00625Q395.55624 83.86562 396.16562 83.64687Q396.16562 83.42812 396.16562 83.38125Q396.16562 82.725 395.86874 82.45937Q395.4625 82.11562 394.66562 82.11562Q393.93124 82.11562 393.57187 82.38125Q393.2125 82.63125 393.04062 83.2875L392.00937 83.14687Q392.15 82.49062 392.47812 82.08437Q392.80624 81.67812 393.41562 81.45937Q394.025 81.24062 394.82187 81.24062Q395.61874 81.24062 396.11874 81.42812Q396.61874 81.61562 396.85312 81.89687Q397.0875 82.17812 397.18124 82.61562Q397.22812 82.88125 397.22812 83.58437L397.22812 84.99062Q397.22812 86.45937 397.29062 86.85Q397.36874 87.24062 397.57187 87.6L396.4625 87.6Q396.30624 87.27187 396.25937 86.83437ZM396.16562 84.475Q395.5875 84.70937 394.44687 84.88125Q393.79062 84.975 393.525 85.1Q393.25937 85.20937 393.10312 85.42812Q392.9625 85.64687 392.9625 85.92812Q392.9625 86.35 393.275 86.63125Q393.60312 86.9125 394.2125 86.9125Q394.82187 86.9125 395.29062 86.64687Q395.775 86.38125 395.99374 85.9125Q396.16562 85.55312 396.16562 84.86562L396.16562 84.475ZM401.49374 86.6625L401.65 87.58437Q401.19687 87.67812 400.85312 87.67812Q400.275 87.67812 399.9625 87.50625Q399.65 87.31875 399.50937 87.02187Q399.38437 86.725 399.38437 85.77187L399.38437 82.19375L398.61874 82.19375L398.61874 81.38125L399.38437 81.38125L399.38437 79.83437L400.43124 79.20937L400.43124 81.38125L401.49374 81.38125L401.49374 82.19375L400.43124 82.19375L400.43124 85.83437Q400.43124 86.2875 400.47812 86.4125Q400.54062 86.5375 400.66562 86.61562Q400.79062 86.69375 401.025 86.69375Q401.2125 86.69375 401.49374 86.6625ZM406.25937 85.31875L407.29062 85.45937Q407.11874 86.52187 406.41562 87.13125Q405.7125 87.74062 404.69687 87.74062Q403.41562 87.74062 402.63437 86.9125Q401.86874 86.06875 401.86874 84.50625Q401.86874 83.50625 402.19687 82.75625Q402.54062 81.99062 403.2125 81.61562Q403.9 81.24062 404.7125 81.24062Q405.7125 81.24062 406.35312 81.75625Q407.00937 82.25625 407.19687 83.20937L406.16562 83.36562Q406.025 82.74062 405.65 82.42812Q405.275 82.1 404.74374 82.1Q403.94687 82.1 403.44687 82.67812Q402.94687 83.24062 402.94687 84.475Q402.94687 85.74062 403.43124 86.30312Q403.91562 86.86562 404.68124 86.86562Q405.30624 86.86562 405.7125 86.49062Q406.13437 86.11562 406.25937 85.31875ZM408.19687 87.6L408.19687 79.00625L409.24374 79.00625L409.24374 82.08437Q409.97812 81.24062 411.10312 81.24062Q411.80624 81.24062 412.30624 81.52187Q412.82187 81.7875 413.04062 82.27187Q413.25937 82.74062 413.25937 83.6625L413.25937 87.6L412.2125 87.6L412.2125 83.6625Q412.2125 82.86562 411.86874 82.50625Q411.525 82.14687 410.9 82.14687Q410.43124 82.14687 410.00937 82.39687Q409.60312 82.63125 409.41562 83.05312Q409.24374 83.45937 409.24374 84.19375L409.24374 87.6L408.19687 87.6ZM418.275 87.6L418.275 79.00625L419.41562 79.00625L419.41562 86.58437L423.65 86.58437L423.65 87.6L418.275 87.6ZM429.44687 85.6L430.54062 85.725Q430.29062 86.67812 429.5875 87.20937Q428.88437 87.74062 427.80624 87.74062Q426.44687 87.74062 425.63437 86.89687Q424.8375 86.05312 424.8375 84.5375Q424.8375 82.975 425.65 82.11562Q426.4625 81.24062 427.74374 81.24062Q428.99374 81.24062 429.775 82.08437Q430.57187 82.92812 430.57187 84.475Q430.57187 84.56875 430.57187 84.75625L425.93124 84.75625Q425.99374 85.7875 426.50937 86.33437Q427.025 86.86562 427.80624 86.86562Q428.38437 86.86562 428.79062 86.56875Q429.2125 86.25625 429.44687 85.6ZM425.99374 83.89687L429.4625 83.89687Q429.4 83.1 429.07187 82.70937Q428.55624 82.1 427.75937 82.1Q427.025 82.1 426.525 82.58437Q426.04062 83.06875 425.99374 83.89687ZM432.19687 87.6L432.19687 81.38125L433.13437 81.38125L433.13437 82.25625Q433.82187 81.24062 435.11874 81.24062Q435.68124 81.24062 436.15 81.44375Q436.63437 81.64687 436.86874 81.975Q437.10312 82.30312 437.19687 82.74062Q437.24374 83.0375 437.24374 83.77187L437.24374 87.6L436.19687 87.6L436.19687 83.81875Q436.19687 83.1625 436.07187 82.85Q435.94687 82.5375 435.63437 82.35Q435.32187 82.14687 434.9 82.14687Q434.22812 82.14687 433.72812 82.58437Q433.24374 83.00625 433.24374 84.19375L433.24374 87.6L432.19687 87.6ZM438.99374 88.11562L440.025 88.27187Q440.0875 88.74062 440.38437 88.95937Q440.775 89.25625 441.44687 89.25625Q442.18124 89.25625 442.57187 88.95937Q442.97812 88.6625 443.11874 88.14687Q443.2125 87.81875 443.19687 86.7875Q442.50937 87.6 441.47812 87.6Q440.19687 87.6 439.49374 86.67812Q438.79062 85.74062 438.79062 84.45937Q438.79062 83.56875 439.10312 82.81875Q439.43124 82.05312 440.04062 81.64687Q440.65 81.24062 441.47812 81.24062Q442.5875 81.24062 443.30624 82.13125L443.30624 81.38125L444.275 81.38125L444.275 86.75625Q444.275 88.20937 443.97812 88.81875Q443.68124 89.42812 443.04062 89.77187Q442.4 90.13125 441.4625 90.13125Q440.35312 90.13125 439.66562 89.63125Q438.97812 89.13125 438.99374 88.11562ZM439.86874 84.38125Q439.86874 85.6 440.35312 86.1625Q440.8375 86.725 441.57187 86.725Q442.30624 86.725 442.79062 86.1625Q443.29062 85.6 443.29062 84.4125Q443.29062 83.27187 442.775 82.69375Q442.275 82.11562 441.55624 82.11562Q440.85312 82.11562 440.35312 82.69375Q439.86874 83.25625 439.86874 84.38125ZM448.49374 86.6625L448.65 87.58437Q448.19687 87.67812 447.85312 87.67812Q447.275 87.67812 446.9625 87.50625Q446.65 87.31875 446.50937 87.02187Q446.38437 86.725 446.38437 85.77187L446.38437 82.19375L445.61874 82.19375L445.61874 81.38125L446.38437 81.38125L446.38437 79.83437L447.43124 79.20937L447.43124 81.38125L448.49374 81.38125L448.49374 82.19375L447.43124 82.19375L447.43124 85.83437Q447.43124 86.2875 447.47812 86.4125Q447.54062 86.5375 447.66562 86.61562Q447.79062 86.69375 448.025 86.69375Q448.2125 86.69375 448.49374 86.6625ZM449.19687 87.6L449.19687 79.00625L450.24374 79.00625L450.24374 82.08437Q450.97812 81.24062 452.10312 81.24062Q452.80624 81.24062 453.30624 81.52187Q453.82187 81.7875 454.04062 82.27187Q454.25937 82.74062 454.25937 83.6625L454.25937 87.6L453.2125 87.6L453.2125 83.6625Q453.2125 82.86562 452.86874 82.50625Q452.525 82.14687 451.9 82.14687Q451.43124 82.14687 451.00937 82.39687Q450.60312 82.63125 450.41562 83.05312Q450.24374 83.45937 450.24374 84.19375L450.24374 87.6L449.19687 87.6Z" fill-rule="nonzero"/><path fill="#9e9e9e" d="M424.86874 104.6L423.82187 104.6L423.82187 97.88125Q423.43124 98.24062 422.80624 98.61562Q422.19687 98.975 421.7125 99.14687L421.7125 98.13125Q422.5875 97.70937 423.24374 97.13125Q423.91562 96.5375 424.19687 95.975L424.86874 95.975L424.86874 104.6ZM433.36874 98.11562L432.32187 98.19375Q432.18124 97.56875 431.93124 97.2875Q431.49374 96.83437 430.86874 96.83437Q430.36874 96.83437 429.97812 97.11562Q429.49374 97.49062 429.19687 98.19375Q428.91562 98.88125 428.9 100.1625Q429.275 99.58437 429.82187 99.30312Q430.38437 99.02187 430.99374 99.02187Q432.04062 99.02187 432.775 99.80312Q433.525 100.58437 433.525 101.80312Q433.525 102.61562 433.16562 103.31875Q432.82187 104.00625 432.2125 104.38125Q431.60312 104.74062 430.8375 104.74062Q429.50937 104.74062 428.68124 103.77187Q427.85312 102.80312 427.85312 100.58437Q427.85312 98.08437 428.775 96.95937Q429.57187 95.975 430.93124 95.975Q431.94687 95.975 432.5875 96.55312Q433.24374 97.11562 433.36874 98.11562ZM429.07187 101.81875Q429.07187 102.36562 429.29062 102.86562Q429.525 103.35 429.93124 103.61562Q430.35312 103.88125 430.82187 103.88125Q431.47812 103.88125 431.9625 103.35Q432.44687 102.80312 432.44687 101.88125Q432.44687 100.99062 431.9625 100.475Q431.49374 99.95937 430.775 99.95937Q430.05624 99.95937 429.55624 100.475Q429.07187 100.99062 429.07187 101.81875ZM435.49374 104.6L435.49374 103.39687L436.69687 103.39687L436.69687 104.6L435.49374 104.6ZM437.9 102.33437L438.9625 102.19375Q439.13437 103.08437 439.57187 103.49062Q440.00937 103.88125 440.63437 103.88125Q441.38437 103.88125 441.9 103.36562Q442.41562 102.85 442.41562 102.08437Q442.41562 101.36562 441.93124 100.89687Q441.4625 100.4125 440.72812 100.4125Q440.43124 100.4125 439.97812 100.5375L440.10312 99.6Q440.2125 99.61562 440.275 99.61562Q440.94687 99.61562 441.47812 99.27187Q442.025 98.9125 442.025 98.17812Q442.025 97.6 441.63437 97.225Q441.24374 96.83437 440.61874 96.83437Q440.00937 96.83437 439.5875 97.225Q439.18124 97.61562 439.07187 98.38125L438.00937 98.19375Q438.19687 97.14687 438.88437 96.56875Q439.57187 95.975 440.5875 95.975Q441.29062 95.975 441.88437 96.2875Q442.47812 96.58437 442.79062 97.1Q443.10312 97.61562 443.10312 98.20937Q443.10312 98.75625 442.80624 99.225Q442.50937 99.67812 441.93124 99.94375Q442.68124 100.11562 443.10312 100.67812Q443.525 101.225 443.525 102.06875Q443.525 103.19375 442.69687 103.975Q441.88437 104.75625 440.63437 104.75625Q439.50937 104.75625 438.75937 104.08437Q438.00937 103.39687 437.9 102.33437ZM445.10312 98.06875Q445.10312 97.14687 445.55624 96.50625Q446.025 95.86562 446.9 95.86562Q447.7125 95.86562 448.24374 96.44375Q448.775 97.02187 448.775 98.13125Q448.775 99.225 448.22812 99.81875Q447.69687 100.39687 446.91562 100.39687Q446.13437 100.39687 445.61874 99.81875Q445.10312 99.24062 445.10312 98.06875ZM446.93124 96.58437Q446.54062 96.58437 446.275 96.92812Q446.025 97.27187 446.025 98.17812Q446.025 99.00625 446.275 99.35Q446.54062 99.67812 446.93124 99.67812Q447.3375 99.67812 447.5875 99.33437Q447.85312 98.99062 447.85312 98.1Q447.85312 97.25625 447.5875 96.92812Q447.32187 96.58437 446.93124 96.58437ZM446.93124 104.9125L451.63437 95.86562L452.49374 95.86562L447.80624 104.9125L446.93124 104.9125ZM450.65 102.58437Q450.65 101.6625 451.10312 101.02187Q451.57187 100.38125 452.4625 100.38125Q453.275 100.38125 453.80624 100.95937Q454.3375 101.52187 454.3375 102.64687Q454.3375 103.74062 453.79062 104.33437Q453.25937 104.9125 452.4625 104.9125Q451.69687 104.9125 451.16562 104.33437Q450.65 103.75625 450.65 102.58437ZM452.49374 101.1Q452.0875 101.1 451.82187 101.44375Q451.57187 101.7875 451.57187 102.69375Q451.57187 103.50625 451.8375 103.85Q452.10312 104.19375 452.49374 104.19375Q452.88437 104.19375 453.15 103.85Q453.41562 103.50625 453.41562 102.6Q453.41562 101.77187 453.15 101.44375Q452.88437 101.1 452.49374 101.1Z" fill-rule="nonzero"/><path stroke="#757575" stroke-width="1.0" stroke-linecap="butt" d="M455.4 92.1L372.4 92.1L346.65976 90.191154" fill-rule="nonzero"/><path fill="#9e9e9e" d="M348.65976 90.191154C348.65976 89.086586 347.7643 88.191154 346.65976 88.191154C345.55518 88.191154 344.65976 89.086586 344.65976 90.191154C344.65976 91.29572 345.55518 92.191154 346.65976 92.191154C347.7643 92.191154 348.65976 91.29572 348.65976 90.191154" fill-rule="nonzero"/></svg>