<svg version="1.1" viewBox="0.0 0.0 421.0 262.0" fill="none" stroke="none" stroke-linecap="square" stroke-miterlimit="10" width="421" height="262" xmlns:xlink="http://www.w3.org/1999/xlink" xmlns="http://www.w3.org/2000/svg"><path fill="#ffffff" d="M0 0L421.0 0L421.0 262.0L0 262.0L0 0Z" fill-rule="nonzero"/><path fill="#6aa84f" d="M210.5 13.1C225.29655 13.1 239.96089 15.885256 253.72704 21.310287L210.5 131.0Z" fill-rule="nonzero"/><path fill="#93c47d" d="M253.72704 21.310287C261.82355 24.501 269.5419 28.578335 276.74103 33.467777L210.5 131.0Z" fill-rule="nonzero"/><path fill="#434343" d="M276.74103 33.467777C310.6925 56.52661 330.2096 95.58203 328.268 136.57767L210.5 131.0Z" fill-rule="nonzero"/><path fill="#666666" d="M328.268 136.57767C326.2789 178.5755 302.0749 216.33595 264.74432 235.6803L210.5 131.0Z" fill-rule="nonzero"/><path fill="#999999" d="M264.74432 235.6803C221.31808 258.18335 168.50739 251.53735 132.01073 218.97638C95.51405 186.41539 82.91109 134.70172 100.33461 89.00003C117.75814 43.298332 161.58963 13.1 210.5 13.1L210.5 131.0Z" fill-rule="nonzero"/><path fill="#1a1a1a" d="M13.584375 149.5358Q13.584375 147.75455 14.5375 146.75455Q15.490625 145.73892 17.00625 145.73892Q18.00625 145.73892 18.803125 146.20767Q19.6 146.67642 20.00625 147.5358Q20.428125 148.37955 20.428125 149.45767Q20.428125 150.5358 19.990625 151.39517Q19.553125 152.25455 18.740625 152.70767Q17.94375 153.14517 17.00625 153.14517Q15.990625 153.14517 15.19375 152.6608Q14.396875 152.1608 13.990625 151.31705Q13.584375 150.4733 13.584375 149.5358ZM14.553125 149.55142Q14.553125 150.8483 15.25625 151.5983Q15.959375 152.33267 17.00625 152.33267Q18.06875 152.33267 18.75625 151.58267Q19.459375 150.83267 19.459375 149.44205Q19.459375 148.56705 19.1625 147.92642Q18.865625 147.27017 18.2875 146.9108Q17.725 146.55142 17.021875 146.55142Q16.00625 146.55142 15.271875 147.23892Q14.553125 147.92642 14.553125 149.55142ZM21.975 153.02017L21.975 148.52017L21.19375 148.52017L21.19375 147.83267L21.975 147.83267L21.975 147.2858Q21.975 146.75455 22.06875 146.50455Q22.19375 146.1608 22.50625 145.95767Q22.834375 145.73892 23.4125 145.73892Q23.771875 145.73892 24.225 145.83267L24.1 146.5983Q23.81875 146.55142 23.56875 146.55142Q23.178125 146.55142 23.00625 146.7233Q22.85 146.87955 22.85 147.3483L22.85 147.83267L23.85 147.83267L23.85 148.52017L22.85 148.52017L22.85 153.02017L21.975 153.02017ZM24.975 153.02017L24.975 148.52017L24.19375 148.52017L24.19375 147.83267L24.975 147.83267L24.975 147.2858Q24.975 146.75455 25.06875 146.50455Q25.19375 146.1608 25.50625 145.95767Q25.834375 145.73892 26.4125 145.73892Q26.771875 145.73892 27.225 145.83267L27.1 146.5983Q26.81875 146.55142 26.56875 146.55142Q26.178125 146.55142 26.00625 146.7233Q25.85 146.87955 25.85 147.3483L25.85 147.83267L26.85 147.83267L26.85 148.52017L25.85 148.52017L25.85 153.02017L24.975 153.02017ZM27.4125 151.4733L28.271875 151.33267Q28.35 151.86392 28.678125 152.14517Q29.021875 152.4108 29.615625 152.4108Q30.225 152.4108 30.521875 152.17642Q30.81875 151.92642 30.81875 151.58267Q30.81875 151.2858 30.553125 151.11392Q30.365625 151.00455 29.646875 150.81705Q28.69375 150.58267 28.31875 150.4108Q27.94375 150.2233 27.740625 149.9108Q27.553125 149.5983 27.553125 149.20767Q27.553125 148.86392 27.709375 148.56705Q27.865625 148.27017 28.146875 148.08267Q28.35 147.92642 28.69375 147.83267Q29.053125 147.7233 29.459375 147.7233Q30.06875 147.7233 30.521875 147.89517Q30.990625 148.06705 31.209375 148.37955Q31.44375 148.67642 31.521875 149.17642L30.6625 149.2858Q30.6 148.89517 30.31875 148.67642Q30.0375 148.44205 29.521875 148.44205Q28.928125 148.44205 28.6625 148.64517Q28.396875 148.83267 28.396875 149.11392Q28.396875 149.2858 28.50625 149.4108Q28.615625 149.55142 28.85 149.64517Q28.975 149.69205 29.63125 149.87955Q30.553125 150.12955 30.9125 150.2858Q31.2875 150.44205 31.490625 150.75455Q31.709375 151.05142 31.709375 151.48892Q31.709375 151.94205 31.459375 152.33267Q31.209375 152.70767 30.725 152.92642Q30.240625 153.14517 29.63125 153.14517Q28.615625 153.14517 28.084375 152.7233Q27.553125 152.30142 27.4125 151.4733ZM35.303123 151.3483L36.225 151.45767Q36.00625 152.25455 35.4125 152.70767Q34.834373 153.14517 33.94375 153.14517Q32.803123 153.14517 32.13125 152.44205Q31.459375 151.73892 31.459375 150.4733Q31.459375 149.1608 32.13125 148.44205Q32.81875 147.7233 33.88125 147.7233Q34.928123 147.7233 35.584373 148.42642Q36.240623 149.12955 36.240623 150.4108Q36.240623 150.48892 36.240623 150.64517L32.38125 150.64517Q32.428123 151.50455 32.85 151.95767Q33.2875 152.4108 33.94375 152.4108Q34.428123 152.4108 34.771873 152.1608Q35.115623 151.9108 35.303123 151.3483ZM32.428123 149.92642L35.31875 149.92642Q35.25625 149.27017 34.990623 148.94205Q34.56875 148.44205 33.896873 148.44205Q33.2875 148.44205 32.88125 148.8483Q32.475 149.25455 32.428123 149.92642ZM39.678123 152.23892L39.803123 153.00455Q39.428123 153.08267 39.146873 153.08267Q38.6625 153.08267 38.396873 152.94205Q38.13125 152.7858 38.021873 152.5358Q37.928123 152.2858 37.928123 151.50455L37.928123 148.52017L37.271873 148.52017L37.271873 147.83267L37.928123 147.83267L37.928123 146.55142L38.7875 146.02017L38.7875 147.83267L39.678123 147.83267L39.678123 148.52017L38.7875 148.52017L38.7875 151.55142Q38.7875 151.92642 38.834373 152.0358Q38.88125 152.14517 38.990623 152.20767Q39.1 152.27017 39.2875 152.27017Q39.44375 152.27017 39.678123 152.23892ZM47.303123 151.3483L48.225 151.45767Q48.00625 152.25455 47.4125 152.70767Q46.834373 153.14517 45.94375 153.14517Q44.803123 153.14517 44.13125 152.44205Q43.459373 151.73892 43.459373 150.4733Q43.459373 149.1608 44.13125 148.44205Q44.81875 147.7233 45.88125 147.7233Q46.928123 147.7233 47.584373 148.42642Q48.240623 149.12955 48.240623 150.4108Q48.240623 150.48892 48.240623 150.64517L44.38125 150.64517Q44.428123 151.50455 44.85 151.95767Q45.2875 152.4108 45.94375 152.4108Q46.428123 152.4108 46.771873 152.1608Q47.115623 151.9108 47.303123 151.3483ZM44.428123 149.92642L47.31875 149.92642Q47.25625 149.27017 46.990623 148.94205Q46.56875 148.44205 45.896873 148.44205Q45.2875 148.44205 44.88125 148.8483Q44.475 149.25455 44.428123 149.92642ZM49.178123 153.02017L51.06875 150.31705L49.31875 147.83267L50.4125 147.83267L51.209373 149.05142Q51.428123 149.39517 51.56875 149.62955Q51.7875 149.30142 51.959373 149.06705L52.834373 147.83267L53.896873 147.83267L52.1 150.27017L54.021873 153.02017L52.94375 153.02017L51.88125 151.4108L51.6 150.9733L50.240623 153.02017L49.178123 153.02017ZM56.678123 152.23892L56.803123 153.00455Q56.428123 153.08267 56.146873 153.08267Q55.6625 153.08267 55.396873 152.94205Q55.13125 152.7858 55.021873 152.5358Q54.928123 152.2858 54.928123 151.50455L54.928123 148.52017L54.271873 148.52017L54.271873 147.83267L54.928123 147.83267L54.928123 146.55142L55.7875 146.02017L55.7875 147.83267L56.678123 147.83267L56.678123 148.52017L55.7875 148.52017L55.7875 151.55142Q55.7875 151.92642 55.834373 152.0358Q55.88125 152.14517 55.990623 152.20767Q56.1 152.27017 56.2875 152.27017Q56.44375 152.27017 56.678123 152.23892ZM57.75625 153.02017L57.75625 147.83267L58.5375 147.83267L58.5375 148.61392Q58.85 148.06705 59.1 147.89517Q59.35 147.7233 59.6625 147.7233Q60.115623 147.7233 60.56875 148.00455L60.271873 148.81705Q59.94375 148.62955 59.615623 148.62955Q59.334373 148.62955 59.1 148.80142Q58.865623 148.9733 58.771873 149.2858Q58.63125 149.75455 58.63125 150.30142L58.63125 153.02017L57.75625 153.02017ZM64.14687 152.37955Q63.6625 152.80142 63.209373 152.9733Q62.75625 153.14517 62.240623 153.14517Q61.38125 153.14517 60.9125 152.7233Q60.459373 152.30142 60.459373 151.64517Q60.459373 151.27017 60.63125 150.95767Q60.803123 150.64517 61.084373 150.45767Q61.365623 150.25455 61.725 150.1608Q61.975 150.0983 62.50625 150.0358Q63.56875 149.9108 64.06875 149.7233Q64.06875 149.55142 64.06875 149.50455Q64.06875 148.95767 63.81875 148.73892Q63.490623 148.44205 62.81875 148.44205Q62.209373 148.44205 61.9125 148.6608Q61.615623 148.87955 61.475 149.42642L60.615623 149.31705Q60.725 148.75455 60.990623 148.42642Q61.271873 148.08267 61.771873 147.9108Q62.2875 147.7233 62.959373 147.7233Q63.615623 147.7233 64.02187 147.87955Q64.44375 148.0358 64.63125 148.27017Q64.83437 148.50455 64.9125 148.86392Q64.95937 149.08267 64.95937 149.67642L64.95937 150.8483Q64.95937 152.06705 65.00625 152.39517Q65.06875 152.7233 65.24062 153.02017L64.31875 153.02017Q64.17812 152.73892 64.14687 152.37955ZM64.06875 150.4108Q63.584373 150.61392 62.63125 150.75455Q62.1 150.83267 61.865623 150.92642Q61.646873 151.02017 61.521873 151.20767Q61.396873 151.39517 61.396873 151.62955Q61.396873 151.9733 61.6625 152.20767Q61.928123 152.44205 62.44375 152.44205Q62.959373 152.44205 63.35 152.2233Q63.740623 152.00455 63.928123 151.61392Q64.06875 151.31705 64.06875 150.73892L64.06875 150.4108ZM70.56875 153.02017L69.75625 153.02017L69.75625 145.86392L70.63125 145.86392L70.63125 148.4108Q71.19375 147.7233 72.05312 147.7233Q72.5375 147.7233 72.95937 147.9108Q73.38125 148.0983 73.6625 148.45767Q73.94375 148.80142 74.1 149.30142Q74.25625 149.7858 74.25625 150.3483Q74.25625 151.67642 73.58437 152.4108Q72.92812 153.14517 72.00625 153.14517Q71.1 153.14517 70.56875 152.36392L70.56875 153.02017ZM70.55312 150.39517Q70.55312 151.31705 70.81875 151.73892Q71.225 152.4108 71.94375 152.4108Q72.50625 152.4108 72.92812 151.9108Q73.35 151.4108 73.35 150.42642Q73.35 149.4108 72.94375 148.92642Q72.55312 148.44205 71.975 148.44205Q71.39687 148.44205 70.975 148.94205Q70.55312 149.44205 70.55312 150.39517ZM75.77187 146.87955L75.77187 145.86392L76.64687 145.86392L76.64687 146.87955L75.77187 146.87955ZM75.77187 153.02017L75.77187 147.83267L76.64687 147.83267L76.64687 153.02017L75.77187 153.02017ZM80.67812 152.23892L80.80312 153.00455Q80.42812 153.08267 80.14687 153.08267Q79.6625 153.08267 79.39687 152.94205Q79.13125 152.7858 79.02187 152.5358Q78.92812 152.2858 78.92812 151.50455L78.92812 148.52017L78.27187 148.52017L78.27187 147.83267L78.92812 147.83267L78.92812 146.55142L79.7875 146.02017L79.7875 147.83267L80.67812 147.83267L80.67812 148.52017L79.7875 148.52017L79.7875 151.55142Q79.7875 151.92642 79.83437 152.0358Q79.88125 152.14517 79.99062 152.20767Q80.1 152.27017 80.2875 152.27017Q80.44375 152.27017 80.67812 152.23892ZM81.4125 151.4733L82.27187 151.33267Q82.35 151.86392 82.67812 152.14517Q83.02187 152.4108 83.61562 152.4108Q84.225 152.4108 84.52187 152.17642Q84.81875 151.92642 84.81875 151.58267Q84.81875 151.2858 84.55312 151.11392Q84.36562 151.00455 83.64687 150.81705Q82.69375 150.58267 82.31875 150.4108Q81.94375 150.2233 81.74062 149.9108Q81.55312 149.5983 81.55312 149.20767Q81.55312 148.86392 81.70937 148.56705Q81.86562 148.27017 82.14687 148.08267Q82.35 147.92642 82.69375 147.83267Q83.05312 147.7233 83.45937 147.7233Q84.06875 147.7233 84.52187 147.89517Q84.99062 148.06705 85.20937 148.37955Q85.44375 148.67642 85.52187 149.17642L84.6625 149.2858Q84.6 148.89517 84.31875 148.67642Q84.0375 148.44205 83.52187 148.44205Q82.92812 148.44205 82.6625 148.64517Q82.39687 148.83267 82.39687 149.11392Q82.39687 149.2858 82.50625 149.4108Q82.61562 149.55142 82.85 149.64517Q82.975 149.69205 83.63125 149.87955Q84.55312 150.12955 84.9125 150.2858Q85.2875 150.44205 85.49062 150.75455Q85.70937 151.05142 85.70937 151.48892Q85.70937 151.94205 85.45937 152.33267Q85.20937 152.70767 84.725 152.92642Q84.24062 153.14517 83.63125 153.14517Q82.61562 153.14517 82.08437 152.7233Q81.55312 152.30142 81.4125 151.4733Z" fill-rule="nonzero"/><path fill="#9e9e9e" d="M13.521875 167.14517L14.44375 167.06705Q14.5375 167.73892 14.9125 168.08267Q15.2875 168.42642 15.81875 168.42642Q16.44375 168.42642 16.88125 167.94205Q17.334375 167.45767 17.334375 166.67642Q17.334375 165.92642 16.9125 165.48892Q16.490625 165.05142 15.803125 165.05142Q15.38125 165.05142 15.0375 165.25455Q14.69375 165.44205 14.490625 165.73892L13.678125 165.62955L14.365625 161.95767L17.928125 161.95767L17.928125 162.80142L15.06875 162.80142L14.678125 164.7233Q15.334375 164.27017 16.0375 164.27017Q16.975 164.27017 17.615625 164.92642Q18.25625 165.56705 18.25625 166.5983Q18.25625 167.56705 17.69375 168.27017Q17.00625 169.14517 15.81875 169.14517Q14.834375 169.14517 14.209375 168.5983Q13.6 168.05142 13.521875 167.14517ZM19.56875 162.80142L19.56875 161.95767L24.209375 161.95767L24.209375 162.64517Q23.521875 163.36392 22.85 164.56705Q22.178125 165.77017 21.81875 167.05142Q21.553125 167.95767 21.475 169.02017L20.56875 169.02017Q20.584375 168.17642 20.896875 166.98892Q21.225 165.7858 21.81875 164.67642Q22.4125 163.56705 23.084375 162.80142L19.56875 162.80142ZM26.00625 169.02017L26.00625 168.02017L27.00625 168.02017L27.00625 169.02017L26.00625 169.02017ZM33.06875 163.61392L32.209373 163.67642Q32.084373 163.1608 31.865625 162.92642Q31.50625 162.55142 30.990625 162.55142Q30.56875 162.55142 30.25625 162.7858Q29.834375 163.0983 29.6 163.67642Q29.365625 164.25455 29.35 165.33267Q29.6625 164.8483 30.115625 164.61392Q30.584375 164.37955 31.084375 164.37955Q31.975 164.37955 32.584373 165.0358Q33.209373 165.67642 33.209373 166.69205Q33.209373 167.36392 32.9125 167.94205Q32.615623 168.52017 32.1 168.83267Q31.6 169.14517 30.959375 169.14517Q29.865625 169.14517 29.1625 168.33267Q28.475 167.52017 28.475 165.67642Q28.475 163.5983 29.240625 162.64517Q29.9125 161.83267 31.0375 161.83267Q31.896875 161.83267 32.428123 162.31705Q32.975 162.7858 33.06875 163.61392ZM29.490625 166.70767Q29.490625 167.1608 29.678125 167.58267Q29.865625 167.98892 30.209375 168.20767Q30.56875 168.42642 30.94375 168.42642Q31.50625 168.42642 31.896875 167.9733Q32.303123 167.52017 32.303123 166.75455Q32.303123 166.00455 31.896875 165.58267Q31.50625 165.14517 30.9125 165.14517Q30.31875 165.14517 29.896875 165.58267Q29.490625 166.00455 29.490625 166.70767ZM34.678123 163.58267Q34.678123 162.81705 35.06875 162.2858Q35.459373 161.73892 36.178123 161.73892Q36.865623 161.73892 37.303123 162.2233Q37.740623 162.70767 37.740623 163.62955Q37.740623 164.5358 37.2875 165.0358Q36.85 165.52017 36.19375 165.52017Q35.553123 165.52017 35.115623 165.0358Q34.678123 164.55142 34.678123 163.58267ZM36.209373 162.3483Q35.88125 162.3483 35.6625 162.62955Q35.44375 162.9108 35.44375 163.6608Q35.44375 164.36392 35.6625 164.64517Q35.88125 164.9108 36.209373 164.9108Q36.5375 164.9108 36.75625 164.62955Q36.975 164.3483 36.975 163.5983Q36.975 162.9108 36.75625 162.62955Q36.5375 162.3483 36.209373 162.3483ZM36.209373 169.2858L40.13125 161.73892L40.85 161.73892L36.94375 169.2858L36.209373 169.2858ZM39.303123 167.33267Q39.303123 166.56705 39.69375 166.0358Q40.084373 165.50455 40.81875 165.50455Q41.490623 165.50455 41.928123 165.98892Q42.38125 166.45767 42.38125 167.39517Q42.38125 168.30142 41.928123 168.80142Q41.490623 169.2858 40.81875 169.2858Q40.178123 169.2858 39.740623 168.80142Q39.303123 168.31705 39.303123 167.33267ZM40.85 166.0983Q40.50625 166.0983 40.2875 166.39517Q40.084373 166.67642 40.084373 167.42642Q40.084373 168.11392 40.303123 168.39517Q40.521873 168.67642 40.834373 168.67642Q41.178123 168.67642 41.396873 168.39517Q41.615623 168.11392 41.615623 167.36392Q41.615623 166.6608 41.396873 166.37955Q41.178123 166.0983 40.85 166.0983Z" fill-rule="nonzero"/><path stroke="#757575" stroke-width="1.0" stroke-linecap="butt" d="M13.1 157.52017L86.6 157.52017L101.67996 157.52017" fill-rule="nonzero"/><path fill="#9e9e9e" d="M103.67996 157.52017C103.67996 156.4156 102.78453 155.52017 101.67996 155.52017C100.57539 155.52017 99.67996 156.4156 99.67996 157.52017C99.67996 158.62474 100.57539 159.52017 101.67996 159.52017C102.78453 159.52017 103.67996 158.62474 103.67996 157.52017" fill-rule="nonzero"/><path fill="#1a1a1a" d="M374.63437 23.1L374.63437 15.94375L375.5875 15.94375L375.5875 22.25625L379.10312 22.25625L379.10312 23.1L374.63437 23.1ZM380.57187 16.959375L380.57187 15.94375L381.44687 15.94375L381.44687 16.959375L380.57187 16.959375ZM380.57187 23.1L380.57187 17.9125L381.44687 17.9125L381.44687 23.1L380.57187 23.1ZM385.47812 22.31875L385.60312 23.084375Q385.22812 23.1625 384.94687 23.1625Q384.4625 23.1625 384.19687 23.021875Q383.93124 22.865625 383.82187 22.615625Q383.72812 22.365625 383.72812 21.584375L383.72812 18.6L383.07187 18.6L383.07187 17.9125L383.72812 17.9125L383.72812 16.63125L384.5875 16.1L384.5875 17.9125L385.47812 17.9125L385.47812 18.6L384.5875 18.6L384.5875 21.63125Q384.5875 22.00625 384.63437 22.115625Q384.68124 22.225 384.79062 22.2875Q384.9 22.35 385.0875 22.35Q385.24374 22.35 385.47812 22.31875ZM390.10312 21.428125L391.025 21.5375Q390.80624 22.334375 390.2125 22.7875Q389.63437 23.225 388.74374 23.225Q387.60312 23.225 386.93124 22.521875Q386.25937 21.81875 386.25937 20.553125Q386.25937 19.240625 386.93124 18.521875Q387.61874 17.803125 388.68124 17.803125Q389.72812 17.803125 390.38437 18.50625Q391.04062 19.209375 391.04062 20.490625Q391.04062 20.56875 391.04062 20.725L387.18124 20.725Q387.22812 21.584375 387.65 22.0375Q388.0875 22.490625 388.74374 22.490625Q389.22812 22.490625 389.57187 22.240625Q389.91562 21.990625 390.10312 21.428125ZM387.22812 20.00625L390.11874 20.00625Q390.05624 19.35 389.79062 19.021875Q389.36874 18.521875 388.69687 18.521875Q388.0875 18.521875 387.68124 18.928125Q387.275 19.334375 387.22812 20.00625ZM392.55624 23.1L392.55624 17.9125L393.3375 17.9125L393.3375 18.69375Q393.65 18.146875 393.9 17.975Q394.15 17.803125 394.4625 17.803125Q394.91562 17.803125 395.36874 18.084375L395.07187 18.896875Q394.74374 18.709375 394.41562 18.709375Q394.13437 18.709375 393.9 18.88125Q393.66562 19.053125 393.57187 19.365625Q393.43124 19.834375 393.43124 20.38125L393.43124 23.1L392.55624 23.1ZM398.94687 22.459375Q398.4625 22.88125 398.00937 23.053125Q397.55624 23.225 397.04062 23.225Q396.18124 23.225 395.7125 22.803125Q395.25937 22.38125 395.25937 21.725Q395.25937 21.35 395.43124 21.0375Q395.60312 20.725 395.88437 20.5375Q396.16562 20.334375 396.525 20.240625Q396.775 20.178125 397.30624 20.115625Q398.36874 19.990625 398.86874 19.803125Q398.86874 19.63125 398.86874 19.584375Q398.86874 19.0375 398.61874 18.81875Q398.29062 18.521875 397.61874 18.521875Q397.00937 18.521875 396.7125 18.740625Q396.41562 18.959375 396.275 19.50625L395.41562 19.396875Q395.525 18.834375 395.79062 18.50625Q396.07187 18.1625 396.57187 17.990625Q397.0875 17.803125 397.75937 17.803125Q398.41562 17.803125 398.82187 17.959375Q399.24374 18.115625 399.43124 18.35Q399.63437 18.584375 399.7125 18.94375Q399.75937 19.1625 399.75937 19.75625L399.75937 20.928125Q399.75937 22.146875 399.80624 22.475Q399.86874 22.803125 400.04062 23.1L399.11874 23.1Q398.97812 22.81875 398.94687 22.459375ZM398.86874 20.490625Q398.38437 20.69375 397.43124 20.834375Q396.9 20.9125 396.66562 21.00625Q396.44687 21.1 396.32187 21.2875Q396.19687 21.475 396.19687 21.709375Q396.19687 22.053125 396.4625 22.2875Q396.72812 22.521875 397.24374 22.521875Q397.75937 22.521875 398.15 22.303125Q398.54062 22.084375 398.72812 21.69375Q398.86874 21.396875 398.86874 20.81875L398.86874 20.490625ZM401.54062 23.1L401.54062 15.94375L402.41562 15.94375L402.41562 23.1L401.54062 23.1ZM404.2125 21.553125L405.07187 21.4125Q405.15 21.94375 405.47812 22.225Q405.82187 22.490625 406.41562 22.490625Q407.025 22.490625 407.32187 22.25625Q407.61874 22.00625 407.61874 21.6625Q407.61874 21.365625 407.35312 21.19375Q407.16562 21.084375 406.44687 20.896875Q405.49374 20.6625 405.11874 20.490625Q404.74374 20.303125 404.54062 19.990625Q404.35312 19.678125 404.35312 19.2875Q404.35312 18.94375 404.50937 18.646875Q404.66562 18.35 404.94687 18.1625Q405.15 18.00625 405.49374 17.9125Q405.85312 17.803125 406.25937 17.803125Q406.86874 17.803125 407.32187 17.975Q407.79062 18.146875 408.00937 18.459375Q408.24374 18.75625 408.32187 19.25625L407.4625 19.365625Q407.4 18.975 407.11874 18.75625Q406.8375 18.521875 406.32187 18.521875Q405.72812 18.521875 405.4625 18.725Q405.19687 18.9125 405.19687 19.19375Q405.19687 19.365625 405.30624 19.490625Q405.41562 19.63125 405.65 19.725Q405.775 19.771875 406.43124 19.959375Q407.35312 20.209375 407.7125 20.365625Q408.0875 20.521875 408.29062 20.834375Q408.50937 21.13125 408.50937 21.56875Q408.50937 22.021875 408.25937 22.4125Q408.00937 22.7875 407.525 23.00625Q407.04062 23.225 406.43124 23.225Q405.41562 23.225 404.88437 22.803125Q404.35312 22.38125 404.2125 21.553125Z" fill-rule="nonzero"/><path fill="#9e9e9e" d="M388.86874 33.69375L388.00937 33.75625Q387.88437 33.240623 387.66562 33.00625Q387.30624 32.63125 386.79062 32.63125Q386.36874 32.63125 386.05624 32.865623Q385.63437 33.178123 385.4 33.75625Q385.16562 34.334373 385.15 35.4125Q385.4625 34.928123 385.91562 34.69375Q386.38437 34.459373 386.88437 34.459373Q387.775 34.459373 388.38437 35.115623Q389.00937 35.75625 389.00937 36.771873Q389.00937 37.44375 388.7125 38.021873Q388.41562 38.6 387.9 38.9125Q387.4 39.225 386.75937 39.225Q385.66562 39.225 384.9625 38.4125Q384.275 37.6 384.275 35.75625Q384.275 33.678123 385.04062 32.725Q385.7125 31.912498 386.8375 31.912498Q387.69687 31.912498 388.22812 32.396873Q388.775 32.865623 388.86874 33.69375ZM385.29062 36.7875Q385.29062 37.240623 385.47812 37.6625Q385.66562 38.06875 386.00937 38.2875Q386.36874 38.50625 386.74374 38.50625Q387.30624 38.50625 387.69687 38.053123Q388.10312 37.6 388.10312 36.834373Q388.10312 36.084373 387.69687 35.6625Q387.30624 35.225 386.7125 35.225Q386.11874 35.225 385.69687 35.6625Q385.29062 36.084373 385.29062 36.7875ZM390.80624 39.1L390.80624 38.1L391.80624 38.1L391.80624 39.1L390.80624 39.1ZM393.32187 35.56875Q393.32187 34.303123 393.57187 33.5375Q393.8375 32.75625 394.35312 32.334373Q394.86874 31.912498 395.65 31.912498Q396.22812 31.912498 396.65 32.146873Q397.0875 32.38125 397.36874 32.81875Q397.66562 33.25625 397.82187 33.88125Q397.97812 34.50625 397.97812 35.56875Q397.97812 36.834373 397.7125 37.615623Q397.4625 38.38125 396.94687 38.803123Q396.43124 39.225 395.65 39.225Q394.61874 39.225 394.025 38.475Q393.32187 37.584373 393.32187 35.56875ZM394.2125 35.56875Q394.2125 37.334373 394.61874 37.928123Q395.04062 38.50625 395.65 38.50625Q396.25937 38.50625 396.66562 37.928123Q397.0875 37.334373 397.0875 35.56875Q397.0875 33.803123 396.66562 33.225Q396.25937 32.646873 395.63437 32.646873Q395.04062 32.646873 394.66562 33.146873Q394.2125 33.803123 394.2125 35.56875ZM399.47812 33.6625Q399.47812 32.896873 399.86874 32.365623Q400.25937 31.818748 400.97812 31.818748Q401.66562 31.818748 402.10312 32.303123Q402.54062 32.7875 402.54062 33.709373Q402.54062 34.615623 402.0875 35.115623Q401.65 35.6 400.99374 35.6Q400.35312 35.6 399.91562 35.115623Q399.47812 34.63125 399.47812 33.6625ZM401.00937 32.428123Q400.68124 32.428123 400.4625 32.709373Q400.24374 32.990623 400.24374 33.740623Q400.24374 34.44375 400.4625 34.725Q400.68124 34.990623 401.00937 34.990623Q401.3375 34.990623 401.55624 34.709373Q401.775 34.428123 401.775 33.678123Q401.775 32.990623 401.55624 32.709373Q401.3375 32.428123 401.00937 32.428123ZM401.00937 39.365623L404.93124 31.818748L405.65 31.818748L401.74374 39.365623L401.00937 39.365623ZM404.10312 37.4125Q404.10312 36.646873 404.49374 36.115623Q404.88437 35.584373 405.61874 35.584373Q406.29062 35.584373 406.72812 36.06875Q407.18124 36.5375 407.18124 37.475Q407.18124 38.38125 406.72812 38.88125Q406.29062 39.365623 405.61874 39.365623Q404.97812 39.365623 404.54062 38.88125Q404.10312 38.396873 404.10312 37.4125ZM405.65 36.178123Q405.30624 36.178123 405.0875 36.475Q404.88437 36.75625 404.88437 37.50625Q404.88437 38.19375 405.10312 38.475Q405.32187 38.75625 405.63437 38.75625Q405.97812 38.75625 406.19687 38.475Q406.41562 38.19375 406.41562 37.44375Q406.41562 36.740623 406.19687 36.459373Q405.97812 36.178123 405.65 36.178123Z" fill-rule="nonzero"/><path stroke="#757575" stroke-width="1.0" stroke-linecap="butt" d="M407.9 27.6L334.4 27.6L231.39992 20.96222" fill-rule="nonzero"/><path fill="#9e9e9e" d="M233.39992 20.96222C233.39992 19.857649 232.5045 18.96222 231.39992 18.96222C230.29535 18.96222 229.39992 19.857649 229.39992 20.96222C229.39992 22.06679 230.29535 22.96222 231.39992 22.96222C232.5045 22.96222 233.39992 22.06679 233.39992 20.96222" fill-rule="nonzero"/><path fill="#1a1a1a" d="M341.63437 52.1L341.63437 44.94375L342.5875 44.94375L342.5875 51.25625L346.10312 51.25625L346.10312 52.1L341.63437 52.1ZM347.57187 45.959373L347.57187 44.94375L348.44687 44.94375L348.44687 45.959373L347.57187 45.959373ZM347.57187 52.1L347.57187 46.9125L348.44687 46.9125L348.44687 52.1L347.57187 52.1ZM352.47812 51.31875L352.60312 52.084373Q352.22812 52.1625 351.94687 52.1625Q351.4625 52.1625 351.19687 52.021873Q350.93124 51.865623 350.82187 51.615623Q350.72812 51.365623 350.72812 50.584373L350.72812 47.6L350.07187 47.6L350.07187 46.9125L350.72812 46.9125L350.72812 45.63125L351.5875 45.1L351.5875 46.9125L352.47812 46.9125L352.47812 47.6L351.5875 47.6L351.5875 50.63125Q351.5875 51.00625 351.63437 51.115623Q351.68124 51.225 351.79062 51.2875Q351.9 51.35 352.0875 51.35Q352.24374 51.35 352.47812 51.31875ZM357.10312 50.428123L358.025 50.5375Q357.80624 51.334373 357.2125 51.7875Q356.63437 52.225 355.74374 52.225Q354.60312 52.225 353.93124 51.521873Q353.25937 50.81875 353.25937 49.553123Q353.25937 48.240623 353.93124 47.521873Q354.61874 46.803123 355.68124 46.803123Q356.72812 46.803123 357.38437 47.50625Q358.04062 48.209373 358.04062 49.490623Q358.04062 49.56875 358.04062 49.725L354.18124 49.725Q354.22812 50.584373 354.65 51.0375Q355.0875 51.490623 355.74374 51.490623Q356.22812 51.490623 356.57187 51.240623Q356.91562 50.990623 357.10312 50.428123ZM354.22812 49.00625L357.11874 49.00625Q357.05624 48.35 356.79062 48.021873Q356.36874 47.521873 355.69687 47.521873Q355.0875 47.521873 354.68124 47.928123Q354.275 48.334373 354.22812 49.00625ZM359.55624 52.1L359.55624 46.9125L360.3375 46.9125L360.3375 47.69375Q360.65 47.146873 360.9 46.975Q361.15 46.803123 361.4625 46.803123Q361.91562 46.803123 362.36874 47.084373L362.07187 47.896873Q361.74374 47.709373 361.41562 47.709373Q361.13437 47.709373 360.9 47.88125Q360.66562 48.053123 360.57187 48.365623Q360.43124 48.834373 360.43124 49.38125L360.43124 52.1L359.55624 52.1ZM365.94687 51.459373Q365.4625 51.88125 365.00937 52.053123Q364.55624 52.225 364.04062 52.225Q363.18124 52.225 362.7125 51.803123Q362.25937 51.38125 362.25937 50.725Q362.25937 50.35 362.43124 50.0375Q362.60312 49.725 362.88437 49.5375Q363.16562 49.334373 363.525 49.240623Q363.775 49.178123 364.30624 49.115623Q365.36874 48.990623 365.86874 48.803123Q365.86874 48.63125 365.86874 48.584373Q365.86874 48.0375 365.61874 47.81875Q365.29062 47.521873 364.61874 47.521873Q364.00937 47.521873 363.7125 47.740623Q363.41562 47.959373 363.275 48.50625L362.41562 48.396873Q362.525 47.834373 362.79062 47.50625Q363.07187 47.1625 363.57187 46.990623Q364.0875 46.803123 364.75937 46.803123Q365.41562 46.803123 365.82187 46.959373Q366.24374 47.115623 366.43124 47.35Q366.63437 47.584373 366.7125 47.94375Q366.75937 48.1625 366.75937 48.75625L366.75937 49.928123Q366.75937 51.146873 366.80624 51.475Q366.86874 51.803123 367.04062 52.1L366.11874 52.1Q365.97812 51.81875 365.94687 51.459373ZM365.86874 49.490623Q365.38437 49.69375 364.43124 49.834373Q363.9 49.9125 363.66562 50.00625Q363.44687 50.1 363.32187 50.2875Q363.19687 50.475 363.19687 50.709373Q363.19687 51.053123 363.4625 51.2875Q363.72812 51.521873 364.24374 51.521873Q364.75937 51.521873 365.15 51.303123Q365.54062 51.084373 365.72812 50.69375Q365.86874 50.396873 365.86874 49.81875L365.86874 49.490623ZM368.54062 52.1L368.54062 44.94375L369.41562 44.94375L369.41562 52.1L368.54062 52.1ZM371.2125 50.553123L372.07187 50.4125Q372.15 50.94375 372.47812 51.225Q372.82187 51.490623 373.41562 51.490623Q374.025 51.490623 374.32187 51.25625Q374.61874 51.00625 374.61874 50.6625Q374.61874 50.365623 374.35312 50.19375Q374.16562 50.084373 373.44687 49.896873Q372.49374 49.6625 372.11874 49.490623Q371.74374 49.303123 371.54062 48.990623Q371.35312 48.678123 371.35312 48.2875Q371.35312 47.94375 371.50937 47.646873Q371.66562 47.35 371.94687 47.1625Q372.15 47.00625 372.49374 46.9125Q372.85312 46.803123 373.25937 46.803123Q373.86874 46.803123 374.32187 46.975Q374.79062 47.146873 375.00937 47.459373Q375.24374 47.75625 375.32187 48.25625L374.4625 48.365623Q374.4 47.975 374.11874 47.75625Q373.8375 47.521873 373.32187 47.521873Q372.72812 47.521873 372.4625 47.725Q372.19687 47.9125 372.19687 48.19375Q372.19687 48.365623 372.30624 48.490623Q372.41562 48.63125 372.65 48.725Q372.775 48.771873 373.43124 48.959373Q374.35312 49.209373 374.7125 49.365623Q375.0875 49.521873 375.29062 49.834373Q375.50937 50.13125 375.50937 50.56875Q375.50937 51.021873 375.25937 51.4125Q375.00937 51.7875 374.525 52.00625Q374.04062 52.225 373.43124 52.225Q372.41562 52.225 371.88437 51.803123Q371.35312 51.38125 371.2125 50.553123ZM378.54062 52.1L378.54062 44.94375L379.41562 44.94375L379.41562 52.1L378.54062 52.1ZM385.10312 50.428123L386.025 50.5375Q385.80624 51.334373 385.2125 51.7875Q384.63437 52.225 383.74374 52.225Q382.60312 52.225 381.93124 51.521873Q381.25937 50.81875 381.25937 49.553123Q381.25937 48.240623 381.93124 47.521873Q382.61874 46.803123 383.68124 46.803123Q384.72812 46.803123 385.38437 47.50625Q386.04062 48.209373 386.04062 49.490623Q386.04062 49.56875 386.04062 49.725L382.18124 49.725Q382.22812 50.584373 382.65 51.0375Q383.0875 51.490623 383.74374 51.490623Q384.22812 51.490623 384.57187 51.240623Q384.91562 50.990623 385.10312 50.428123ZM382.22812 49.00625L385.11874 49.00625Q385.05624 48.35 384.79062 48.021873Q384.36874 47.521873 383.69687 47.521873Q383.0875 47.521873 382.68124 47.928123Q382.275 48.334373 382.22812 49.00625ZM387.55624 52.1L387.55624 46.9125L388.35312 46.9125L388.35312 47.646873Q388.91562 46.803123 389.99374 46.803123Q390.4625 46.803123 390.85312 46.975Q391.25937 47.13125 391.44687 47.4125Q391.65 47.678123 391.72812 48.053123Q391.775 48.303123 391.775 48.9125L391.775 52.1L390.9 52.1L390.9 48.94375Q390.9 48.4125 390.79062 48.146873Q390.69687 47.88125 390.43124 47.725Q390.16562 47.553123 389.82187 47.553123Q389.25937 47.553123 388.8375 47.9125Q388.43124 48.271873 388.43124 49.271873L388.43124 52.1L387.55624 52.1ZM393.4 52.5375L394.25937 52.6625Q394.30624 53.053123 394.55624 53.240623Q394.88437 53.475 395.44687 53.475Q396.05624 53.475 396.38437 53.225Q396.7125 52.990623 396.8375 52.553123Q396.9 52.2875 396.9 51.428123Q396.32187 52.1 395.4625 52.1Q394.4 52.1 393.80624 51.334373Q393.22812 50.553123 393.22812 49.475Q393.22812 48.740623 393.49374 48.115623Q393.75937 47.475 394.25937 47.146873Q394.775 46.803123 395.4625 46.803123Q396.38437 46.803123 396.97812 47.5375L396.97812 46.9125L397.79062 46.9125L397.79062 51.396873Q397.79062 52.615623 397.54062 53.115623Q397.30624 53.615623 396.75937 53.9125Q396.22812 54.209373 395.44687 54.209373Q394.525 54.209373 393.94687 53.7875Q393.38437 53.365623 393.4 52.5375ZM394.11874 49.4125Q394.11874 50.428123 394.525 50.896873Q394.93124 51.365623 395.54062 51.365623Q396.15 51.365623 396.55624 50.9125Q396.97812 50.44375 396.97812 49.44375Q396.97812 48.490623 396.55624 48.00625Q396.13437 47.521873 395.525 47.521873Q394.94687 47.521873 394.525 48.00625Q394.11874 48.475 394.11874 49.4125ZM401.47812 51.31875L401.60312 52.084373Q401.22812 52.1625 400.94687 52.1625Q400.4625 52.1625 400.19687 52.021873Q399.93124 51.865623 399.82187 51.615623Q399.72812 51.365623 399.72812 50.584373L399.72812 47.6L399.07187 47.6L399.07187 46.9125L399.72812 46.9125L399.72812 45.63125L400.5875 45.1L400.5875 46.9125L401.47812 46.9125L401.47812 47.6L400.5875 47.6L400.5875 50.63125Q400.5875 51.00625 400.63437 51.115623Q400.68124 51.225 400.79062 51.2875Q400.9 51.35 401.0875 51.35Q401.24374 51.35 401.47812 51.31875ZM402.55624 52.1L402.55624 44.94375L403.43124 44.94375L403.43124 47.50625Q404.05624 46.803123 404.99374 46.803123Q405.57187 46.803123 405.99374 47.0375Q406.41562 47.25625 406.60312 47.6625Q406.79062 48.053123 406.79062 48.81875L406.79062 52.1L405.9 52.1L405.9 48.81875Q405.9 48.146873 405.61874 47.85Q405.3375 47.553123 404.80624 47.553123Q404.41562 47.553123 404.07187 47.75625Q403.72812 47.959373 403.57187 48.303123Q403.43124 48.646873 403.43124 49.25625L403.43124 52.1L402.55624 52.1Z" fill-rule="nonzero"/><path fill="#9e9e9e" d="M384.32187 66.20937L385.19687 66.1Q385.35312 66.83437 385.7125 67.17812Q386.07187 67.50625 386.60312 67.50625Q387.22812 67.50625 387.65 67.08437Q388.07187 66.64687 388.07187 66.00625Q388.07187 65.39687 387.68124 65.00625Q387.29062 64.61562 386.68124 64.61562Q386.43124 64.61562 386.05624 64.70937L386.15 63.94375Q386.24374 63.94375 386.29062 63.94375Q386.85312 63.94375 387.30624 63.6625Q387.75937 63.365623 387.75937 62.75625Q387.75937 62.271873 387.43124 61.959373Q387.10312 61.63125 386.5875 61.63125Q386.07187 61.63125 385.72812 61.959373Q385.38437 62.271873 385.29062 62.928123L384.41562 62.771873Q384.57187 61.88125 385.13437 61.396873Q385.7125 60.9125 386.55624 60.9125Q387.15 60.9125 387.63437 61.1625Q388.13437 61.4125 388.38437 61.85Q388.65 62.2875 388.65 62.771873Q388.65 63.240623 388.4 63.615623Q388.16562 63.990623 387.66562 64.225Q388.30624 64.36562 388.65 64.83437Q389.00937 65.2875 389.00937 65.99062Q389.00937 66.92812 388.32187 67.58437Q387.63437 68.225 386.60312 68.225Q385.65 68.225 385.025 67.6625Q384.41562 67.1 384.32187 66.20937ZM390.80624 68.1L390.80624 67.1L391.80624 67.1L391.80624 68.1L390.80624 68.1ZM393.32187 66.225L394.24374 66.14687Q394.3375 66.81875 394.7125 67.1625Q395.0875 67.50625 395.61874 67.50625Q396.24374 67.50625 396.68124 67.02187Q397.13437 66.5375 397.13437 65.75625Q397.13437 65.00625 396.7125 64.56875Q396.29062 64.13125 395.60312 64.13125Q395.18124 64.13125 394.8375 64.33437Q394.49374 64.52187 394.29062 64.81875L393.47812 64.70937L394.16562 61.0375L397.72812 61.0375L397.72812 61.88125L394.86874 61.88125L394.47812 63.803123Q395.13437 63.35 395.8375 63.35Q396.775 63.35 397.41562 64.00625Q398.05624 64.64687 398.05624 65.67812Q398.05624 66.64687 397.49374 67.35Q396.80624 68.225 395.61874 68.225Q394.63437 68.225 394.00937 67.67812Q393.4 67.13125 393.32187 66.225ZM399.47812 62.6625Q399.47812 61.896873 399.86874 61.365623Q400.25937 60.81875 400.97812 60.81875Q401.66562 60.81875 402.10312 61.303123Q402.54062 61.7875 402.54062 62.709373Q402.54062 63.615623 402.0875 64.11562Q401.65 64.6 400.99374 64.6Q400.35312 64.6 399.91562 64.11562Q399.47812 63.63125 399.47812 62.6625ZM401.00937 61.428123Q400.68124 61.428123 400.4625 61.709373Q400.24374 61.990623 400.24374 62.740623Q400.24374 63.44375 400.4625 63.725Q400.68124 63.990623 401.00937 63.990623Q401.3375 63.990623 401.55624 63.709373Q401.775 63.428123 401.775 62.678123Q401.775 61.990623 401.55624 61.709373Q401.3375 61.428123 401.00937 61.428123ZM401.00937 68.36562L404.93124 60.81875L405.65 60.81875L401.74374 68.36562L401.00937 68.36562ZM404.10312 66.4125Q404.10312 65.64687 404.49374 65.11562Q404.88437 64.58437 405.61874 64.58437Q406.29062 64.58437 406.72812 65.06875Q407.18124 65.5375 407.18124 66.475Q407.18124 67.38125 406.72812 67.88125Q406.29062 68.36562 405.61874 68.36562Q404.97812 68.36562 404.54062 67.88125Q404.10312 67.39687 404.10312 66.4125ZM405.65 65.17812Q405.30624 65.17812 405.0875 65.475Q404.88437 65.75625 404.88437 66.50625Q404.88437 67.19375 405.10312 67.475Q405.32187 67.75625 405.63437 67.75625Q405.97812 67.75625 406.19687 67.475Q406.41562 67.19375 406.41562 66.44375Q406.41562 65.74062 406.19687 65.45937Q405.97812 65.17812 405.65 65.17812Z" fill-rule="nonzero"/><path stroke="#757575" stroke-width="1.0" stroke-linecap="butt" d="M407.9 56.6L334.4 56.6L262.81702 31.964409" fill-rule="nonzero"/><path fill="#9e9e9e" d="M264.81702 31.964409C264.81702 30.859838 263.9216 29.964409 262.81702 29.964409C261.71246 29.964409 260.81702 30.859838 260.81702 31.964409C260.81702 33.068977 261.71246 33.96441 262.81702 33.96441C263.9216 33.96441 264.81702 33.068977 264.81702 31.964409" fill-rule="nonzero"/><path fill="#1a1a1a" d="M342.65 81.1L342.65 73.94375L344.07187 73.94375L345.75937 79.00625Q345.99374 79.725 346.10312 80.06875Q346.22812 79.67812 346.47812 78.92812L348.19687 73.94375L349.47812 73.94375L349.47812 81.1L348.55624 81.1L348.55624 75.11562L346.47812 81.1L345.61874 81.1L343.55624 75.00625L343.55624 81.1L342.65 81.1ZM354.94687 80.45937Q354.4625 80.88125 354.00937 81.05312Q353.55624 81.225 353.04062 81.225Q352.18124 81.225 351.7125 80.80312Q351.25937 80.38125 351.25937 79.725Q351.25937 79.35 351.43124 79.0375Q351.60312 78.725 351.88437 78.5375Q352.16562 78.33437 352.525 78.24062Q352.775 78.17812 353.30624 78.11562Q354.36874 77.99062 354.86874 77.80312Q354.86874 77.63125 354.86874 77.58437Q354.86874 77.0375 354.61874 76.81875Q354.29062 76.52187 353.61874 76.52187Q353.00937 76.52187 352.7125 76.74062Q352.41562 76.95937 352.275 77.50625L351.41562 77.39687Q351.525 76.83437 351.79062 76.50625Q352.07187 76.1625 352.57187 75.99062Q353.0875 75.80312 353.75937 75.80312Q354.41562 75.80312 354.82187 75.95937Q355.24374 76.11562 355.43124 76.35Q355.63437 76.58437 355.7125 76.94375Q355.75937 77.1625 355.75937 77.75625L355.75937 78.92812Q355.75937 80.14687 355.80624 80.475Q355.86874 80.80312 356.04062 81.1L355.11874 81.1Q354.97812 80.81875 354.94687 80.45937ZM354.86874 78.49062Q354.38437 78.69375 353.43124 78.83437Q352.9 78.9125 352.66562 79.00625Q352.44687 79.1 352.32187 79.2875Q352.19687 79.475 352.19687 79.70937Q352.19687 80.05312 352.4625 80.2875Q352.72812 80.52187 353.24374 80.52187Q353.75937 80.52187 354.15 80.30312Q354.54062 80.08437 354.72812 79.69375Q354.86874 79.39687 354.86874 78.81875L354.86874 78.49062ZM359.47812 80.31875L359.60312 81.08437Q359.22812 81.1625 358.94687 81.1625Q358.4625 81.1625 358.19687 81.02187Q357.93124 80.86562 357.82187 80.61562Q357.72812 80.36562 357.72812 79.58437L357.72812 76.6L357.07187 76.6L357.07187 75.9125L357.72812 75.9125L357.72812 74.63125L358.5875 74.1L358.5875 75.9125L359.47812 75.9125L359.47812 76.6L358.5875 76.6L358.5875 79.63125Q358.5875 80.00625 358.63437 80.11562Q358.68124 80.225 358.79062 80.2875Q358.9 80.35 359.0875 80.35Q359.24374 80.35 359.47812 80.31875ZM363.94687 79.19375L364.80624 79.31875Q364.66562 80.20937 364.07187 80.725Q363.49374 81.225 362.65 81.225Q361.5875 81.225 360.93124 80.52187Q360.29062 79.81875 360.29062 78.52187Q360.29062 77.69375 360.57187 77.06875Q360.85312 76.42812 361.41562 76.11562Q361.97812 75.80312 362.65 75.80312Q363.49374 75.80312 364.025 76.225Q364.57187 76.64687 364.72812 77.44375L363.86874 77.56875Q363.74374 77.05312 363.43124 76.7875Q363.13437 76.52187 362.68124 76.52187Q362.025 76.52187 361.60312 77.00625Q361.19687 77.475 361.19687 78.50625Q361.19687 79.55312 361.5875 80.02187Q361.99374 80.49062 362.63437 80.49062Q363.15 80.49062 363.49374 80.17812Q363.85312 79.86562 363.94687 79.19375ZM366.55624 81.1L366.55624 73.94375L367.43124 73.94375L367.43124 76.50625Q368.05624 75.80312 368.99374 75.80312Q369.57187 75.80312 369.99374 76.0375Q370.41562 76.25625 370.60312 76.6625Q370.79062 77.05312 370.79062 77.81875L370.79062 81.1L369.9 81.1L369.9 77.81875Q369.9 77.14687 369.61874 76.85Q369.3375 76.55312 368.80624 76.55312Q368.41562 76.55312 368.07187 76.75625Q367.72812 76.95937 367.57187 77.30312Q367.43124 77.64687 367.43124 78.25625L367.43124 81.1L366.55624 81.1ZM375.63437 81.1L375.63437 73.94375L376.5875 73.94375L376.5875 80.25625L380.10312 80.25625L380.10312 81.1L375.63437 81.1ZM385.10312 79.42812L386.025 79.5375Q385.80624 80.33437 385.2125 80.7875Q384.63437 81.225 383.74374 81.225Q382.60312 81.225 381.93124 80.52187Q381.25937 79.81875 381.25937 78.55312Q381.25937 77.24062 381.93124 76.52187Q382.61874 75.80312 383.68124 75.80312Q384.72812 75.80312 385.38437 76.50625Q386.04062 77.20937 386.04062 78.49062Q386.04062 78.56875 386.04062 78.725L382.18124 78.725Q382.22812 79.58437 382.65 80.0375Q383.0875 80.49062 383.74374 80.49062Q384.22812 80.49062 384.57187 80.24062Q384.91562 79.99062 385.10312 79.42812ZM382.22812 78.00625L385.11874 78.00625Q385.05624 77.35 384.79062 77.02187Q384.36874 76.52187 383.69687 76.52187Q383.0875 76.52187 382.68124 76.92812Q382.275 77.33437 382.22812 78.00625ZM387.55624 81.1L387.55624 75.9125L388.35312 75.9125L388.35312 76.64687Q388.91562 75.80312 389.99374 75.80312Q390.4625 75.80312 390.85312 75.975Q391.25937 76.13125 391.44687 76.4125Q391.65 76.67812 391.72812 77.05312Q391.775 77.30312 391.775 77.9125L391.775 81.1L390.9 81.1L390.9 77.94375Q390.9 77.4125 390.79062 77.14687Q390.69687 76.88125 390.43124 76.725Q390.16562 76.55312 389.82187 76.55312Q389.25937 76.55312 388.8375 76.9125Q388.43124 77.27187 388.43124 78.27187L388.43124 81.1L387.55624 81.1ZM393.4 81.5375L394.25937 81.6625Q394.30624 82.05312 394.55624 82.24062Q394.88437 82.475 395.44687 82.475Q396.05624 82.475 396.38437 82.225Q396.7125 81.99062 396.8375 81.55312Q396.9 81.2875 396.9 80.42812Q396.32187 81.1 395.4625 81.1Q394.4 81.1 393.80624 80.33437Q393.22812 79.55312 393.22812 78.475Q393.22812 77.74062 393.49374 77.11562Q393.75937 76.475 394.25937 76.14687Q394.775 75.80312 395.4625 75.80312Q396.38437 75.80312 396.97812 76.5375L396.97812 75.9125L397.79062 75.9125L397.79062 80.39687Q397.79062 81.61562 397.54062 82.11562Q397.30624 82.61562 396.75937 82.9125Q396.22812 83.20937 395.44687 83.20937Q394.525 83.20937 393.94687 82.7875Q393.38437 82.36562 393.4 81.5375ZM394.11874 78.4125Q394.11874 79.42812 394.525 79.89687Q394.93124 80.36562 395.54062 80.36562Q396.15 80.36562 396.55624 79.9125Q396.97812 79.44375 396.97812 78.44375Q396.97812 77.49062 396.55624 77.00625Q396.13437 76.52187 395.525 76.52187Q394.94687 76.52187 394.525 77.00625Q394.11874 77.475 394.11874 78.4125ZM401.47812 80.31875L401.60312 81.08437Q401.22812 81.1625 400.94687 81.1625Q400.4625 81.1625 400.19687 81.02187Q399.93124 80.86562 399.82187 80.61562Q399.72812 80.36562 399.72812 79.58437L399.72812 76.6L399.07187 76.6L399.07187 75.9125L399.72812 75.9125L399.72812 74.63125L400.5875 74.1L400.5875 75.9125L401.47812 75.9125L401.47812 76.6L400.5875 76.6L400.5875 79.63125Q400.5875 80.00625 400.63437 80.11562Q400.68124 80.225 400.79062 80.2875Q400.9 80.35 401.0875 80.35Q401.24374 80.35 401.47812 80.31875ZM402.55624 81.1L402.55624 73.94375L403.43124 73.94375L403.43124 76.50625Q404.05624 75.80312 404.99374 75.80312Q405.57187 75.80312 405.99374 76.0375Q406.41562 76.25625 406.60312 76.6625Q406.79062 77.05312 406.79062 77.81875L406.79062 81.1L405.9 81.1L405.9 77.81875Q405.9 77.14687 405.61874 76.85Q405.3375 76.55312 404.80624 76.55312Q404.41562 76.55312 404.07187 76.75625Q403.72812 76.95937 403.57187 77.30312Q403.43124 77.64687 403.43124 78.25625L403.43124 81.1L402.55624 81.1Z" fill-rule="nonzero"/><path fill="#9e9e9e" d="M381.61874 97.1L380.74374 97.1L380.74374 91.50625Q380.43124 91.80312 379.91562 92.11562Q379.4 92.4125 378.99374 92.55312L378.99374 91.70937Q379.72812 91.36562 380.275 90.88125Q380.8375 90.38125 381.05624 89.9125L381.61874 89.9125L381.61874 97.1ZM388.86874 91.69375L388.00937 91.75625Q387.88437 91.24062 387.66562 91.00625Q387.30624 90.63125 386.79062 90.63125Q386.36874 90.63125 386.05624 90.86562Q385.63437 91.17812 385.4 91.75625Q385.16562 92.33437 385.15 93.4125Q385.4625 92.92812 385.91562 92.69375Q386.38437 92.45937 386.88437 92.45937Q387.775 92.45937 388.38437 93.11562Q389.00937 93.75625 389.00937 94.77187Q389.00937 95.44375 388.7125 96.02187Q388.41562 96.6 387.9 96.9125Q387.4 97.225 386.75937 97.225Q385.66562 97.225 384.9625 96.4125Q384.275 95.6 384.275 93.75625Q384.275 91.67812 385.04062 90.725Q385.7125 89.9125 386.8375 89.9125Q387.69687 89.9125 388.22812 90.39687Q388.775 90.86562 388.86874 91.69375ZM385.29062 94.7875Q385.29062 95.24062 385.47812 95.6625Q385.66562 96.06875 386.00937 96.2875Q386.36874 96.50625 386.74374 96.50625Q387.30624 96.50625 387.69687 96.05312Q388.10312 95.6 388.10312 94.83437Q388.10312 94.08437 387.69687 93.6625Q387.30624 93.225 386.7125 93.225Q386.11874 93.225 385.69687 93.6625Q385.29062 94.08437 385.29062 94.7875ZM390.80624 97.1L390.80624 96.1L391.80624 96.1L391.80624 97.1L390.80624 97.1ZM393.32187 95.20937L394.19687 95.1Q394.35312 95.83437 394.7125 96.17812Q395.07187 96.50625 395.60312 96.50625Q396.22812 96.50625 396.65 96.08437Q397.07187 95.64687 397.07187 95.00625Q397.07187 94.39687 396.68124 94.00625Q396.29062 93.61562 395.68124 93.61562Q395.43124 93.61562 395.05624 93.70937L395.15 92.94375Q395.24374 92.94375 395.29062 92.94375Q395.85312 92.94375 396.30624 92.6625Q396.75937 92.36562 396.75937 91.75625Q396.75937 91.27187 396.43124 90.95937Q396.10312 90.63125 395.5875 90.63125Q395.07187 90.63125 394.72812 90.95937Q394.38437 91.27187 394.29062 91.92812L393.41562 91.77187Q393.57187 90.88125 394.13437 90.39687Q394.7125 89.9125 395.55624 89.9125Q396.15 89.9125 396.63437 90.1625Q397.13437 90.4125 397.38437 90.85Q397.65 91.2875 397.65 91.77187Q397.65 92.24062 397.4 92.61562Q397.16562 92.99062 396.66562 93.225Q397.30624 93.36562 397.65 93.83437Q398.00937 94.2875 398.00937 94.99062Q398.00937 95.92812 397.32187 96.58437Q396.63437 97.225 395.60312 97.225Q394.65 97.225 394.025 96.6625Q393.41562 96.1 393.32187 95.20937ZM399.47812 91.6625Q399.47812 90.89687 399.86874 90.36562Q400.25937 89.81875 400.97812 89.81875Q401.66562 89.81875 402.10312 90.30312Q402.54062 90.7875 402.54062 91.70937Q402.54062 92.61562 402.0875 93.11562Q401.65 93.6 400.99374 93.6Q400.35312 93.6 399.91562 93.11562Q399.47812 92.63125 399.47812 91.6625ZM401.00937 90.42812Q400.68124 90.42812 400.4625 90.70937Q400.24374 90.99062 400.24374 91.74062Q400.24374 92.44375 400.4625 92.725Q400.68124 92.99062 401.00937 92.99062Q401.3375 92.99062 401.55624 92.70937Q401.775 92.42812 401.775 91.67812Q401.775 90.99062 401.55624 90.70937Q401.3375 90.42812 401.00937 90.42812ZM401.00937 97.36562L404.93124 89.81875L405.65 89.81875L401.74374 97.36562L401.00937 97.36562ZM404.10312 95.4125Q404.10312 94.64687 404.49374 94.11562Q404.88437 93.58437 405.61874 93.58437Q406.29062 93.58437 406.72812 94.06875Q407.18124 94.5375 407.18124 95.475Q407.18124 96.38125 406.72812 96.88125Q406.29062 97.36562 405.61874 97.36562Q404.97812 97.36562 404.54062 96.88125Q404.10312 96.39687 404.10312 95.4125ZM405.65 94.17812Q405.30624 94.17812 405.0875 94.475Q404.88437 94.75625 404.88437 95.50625Q404.88437 96.19375 405.10312 96.475Q405.32187 96.75625 405.63437 96.75625Q405.97812 96.75625 406.19687 96.475Q406.41562 96.19375 406.41562 95.44375Q406.41562 94.74062 406.19687 94.45937Q405.97812 94.17812 405.65 94.17812Z" fill-rule="nonzero"/><path stroke="#757575" stroke-width="1.0" stroke-linecap="butt" d="M407.9 85.6L334.4 85.6L310.6912 80.9316" fill-rule="nonzero"/><path fill="#9e9e9e" d="M312.6912 80.9316C312.6912 79.827034 311.79578 78.9316 310.6912 78.9316C309.58664 78.9316 308.6912 79.827034 308.6912 80.9316C308.6912 82.03617 309.58664 82.9316 310.6912 82.9316C311.79578 82.9316 312.6912 82.03617 312.6912 80.9316" fill-rule="nonzero"/><path fill="#1a1a1a" d="M349.38437 183.45847Q349.38437 181.67722 350.3375 180.67722Q351.29062 179.66159 352.80624 179.66159Q353.80624 179.66159 354.60312 180.13034Q355.4 180.59909 355.80624 181.45847Q356.22812 182.30222 356.22812 183.38034Q356.22812 184.45847 355.79062 185.31784Q355.35312 186.17722 354.54062 186.63034Q353.74374 187.06784 352.80624 187.06784Q351.79062 187.06784 350.99374 186.58347Q350.19687 186.08347 349.79062 185.23972Q349.38437 184.39597 349.38437 183.45847ZM350.35312 183.47409Q350.35312 184.77097 351.05624 185.52097Q351.75937 186.25534 352.80624 186.25534Q353.86874 186.25534 354.55624 185.50534Q355.25937 184.75534 355.25937 183.36472Q355.25937 182.48972 354.9625 181.84909Q354.66562 181.19284 354.0875 180.83347Q353.525 180.47409 352.82187 180.47409Q351.80624 180.47409 351.07187 181.16159Q350.35312 181.84909 350.35312 183.47409ZM357.775 186.94284L357.775 182.44284L356.99374 182.44284L356.99374 181.75534L357.775 181.75534L357.775 181.20847Q357.775 180.67722 357.86874 180.42722Q357.99374 180.08347 358.30624 179.88034Q358.63437 179.66159 359.2125 179.66159Q359.57187 179.66159 360.025 179.75534L359.9 180.52097Q359.61874 180.47409 359.36874 180.47409Q358.97812 180.47409 358.80624 180.64597Q358.65 180.80222 358.65 181.27097L358.65 181.75534L359.65 181.75534L359.65 182.44284L358.65 182.44284L358.65 186.94284L357.775 186.94284ZM360.775 186.94284L360.775 182.44284L359.99374 182.44284L359.99374 181.75534L360.775 181.75534L360.775 181.20847Q360.775 180.67722 360.86874 180.42722Q360.99374 180.08347 361.30624 179.88034Q361.63437 179.66159 362.2125 179.66159Q362.57187 179.66159 363.025 179.75534L362.9 180.52097Q362.61874 180.47409 362.36874 180.47409Q361.97812 180.47409 361.80624 180.64597Q361.65 180.80222 361.65 181.27097L361.65 181.75534L362.65 181.75534L362.65 182.44284L361.65 182.44284L361.65 186.94284L360.775 186.94284ZM363.2125 185.39597L364.07187 185.25534Q364.15 185.78659 364.47812 186.06784Q364.82187 186.33347 365.41562 186.33347Q366.025 186.33347 366.32187 186.09909Q366.61874 185.84909 366.61874 185.50534Q366.61874 185.20847 366.35312 185.03659Q366.16562 184.92722 365.44687 184.73972Q364.49374 184.50534 364.11874 184.33347Q363.74374 184.14597 363.54062 183.83347Q363.35312 183.52097 363.35312 183.13034Q363.35312 182.78659 363.50937 182.48972Q363.66562 182.19284 363.94687 182.00534Q364.15 181.84909 364.49374 181.75534Q364.85312 181.64597 365.25937 181.64597Q365.86874 181.64597 366.32187 181.81784Q366.79062 181.98972 367.00937 182.30222Q367.24374 182.59909 367.32187 183.09909L366.4625 183.20847Q366.4 182.81784 366.11874 182.59909Q365.8375 182.36472 365.32187 182.36472Q364.72812 182.36472 364.4625 182.56784Q364.19687 182.75534 364.19687 183.03659Q364.19687 183.20847 364.30624 183.33347Q364.41562 183.47409 364.65 183.56784Q364.775 183.61472 365.43124 183.80222Q366.35312 184.05222 366.7125 184.20847Q367.0875 184.36472 367.29062 184.67722Q367.50937 184.97409 367.50937 185.41159Q367.50937 185.86472 367.25937 186.25534Q367.00937 186.63034 366.525 186.84909Q366.04062 187.06784 365.43124 187.06784Q364.41562 187.06784 363.88437 186.64597Q363.35312 186.22409 363.2125 185.39597ZM371.10312 185.27097L372.025 185.38034Q371.80624 186.17722 371.2125 186.63034Q370.63437 187.06784 369.74374 187.06784Q368.60312 187.06784 367.93124 186.36472Q367.25937 185.66159 367.25937 184.39597Q367.25937 183.08347 367.93124 182.36472Q368.61874 181.64597 369.68124 181.64597Q370.72812 181.64597 371.38437 182.34909Q372.04062 183.05222 372.04062 184.33347Q372.04062 184.41159 372.04062 184.56784L368.18124 184.56784Q368.22812 185.42722 368.65 185.88034Q369.0875 186.33347 369.74374 186.33347Q370.22812 186.33347 370.57187 186.08347Q370.91562 185.83347 371.10312 185.27097ZM368.22812 183.84909L371.11874 183.84909Q371.05624 183.19284 370.79062 182.86472Q370.36874 182.36472 369.69687 182.36472Q369.0875 182.36472 368.68124 182.77097Q368.275 183.17722 368.22812 183.84909ZM375.47812 186.16159L375.60312 186.92722Q375.22812 187.00534 374.94687 187.00534Q374.4625 187.00534 374.19687 186.86472Q373.93124 186.70847 373.82187 186.45847Q373.72812 186.20847 373.72812 185.42722L373.72812 182.44284L373.07187 182.44284L373.07187 181.75534L373.72812 181.75534L373.72812 180.47409L374.5875 179.94284L374.5875 181.75534L375.47812 181.75534L375.47812 182.44284L374.5875 182.44284L374.5875 185.47409Q374.5875 185.84909 374.63437 185.95847Q374.68124 186.06784 374.79062 186.13034Q374.9 186.19284 375.0875 186.19284Q375.24374 186.19284 375.47812 186.16159ZM381.47812 186.16159L381.60312 186.92722Q381.22812 187.00534 380.94687 187.00534Q380.4625 187.00534 380.19687 186.86472Q379.93124 186.70847 379.82187 186.45847Q379.72812 186.20847 379.72812 185.42722L379.72812 182.44284L379.07187 182.44284L379.07187 181.75534L379.72812 181.75534L379.72812 180.47409L380.5875 179.94284L380.5875 181.75534L381.47812 181.75534L381.47812 182.44284L380.5875 182.44284L380.5875 185.47409Q380.5875 185.84909 380.63437 185.95847Q380.68124 186.06784 380.79062 186.13034Q380.9 186.19284 381.0875 186.19284Q381.24374 186.19284 381.47812 186.16159ZM382.22812 184.34909Q382.22812 182.91159 383.04062 182.20847Q383.69687 181.64597 384.66562 181.64597Q385.72812 181.64597 386.4 182.34909Q387.0875 183.03659 387.0875 184.27097Q387.0875 185.27097 386.79062 185.84909Q386.49374 186.42722 385.91562 186.75534Q385.3375 187.06784 384.66562 187.06784Q383.57187 187.06784 382.9 186.36472Q382.22812 185.66159 382.22812 184.34909ZM383.13437 184.34909Q383.13437 185.34909 383.57187 185.84909Q384.00937 186.33347 384.66562 186.33347Q385.32187 186.33347 385.74374 185.83347Q386.18124 185.33347 386.18124 184.31784Q386.18124 183.36472 385.74374 182.86472Q385.30624 182.36472 384.66562 182.36472Q384.00937 182.36472 383.57187 182.86472Q383.13437 183.34909 383.13437 184.34909ZM388.57187 186.94284L388.57187 179.78659L389.44687 179.78659L389.44687 183.86472L391.525 181.75534L392.66562 181.75534L390.68124 183.67722L392.86874 186.94284L391.775 186.94284L390.05624 184.28659L389.44687 184.88034L389.44687 186.94284L388.57187 186.94284ZM396.10312 185.27097L397.025 185.38034Q396.80624 186.17722 396.2125 186.63034Q395.63437 187.06784 394.74374 187.06784Q393.60312 187.06784 392.93124 186.36472Q392.25937 185.66159 392.25937 184.39597Q392.25937 183.08347 392.93124 182.36472Q393.61874 181.64597 394.68124 181.64597Q395.72812 181.64597 396.38437 182.34909Q397.04062 183.05222 397.04062 184.33347Q397.04062 184.41159 397.04062 184.56784L393.18124 184.56784Q393.22812 185.42722 393.65 185.88034Q394.0875 186.33347 394.74374 186.33347Q395.22812 186.33347 395.57187 186.08347Q395.91562 185.83347 396.10312 185.27097ZM393.22812 183.84909L396.11874 183.84909Q396.05624 183.19284 395.79062 182.86472Q395.36874 182.36472 394.69687 182.36472Q394.0875 182.36472 393.68124 182.77097Q393.275 183.17722 393.22812 183.84909ZM398.55624 186.94284L398.55624 181.75534L399.35312 181.75534L399.35312 182.48972Q399.91562 181.64597 400.99374 181.64597Q401.4625 181.64597 401.85312 181.81784Q402.25937 181.97409 402.44687 182.25534Q402.65 182.52097 402.72812 182.89597Q402.775 183.14597 402.775 183.75534L402.775 186.94284L401.9 186.94284L401.9 183.78659Q401.9 183.25534 401.79062 182.98972Q401.69687 182.72409 401.43124 182.56784Q401.16562 182.39597 400.82187 182.39597Q400.25937 182.39597 399.8375 182.75534Q399.43124 183.11472 399.43124 184.11472L399.43124 186.94284L398.55624 186.94284ZM404.2125 185.39597L405.07187 185.25534Q405.15 185.78659 405.47812 186.06784Q405.82187 186.33347 406.41562 186.33347Q407.025 186.33347 407.32187 186.09909Q407.61874 185.84909 407.61874 185.50534Q407.61874 185.20847 407.35312 185.03659Q407.16562 184.92722 406.44687 184.73972Q405.49374 184.50534 405.11874 184.33347Q404.74374 184.14597 404.54062 183.83347Q404.35312 183.52097 404.35312 183.13034Q404.35312 182.78659 404.50937 182.48972Q404.66562 182.19284 404.94687 182.00534Q405.15 181.84909 405.49374 181.75534Q405.85312 181.64597 406.25937 181.64597Q406.86874 181.64597 407.32187 181.81784Q407.79062 181.98972 408.00937 182.30222Q408.24374 182.59909 408.32187 183.09909L407.4625 183.20847Q407.4 182.81784 407.11874 182.59909Q406.8375 182.36472 406.32187 182.36472Q405.72812 182.36472 405.4625 182.56784Q405.19687 182.75534 405.19687 183.03659Q405.19687 183.20847 405.30624 183.33347Q405.41562 183.47409 405.65 183.56784Q405.775 183.61472 406.43124 183.80222Q407.35312 184.05222 407.7125 184.20847Q408.0875 184.36472 408.29062 184.67722Q408.50937 184.97409 408.50937 185.41159Q408.50937 185.86472 408.25937 186.25534Q408.00937 186.63034 407.525 186.84909Q407.04062 187.06784 406.43124 187.06784Q405.41562 187.06784 404.88437 186.64597Q404.35312 186.22409 404.2125 185.39597Z" fill-rule="nonzero"/><path fill="#9e9e9e" d="M381.61874 202.94284L380.74374 202.94284L380.74374 197.34909Q380.43124 197.64597 379.91562 197.95847Q379.4 198.25534 378.99374 198.39597L378.99374 197.55222Q379.72812 197.20847 380.275 196.72409Q380.8375 196.22409 381.05624 195.75534L381.61874 195.75534L381.61874 202.94284ZM388.86874 197.53659L388.00937 197.59909Q387.88437 197.08347 387.66562 196.84909Q387.30624 196.47409 386.79062 196.47409Q386.36874 196.47409 386.05624 196.70847Q385.63437 197.02097 385.4 197.59909Q385.16562 198.17722 385.15 199.25534Q385.4625 198.77097 385.91562 198.53659Q386.38437 198.30222 386.88437 198.30222Q387.775 198.30222 388.38437 198.95847Q389.00937 199.59909 389.00937 200.61472Q389.00937 201.28659 388.7125 201.86472Q388.41562 202.44284 387.9 202.75534Q387.4 203.06784 386.75937 203.06784Q385.66562 203.06784 384.9625 202.25534Q384.275 201.44284 384.275 199.59909Q384.275 197.52097 385.04062 196.56784Q385.7125 195.75534 386.8375 195.75534Q387.69687 195.75534 388.22812 196.23972Q388.775 196.70847 388.86874 197.53659ZM385.29062 200.63034Q385.29062 201.08347 385.47812 201.50534Q385.66562 201.91159 386.00937 202.13034Q386.36874 202.34909 386.74374 202.34909Q387.30624 202.34909 387.69687 201.89597Q388.10312 201.44284 388.10312 200.67722Q388.10312 199.92722 387.69687 199.50534Q387.30624 199.06784 386.7125 199.06784Q386.11874 199.06784 385.69687 199.50534Q385.29062 199.92722 385.29062 200.63034ZM390.80624 202.94284L390.80624 201.94284L391.80624 201.94284L391.80624 202.94284L390.80624 202.94284ZM397.86874 197.53659L397.00937 197.59909Q396.88437 197.08347 396.66562 196.84909Q396.30624 196.47409 395.79062 196.47409Q395.36874 196.47409 395.05624 196.70847Q394.63437 197.02097 394.4 197.59909Q394.16562 198.17722 394.15 199.25534Q394.4625 198.77097 394.91562 198.53659Q395.38437 198.30222 395.88437 198.30222Q396.775 198.30222 397.38437 198.95847Q398.00937 199.59909 398.00937 200.61472Q398.00937 201.28659 397.7125 201.86472Q397.41562 202.44284 396.9 202.75534Q396.4 203.06784 395.75937 203.06784Q394.66562 203.06784 393.9625 202.25534Q393.275 201.44284 393.275 199.59909Q393.275 197.52097 394.04062 196.56784Q394.7125 195.75534 395.8375 195.75534Q396.69687 195.75534 397.22812 196.23972Q397.775 196.70847 397.86874 197.53659ZM394.29062 200.63034Q394.29062 201.08347 394.47812 201.50534Q394.66562 201.91159 395.00937 202.13034Q395.36874 202.34909 395.74374 202.34909Q396.30624 202.34909 396.69687 201.89597Q397.10312 201.44284 397.10312 200.67722Q397.10312 199.92722 396.69687 199.50534Q396.30624 199.06784 395.7125 199.06784Q395.11874 199.06784 394.69687 199.50534Q394.29062 199.92722 394.29062 200.63034ZM399.47812 197.50534Q399.47812 196.73972 399.86874 196.20847Q400.25937 195.66159 400.97812 195.66159Q401.66562 195.66159 402.10312 196.14597Q402.54062 196.63034 402.54062 197.55222Q402.54062 198.45847 402.0875 198.95847Q401.65 199.44284 400.99374 199.44284Q400.35312 199.44284 399.91562 198.95847Q399.47812 198.47409 399.47812 197.50534ZM401.00937 196.27097Q400.68124 196.27097 400.4625 196.55222Q400.24374 196.83347 400.24374 197.58347Q400.24374 198.28659 400.4625 198.56784Q400.68124 198.83347 401.00937 198.83347Q401.3375 198.83347 401.55624 198.55222Q401.775 198.27097 401.775 197.52097Q401.775 196.83347 401.55624 196.55222Q401.3375 196.27097 401.00937 196.27097ZM401.00937 203.20847L404.93124 195.66159L405.65 195.66159L401.74374 203.20847L401.00937 203.20847ZM404.10312 201.25534Q404.10312 200.48972 404.49374 199.95847Q404.88437 199.42722 405.61874 199.42722Q406.29062 199.42722 406.72812 199.91159Q407.18124 200.38034 407.18124 201.31784Q407.18124 202.22409 406.72812 202.72409Q406.29062 203.20847 405.61874 203.20847Q404.97812 203.20847 404.54062 202.72409Q404.10312 202.23972 404.10312 201.25534ZM405.65 200.02097Q405.30624 200.02097 405.0875 200.31784Q404.88437 200.59909 404.88437 201.34909Q404.88437 202.03659 405.10312 202.31784Q405.32187 202.59909 405.63437 202.59909Q405.97812 202.59909 406.19687 202.31784Q406.41562 202.03659 406.41562 201.28659Q406.41562 200.58347 406.19687 200.30222Q405.97812 200.02097 405.65 200.02097Z" fill-rule="nonzero"/><path stroke="#757575" stroke-width="1.0" stroke-linecap="butt" d="M407.9 191.44284L334.4 191.44284L304.79626 191.44284" fill-rule="nonzero"/><path fill="#9e9e9e" d="M306.79626 191.44284C306.79626 190.33827 305.90082 189.44284 304.79626 189.44284C303.69168 189.44284 302.79626 190.33827 302.79626 191.44284C302.79626 192.54741 303.69168 193.44284 304.79626 193.44284C305.90082 193.44284 306.79626 192.54741 306.79626 191.44284" fill-rule="nonzero"/></svg>