<svg version="1.1" viewBox="0.0 0.0 557.0 345.0" fill="none" stroke="none" stroke-linecap="square" stroke-miterlimit="10" width="557" height="345" xmlns:xlink="http://www.w3.org/1999/xlink" xmlns="http://www.w3.org/2000/svg"><path fill="#ffffff" d="M0 0L557.0 0L557.0 345.0L0 345.0L0 0Z" fill-rule="nonzero"/><path fill="#6aa84f" d="M278.5 17.25C322.17465 17.25 363.82928 35.64624 393.24762 67.926834C422.66595 100.207436 437.1267 143.38632 433.08322 186.8734L278.5 172.5Z" fill-rule="nonzero"/><path fill="#93c47d" d="M433.08322 186.8734C430.70926 212.40489 422.0484 236.95088 407.87427 258.3188L278.5 172.5Z" fill-rule="nonzero"/><path fill="#434343" d="M407.87427 258.3188C382.39923 296.72314 341.1787 321.82452 295.36597 326.83115L278.5 172.5Z" fill-rule="nonzero"/><path fill="#999999" d="M126.32867 203.2644C117.10063 157.61935 128.84972 110.242615 158.33607 74.198456C187.82243 38.154293 231.93149 17.25 278.5 17.25L278.5 172.5Z" fill-rule="nonzero"/><path fill="#666666" d="M295.36597 326.83115C215.54355 335.55447 142.2405 281.96973 126.32867 203.2644L278.5 172.5Z" fill-rule="nonzero"/><path fill="#1a1a1a" d="M18.140625 74.61353L18.140625 66.01978L19.859375 66.01978L21.890625 72.09791Q22.171875 72.95728 22.296875 73.37916Q22.4375 72.91041 22.75 72.00416L24.8125 66.01978L26.34375 66.01978L26.34375 74.61353L25.25 74.61353L25.25 67.42603L22.75 74.61353L21.71875 74.61353L19.234375 67.30103L19.234375 74.61353L18.140625 74.61353ZM31.109375 73.84791Q30.515625 74.34791 29.96875 74.55103Q29.4375 74.75416 28.8125 74.75416Q27.78125 74.75416 27.234375 74.25416Q26.6875 73.75416 26.6875 72.97291Q26.6875 72.51978 26.890625 72.14478Q27.09375 71.75416 27.4375 71.53541Q27.78125 71.30103 28.203125 71.19166Q28.5 71.09791 29.140625 71.01978Q30.40625 70.87916 31.015625 70.66041Q31.015625 70.44166 31.015625 70.39478Q31.015625 69.73853 30.71875 69.47291Q30.3125 69.12916 29.515625 69.12916Q28.78125 69.12916 28.421875 69.39478Q28.0625 69.64478 27.890625 70.30103L26.859375 70.16041Q27.0 69.50416 27.328125 69.09791Q27.65625 68.69166 28.265625 68.47291Q28.875 68.25416 29.671875 68.25416Q30.46875 68.25416 30.96875 68.44166Q31.46875 68.62916 31.703125 68.91041Q31.9375 69.19166 32.03125 69.62916Q32.078125 69.89478 32.078125 70.59791L32.078125 72.00416Q32.078125 73.47291 32.140625 73.86353Q32.21875 74.25416 32.421875 74.61353L31.3125 74.61353Q31.15625 74.28541 31.109375 73.84791ZM31.015625 71.48853Q30.4375 71.72291 29.296875 71.89478Q28.640625 71.98853 28.375 72.11353Q28.109375 72.22291 27.953125 72.44166Q27.8125 72.66041 27.8125 72.94166Q27.8125 73.36353 28.125 73.64478Q28.453125 73.92603 29.0625 73.92603Q29.671875 73.92603 30.140625 73.66041Q30.625 73.39478 30.84375 72.92603Q31.015625 72.56666 31.015625 71.87916L31.015625 71.48853ZM36.34375 73.67603L36.5 74.59791Q36.046875 74.69166 35.703125 74.69166Q35.125 74.69166 34.8125 74.51978Q34.5 74.33228 34.359375 74.03541Q34.234375 73.73853 34.234375 72.78541L34.234375 69.20728L33.46875 69.20728L33.46875 68.39478L34.234375 68.39478L34.234375 66.84791L35.28125 66.22291L35.28125 68.39478L36.34375 68.39478L36.34375 69.20728L35.28125 69.20728L35.28125 72.84791Q35.28125 73.30103 35.328125 73.42603Q35.390625 73.55103 35.515625 73.62916Q35.640625 73.70728 35.875 73.70728Q36.0625 73.70728 36.34375 73.67603ZM41.109375 72.33228L42.140625 72.47291Q41.96875 73.53541 41.265625 74.14478Q40.5625 74.75416 39.546875 74.75416Q38.265625 74.75416 37.484375 73.92603Q36.71875 73.08228 36.71875 71.51978Q36.71875 70.51978 37.046875 69.76978Q37.390625 69.00416 38.0625 68.62916Q38.75 68.25416 39.5625 68.25416Q40.5625 68.25416 41.203125 68.76978Q41.859375 69.26978 42.046875 70.22291L41.015625 70.37916Q40.875 69.75416 40.5 69.44166Q40.125 69.11353 39.59375 69.11353Q38.796875 69.11353 38.296875 69.69166Q37.796875 70.25416 37.796875 71.48853Q37.796875 72.75416 38.28125 73.31666Q38.765625 73.87916 39.53125 73.87916Q40.15625 73.87916 40.5625 73.50416Q40.984375 73.12916 41.109375 72.33228ZM43.046875 74.61353L43.046875 66.01978L44.09375 66.01978L44.09375 69.09791Q44.828125 68.25416 45.953125 68.25416Q46.65625 68.25416 47.15625 68.53541Q47.671875 68.80103 47.890625 69.28541Q48.109375 69.75416 48.109375 70.67603L48.109375 74.61353L47.0625 74.61353L47.0625 70.67603Q47.0625 69.87916 46.71875 69.51978Q46.375 69.16041 45.75 69.16041Q45.28125 69.16041 44.859375 69.41041Q44.453125 69.64478 44.265625 70.06666Q44.09375 70.47291 44.09375 71.20728L44.09375 74.61353L43.046875 74.61353ZM52.65625 71.50416Q52.65625 69.76978 53.609375 68.94166Q54.40625 68.25416 55.5625 68.25416Q56.84375 68.25416 57.65625 69.09791Q58.484375 69.92603 58.484375 71.41041Q58.484375 72.61353 58.125 73.30103Q57.765625 73.98853 57.0625 74.37916Q56.375 74.75416 55.5625 74.75416Q54.265625 74.75416 53.453125 73.92603Q52.65625 73.08228 52.65625 71.50416ZM53.734375 71.50416Q53.734375 72.69166 54.25 73.28541Q54.78125 73.87916 55.5625 73.87916Q56.359375 73.87916 56.875 73.28541Q57.390625 72.69166 57.390625 71.47291Q57.390625 70.31666 56.859375 69.72291Q56.34375 69.12916 55.5625 69.12916Q54.78125 69.12916 54.25 69.72291Q53.734375 70.30103 53.734375 71.50416ZM60.296875 74.61353L60.296875 69.20728L59.359375 69.20728L59.359375 68.39478L60.296875 68.39478L60.296875 67.72291Q60.296875 67.09791 60.40625 66.80103Q60.5625 66.37916 60.9375 66.12916Q61.328125 65.87916 62.015625 65.87916Q62.46875 65.87916 63.0 65.98853L62.84375 66.89478Q62.515625 66.84791 62.21875 66.84791Q61.734375 66.84791 61.53125 67.05103Q61.34375 67.25416 61.34375 67.81666L61.34375 68.39478L62.5625 68.39478L62.5625 69.20728L61.34375 69.20728L61.34375 74.61353L60.296875 74.61353ZM63.296875 74.61353L63.296875 69.20728L62.359375 69.20728L62.359375 68.39478L63.296875 68.39478L63.296875 67.72291Q63.296875 67.09791 63.40625 66.80103Q63.5625 66.37916 63.9375 66.12916Q64.328125 65.87916 65.015625 65.87916Q65.46875 65.87916 66.0 65.98853L65.84375 66.89478Q65.515625 66.84791 65.21875 66.84791Q64.734375 66.84791 64.53125 67.05103Q64.34375 67.25416 64.34375 67.81666L64.34375 68.39478L65.5625 68.39478L65.5625 69.20728L64.34375 69.20728L64.34375 74.61353L63.296875 74.61353ZM65.625 72.75416L66.65625 72.59791Q66.75 73.22291 67.140625 73.55103Q67.546875 73.87916 68.28125 73.87916Q69.0 73.87916 69.34375 73.59791Q69.703125 73.30103 69.703125 72.89478Q69.703125 72.53541 69.390625 72.33228Q69.171875 72.19166 68.3125 71.97291Q67.15625 71.67603 66.703125 71.47291Q66.265625 71.25416 66.03125 70.87916Q65.796875 70.50416 65.796875 70.03541Q65.796875 69.62916 65.984375 69.26978Q66.171875 68.91041 66.5 68.67603Q66.75 68.50416 67.171875 68.37916Q67.59375 68.25416 68.09375 68.25416Q68.8125 68.25416 69.359375 68.47291Q69.921875 68.67603 70.1875 69.03541Q70.453125 69.39478 70.546875 69.98853L69.515625 70.12916Q69.453125 69.66041 69.109375 69.39478Q68.78125 69.11353 68.15625 69.11353Q67.4375 69.11353 67.125 69.36353Q66.8125 69.59791 66.8125 69.92603Q66.8125 70.12916 66.9375 70.28541Q67.078125 70.45728 67.34375 70.56666Q67.5 70.62916 68.28125 70.83228Q69.40625 71.14478 69.84375 71.33228Q70.28125 71.51978 70.53125 71.87916Q70.78125 72.23853 70.78125 72.78541Q70.78125 73.31666 70.46875 73.78541Q70.171875 74.23853 69.59375 74.50416Q69.015625 74.75416 68.28125 74.75416Q67.0625 74.75416 66.421875 74.25416Q65.796875 73.73853 65.625 72.75416ZM77.296875 72.61353L78.390625 72.73853Q78.140625 73.69166 77.4375 74.22291Q76.734375 74.75416 75.65625 74.75416Q74.296875 74.75416 73.484375 73.91041Q72.6875 73.06666 72.6875 71.55103Q72.6875 69.98853 73.5 69.12916Q74.3125 68.25416 75.59375 68.25416Q76.84375 68.25416 77.625 69.09791Q78.421875 69.94166 78.421875 71.48853Q78.421875 71.58228 78.421875 71.76978L73.78125 71.76978Q73.84375 72.80103 74.359375 73.34791Q74.875 73.87916 75.65625 73.87916Q76.234375 73.87916 76.640625 73.58228Q77.0625 73.26978 77.296875 72.61353ZM73.84375 70.91041L77.3125 70.91041Q77.25 70.11353 76.921875 69.72291Q76.40625 69.11353 75.609375 69.11353Q74.875 69.11353 74.375 69.59791Q73.890625 70.08228 73.84375 70.91041ZM82.34375 73.67603L82.5 74.59791Q82.046875 74.69166 81.703125 74.69166Q81.125 74.69166 80.8125 74.51978Q80.5 74.33228 80.359375 74.03541Q80.234375 73.73853 80.234375 72.78541L80.234375 69.20728L79.46875 69.20728L79.46875 68.39478L80.234375 68.39478L80.234375 66.84791L81.28125 66.22291L81.28125 68.39478L82.34375 68.39478L82.34375 69.20728L81.28125 69.20728L81.28125 72.84791Q81.28125 73.30103 81.328125 73.42603Q81.390625 73.55103 81.515625 73.62916Q81.640625 73.70728 81.875 73.70728Q82.0625 73.70728 82.34375 73.67603ZM86.125 74.61353L86.125 66.01978L87.265625 66.01978L87.265625 73.59791L91.5 73.59791L91.5 74.61353L86.125 74.61353ZM92.65625 71.50416Q92.65625 69.76978 93.609375 68.94166Q94.40625 68.25416 95.5625 68.25416Q96.84375 68.25416 97.65625 69.09791Q98.484375 69.92603 98.484375 71.41041Q98.484375 72.61353 98.125 73.30103Q97.765625 73.98853 97.0625 74.37916Q96.375 74.75416 95.5625 74.75416Q94.265625 74.75416 93.453125 73.92603Q92.65625 73.08228 92.65625 71.50416ZM93.734375 71.50416Q93.734375 72.69166 94.25 73.28541Q94.78125 73.87916 95.5625 73.87916Q96.359375 73.87916 96.875 73.28541Q97.390625 72.69166 97.390625 71.47291Q97.390625 70.31666 96.859375 69.72291Q96.34375 69.12916 95.5625 69.12916Q94.78125 69.12916 94.25 69.72291Q93.734375 70.30103 93.734375 71.50416ZM101.1875 74.61353L99.28125 68.39478L100.375 68.39478L101.359375 71.98853L101.734375 73.31666Q101.765625 73.22291 102.0625 72.03541L103.046875 68.39478L104.125 68.39478L105.0625 72.00416L105.375 73.19166L105.734375 71.98853L106.796875 68.39478L107.828125 68.39478L105.875 74.61353L104.78125 74.61353L103.796875 70.87916L103.546875 69.83228L102.296875 74.61353L101.1875 74.61353Z" fill-rule="nonzero"/><path fill="#9e9e9e" d="M23.296875 90.59791L23.296875 91.61353L17.609375 91.61353Q17.609375 91.23853 17.734375 90.87916Q17.953125 90.30103 18.421875 89.73853Q18.90625 89.17603 19.8125 88.44166Q21.21875 87.28541 21.703125 86.61353Q22.203125 85.94166 22.203125 85.34791Q22.203125 84.72291 21.75 84.30103Q21.296875 83.86353 20.578125 83.86353Q19.8125 83.86353 19.359375 84.31666Q18.90625 84.76978 18.890625 85.58228L17.8125 85.47291Q17.921875 84.25416 18.640625 83.62916Q19.375 82.98853 20.609375 82.98853Q21.84375 82.98853 22.5625 83.67603Q23.28125 84.36353 23.28125 85.37916Q23.28125 85.89478 23.0625 86.39478Q22.859375 86.87916 22.359375 87.44166Q21.875 87.98853 20.75 88.94166Q19.796875 89.73853 19.515625 90.03541Q19.25 90.31666 19.078125 90.59791L23.296875 90.59791ZM26.375 86.95728Q25.71875 86.70728 25.390625 86.26978Q25.078125 85.81666 25.078125 85.20728Q25.078125 84.26978 25.75 83.62916Q26.4375 82.98853 27.546875 82.98853Q28.671875 82.98853 29.359375 83.64478Q30.046875 84.30103 30.046875 85.23853Q30.046875 85.83228 29.734375 86.26978Q29.421875 86.70728 28.78125 86.95728Q29.578125 87.20728 29.984375 87.78541Q30.390625 88.36353 30.390625 89.16041Q30.390625 90.25416 29.609375 91.00416Q28.84375 91.75416 27.5625 91.75416Q26.296875 91.75416 25.515625 91.00416Q24.734375 90.25416 24.734375 89.12916Q24.734375 88.28541 25.15625 87.72291Q25.59375 87.16041 26.375 86.95728ZM26.15625 85.16041Q26.15625 85.76978 26.546875 86.16041Q26.953125 86.55103 27.578125 86.55103Q28.1875 86.55103 28.578125 86.17603Q28.96875 85.78541 28.96875 85.22291Q28.96875 84.64478 28.5625 84.25416Q28.15625 83.84791 27.5625 83.84791Q26.953125 83.84791 26.546875 84.23853Q26.15625 84.62916 26.15625 85.16041ZM25.828125 89.12916Q25.828125 89.58228 26.03125 90.00416Q26.25 90.42603 26.671875 90.66041Q27.09375 90.89478 27.578125 90.89478Q28.328125 90.89478 28.8125 90.41041Q29.3125 89.92603 29.3125 89.17603Q29.3125 88.41041 28.8125 87.91041Q28.3125 87.41041 27.546875 87.41041Q26.796875 87.41041 26.3125 87.91041Q25.828125 88.39478 25.828125 89.12916ZM32.34375 91.61353L32.34375 90.41041L33.546875 90.41041L33.546875 91.61353L32.34375 91.61353ZM40.296875 90.59791L40.296875 91.61353L34.609375 91.61353Q34.609375 91.23853 34.734375 90.87916Q34.953125 90.30103 35.421875 89.73853Q35.90625 89.17603 36.8125 88.44166Q38.21875 87.28541 38.703125 86.61353Q39.203125 85.94166 39.203125 85.34791Q39.203125 84.72291 38.75 84.30103Q38.296875 83.86353 37.578125 83.86353Q36.8125 83.86353 36.359375 84.31666Q35.90625 84.76978 35.890625 85.58228L34.8125 85.47291Q34.921875 84.25416 35.640625 83.62916Q36.375 82.98853 37.609375 82.98853Q38.84375 82.98853 39.5625 83.67603Q40.28125 84.36353 40.28125 85.37916Q40.28125 85.89478 40.0625 86.39478Q39.859375 86.87916 39.359375 87.44166Q38.875 87.98853 37.75 88.94166Q36.796875 89.73853 36.515625 90.03541Q36.25 90.31666 36.078125 90.59791L40.296875 90.59791ZM41.953125 85.08228Q41.953125 84.16041 42.40625 83.51978Q42.875 82.87916 43.75 82.87916Q44.5625 82.87916 45.09375 83.45728Q45.625 84.03541 45.625 85.14478Q45.625 86.23853 45.078125 86.83228Q44.546875 87.41041 43.765625 87.41041Q42.984375 87.41041 42.46875 86.83228Q41.953125 86.25416 41.953125 85.08228ZM43.78125 83.59791Q43.390625 83.59791 43.125 83.94166Q42.875 84.28541 42.875 85.19166Q42.875 86.01978 43.125 86.36353Q43.390625 86.69166 43.78125 86.69166Q44.1875 86.69166 44.4375 86.34791Q44.703125 86.00416 44.703125 85.11353Q44.703125 84.26978 44.4375 83.94166Q44.171875 83.59791 43.78125 83.59791ZM43.78125 91.92603L48.484375 82.87916L49.34375 82.87916L44.65625 91.92603L43.78125 91.92603ZM47.5 89.59791Q47.5 88.67603 47.953125 88.03541Q48.421875 87.39478 49.3125 87.39478Q50.125 87.39478 50.65625 87.97291Q51.1875 88.53541 51.1875 89.66041Q51.1875 90.75416 50.640625 91.34791Q50.109375 91.92603 49.3125 91.92603Q48.546875 91.92603 48.015625 91.34791Q47.5 90.76978 47.5 89.59791ZM49.34375 88.11353Q48.9375 88.11353 48.671875 88.45728Q48.421875 88.80103 48.421875 89.70728Q48.421875 90.51978 48.6875 90.86353Q48.953125 91.20728 49.34375 91.20728Q49.734375 91.20728 50.0 90.86353Q50.265625 90.51978 50.265625 89.61353Q50.265625 88.78541 50.0 88.45728Q49.734375 88.11353 49.34375 88.11353Z" fill-rule="nonzero"/><path stroke="#757575" stroke-width="1.0" stroke-linecap="butt" d="M17.25 79.11353L117.25 79.11353L164.34427 79.11353" fill-rule="nonzero"/><path fill="#9e9e9e" d="M166.34427 79.11353C166.34427 78.00896 165.44884 77.11353 164.34427 77.11353C163.2397 77.11353 162.34427 78.00896 162.34427 79.11353C162.34427 80.2181 163.2397 81.11353 164.34427 81.11353C165.44884 81.11353 166.34427 80.2181 166.34427 79.11353" fill-rule="nonzero"/><path fill="#1a1a1a" d="M18.140625 287.06683L18.140625 278.47308L19.859375 278.47308L21.890625 284.5512Q22.171875 285.41058 22.296875 285.83246Q22.4375 285.3637 22.75 284.45746L24.8125 278.47308L26.34375 278.47308L26.34375 287.06683L25.25 287.06683L25.25 279.87933L22.75 287.06683L21.71875 287.06683L19.234375 279.75433L19.234375 287.06683L18.140625 287.06683ZM31.109375 286.3012Q30.515625 286.8012 29.96875 287.00433Q29.4375 287.20746 28.8125 287.20746Q27.78125 287.20746 27.234375 286.70746Q26.6875 286.20746 26.6875 285.4262Q26.6875 284.97308 26.890625 284.59808Q27.09375 284.20746 27.4375 283.9887Q27.78125 283.75433 28.203125 283.64496Q28.5 283.5512 29.140625 283.47308Q30.40625 283.33246 31.015625 283.1137Q31.015625 282.89496 31.015625 282.84808Q31.015625 282.19183 30.71875 281.9262Q30.3125 281.58246 29.515625 281.58246Q28.78125 281.58246 28.421875 281.84808Q28.0625 282.09808 27.890625 282.75433L26.859375 282.6137Q27.0 281.95746 27.328125 281.5512Q27.65625 281.14496 28.265625 280.9262Q28.875 280.70746 29.671875 280.70746Q30.46875 280.70746 30.96875 280.89496Q31.46875 281.08246 31.703125 281.3637Q31.9375 281.64496 32.03125 282.08246Q32.078125 282.34808 32.078125 283.0512L32.078125 284.45746Q32.078125 285.9262 32.140625 286.31683Q32.21875 286.70746 32.421875 287.06683L31.3125 287.06683Q31.15625 286.7387 31.109375 286.3012ZM31.015625 283.94183Q30.4375 284.1762 29.296875 284.34808Q28.640625 284.44183 28.375 284.56683Q28.109375 284.6762 27.953125 284.89496Q27.8125 285.1137 27.8125 285.39496Q27.8125 285.81683 28.125 286.09808Q28.453125 286.37933 29.0625 286.37933Q29.671875 286.37933 30.140625 286.1137Q30.625 285.84808 30.84375 285.37933Q31.015625 285.01996 31.015625 284.33246L31.015625 283.94183ZM36.34375 286.12933L36.5 287.0512Q36.046875 287.14496 35.703125 287.14496Q35.125 287.14496 34.8125 286.97308Q34.5 286.78558 34.359375 286.4887Q34.234375 286.19183 34.234375 285.2387L34.234375 281.66058L33.46875 281.66058L33.46875 280.84808L34.234375 280.84808L34.234375 279.3012L35.28125 278.6762L35.28125 280.84808L36.34375 280.84808L36.34375 281.66058L35.28125 281.66058L35.28125 285.3012Q35.28125 285.75433 35.328125 285.87933Q35.390625 286.00433 35.515625 286.08246Q35.640625 286.16058 35.875 286.16058Q36.0625 286.16058 36.34375 286.12933ZM41.109375 284.78558L42.140625 284.9262Q41.96875 285.9887 41.265625 286.59808Q40.5625 287.20746 39.546875 287.20746Q38.265625 287.20746 37.484375 286.37933Q36.71875 285.53558 36.71875 283.97308Q36.71875 282.97308 37.046875 282.22308Q37.390625 281.45746 38.0625 281.08246Q38.75 280.70746 39.5625 280.70746Q40.5625 280.70746 41.203125 281.22308Q41.859375 281.72308 42.046875 282.6762L41.015625 282.83246Q40.875 282.20746 40.5 281.89496Q40.125 281.56683 39.59375 281.56683Q38.796875 281.56683 38.296875 282.14496Q37.796875 282.70746 37.796875 283.94183Q37.796875 285.20746 38.28125 285.76996Q38.765625 286.33246 39.53125 286.33246Q40.15625 286.33246 40.5625 285.95746Q40.984375 285.58246 41.109375 284.78558ZM43.046875 287.06683L43.046875 278.47308L44.09375 278.47308L44.09375 281.5512Q44.828125 280.70746 45.953125 280.70746Q46.65625 280.70746 47.15625 280.9887Q47.671875 281.25433 47.890625 281.7387Q48.109375 282.20746 48.109375 283.12933L48.109375 287.06683L47.0625 287.06683L47.0625 283.12933Q47.0625 282.33246 46.71875 281.97308Q46.375 281.6137 45.75 281.6137Q45.28125 281.6137 44.859375 281.8637Q44.453125 282.09808 44.265625 282.51996Q44.09375 282.9262 44.09375 283.66058L44.09375 287.06683L43.046875 287.06683ZM52.65625 283.95746Q52.65625 282.22308 53.609375 281.39496Q54.40625 280.70746 55.5625 280.70746Q56.84375 280.70746 57.65625 281.5512Q58.484375 282.37933 58.484375 283.8637Q58.484375 285.06683 58.125 285.75433Q57.765625 286.44183 57.0625 286.83246Q56.375 287.20746 55.5625 287.20746Q54.265625 287.20746 53.453125 286.37933Q52.65625 285.53558 52.65625 283.95746ZM53.734375 283.95746Q53.734375 285.14496 54.25 285.7387Q54.78125 286.33246 55.5625 286.33246Q56.359375 286.33246 56.875 285.7387Q57.390625 285.14496 57.390625 283.9262Q57.390625 282.76996 56.859375 282.1762Q56.34375 281.58246 55.5625 281.58246Q54.78125 281.58246 54.25 282.1762Q53.734375 282.75433 53.734375 283.95746ZM60.296875 287.06683L60.296875 281.66058L59.359375 281.66058L59.359375 280.84808L60.296875 280.84808L60.296875 280.1762Q60.296875 279.5512 60.40625 279.25433Q60.5625 278.83246 60.9375 278.58246Q61.328125 278.33246 62.015625 278.33246Q62.46875 278.33246 63.0 278.44183L62.84375 279.34808Q62.515625 279.3012 62.21875 279.3012Q61.734375 279.3012 61.53125 279.50433Q61.34375 279.70746 61.34375 280.26996L61.34375 280.84808L62.5625 280.84808L62.5625 281.66058L61.34375 281.66058L61.34375 287.06683L60.296875 287.06683ZM63.296875 287.06683L63.296875 281.66058L62.359375 281.66058L62.359375 280.84808L63.296875 280.84808L63.296875 280.1762Q63.296875 279.5512 63.40625 279.25433Q63.5625 278.83246 63.9375 278.58246Q64.328125 278.33246 65.015625 278.33246Q65.46875 278.33246 66.0 278.44183L65.84375 279.34808Q65.515625 279.3012 65.21875 279.3012Q64.734375 279.3012 64.53125 279.50433Q64.34375 279.70746 64.34375 280.26996L64.34375 280.84808L65.5625 280.84808L65.5625 281.66058L64.34375 281.66058L64.34375 287.06683L63.296875 287.06683ZM65.625 285.20746L66.65625 285.0512Q66.75 285.6762 67.140625 286.00433Q67.546875 286.33246 68.28125 286.33246Q69.0 286.33246 69.34375 286.0512Q69.703125 285.75433 69.703125 285.34808Q69.703125 284.9887 69.390625 284.78558Q69.171875 284.64496 68.3125 284.4262Q67.15625 284.12933 66.703125 283.9262Q66.265625 283.70746 66.03125 283.33246Q65.796875 282.95746 65.796875 282.4887Q65.796875 282.08246 65.984375 281.72308Q66.171875 281.3637 66.5 281.12933Q66.75 280.95746 67.171875 280.83246Q67.59375 280.70746 68.09375 280.70746Q68.8125 280.70746 69.359375 280.9262Q69.921875 281.12933 70.1875 281.4887Q70.453125 281.84808 70.546875 282.44183L69.515625 282.58246Q69.453125 282.1137 69.109375 281.84808Q68.78125 281.56683 68.15625 281.56683Q67.4375 281.56683 67.125 281.81683Q66.8125 282.0512 66.8125 282.37933Q66.8125 282.58246 66.9375 282.7387Q67.078125 282.91058 67.34375 283.01996Q67.5 283.08246 68.28125 283.28558Q69.40625 283.59808 69.84375 283.78558Q70.28125 283.97308 70.53125 284.33246Q70.78125 284.69183 70.78125 285.2387Q70.78125 285.76996 70.46875 286.2387Q70.171875 286.69183 69.59375 286.95746Q69.015625 287.20746 68.28125 287.20746Q67.0625 287.20746 66.421875 286.70746Q65.796875 286.19183 65.625 285.20746ZM77.296875 285.06683L78.390625 285.19183Q78.140625 286.14496 77.4375 286.6762Q76.734375 287.20746 75.65625 287.20746Q74.296875 287.20746 73.484375 286.3637Q72.6875 285.51996 72.6875 284.00433Q72.6875 282.44183 73.5 281.58246Q74.3125 280.70746 75.59375 280.70746Q76.84375 280.70746 77.625 281.5512Q78.421875 282.39496 78.421875 283.94183Q78.421875 284.03558 78.421875 284.22308L73.78125 284.22308Q73.84375 285.25433 74.359375 285.8012Q74.875 286.33246 75.65625 286.33246Q76.234375 286.33246 76.640625 286.03558Q77.0625 285.72308 77.296875 285.06683ZM73.84375 283.3637L77.3125 283.3637Q77.25 282.56683 76.921875 282.1762Q76.40625 281.56683 75.609375 281.56683Q74.875 281.56683 74.375 282.0512Q73.890625 282.53558 73.84375 283.3637ZM82.34375 286.12933L82.5 287.0512Q82.046875 287.14496 81.703125 287.14496Q81.125 287.14496 80.8125 286.97308Q80.5 286.78558 80.359375 286.4887Q80.234375 286.19183 80.234375 285.2387L80.234375 281.66058L79.46875 281.66058L79.46875 280.84808L80.234375 280.84808L80.234375 279.3012L81.28125 278.6762L81.28125 280.84808L82.34375 280.84808L82.34375 281.66058L81.28125 281.66058L81.28125 285.3012Q81.28125 285.75433 81.328125 285.87933Q81.390625 286.00433 81.515625 286.08246Q81.640625 286.16058 81.875 286.16058Q82.0625 286.16058 82.34375 286.12933ZM86.21875 287.06683L86.21875 278.47308L87.34375 278.47308L87.34375 282.00433L91.8125 282.00433L91.8125 278.47308L92.953125 278.47308L92.953125 287.06683L91.8125 287.06683L91.8125 283.01996L87.34375 283.01996L87.34375 287.06683L86.21875 287.06683ZM95.046875 279.69183L95.046875 278.47308L96.109375 278.47308L96.109375 279.69183L95.046875 279.69183ZM95.046875 287.06683L95.046875 280.84808L96.109375 280.84808L96.109375 287.06683L95.046875 287.06683ZM97.84375 287.58246L98.875 287.7387Q98.9375 288.20746 99.234375 288.4262Q99.625 288.72308 100.296875 288.72308Q101.03125 288.72308 101.421875 288.4262Q101.828125 288.12933 101.96875 287.6137Q102.0625 287.28558 102.046875 286.25433Q101.359375 287.06683 100.328125 287.06683Q99.046875 287.06683 98.34375 286.14496Q97.640625 285.20746 97.640625 283.9262Q97.640625 283.03558 97.953125 282.28558Q98.28125 281.51996 98.890625 281.1137Q99.5 280.70746 100.328125 280.70746Q101.4375 280.70746 102.15625 281.59808L102.15625 280.84808L103.125 280.84808L103.125 286.22308Q103.125 287.6762 102.828125 288.28558Q102.53125 288.89496 101.890625 289.2387Q101.25 289.59808 100.3125 289.59808Q99.203125 289.59808 98.515625 289.09808Q97.828125 288.59808 97.84375 287.58246ZM98.71875 283.84808Q98.71875 285.06683 99.203125 285.62933Q99.6875 286.19183 100.421875 286.19183Q101.15625 286.19183 101.640625 285.62933Q102.140625 285.06683 102.140625 283.87933Q102.140625 282.7387 101.625 282.16058Q101.125 281.58246 100.40625 281.58246Q99.703125 281.58246 99.203125 282.16058Q98.71875 282.72308 98.71875 283.84808ZM105.046875 287.06683L105.046875 278.47308L106.09375 278.47308L106.09375 281.5512Q106.828125 280.70746 107.953125 280.70746Q108.65625 280.70746 109.15625 280.9887Q109.671875 281.25433 109.890625 281.7387Q110.109375 282.20746 110.109375 283.12933L110.109375 287.06683L109.0625 287.06683L109.0625 283.12933Q109.0625 282.33246 108.71875 281.97308Q108.375 281.6137 107.75 281.6137Q107.28125 281.6137 106.859375 281.8637Q106.453125 282.09808 106.265625 282.51996Q106.09375 282.9262 106.09375 283.66058L106.09375 287.06683L105.046875 287.06683Z" fill-rule="nonzero"/><path fill="#9e9e9e" d="M23.296875 303.0512L23.296875 304.06683L17.609375 304.06683Q17.609375 303.69183 17.734375 303.33246Q17.953125 302.75433 18.421875 302.19183Q18.90625 301.62933 19.8125 300.89496Q21.21875 299.7387 21.703125 299.06683Q22.203125 298.39496 22.203125 297.8012Q22.203125 297.1762 21.75 296.75433Q21.296875 296.31683 20.578125 296.31683Q19.8125 296.31683 19.359375 296.76996Q18.90625 297.22308 18.890625 298.03558L17.8125 297.9262Q17.921875 296.70746 18.640625 296.08246Q19.375 295.44183 20.609375 295.44183Q21.84375 295.44183 22.5625 296.12933Q23.28125 296.81683 23.28125 297.83246Q23.28125 298.34808 23.0625 298.84808Q22.859375 299.33246 22.359375 299.89496Q21.875 300.44183 20.75 301.39496Q19.796875 302.19183 19.515625 302.4887Q19.25 302.76996 19.078125 303.0512L23.296875 303.0512ZM24.75 301.8012L25.8125 301.66058Q25.984375 302.5512 26.421875 302.95746Q26.859375 303.34808 27.484375 303.34808Q28.234375 303.34808 28.75 302.83246Q29.265625 302.31683 29.265625 301.5512Q29.265625 300.83246 28.78125 300.3637Q28.3125 299.87933 27.578125 299.87933Q27.28125 299.87933 26.828125 300.00433L26.953125 299.06683Q27.0625 299.08246 27.125 299.08246Q27.796875 299.08246 28.328125 298.7387Q28.875 298.37933 28.875 297.64496Q28.875 297.06683 28.484375 296.69183Q28.09375 296.3012 27.46875 296.3012Q26.859375 296.3012 26.4375 296.69183Q26.03125 297.08246 25.921875 297.84808L24.859375 297.66058Q25.046875 296.6137 25.734375 296.03558Q26.421875 295.44183 27.4375 295.44183Q28.140625 295.44183 28.734375 295.75433Q29.328125 296.0512 29.640625 296.56683Q29.953125 297.08246 29.953125 297.6762Q29.953125 298.22308 29.65625 298.69183Q29.359375 299.14496 28.78125 299.41058Q29.53125 299.58246 29.953125 300.14496Q30.375 300.69183 30.375 301.53558Q30.375 302.66058 29.546875 303.44183Q28.734375 304.22308 27.484375 304.22308Q26.359375 304.22308 25.609375 303.5512Q24.859375 302.8637 24.75 301.8012ZM32.34375 304.06683L32.34375 302.8637L33.546875 302.8637L33.546875 304.06683L32.34375 304.06683ZM40.21875 297.58246L39.171875 297.66058Q39.03125 297.03558 38.78125 296.75433Q38.34375 296.3012 37.71875 296.3012Q37.21875 296.3012 36.828125 296.58246Q36.34375 296.95746 36.046875 297.66058Q35.765625 298.34808 35.75 299.62933Q36.125 299.0512 36.671875 298.76996Q37.234375 298.4887 37.84375 298.4887Q38.890625 298.4887 39.625 299.26996Q40.375 300.0512 40.375 301.26996Q40.375 302.08246 40.015625 302.78558Q39.671875 303.47308 39.0625 303.84808Q38.453125 304.20746 37.6875 304.20746Q36.359375 304.20746 35.53125 303.2387Q34.703125 302.26996 34.703125 300.0512Q34.703125 297.5512 35.625 296.4262Q36.421875 295.44183 37.78125 295.44183Q38.796875 295.44183 39.4375 296.01996Q40.09375 296.58246 40.21875 297.58246ZM35.921875 301.28558Q35.921875 301.83246 36.140625 302.33246Q36.375 302.81683 36.78125 303.08246Q37.203125 303.34808 37.671875 303.34808Q38.328125 303.34808 38.8125 302.81683Q39.296875 302.26996 39.296875 301.34808Q39.296875 300.45746 38.8125 299.94183Q38.34375 299.4262 37.625 299.4262Q36.90625 299.4262 36.40625 299.94183Q35.921875 300.45746 35.921875 301.28558ZM41.953125 297.53558Q41.953125 296.6137 42.40625 295.97308Q42.875 295.33246 43.75 295.33246Q44.5625 295.33246 45.09375 295.91058Q45.625 296.4887 45.625 297.59808Q45.625 298.69183 45.078125 299.28558Q44.546875 299.8637 43.765625 299.8637Q42.984375 299.8637 42.46875 299.28558Q41.953125 298.70746 41.953125 297.53558ZM43.78125 296.0512Q43.390625 296.0512 43.125 296.39496Q42.875 296.7387 42.875 297.64496Q42.875 298.47308 43.125 298.81683Q43.390625 299.14496 43.78125 299.14496Q44.1875 299.14496 44.4375 298.8012Q44.703125 298.45746 44.703125 297.56683Q44.703125 296.72308 44.4375 296.39496Q44.171875 296.0512 43.78125 296.0512ZM43.78125 304.37933L48.484375 295.33246L49.34375 295.33246L44.65625 304.37933L43.78125 304.37933ZM47.5 302.0512Q47.5 301.12933 47.953125 300.4887Q48.421875 299.84808 49.3125 299.84808Q50.125 299.84808 50.65625 300.4262Q51.1875 300.9887 51.1875 302.1137Q51.1875 303.20746 50.640625 303.8012Q50.109375 304.37933 49.3125 304.37933Q48.546875 304.37933 48.015625 303.8012Q47.5 303.22308 47.5 302.0512ZM49.34375 300.56683Q48.9375 300.56683 48.671875 300.91058Q48.421875 301.25433 48.421875 302.16058Q48.421875 302.97308 48.6875 303.31683Q48.953125 303.66058 49.34375 303.66058Q49.734375 303.66058 50.0 303.31683Q50.265625 302.97308 50.265625 302.06683Q50.265625 301.2387 50.0 300.91058Q49.734375 300.56683 49.34375 300.56683Z" fill-rule="nonzero"/><path stroke="#757575" stroke-width="1.0" stroke-linecap="butt" d="M17.25 291.56683L117.25 291.56683L191.4618 291.56683" fill-rule="nonzero"/><path fill="#9e9e9e" d="M193.4618 291.56683C193.4618 290.46228 192.56638 289.56683 191.4618 289.56683C190.35722 289.56683 189.4618 290.46228 189.4618 291.56683C189.4618 292.67142 190.35722 293.56683 191.4618 293.56683C192.56638 293.56683 193.4618 292.67142 193.4618 291.56683" fill-rule="nonzero"/><path fill="#1a1a1a" d="M499.625 68.655495L499.625 60.061745L500.76562 60.061745L500.76562 67.63987L505.0 67.63987L505.0 68.655495L499.625 68.655495ZM506.54688 61.280495L506.54688 60.061745L507.60938 60.061745L507.60938 61.280495L506.54688 61.280495ZM506.54688 68.655495L506.54688 62.436745L507.60938 62.436745L507.60938 68.655495L506.54688 68.655495ZM511.84375 67.717995L512.0 68.63987Q511.54688 68.73362 511.20312 68.73362Q510.625 68.73362 510.3125 68.561745Q510.0 68.374245 509.85938 68.07737Q509.73438 67.780495 509.73438 66.82737L509.73438 63.249245L508.96875 63.249245L508.96875 62.436745L509.73438 62.436745L509.73438 60.88987L510.78125 60.26487L510.78125 62.436745L511.84375 62.436745L511.84375 63.249245L510.78125 63.249245L510.78125 66.88987Q510.78125 67.342995 510.82812 67.467995Q510.89062 67.592995 511.01562 67.67112Q511.14062 67.749245 511.375 67.749245Q511.5625 67.749245 511.84375 67.717995ZM516.7969 66.655495L517.8906 66.780495Q517.6406 67.73362 516.9375 68.26487Q516.2344 68.79612 515.15625 68.79612Q513.7969 68.79612 512.9844 67.95237Q512.1875 67.10862 512.1875 65.592995Q512.1875 64.030495 513.0 63.17112Q513.8125 62.29612 515.09375 62.29612Q516.34375 62.29612 517.125 63.13987Q517.9219 63.98362 517.9219 65.530495Q517.9219 65.624245 517.9219 65.811745L513.28125 65.811745Q513.34375 66.842995 513.8594 67.38987Q514.375 67.92112 515.15625 67.92112Q515.7344 67.92112 516.1406 67.624245Q516.5625 67.311745 516.7969 66.655495ZM513.34375 64.95237L516.8125 64.95237Q516.75 64.155495 516.4219 63.76487Q515.90625 63.155495 515.1094 63.155495Q514.375 63.155495 513.875 63.63987Q513.3906 64.124245 513.34375 64.95237ZM519.53125 68.655495L519.53125 62.436745L520.4844 62.436745L520.4844 63.374245Q520.84375 62.717995 521.1406 62.51487Q521.4531 62.29612 521.8281 62.29612Q522.3594 62.29612 522.90625 62.624245L522.5469 63.60862Q522.15625 63.374245 521.78125 63.374245Q521.4219 63.374245 521.1406 63.592995Q520.875 63.79612 520.7656 64.17112Q520.5781 64.73362 520.5781 65.38987L520.5781 68.655495L519.53125 68.655495ZM527.6094 67.88987Q527.0156 68.38987 526.46875 68.592995Q525.9375 68.79612 525.3125 68.79612Q524.28125 68.79612 523.7344 68.29612Q523.1875 67.79612 523.1875 67.01487Q523.1875 66.561745 523.3906 66.186745Q523.59375 65.79612 523.9375 65.57737Q524.28125 65.342995 524.7031 65.23362Q525.0 65.13987 525.6406 65.061745Q526.90625 64.92112 527.5156 64.70237Q527.5156 64.48362 527.5156 64.436745Q527.5156 63.780495 527.21875 63.51487Q526.8125 63.17112 526.0156 63.17112Q525.28125 63.17112 524.9219 63.436745Q524.5625 63.686745 524.3906 64.342995L523.3594 64.20237Q523.5 63.54612 523.8281 63.13987Q524.15625 62.73362 524.7656 62.51487Q525.375 62.29612 526.1719 62.29612Q526.96875 62.29612 527.46875 62.48362Q527.96875 62.67112 528.2031 62.95237Q528.4375 63.23362 528.53125 63.67112Q528.5781 63.936745 528.5781 64.63987L528.5781 66.04612Q528.5781 67.51487 528.6406 67.905495Q528.71875 68.29612 528.9219 68.655495L527.8125 68.655495Q527.65625 68.32737 527.6094 67.88987ZM527.5156 65.530495Q526.9375 65.76487 525.7969 65.936745Q525.1406 66.030495 524.875 66.155495Q524.6094 66.26487 524.4531 66.48362Q524.3125 66.70237 524.3125 66.98362Q524.3125 67.405495 524.625 67.686745Q524.9531 67.967995 525.5625 67.967995Q526.1719 67.967995 526.6406 67.70237Q527.125 67.436745 527.34375 66.967995Q527.5156 66.60862 527.5156 65.92112L527.5156 65.530495ZM530.5156 68.655495L530.5156 60.061745L531.5781 60.061745L531.5781 68.655495L530.5156 68.655495ZM533.125 66.79612L534.15625 66.63987Q534.25 67.26487 534.6406 67.592995Q535.0469 67.92112 535.78125 67.92112Q536.5 67.92112 536.84375 67.63987Q537.2031 67.342995 537.2031 66.936745Q537.2031 66.57737 536.8906 66.374245Q536.6719 66.23362 535.8125 66.01487Q534.65625 65.717995 534.2031 65.51487Q533.7656 65.29612 533.53125 64.92112Q533.2969 64.54612 533.2969 64.07737Q533.2969 63.67112 533.4844 63.311745Q533.6719 62.95237 534.0 62.717995Q534.25 62.54612 534.6719 62.42112Q535.09375 62.29612 535.59375 62.29612Q536.3125 62.29612 536.8594 62.51487Q537.4219 62.717995 537.6875 63.07737Q537.9531 63.436745 538.0469 64.030495L537.0156 64.17112Q536.9531 63.70237 536.6094 63.436745Q536.28125 63.155495 535.65625 63.155495Q534.9375 63.155495 534.625 63.405495Q534.3125 63.63987 534.3125 63.967995Q534.3125 64.17112 534.4375 64.32737Q534.5781 64.499245 534.84375 64.60862Q535.0 64.67112 535.78125 64.874245Q536.90625 65.186745 537.34375 65.374245Q537.78125 65.561745 538.03125 65.92112Q538.28125 66.280495 538.28125 66.82737Q538.28125 67.35862 537.96875 67.82737Q537.6719 68.280495 537.09375 68.54612Q536.5156 68.79612 535.78125 68.79612Q534.5625 68.79612 533.9219 68.29612Q533.2969 67.780495 533.125 66.79612Z" fill-rule="nonzero"/><path fill="#9e9e9e" d="M510.79688 84.63987L510.79688 85.655495L505.10938 85.655495Q505.10938 85.280495 505.23438 84.92112Q505.45312 84.342995 505.92188 83.780495Q506.40625 83.217995 507.3125 82.48362Q508.71875 81.32737 509.20312 80.655495Q509.70312 79.98362 509.70312 79.38987Q509.70312 78.76487 509.25 78.342995Q508.79688 77.905495 508.07812 77.905495Q507.3125 77.905495 506.85938 78.35862Q506.40625 78.811745 506.39062 79.624245L505.3125 79.51487Q505.42188 78.29612 506.14062 77.67112Q506.875 77.030495 508.10938 77.030495Q509.34375 77.030495 510.0625 77.717995Q510.78125 78.405495 510.78125 79.42112Q510.78125 79.936745 510.5625 80.436745Q510.35938 80.92112 509.85938 81.48362Q509.375 82.030495 508.25 82.98362Q507.29688 83.780495 507.01562 84.07737Q506.75 84.35862 506.57812 84.63987L510.79688 84.63987ZM517.71875 79.17112L516.6719 79.249245Q516.53125 78.624245 516.28125 78.342995Q515.84375 77.88987 515.21875 77.88987Q514.71875 77.88987 514.3281 78.17112Q513.84375 78.54612 513.5469 79.249245Q513.2656 79.936745 513.25 81.217995Q513.625 80.63987 514.1719 80.35862Q514.7344 80.07737 515.34375 80.07737Q516.3906 80.07737 517.125 80.85862Q517.875 81.63987 517.875 82.85862Q517.875 83.67112 517.5156 84.374245Q517.1719 85.061745 516.5625 85.436745Q515.9531 85.79612 515.1875 85.79612Q513.8594 85.79612 513.03125 84.82737Q512.2031 83.85862 512.2031 81.63987Q512.2031 79.13987 513.125 78.01487Q513.9219 77.030495 515.28125 77.030495Q516.2969 77.030495 516.9375 77.60862Q517.59375 78.17112 517.71875 79.17112ZM513.4219 82.874245Q513.4219 83.42112 513.6406 83.92112Q513.875 84.405495 514.28125 84.67112Q514.7031 84.936745 515.1719 84.936745Q515.8281 84.936745 516.3125 84.405495Q516.7969 83.85862 516.7969 82.936745Q516.7969 82.04612 516.3125 81.530495Q515.84375 81.01487 515.125 81.01487Q514.40625 81.01487 513.90625 81.530495Q513.4219 82.04612 513.4219 82.874245ZM519.84375 85.655495L519.84375 84.45237L521.0469 84.45237L521.0469 85.655495L519.84375 85.655495ZM522.25 83.405495L523.3594 83.311745Q523.4844 84.124245 523.9219 84.530495Q524.375 84.936745 525.0156 84.936745Q525.7656 84.936745 526.2969 84.35862Q526.8281 83.780495 526.8281 82.842995Q526.8281 81.936745 526.3125 81.42112Q525.8125 80.88987 524.9844 80.88987Q524.4844 80.88987 524.0625 81.124245Q523.65625 81.35862 523.4219 81.717995L522.4375 81.592995L523.2656 77.186745L527.5469 77.186745L527.5469 78.186745L524.1094 78.186745L523.65625 80.499245Q524.4219 79.95237 525.2656 79.95237Q526.3906 79.95237 527.15625 80.73362Q527.9375 81.51487 527.9375 82.749245Q527.9375 83.905495 527.2656 84.76487Q526.4375 85.79612 525.0156 85.79612Q523.84375 85.79612 523.09375 85.13987Q522.3594 84.48362 522.25 83.405495ZM529.4531 79.124245Q529.4531 78.20237 529.90625 77.561745Q530.375 76.92112 531.25 76.92112Q532.0625 76.92112 532.59375 77.499245Q533.125 78.07737 533.125 79.186745Q533.125 80.280495 532.5781 80.874245Q532.0469 81.45237 531.2656 81.45237Q530.4844 81.45237 529.96875 80.874245Q529.4531 80.29612 529.4531 79.124245ZM531.28125 77.63987Q530.8906 77.63987 530.625 77.98362Q530.375 78.32737 530.375 79.23362Q530.375 80.061745 530.625 80.405495Q530.8906 80.73362 531.28125 80.73362Q531.6875 80.73362 531.9375 80.38987Q532.2031 80.04612 532.2031 79.155495Q532.2031 78.311745 531.9375 77.98362Q531.6719 77.63987 531.28125 77.63987ZM531.28125 85.967995L535.9844 76.92112L536.84375 76.92112L532.15625 85.967995L531.28125 85.967995ZM535.0 83.63987Q535.0 82.717995 535.4531 82.07737Q535.9219 81.436745 536.8125 81.436745Q537.625 81.436745 538.15625 82.01487Q538.6875 82.57737 538.6875 83.70237Q538.6875 84.79612 538.1406 85.38987Q537.6094 85.967995 536.8125 85.967995Q536.0469 85.967995 535.5156 85.38987Q535.0 84.811745 535.0 83.63987ZM536.84375 82.155495Q536.4375 82.155495 536.1719 82.499245Q535.9219 82.842995 535.9219 83.749245Q535.9219 84.561745 536.1875 84.905495Q536.4531 85.249245 536.84375 85.249245Q537.2344 85.249245 537.5 84.905495Q537.7656 84.561745 537.7656 83.655495Q537.7656 82.82737 537.5 82.499245Q537.2344 82.155495 536.84375 82.155495Z" fill-rule="nonzero"/><path stroke="#757575" stroke-width="1.0" stroke-linecap="butt" d="M539.75 73.155495L439.75 73.155495L387.51022 73.155495" fill-rule="nonzero"/><path fill="#9e9e9e" d="M389.51022 73.155495C389.51022 72.05093 388.6148 71.155495 387.51022 71.155495C386.40567 71.155495 385.51022 72.05093 385.51022 73.155495C385.51022 74.26006 386.40567 75.155495 387.51022 75.155495C388.6148 75.155495 389.51022 74.26006 389.51022 73.155495" fill-rule="nonzero"/><path fill="#1a1a1a" d="M462.625 217.07457L462.625 208.48082L463.76562 208.48082L463.76562 216.05894L468.0 216.05894L468.0 217.07457L462.625 217.07457ZM469.54688 209.69957L469.54688 208.48082L470.60938 208.48082L470.60938 209.69957L469.54688 209.69957ZM469.54688 217.07457L469.54688 210.85582L470.60938 210.85582L470.60938 217.07457L469.54688 217.07457ZM474.84375 216.13707L475.0 217.05894Q474.54688 217.1527 474.20312 217.1527Q473.625 217.1527 473.3125 216.98082Q473.0 216.79332 472.85938 216.49644Q472.73438 216.19957 472.73438 215.24644L472.73438 211.66832L471.96875 211.66832L471.96875 210.85582L472.73438 210.85582L472.73438 209.30894L473.78125 208.68394L473.78125 210.85582L474.84375 210.85582L474.84375 211.66832L473.78125 211.66832L473.78125 215.30894Q473.78125 215.76207 473.82812 215.88707Q473.89062 216.01207 474.01562 216.0902Q474.14062 216.16832 474.375 216.16832Q474.5625 216.16832 474.84375 216.13707ZM479.79688 215.07457L480.89062 215.19957Q480.64062 216.1527 479.9375 216.68394Q479.23438 217.2152 478.15625 217.2152Q476.79688 217.2152 475.98438 216.37144Q475.1875 215.5277 475.1875 214.01207Q475.1875 212.44957 476.0 211.5902Q476.8125 210.7152 478.09375 210.7152Q479.34375 210.7152 480.125 211.55894Q480.92188 212.4027 480.92188 213.94957Q480.92188 214.04332 480.92188 214.23082L476.28125 214.23082Q476.34375 215.26207 476.85938 215.80894Q477.375 216.3402 478.15625 216.3402Q478.73438 216.3402 479.14062 216.04332Q479.5625 215.73082 479.79688 215.07457ZM476.34375 213.37144L479.8125 213.37144Q479.75 212.57457 479.42188 212.18394Q478.90625 211.57457 478.10938 211.57457Q477.375 211.57457 476.875 212.05894Q476.39062 212.54332 476.34375 213.37144ZM482.53125 217.07457L482.53125 210.85582L483.48438 210.85582L483.48438 211.79332Q483.84375 211.13707 484.14062 210.93394Q484.45312 210.7152 484.82812 210.7152Q485.35938 210.7152 485.90625 211.04332L485.54688 212.0277Q485.15625 211.79332 484.78125 211.79332Q484.42188 211.79332 484.14062 212.01207Q483.875 212.2152 483.76562 212.5902Q483.57812 213.1527 483.57812 213.80894L483.57812 217.07457L482.53125 217.07457ZM490.60938 216.30894Q490.01562 216.80894 489.46875 217.01207Q488.9375 217.2152 488.3125 217.2152Q487.28125 217.2152 486.73438 216.7152Q486.1875 216.2152 486.1875 215.43394Q486.1875 214.98082 486.39062 214.60582Q486.59375 214.2152 486.9375 213.99644Q487.28125 213.76207 487.70312 213.6527Q488.0 213.55894 488.64062 213.48082Q489.90625 213.3402 490.51562 213.12144Q490.51562 212.9027 490.51562 212.85582Q490.51562 212.19957 490.21875 211.93394Q489.8125 211.5902 489.01562 211.5902Q488.28125 211.5902 487.92188 211.85582Q487.5625 212.10582 487.39062 212.76207L486.35938 212.62144Q486.5 211.9652 486.82812 211.55894Q487.15625 211.1527 487.76562 210.93394Q488.375 210.7152 489.17188 210.7152Q489.96875 210.7152 490.46875 210.9027Q490.96875 211.0902 491.20312 211.37144Q491.4375 211.6527 491.53125 212.0902Q491.57812 212.35582 491.57812 213.05894L491.57812 214.4652Q491.57812 215.93394 491.64062 216.32457Q491.71875 216.7152 491.92188 217.07457L490.8125 217.07457Q490.65625 216.74644 490.60938 216.30894ZM490.51562 213.94957Q489.9375 214.18394 488.79688 214.35582Q488.14062 214.44957 487.875 214.57457Q487.60938 214.68394 487.45312 214.9027Q487.3125 215.12144 487.3125 215.4027Q487.3125 215.82457 487.625 216.10582Q487.95312 216.38707 488.5625 216.38707Q489.17188 216.38707 489.64062 216.12144Q490.125 215.85582 490.34375 215.38707Q490.51562 215.0277 490.51562 214.3402L490.51562 213.94957ZM493.51562 217.07457L493.51562 208.48082L494.57812 208.48082L494.57812 217.07457L493.51562 217.07457ZM496.125 215.2152L497.15625 215.05894Q497.25 215.68394 497.64062 216.01207Q498.04688 216.3402 498.78125 216.3402Q499.5 216.3402 499.84375 216.05894Q500.20312 215.76207 500.20312 215.35582Q500.20312 214.99644 499.89062 214.79332Q499.67188 214.6527 498.8125 214.43394Q497.65625 214.13707 497.20312 213.93394Q496.76562 213.7152 496.53125 213.3402Q496.29688 212.9652 496.29688 212.49644Q496.29688 212.0902 496.48438 211.73082Q496.67188 211.37144 497.0 211.13707Q497.25 210.9652 497.67188 210.8402Q498.09375 210.7152 498.59375 210.7152Q499.3125 210.7152 499.85938 210.93394Q500.42188 211.13707 500.6875 211.49644Q500.95312 211.85582 501.04688 212.44957L500.01562 212.5902Q499.95312 212.12144 499.60938 211.85582Q499.28125 211.57457 498.65625 211.57457Q497.9375 211.57457 497.625 211.82457Q497.3125 212.05894 497.3125 212.38707Q497.3125 212.5902 497.4375 212.74644Q497.57812 212.91832 497.84375 213.0277Q498.0 213.0902 498.78125 213.29332Q499.90625 213.60582 500.34375 213.79332Q500.78125 213.98082 501.03125 214.3402Q501.28125 214.69957 501.28125 215.24644Q501.28125 215.7777 500.96875 216.24644Q500.67188 216.69957 500.09375 216.9652Q499.51562 217.2152 498.78125 217.2152Q497.5625 217.2152 496.92188 216.7152Q496.29688 216.19957 496.125 215.2152ZM506.51562 217.07457L506.51562 208.48082L507.57812 208.48082L507.57812 217.07457L506.51562 217.07457ZM513.7969 215.07457L514.8906 215.19957Q514.6406 216.1527 513.9375 216.68394Q513.2344 217.2152 512.15625 217.2152Q510.79688 217.2152 509.98438 216.37144Q509.1875 215.5277 509.1875 214.01207Q509.1875 212.44957 510.0 211.5902Q510.8125 210.7152 512.09375 210.7152Q513.34375 210.7152 514.125 211.55894Q514.9219 212.4027 514.9219 213.94957Q514.9219 214.04332 514.9219 214.23082L510.28125 214.23082Q510.34375 215.26207 510.85938 215.80894Q511.375 216.3402 512.15625 216.3402Q512.7344 216.3402 513.1406 216.04332Q513.5625 215.73082 513.7969 215.07457ZM510.34375 213.37144L513.8125 213.37144Q513.75 212.57457 513.4219 212.18394Q512.90625 211.57457 512.1094 211.57457Q511.375 211.57457 510.875 212.05894Q510.39062 212.54332 510.34375 213.37144ZM516.5469 217.07457L516.5469 210.85582L517.4844 210.85582L517.4844 211.73082Q518.1719 210.7152 519.46875 210.7152Q520.03125 210.7152 520.5 210.91832Q520.9844 211.12144 521.21875 211.44957Q521.4531 211.7777 521.5469 212.2152Q521.59375 212.51207 521.59375 213.24644L521.59375 217.07457L520.5469 217.07457L520.5469 213.29332Q520.5469 212.63707 520.4219 212.32457Q520.2969 212.01207 519.9844 211.82457Q519.6719 211.62144 519.25 211.62144Q518.5781 211.62144 518.0781 212.05894Q517.59375 212.48082 517.59375 213.66832L517.59375 217.07457L516.5469 217.07457ZM523.34375 217.5902L524.375 217.74644Q524.4375 218.2152 524.7344 218.43394Q525.125 218.73082 525.7969 218.73082Q526.53125 218.73082 526.9219 218.43394Q527.3281 218.13707 527.46875 217.62144Q527.5625 217.29332 527.5469 216.26207Q526.8594 217.07457 525.8281 217.07457Q524.5469 217.07457 523.84375 216.1527Q523.1406 215.2152 523.1406 213.93394Q523.1406 213.04332 523.4531 212.29332Q523.78125 211.5277 524.3906 211.12144Q525.0 210.7152 525.8281 210.7152Q526.9375 210.7152 527.65625 211.60582L527.65625 210.85582L528.625 210.85582L528.625 216.23082Q528.625 217.68394 528.3281 218.29332Q528.03125 218.9027 527.3906 219.24644Q526.75 219.60582 525.8125 219.60582Q524.7031 219.60582 524.0156 219.10582Q523.3281 218.60582 523.34375 217.5902ZM524.21875 213.85582Q524.21875 215.07457 524.7031 215.63707Q525.1875 216.19957 525.9219 216.19957Q526.65625 216.19957 527.1406 215.63707Q527.6406 215.07457 527.6406 213.88707Q527.6406 212.74644 527.125 212.16832Q526.625 211.5902 525.90625 211.5902Q525.2031 211.5902 524.7031 212.16832Q524.21875 212.73082 524.21875 213.85582ZM532.84375 216.13707L533.0 217.05894Q532.5469 217.1527 532.2031 217.1527Q531.625 217.1527 531.3125 216.98082Q531.0 216.79332 530.8594 216.49644Q530.7344 216.19957 530.7344 215.24644L530.7344 211.66832L529.96875 211.66832L529.96875 210.85582L530.7344 210.85582L530.7344 209.30894L531.78125 208.68394L531.78125 210.85582L532.84375 210.85582L532.84375 211.66832L531.78125 211.66832L531.78125 215.30894Q531.78125 215.76207 531.8281 215.88707Q531.8906 216.01207 532.0156 216.0902Q532.1406 216.16832 532.375 216.16832Q532.5625 216.16832 532.84375 216.13707ZM533.5469 217.07457L533.5469 208.48082L534.59375 208.48082L534.59375 211.55894Q535.3281 210.7152 536.4531 210.7152Q537.15625 210.7152 537.65625 210.99644Q538.1719 211.26207 538.3906 211.74644Q538.6094 212.2152 538.6094 213.13707L538.6094 217.07457L537.5625 217.07457L537.5625 213.13707Q537.5625 212.3402 537.21875 211.98082Q536.875 211.62144 536.25 211.62144Q535.78125 211.62144 535.3594 211.87144Q534.9531 212.10582 534.7656 212.5277Q534.59375 212.93394 534.59375 213.66832L534.59375 217.07457L533.5469 217.07457Z" fill-rule="nonzero"/><path fill="#9e9e9e" d="M512.3125 226.60582L512.3125 225.5902L517.875 225.5902L517.875 226.41832Q517.0625 227.29332 516.25 228.74644Q515.4531 230.18394 515.0156 231.7152Q514.6875 232.79332 514.6094 234.07457L513.5156 234.07457Q513.53125 233.05894 513.90625 231.62144Q514.2969 230.18394 515.0 228.85582Q515.71875 227.5277 516.53125 226.60582L512.3125 226.60582ZM519.84375 234.07457L519.84375 232.87144L521.0469 232.87144L521.0469 234.07457L519.84375 234.07457ZM523.875 229.41832Q523.21875 229.16832 522.8906 228.73082Q522.5781 228.2777 522.5781 227.66832Q522.5781 226.73082 523.25 226.0902Q523.9375 225.44957 525.0469 225.44957Q526.1719 225.44957 526.8594 226.10582Q527.5469 226.76207 527.5469 227.69957Q527.5469 228.29332 527.2344 228.73082Q526.9219 229.16832 526.28125 229.41832Q527.0781 229.66832 527.4844 230.24644Q527.8906 230.82457 527.8906 231.62144Q527.8906 232.7152 527.1094 233.4652Q526.34375 234.2152 525.0625 234.2152Q523.7969 234.2152 523.0156 233.4652Q522.2344 232.7152 522.2344 231.5902Q522.2344 230.74644 522.65625 230.18394Q523.09375 229.62144 523.875 229.41832ZM523.65625 227.62144Q523.65625 228.23082 524.0469 228.62144Q524.4531 229.01207 525.0781 229.01207Q525.6875 229.01207 526.0781 228.63707Q526.46875 228.24644 526.46875 227.68394Q526.46875 227.10582 526.0625 226.7152Q525.65625 226.30894 525.0625 226.30894Q524.4531 226.30894 524.0469 226.69957Q523.65625 227.0902 523.65625 227.62144ZM523.3281 231.5902Q523.3281 232.04332 523.53125 232.4652Q523.75 232.88707 524.1719 233.12144Q524.59375 233.35582 525.0781 233.35582Q525.8281 233.35582 526.3125 232.87144Q526.8125 232.38707 526.8125 231.63707Q526.8125 230.87144 526.3125 230.37144Q525.8125 229.87144 525.0469 229.87144Q524.2969 229.87144 523.8125 230.37144Q523.3281 230.85582 523.3281 231.5902ZM529.4531 227.54332Q529.4531 226.62144 529.90625 225.98082Q530.375 225.3402 531.25 225.3402Q532.0625 225.3402 532.59375 225.91832Q533.125 226.49644 533.125 227.60582Q533.125 228.69957 532.5781 229.29332Q532.0469 229.87144 531.2656 229.87144Q530.4844 229.87144 529.96875 229.29332Q529.4531 228.7152 529.4531 227.54332ZM531.28125 226.05894Q530.8906 226.05894 530.625 226.4027Q530.375 226.74644 530.375 227.6527Q530.375 228.48082 530.625 228.82457Q530.8906 229.1527 531.28125 229.1527Q531.6875 229.1527 531.9375 228.80894Q532.2031 228.4652 532.2031 227.57457Q532.2031 226.73082 531.9375 226.4027Q531.6719 226.05894 531.28125 226.05894ZM531.28125 234.38707L535.9844 225.3402L536.84375 225.3402L532.15625 234.38707L531.28125 234.38707ZM535.0 232.05894Q535.0 231.13707 535.4531 230.49644Q535.9219 229.85582 536.8125 229.85582Q537.625 229.85582 538.15625 230.43394Q538.6875 230.99644 538.6875 232.12144Q538.6875 233.2152 538.1406 233.80894Q537.6094 234.38707 536.8125 234.38707Q536.0469 234.38707 535.5156 233.80894Q535.0 233.23082 535.0 232.05894ZM536.84375 230.57457Q536.4375 230.57457 536.1719 230.91832Q535.9219 231.26207 535.9219 232.16832Q535.9219 232.98082 536.1875 233.32457Q536.4531 233.66832 536.84375 233.66832Q537.2344 233.66832 537.5 233.32457Q537.7656 232.98082 537.7656 232.07457Q537.7656 231.24644 537.5 230.91832Q537.2344 230.57457 536.84375 230.57457Z" fill-rule="nonzero"/><path stroke="#757575" stroke-width="1.0" stroke-linecap="butt" d="M539.75 221.57457L439.75 221.57457L417.58362 221.57457" fill-rule="nonzero"/><path fill="#9e9e9e" d="M419.58362 221.57457C419.58362 220.47 418.68817 219.57457 417.58362 219.57457C416.47903 219.57457 415.58362 220.47 415.58362 221.57457C415.58362 222.67914 416.47903 223.57457 417.58362 223.57457C418.68817 223.57457 419.58362 222.67914 419.58362 221.57457" fill-rule="nonzero"/><path fill="#1a1a1a" d="M467.64062 293.96915L467.64062 285.3754L469.35938 285.3754L471.39062 291.45352Q471.67188 292.3129 471.79688 292.73477Q471.9375 292.26602 472.25 291.35977L474.3125 285.3754L475.84375 285.3754L475.84375 293.96915L474.75 293.96915L474.75 286.78165L472.25 293.96915L471.21875 293.96915L468.73438 286.65665L468.73438 293.96915L467.64062 293.96915ZM480.60938 293.20352Q480.01562 293.70352 479.46875 293.90665Q478.9375 294.10977 478.3125 294.10977Q477.28125 294.10977 476.73438 293.60977Q476.1875 293.10977 476.1875 292.32852Q476.1875 291.8754 476.39062 291.5004Q476.59375 291.10977 476.9375 290.89102Q477.28125 290.65665 477.70312 290.54727Q478.0 290.45352 478.64062 290.3754Q479.90625 290.23477 480.51562 290.01602Q480.51562 289.79727 480.51562 289.7504Q480.51562 289.09415 480.21875 288.82852Q479.8125 288.48477 479.01562 288.48477Q478.28125 288.48477 477.92188 288.7504Q477.5625 289.0004 477.39062 289.65665L476.35938 289.51602Q476.5 288.85977 476.82812 288.45352Q477.15625 288.04727 477.76562 287.82852Q478.375 287.60977 479.17188 287.60977Q479.96875 287.60977 480.46875 287.79727Q480.96875 287.98477 481.20312 288.26602Q481.4375 288.54727 481.53125 288.98477Q481.57812 289.2504 481.57812 289.95352L481.57812 291.35977Q481.57812 292.82852 481.64062 293.21915Q481.71875 293.60977 481.92188 293.96915L480.8125 293.96915Q480.65625 293.64102 480.60938 293.20352ZM480.51562 290.84415Q479.9375 291.07852 478.79688 291.2504Q478.14062 291.34415 477.875 291.46915Q477.60938 291.57852 477.45312 291.79727Q477.3125 292.01602 477.3125 292.29727Q477.3125 292.71915 477.625 293.0004Q477.95312 293.28165 478.5625 293.28165Q479.17188 293.28165 479.64062 293.01602Q480.125 292.7504 480.34375 292.28165Q480.51562 291.92227 480.51562 291.23477L480.51562 290.84415ZM485.84375 293.03165L486.0 293.95352Q485.54688 294.04727 485.20312 294.04727Q484.625 294.04727 484.3125 293.8754Q484.0 293.6879 483.85938 293.39102Q483.73438 293.09415 483.73438 292.14102L483.73438 288.5629L482.96875 288.5629L482.96875 287.7504L483.73438 287.7504L483.73438 286.20352L484.78125 285.57852L484.78125 287.7504L485.84375 287.7504L485.84375 288.5629L484.78125 288.5629L484.78125 292.20352Q484.78125 292.65665 484.82812 292.78165Q484.89062 292.90665 485.01562 292.98477Q485.14062 293.0629 485.375 293.0629Q485.5625 293.0629 485.84375 293.03165ZM490.60938 291.6879L491.64062 291.82852Q491.46875 292.89102 490.76562 293.5004Q490.0625 294.10977 489.04688 294.10977Q487.76562 294.10977 486.98438 293.28165Q486.21875 292.4379 486.21875 290.8754Q486.21875 289.8754 486.54688 289.1254Q486.89062 288.35977 487.5625 287.98477Q488.25 287.60977 489.0625 287.60977Q490.0625 287.60977 490.70312 288.1254Q491.35938 288.6254 491.54688 289.57852L490.51562 289.73477Q490.375 289.10977 490.0 288.79727Q489.625 288.46915 489.09375 288.46915Q488.29688 288.46915 487.79688 289.04727Q487.29688 289.60977 487.29688 290.84415Q487.29688 292.10977 487.78125 292.67227Q488.26562 293.23477 489.03125 293.23477Q489.65625 293.23477 490.0625 292.85977Q490.48438 292.48477 490.60938 291.6879ZM492.54688 293.96915L492.54688 285.3754L493.59375 285.3754L493.59375 288.45352Q494.32812 287.60977 495.45312 287.60977Q496.15625 287.60977 496.65625 287.89102Q497.17188 288.15665 497.39062 288.64102Q497.60938 289.10977 497.60938 290.03165L497.60938 293.96915L496.5625 293.96915L496.5625 290.03165Q496.5625 289.23477 496.21875 288.8754Q495.875 288.51602 495.25 288.51602Q494.78125 288.51602 494.35938 288.76602Q493.95312 289.0004 493.76562 289.42227Q493.59375 289.82852 493.59375 290.5629L493.59375 293.96915L492.54688 293.96915ZM502.625 293.96915L502.625 285.3754L503.76562 285.3754L503.76562 292.95352L508.0 292.95352L508.0 293.96915L502.625 293.96915ZM513.7969 291.96915L514.8906 292.09415Q514.6406 293.04727 513.9375 293.57852Q513.2344 294.10977 512.15625 294.10977Q510.79688 294.10977 509.98438 293.26602Q509.1875 292.42227 509.1875 290.90665Q509.1875 289.34415 510.0 288.48477Q510.8125 287.60977 512.09375 287.60977Q513.34375 287.60977 514.125 288.45352Q514.9219 289.29727 514.9219 290.84415Q514.9219 290.9379 514.9219 291.1254L510.28125 291.1254Q510.34375 292.15665 510.85938 292.70352Q511.375 293.23477 512.15625 293.23477Q512.7344 293.23477 513.1406 292.9379Q513.5625 292.6254 513.7969 291.96915ZM510.34375 290.26602L513.8125 290.26602Q513.75 289.46915 513.4219 289.07852Q512.90625 288.46915 512.1094 288.46915Q511.375 288.46915 510.875 288.95352Q510.39062 289.4379 510.34375 290.26602ZM516.5469 293.96915L516.5469 287.7504L517.4844 287.7504L517.4844 288.6254Q518.1719 287.60977 519.46875 287.60977Q520.03125 287.60977 520.5 287.8129Q520.9844 288.01602 521.21875 288.34415Q521.4531 288.67227 521.5469 289.10977Q521.59375 289.40665 521.59375 290.14102L521.59375 293.96915L520.5469 293.96915L520.5469 290.1879Q520.5469 289.53165 520.4219 289.21915Q520.2969 288.90665 519.9844 288.71915Q519.6719 288.51602 519.25 288.51602Q518.5781 288.51602 518.0781 288.95352Q517.59375 289.3754 517.59375 290.5629L517.59375 293.96915L516.5469 293.96915ZM523.34375 294.48477L524.375 294.64102Q524.4375 295.10977 524.7344 295.32852Q525.125 295.6254 525.7969 295.6254Q526.53125 295.6254 526.9219 295.32852Q527.3281 295.03165 527.46875 294.51602Q527.5625 294.1879 527.5469 293.15665Q526.8594 293.96915 525.8281 293.96915Q524.5469 293.96915 523.84375 293.04727Q523.1406 292.10977 523.1406 290.82852Q523.1406 289.9379 523.4531 289.1879Q523.78125 288.42227 524.3906 288.01602Q525.0 287.60977 525.8281 287.60977Q526.9375 287.60977 527.65625 288.5004L527.65625 287.7504L528.625 287.7504L528.625 293.1254Q528.625 294.57852 528.3281 295.1879Q528.03125 295.79727 527.3906 296.14102Q526.75 296.5004 525.8125 296.5004Q524.7031 296.5004 524.0156 296.0004Q523.3281 295.5004 523.34375 294.48477ZM524.21875 290.7504Q524.21875 291.96915 524.7031 292.53165Q525.1875 293.09415 525.9219 293.09415Q526.65625 293.09415 527.1406 292.53165Q527.6406 291.96915 527.6406 290.78165Q527.6406 289.64102 527.125 289.0629Q526.625 288.48477 525.90625 288.48477Q525.2031 288.48477 524.7031 289.0629Q524.21875 289.6254 524.21875 290.7504ZM532.84375 293.03165L533.0 293.95352Q532.5469 294.04727 532.2031 294.04727Q531.625 294.04727 531.3125 293.8754Q531.0 293.6879 530.8594 293.39102Q530.7344 293.09415 530.7344 292.14102L530.7344 288.5629L529.96875 288.5629L529.96875 287.7504L530.7344 287.7504L530.7344 286.20352L531.78125 285.57852L531.78125 287.7504L532.84375 287.7504L532.84375 288.5629L531.78125 288.5629L531.78125 292.20352Q531.78125 292.65665 531.8281 292.78165Q531.8906 292.90665 532.0156 292.98477Q532.1406 293.0629 532.375 293.0629Q532.5625 293.0629 532.84375 293.03165ZM533.5469 293.96915L533.5469 285.3754L534.59375 285.3754L534.59375 288.45352Q535.3281 287.60977 536.4531 287.60977Q537.15625 287.60977 537.65625 287.89102Q538.1719 288.15665 538.3906 288.64102Q538.6094 289.10977 538.6094 290.03165L538.6094 293.96915L537.5625 293.96915L537.5625 290.03165Q537.5625 289.23477 537.21875 288.8754Q536.875 288.51602 536.25 288.51602Q535.78125 288.51602 535.3594 288.76602Q534.9531 289.0004 534.7656 289.42227Q534.59375 289.82852 534.59375 290.5629L534.59375 293.96915L533.5469 293.96915Z" fill-rule="nonzero"/><path fill="#9e9e9e" d="M509.21875 310.96915L508.17188 310.96915L508.17188 304.2504Q507.78125 304.60977 507.15625 304.98477Q506.54688 305.34415 506.0625 305.51602L506.0625 304.5004Q506.9375 304.07852 507.59375 303.5004Q508.26562 302.90665 508.54688 302.34415L509.21875 302.34415L509.21875 310.96915ZM512.25 308.70352L513.3125 308.5629Q513.4844 309.45352 513.9219 309.85977Q514.3594 310.2504 514.9844 310.2504Q515.7344 310.2504 516.25 309.73477Q516.7656 309.21915 516.7656 308.45352Q516.7656 307.73477 516.28125 307.26602Q515.8125 306.78165 515.0781 306.78165Q514.78125 306.78165 514.3281 306.90665L514.4531 305.96915Q514.5625 305.98477 514.625 305.98477Q515.2969 305.98477 515.8281 305.64102Q516.375 305.28165 516.375 304.54727Q516.375 303.96915 515.9844 303.59415Q515.59375 303.20352 514.96875 303.20352Q514.3594 303.20352 513.9375 303.59415Q513.53125 303.98477 513.4219 304.7504L512.3594 304.5629Q512.5469 303.51602 513.2344 302.9379Q513.9219 302.34415 514.9375 302.34415Q515.6406 302.34415 516.2344 302.65665Q516.8281 302.95352 517.1406 303.46915Q517.4531 303.98477 517.4531 304.57852Q517.4531 305.1254 517.15625 305.59415Q516.8594 306.04727 516.28125 306.3129Q517.03125 306.48477 517.4531 307.04727Q517.875 307.59415 517.875 308.4379Q517.875 309.5629 517.0469 310.34415Q516.2344 311.1254 514.9844 311.1254Q513.8594 311.1254 513.1094 310.45352Q512.3594 309.76602 512.25 308.70352ZM519.84375 310.96915L519.84375 309.76602L521.0469 309.76602L521.0469 310.96915L519.84375 310.96915ZM522.40625 308.98477L523.4219 308.89102Q523.5469 309.60977 523.90625 309.9379Q524.28125 310.2504 524.84375 310.2504Q525.3281 310.2504 525.6875 310.03165Q526.0625 309.79727 526.2969 309.4379Q526.53125 309.0629 526.6875 308.4379Q526.84375 307.79727 526.84375 307.14102Q526.84375 307.0629 526.84375 306.92227Q526.53125 307.42227 525.9844 307.7504Q525.4375 308.0629 524.7969 308.0629Q523.71875 308.0629 522.9844 307.29727Q522.25 306.51602 522.25 305.2504Q522.25 303.9379 523.0156 303.14102Q523.7969 302.34415 524.9531 302.34415Q525.78125 302.34415 526.46875 302.79727Q527.1719 303.2504 527.53125 304.09415Q527.8906 304.92227 527.8906 306.5004Q527.8906 308.14102 527.53125 309.1254Q527.1875 310.09415 526.46875 310.60977Q525.7656 311.10977 524.8281 311.10977Q523.8125 311.10977 523.1719 310.5629Q522.53125 310.0004 522.40625 308.98477ZM526.71875 305.1879Q526.71875 304.28165 526.2344 303.7504Q525.7656 303.21915 525.0781 303.21915Q524.375 303.21915 523.84375 303.79727Q523.3281 304.35977 523.3281 305.28165Q523.3281 306.09415 523.8281 306.60977Q524.3281 307.1254 525.0469 307.1254Q525.78125 307.1254 526.25 306.60977Q526.71875 306.09415 526.71875 305.1879ZM529.4531 304.4379Q529.4531 303.51602 529.90625 302.8754Q530.375 302.23477 531.25 302.23477Q532.0625 302.23477 532.59375 302.8129Q533.125 303.39102 533.125 304.5004Q533.125 305.59415 532.5781 306.1879Q532.0469 306.76602 531.2656 306.76602Q530.4844 306.76602 529.96875 306.1879Q529.4531 305.60977 529.4531 304.4379ZM531.28125 302.95352Q530.8906 302.95352 530.625 303.29727Q530.375 303.64102 530.375 304.54727Q530.375 305.3754 530.625 305.71915Q530.8906 306.04727 531.28125 306.04727Q531.6875 306.04727 531.9375 305.70352Q532.2031 305.35977 532.2031 304.46915Q532.2031 303.6254 531.9375 303.29727Q531.6719 302.95352 531.28125 302.95352ZM531.28125 311.28165L535.9844 302.23477L536.84375 302.23477L532.15625 311.28165L531.28125 311.28165ZM535.0 308.95352Q535.0 308.03165 535.4531 307.39102Q535.9219 306.7504 536.8125 306.7504Q537.625 306.7504 538.15625 307.32852Q538.6875 307.89102 538.6875 309.01602Q538.6875 310.10977 538.1406 310.70352Q537.6094 311.28165 536.8125 311.28165Q536.0469 311.28165 535.5156 310.70352Q535.0 310.1254 535.0 308.95352ZM536.84375 307.46915Q536.4375 307.46915 536.1719 307.8129Q535.9219 308.15665 535.9219 309.0629Q535.9219 309.8754 536.1875 310.21915Q536.4531 310.5629 536.84375 310.5629Q537.2344 310.5629 537.5 310.21915Q537.7656 309.8754 537.7656 308.96915Q537.7656 308.14102 537.5 307.8129Q537.2344 307.46915 536.84375 307.46915Z" fill-rule="nonzero"/><path stroke="#757575" stroke-width="1.0" stroke-linecap="butt" d="M539.75 298.46915L439.75 298.46915L355.2094 298.46915" fill-rule="nonzero"/><path fill="#9e9e9e" d="M357.2094 298.46915C357.2094 297.3646 356.31396 296.46915 355.2094 296.46915C354.10483 296.46915 353.2094 297.3646 353.2094 298.46915C353.2094 299.57373 354.10483 300.46915 355.2094 300.46915C356.31396 300.46915 357.2094 299.57373 357.2094 298.46915" fill-rule="nonzero"/></svg>